G75*
%MOIN*%
%OFA0B0*%
%FSLAX25Y25*%
%IPPOS*%
%LPD*%
%AMOC8*
5,1,8,0,0,1.08239X$1,22.5*
%
%ADD10C,0.07493*%
%ADD11R,0.06312X0.07099*%
%ADD12R,0.05131X0.04737*%
%ADD13C,0.01990*%
%ADD14R,0.07099X0.07887*%
%ADD15R,0.07690X0.02375*%
%ADD16R,0.06548X0.08674*%
%ADD17R,0.10643X0.06410*%
%ADD18C,0.00400*%
%ADD19R,0.04737X0.05131*%
%ADD20R,0.03556X0.06706*%
%ADD21R,0.04737X0.03162*%
%ADD22R,0.04737X0.03950*%
%ADD23C,0.04343*%
%ADD24R,0.05524X0.02965*%
%ADD25C,0.08200*%
%ADD26C,0.03556*%
%ADD27R,0.05131X0.08674*%
%ADD28R,0.18910X0.04737*%
%ADD29R,0.14186X0.07099*%
%ADD30R,0.08674X0.05524*%
%ADD31R,0.06115X0.03162*%
%ADD32C,0.04737*%
%ADD33R,0.04737X0.07887*%
%ADD34R,0.04146X0.09461*%
%ADD35R,0.04737X0.04934*%
%ADD36R,0.01784X0.03556*%
%ADD37R,0.03556X0.01784*%
%ADD38C,0.12800*%
%ADD39C,0.05000*%
%ADD40C,0.06706*%
D10*
X0214412Y0143500D03*
X0401412Y0143500D03*
X0588412Y0143500D03*
X0588412Y0265500D03*
X0401412Y0265500D03*
X0214412Y0265500D03*
X0214412Y0387500D03*
X0401412Y0387500D03*
X0588412Y0387500D03*
D11*
X0508424Y0359500D03*
X0497400Y0359500D03*
X0483924Y0350000D03*
X0472900Y0350000D03*
X0321424Y0359500D03*
X0310400Y0359500D03*
X0296924Y0350000D03*
X0285900Y0350000D03*
X0134424Y0359500D03*
X0123400Y0359500D03*
X0109924Y0350000D03*
X0098900Y0350000D03*
X0123400Y0237500D03*
X0134424Y0237500D03*
X0109924Y0228000D03*
X0098900Y0228000D03*
X0123400Y0115500D03*
X0134424Y0115500D03*
X0109924Y0106000D03*
X0098900Y0106000D03*
X0285900Y0106000D03*
X0296924Y0106000D03*
X0310400Y0115500D03*
X0321424Y0115500D03*
X0472900Y0106000D03*
X0483924Y0106000D03*
X0497400Y0115500D03*
X0508424Y0115500D03*
X0483924Y0228000D03*
X0472900Y0228000D03*
X0497400Y0237500D03*
X0508424Y0237500D03*
X0321424Y0237500D03*
X0310400Y0237500D03*
X0296924Y0228000D03*
X0285900Y0228000D03*
D12*
X0287258Y0235000D03*
X0287258Y0241000D03*
X0280565Y0241000D03*
X0280565Y0235000D03*
X0294065Y0235000D03*
X0294065Y0241000D03*
X0300758Y0241000D03*
X0300758Y0235000D03*
X0310565Y0229000D03*
X0317258Y0229000D03*
X0333565Y0229000D03*
X0340258Y0229000D03*
X0340258Y0220500D03*
X0333565Y0220500D03*
X0333565Y0213500D03*
X0340258Y0213500D03*
X0318258Y0199500D03*
X0311565Y0199500D03*
X0311565Y0193000D03*
X0311565Y0187000D03*
X0318258Y0187000D03*
X0318258Y0193000D03*
X0318258Y0180500D03*
X0311565Y0180500D03*
X0384165Y0193500D03*
X0390858Y0193500D03*
X0340258Y0235000D03*
X0333565Y0235000D03*
X0318258Y0302500D03*
X0311565Y0302500D03*
X0311565Y0309000D03*
X0311565Y0315000D03*
X0311565Y0321500D03*
X0318258Y0321500D03*
X0318258Y0315000D03*
X0318258Y0309000D03*
X0333565Y0335500D03*
X0340258Y0335500D03*
X0340258Y0342500D03*
X0333565Y0342500D03*
X0333565Y0351000D03*
X0333565Y0357000D03*
X0340258Y0357000D03*
X0340258Y0351000D03*
X0317258Y0351000D03*
X0310565Y0351000D03*
X0300758Y0357000D03*
X0294065Y0357000D03*
X0287258Y0357000D03*
X0280565Y0357000D03*
X0280565Y0363000D03*
X0287258Y0363000D03*
X0294065Y0363000D03*
X0300758Y0363000D03*
X0384165Y0315500D03*
X0390858Y0315500D03*
X0467565Y0357000D03*
X0474258Y0357000D03*
X0481065Y0357000D03*
X0487758Y0357000D03*
X0497565Y0351000D03*
X0504258Y0351000D03*
X0520565Y0351000D03*
X0520565Y0357000D03*
X0527258Y0357000D03*
X0527258Y0351000D03*
X0527258Y0342500D03*
X0520565Y0342500D03*
X0520565Y0335500D03*
X0527258Y0335500D03*
X0505258Y0321500D03*
X0505258Y0315000D03*
X0505258Y0309000D03*
X0498565Y0309000D03*
X0498565Y0315000D03*
X0498565Y0321500D03*
X0498565Y0302500D03*
X0505258Y0302500D03*
X0571165Y0315500D03*
X0577858Y0315500D03*
X0487758Y0363000D03*
X0481065Y0363000D03*
X0474258Y0363000D03*
X0467565Y0363000D03*
X0467565Y0241000D03*
X0467565Y0235000D03*
X0474258Y0235000D03*
X0474258Y0241000D03*
X0481065Y0241000D03*
X0481065Y0235000D03*
X0487758Y0235000D03*
X0487758Y0241000D03*
X0497565Y0229000D03*
X0504258Y0229000D03*
X0520565Y0229000D03*
X0527258Y0229000D03*
X0527258Y0220500D03*
X0520565Y0220500D03*
X0520565Y0213500D03*
X0527258Y0213500D03*
X0505258Y0199500D03*
X0498565Y0199500D03*
X0498565Y0193000D03*
X0498565Y0187000D03*
X0505258Y0187000D03*
X0505258Y0193000D03*
X0505258Y0180500D03*
X0498565Y0180500D03*
X0571165Y0193500D03*
X0577858Y0193500D03*
X0527258Y0235000D03*
X0520565Y0235000D03*
X0487758Y0119000D03*
X0487758Y0113000D03*
X0481065Y0113000D03*
X0481065Y0119000D03*
X0474258Y0119000D03*
X0474258Y0113000D03*
X0467565Y0113000D03*
X0467565Y0119000D03*
X0497565Y0107000D03*
X0504258Y0107000D03*
X0520565Y0107000D03*
X0520565Y0113000D03*
X0527258Y0113000D03*
X0527258Y0107000D03*
X0527258Y0098500D03*
X0520565Y0098500D03*
X0520565Y0091500D03*
X0527258Y0091500D03*
X0505258Y0077500D03*
X0505258Y0071000D03*
X0498565Y0071000D03*
X0498565Y0077500D03*
X0498565Y0065000D03*
X0498565Y0058500D03*
X0505258Y0058500D03*
X0505258Y0065000D03*
X0571165Y0071500D03*
X0577858Y0071500D03*
X0390858Y0071500D03*
X0384165Y0071500D03*
X0340258Y0091500D03*
X0333565Y0091500D03*
X0333565Y0098500D03*
X0340258Y0098500D03*
X0340258Y0107000D03*
X0340258Y0113000D03*
X0333565Y0113000D03*
X0333565Y0107000D03*
X0317258Y0107000D03*
X0310565Y0107000D03*
X0300758Y0113000D03*
X0300758Y0119000D03*
X0294065Y0119000D03*
X0294065Y0113000D03*
X0287258Y0113000D03*
X0287258Y0119000D03*
X0280565Y0119000D03*
X0280565Y0113000D03*
X0311565Y0077500D03*
X0311565Y0071000D03*
X0318258Y0071000D03*
X0318258Y0077500D03*
X0318258Y0065000D03*
X0318258Y0058500D03*
X0311565Y0058500D03*
X0311565Y0065000D03*
X0203858Y0071500D03*
X0197165Y0071500D03*
X0153258Y0091500D03*
X0146565Y0091500D03*
X0146565Y0098500D03*
X0153258Y0098500D03*
X0153258Y0107000D03*
X0153258Y0113000D03*
X0146565Y0113000D03*
X0146565Y0107000D03*
X0130258Y0107000D03*
X0123565Y0107000D03*
X0113758Y0113000D03*
X0113758Y0119000D03*
X0107065Y0119000D03*
X0107065Y0113000D03*
X0100258Y0113000D03*
X0100258Y0119000D03*
X0093565Y0119000D03*
X0093565Y0113000D03*
X0124565Y0077500D03*
X0124565Y0071000D03*
X0131258Y0071000D03*
X0131258Y0077500D03*
X0131258Y0065000D03*
X0131258Y0058500D03*
X0124565Y0058500D03*
X0124565Y0065000D03*
X0124565Y0180500D03*
X0131258Y0180500D03*
X0131258Y0187000D03*
X0131258Y0193000D03*
X0124565Y0193000D03*
X0124565Y0187000D03*
X0124565Y0199500D03*
X0131258Y0199500D03*
X0146565Y0213500D03*
X0153258Y0213500D03*
X0153258Y0220500D03*
X0146565Y0220500D03*
X0146565Y0229000D03*
X0153258Y0229000D03*
X0153258Y0235000D03*
X0146565Y0235000D03*
X0130258Y0229000D03*
X0123565Y0229000D03*
X0113758Y0235000D03*
X0113758Y0241000D03*
X0107065Y0241000D03*
X0107065Y0235000D03*
X0100258Y0235000D03*
X0100258Y0241000D03*
X0093565Y0241000D03*
X0093565Y0235000D03*
X0124565Y0302500D03*
X0131258Y0302500D03*
X0131258Y0309000D03*
X0131258Y0315000D03*
X0131258Y0321500D03*
X0124565Y0321500D03*
X0124565Y0315000D03*
X0124565Y0309000D03*
X0146565Y0335500D03*
X0153258Y0335500D03*
X0153258Y0342500D03*
X0146565Y0342500D03*
X0146565Y0351000D03*
X0146565Y0357000D03*
X0153258Y0357000D03*
X0153258Y0351000D03*
X0130258Y0351000D03*
X0123565Y0351000D03*
X0113758Y0357000D03*
X0107065Y0357000D03*
X0100258Y0357000D03*
X0093565Y0357000D03*
X0093565Y0363000D03*
X0100258Y0363000D03*
X0107065Y0363000D03*
X0113758Y0363000D03*
X0197165Y0315500D03*
X0203858Y0315500D03*
X0203858Y0193500D03*
X0197165Y0193500D03*
D13*
X0142992Y0194373D02*
X0142992Y0191627D01*
X0142992Y0194373D02*
X0145738Y0194373D01*
X0145738Y0191627D01*
X0142992Y0191627D01*
X0142992Y0193517D02*
X0145738Y0193517D01*
X0145738Y0188373D02*
X0145738Y0185627D01*
X0142992Y0185627D01*
X0142992Y0188373D01*
X0145738Y0188373D01*
X0145738Y0187517D02*
X0142992Y0187517D01*
X0138832Y0188373D02*
X0138832Y0185627D01*
X0136086Y0185627D01*
X0136086Y0188373D01*
X0138832Y0188373D01*
X0138832Y0187517D02*
X0136086Y0187517D01*
X0136086Y0191627D02*
X0136086Y0194373D01*
X0138832Y0194373D01*
X0138832Y0191627D01*
X0136086Y0191627D01*
X0136086Y0193517D02*
X0138832Y0193517D01*
X0138832Y0198127D02*
X0138832Y0200873D01*
X0138832Y0198127D02*
X0136086Y0198127D01*
X0136086Y0200873D01*
X0138832Y0200873D01*
X0138832Y0200017D02*
X0136086Y0200017D01*
X0138832Y0204627D02*
X0138832Y0207373D01*
X0138832Y0204627D02*
X0136086Y0204627D01*
X0136086Y0207373D01*
X0138832Y0207373D01*
X0138832Y0206517D02*
X0136086Y0206517D01*
X0145738Y0207373D02*
X0145738Y0204627D01*
X0142992Y0204627D01*
X0142992Y0207373D01*
X0145738Y0207373D01*
X0145738Y0206517D02*
X0142992Y0206517D01*
X0145738Y0200873D02*
X0145738Y0198127D01*
X0142992Y0198127D01*
X0142992Y0200873D01*
X0145738Y0200873D01*
X0145738Y0200017D02*
X0142992Y0200017D01*
X0145738Y0181873D02*
X0145738Y0179127D01*
X0142992Y0179127D01*
X0142992Y0181873D01*
X0145738Y0181873D01*
X0145738Y0181017D02*
X0142992Y0181017D01*
X0138832Y0181873D02*
X0138832Y0179127D01*
X0136086Y0179127D01*
X0136086Y0181873D01*
X0138832Y0181873D01*
X0138832Y0181017D02*
X0136086Y0181017D01*
X0138832Y0085373D02*
X0138832Y0082627D01*
X0136086Y0082627D01*
X0136086Y0085373D01*
X0138832Y0085373D01*
X0138832Y0084517D02*
X0136086Y0084517D01*
X0145738Y0085373D02*
X0145738Y0082627D01*
X0142992Y0082627D01*
X0142992Y0085373D01*
X0145738Y0085373D01*
X0145738Y0084517D02*
X0142992Y0084517D01*
X0145738Y0078873D02*
X0145738Y0076127D01*
X0142992Y0076127D01*
X0142992Y0078873D01*
X0145738Y0078873D01*
X0145738Y0078017D02*
X0142992Y0078017D01*
X0138832Y0078873D02*
X0138832Y0076127D01*
X0136086Y0076127D01*
X0136086Y0078873D01*
X0138832Y0078873D01*
X0138832Y0078017D02*
X0136086Y0078017D01*
X0136086Y0072373D02*
X0136086Y0069627D01*
X0136086Y0072373D02*
X0138832Y0072373D01*
X0138832Y0069627D01*
X0136086Y0069627D01*
X0136086Y0071517D02*
X0138832Y0071517D01*
X0142992Y0072373D02*
X0142992Y0069627D01*
X0142992Y0072373D02*
X0145738Y0072373D01*
X0145738Y0069627D01*
X0142992Y0069627D01*
X0142992Y0071517D02*
X0145738Y0071517D01*
X0145738Y0066373D02*
X0145738Y0063627D01*
X0142992Y0063627D01*
X0142992Y0066373D01*
X0145738Y0066373D01*
X0145738Y0065517D02*
X0142992Y0065517D01*
X0138832Y0066373D02*
X0138832Y0063627D01*
X0136086Y0063627D01*
X0136086Y0066373D01*
X0138832Y0066373D01*
X0138832Y0065517D02*
X0136086Y0065517D01*
X0138832Y0059873D02*
X0138832Y0057127D01*
X0136086Y0057127D01*
X0136086Y0059873D01*
X0138832Y0059873D01*
X0138832Y0059017D02*
X0136086Y0059017D01*
X0145738Y0059873D02*
X0145738Y0057127D01*
X0142992Y0057127D01*
X0142992Y0059873D01*
X0145738Y0059873D01*
X0145738Y0059017D02*
X0142992Y0059017D01*
X0325832Y0059873D02*
X0325832Y0057127D01*
X0323086Y0057127D01*
X0323086Y0059873D01*
X0325832Y0059873D01*
X0325832Y0059017D02*
X0323086Y0059017D01*
X0325832Y0063627D02*
X0325832Y0066373D01*
X0325832Y0063627D02*
X0323086Y0063627D01*
X0323086Y0066373D01*
X0325832Y0066373D01*
X0325832Y0065517D02*
X0323086Y0065517D01*
X0332738Y0066373D02*
X0332738Y0063627D01*
X0329992Y0063627D01*
X0329992Y0066373D01*
X0332738Y0066373D01*
X0332738Y0065517D02*
X0329992Y0065517D01*
X0332738Y0059873D02*
X0332738Y0057127D01*
X0329992Y0057127D01*
X0329992Y0059873D01*
X0332738Y0059873D01*
X0332738Y0059017D02*
X0329992Y0059017D01*
X0329992Y0069627D02*
X0329992Y0072373D01*
X0332738Y0072373D01*
X0332738Y0069627D01*
X0329992Y0069627D01*
X0329992Y0071517D02*
X0332738Y0071517D01*
X0332738Y0076127D02*
X0332738Y0078873D01*
X0332738Y0076127D02*
X0329992Y0076127D01*
X0329992Y0078873D01*
X0332738Y0078873D01*
X0332738Y0078017D02*
X0329992Y0078017D01*
X0325832Y0078873D02*
X0325832Y0076127D01*
X0323086Y0076127D01*
X0323086Y0078873D01*
X0325832Y0078873D01*
X0325832Y0078017D02*
X0323086Y0078017D01*
X0323086Y0072373D02*
X0323086Y0069627D01*
X0323086Y0072373D02*
X0325832Y0072373D01*
X0325832Y0069627D01*
X0323086Y0069627D01*
X0323086Y0071517D02*
X0325832Y0071517D01*
X0325832Y0082627D02*
X0325832Y0085373D01*
X0325832Y0082627D02*
X0323086Y0082627D01*
X0323086Y0085373D01*
X0325832Y0085373D01*
X0325832Y0084517D02*
X0323086Y0084517D01*
X0332738Y0085373D02*
X0332738Y0082627D01*
X0329992Y0082627D01*
X0329992Y0085373D01*
X0332738Y0085373D01*
X0332738Y0084517D02*
X0329992Y0084517D01*
X0332738Y0179127D02*
X0332738Y0181873D01*
X0332738Y0179127D02*
X0329992Y0179127D01*
X0329992Y0181873D01*
X0332738Y0181873D01*
X0332738Y0181017D02*
X0329992Y0181017D01*
X0325832Y0181873D02*
X0325832Y0179127D01*
X0323086Y0179127D01*
X0323086Y0181873D01*
X0325832Y0181873D01*
X0325832Y0181017D02*
X0323086Y0181017D01*
X0325832Y0185627D02*
X0325832Y0188373D01*
X0325832Y0185627D02*
X0323086Y0185627D01*
X0323086Y0188373D01*
X0325832Y0188373D01*
X0325832Y0187517D02*
X0323086Y0187517D01*
X0323086Y0191627D02*
X0323086Y0194373D01*
X0325832Y0194373D01*
X0325832Y0191627D01*
X0323086Y0191627D01*
X0323086Y0193517D02*
X0325832Y0193517D01*
X0329992Y0194373D02*
X0329992Y0191627D01*
X0329992Y0194373D02*
X0332738Y0194373D01*
X0332738Y0191627D01*
X0329992Y0191627D01*
X0329992Y0193517D02*
X0332738Y0193517D01*
X0332738Y0188373D02*
X0332738Y0185627D01*
X0329992Y0185627D01*
X0329992Y0188373D01*
X0332738Y0188373D01*
X0332738Y0187517D02*
X0329992Y0187517D01*
X0332738Y0198127D02*
X0332738Y0200873D01*
X0332738Y0198127D02*
X0329992Y0198127D01*
X0329992Y0200873D01*
X0332738Y0200873D01*
X0332738Y0200017D02*
X0329992Y0200017D01*
X0325832Y0200873D02*
X0325832Y0198127D01*
X0323086Y0198127D01*
X0323086Y0200873D01*
X0325832Y0200873D01*
X0325832Y0200017D02*
X0323086Y0200017D01*
X0325832Y0204627D02*
X0325832Y0207373D01*
X0325832Y0204627D02*
X0323086Y0204627D01*
X0323086Y0207373D01*
X0325832Y0207373D01*
X0325832Y0206517D02*
X0323086Y0206517D01*
X0332738Y0207373D02*
X0332738Y0204627D01*
X0329992Y0204627D01*
X0329992Y0207373D01*
X0332738Y0207373D01*
X0332738Y0206517D02*
X0329992Y0206517D01*
X0332738Y0301127D02*
X0332738Y0303873D01*
X0332738Y0301127D02*
X0329992Y0301127D01*
X0329992Y0303873D01*
X0332738Y0303873D01*
X0332738Y0303017D02*
X0329992Y0303017D01*
X0325832Y0303873D02*
X0325832Y0301127D01*
X0323086Y0301127D01*
X0323086Y0303873D01*
X0325832Y0303873D01*
X0325832Y0303017D02*
X0323086Y0303017D01*
X0325832Y0307627D02*
X0325832Y0310373D01*
X0325832Y0307627D02*
X0323086Y0307627D01*
X0323086Y0310373D01*
X0325832Y0310373D01*
X0325832Y0309517D02*
X0323086Y0309517D01*
X0323086Y0313627D02*
X0323086Y0316373D01*
X0325832Y0316373D01*
X0325832Y0313627D01*
X0323086Y0313627D01*
X0323086Y0315517D02*
X0325832Y0315517D01*
X0329992Y0316373D02*
X0329992Y0313627D01*
X0329992Y0316373D02*
X0332738Y0316373D01*
X0332738Y0313627D01*
X0329992Y0313627D01*
X0329992Y0315517D02*
X0332738Y0315517D01*
X0332738Y0320127D02*
X0332738Y0322873D01*
X0332738Y0320127D02*
X0329992Y0320127D01*
X0329992Y0322873D01*
X0332738Y0322873D01*
X0332738Y0322017D02*
X0329992Y0322017D01*
X0325832Y0322873D02*
X0325832Y0320127D01*
X0323086Y0320127D01*
X0323086Y0322873D01*
X0325832Y0322873D01*
X0325832Y0322017D02*
X0323086Y0322017D01*
X0325832Y0326627D02*
X0325832Y0329373D01*
X0325832Y0326627D02*
X0323086Y0326627D01*
X0323086Y0329373D01*
X0325832Y0329373D01*
X0325832Y0328517D02*
X0323086Y0328517D01*
X0332738Y0329373D02*
X0332738Y0326627D01*
X0329992Y0326627D01*
X0329992Y0329373D01*
X0332738Y0329373D01*
X0332738Y0328517D02*
X0329992Y0328517D01*
X0332738Y0310373D02*
X0332738Y0307627D01*
X0329992Y0307627D01*
X0329992Y0310373D01*
X0332738Y0310373D01*
X0332738Y0309517D02*
X0329992Y0309517D01*
X0512832Y0310373D02*
X0512832Y0307627D01*
X0510086Y0307627D01*
X0510086Y0310373D01*
X0512832Y0310373D01*
X0512832Y0309517D02*
X0510086Y0309517D01*
X0510086Y0313627D02*
X0510086Y0316373D01*
X0512832Y0316373D01*
X0512832Y0313627D01*
X0510086Y0313627D01*
X0510086Y0315517D02*
X0512832Y0315517D01*
X0516992Y0316373D02*
X0516992Y0313627D01*
X0516992Y0316373D02*
X0519738Y0316373D01*
X0519738Y0313627D01*
X0516992Y0313627D01*
X0516992Y0315517D02*
X0519738Y0315517D01*
X0519738Y0320127D02*
X0519738Y0322873D01*
X0519738Y0320127D02*
X0516992Y0320127D01*
X0516992Y0322873D01*
X0519738Y0322873D01*
X0519738Y0322017D02*
X0516992Y0322017D01*
X0512832Y0322873D02*
X0512832Y0320127D01*
X0510086Y0320127D01*
X0510086Y0322873D01*
X0512832Y0322873D01*
X0512832Y0322017D02*
X0510086Y0322017D01*
X0512832Y0326627D02*
X0512832Y0329373D01*
X0512832Y0326627D02*
X0510086Y0326627D01*
X0510086Y0329373D01*
X0512832Y0329373D01*
X0512832Y0328517D02*
X0510086Y0328517D01*
X0519738Y0329373D02*
X0519738Y0326627D01*
X0516992Y0326627D01*
X0516992Y0329373D01*
X0519738Y0329373D01*
X0519738Y0328517D02*
X0516992Y0328517D01*
X0519738Y0310373D02*
X0519738Y0307627D01*
X0516992Y0307627D01*
X0516992Y0310373D01*
X0519738Y0310373D01*
X0519738Y0309517D02*
X0516992Y0309517D01*
X0519738Y0303873D02*
X0519738Y0301127D01*
X0516992Y0301127D01*
X0516992Y0303873D01*
X0519738Y0303873D01*
X0519738Y0303017D02*
X0516992Y0303017D01*
X0512832Y0303873D02*
X0512832Y0301127D01*
X0510086Y0301127D01*
X0510086Y0303873D01*
X0512832Y0303873D01*
X0512832Y0303017D02*
X0510086Y0303017D01*
X0512832Y0207373D02*
X0512832Y0204627D01*
X0510086Y0204627D01*
X0510086Y0207373D01*
X0512832Y0207373D01*
X0512832Y0206517D02*
X0510086Y0206517D01*
X0512832Y0200873D02*
X0512832Y0198127D01*
X0510086Y0198127D01*
X0510086Y0200873D01*
X0512832Y0200873D01*
X0512832Y0200017D02*
X0510086Y0200017D01*
X0519738Y0200873D02*
X0519738Y0198127D01*
X0516992Y0198127D01*
X0516992Y0200873D01*
X0519738Y0200873D01*
X0519738Y0200017D02*
X0516992Y0200017D01*
X0519738Y0204627D02*
X0519738Y0207373D01*
X0519738Y0204627D02*
X0516992Y0204627D01*
X0516992Y0207373D01*
X0519738Y0207373D01*
X0519738Y0206517D02*
X0516992Y0206517D01*
X0516992Y0194373D02*
X0516992Y0191627D01*
X0516992Y0194373D02*
X0519738Y0194373D01*
X0519738Y0191627D01*
X0516992Y0191627D01*
X0516992Y0193517D02*
X0519738Y0193517D01*
X0519738Y0188373D02*
X0519738Y0185627D01*
X0516992Y0185627D01*
X0516992Y0188373D01*
X0519738Y0188373D01*
X0519738Y0187517D02*
X0516992Y0187517D01*
X0512832Y0188373D02*
X0512832Y0185627D01*
X0510086Y0185627D01*
X0510086Y0188373D01*
X0512832Y0188373D01*
X0512832Y0187517D02*
X0510086Y0187517D01*
X0510086Y0191627D02*
X0510086Y0194373D01*
X0512832Y0194373D01*
X0512832Y0191627D01*
X0510086Y0191627D01*
X0510086Y0193517D02*
X0512832Y0193517D01*
X0512832Y0181873D02*
X0512832Y0179127D01*
X0510086Y0179127D01*
X0510086Y0181873D01*
X0512832Y0181873D01*
X0512832Y0181017D02*
X0510086Y0181017D01*
X0519738Y0181873D02*
X0519738Y0179127D01*
X0516992Y0179127D01*
X0516992Y0181873D01*
X0519738Y0181873D01*
X0519738Y0181017D02*
X0516992Y0181017D01*
X0519738Y0085373D02*
X0519738Y0082627D01*
X0516992Y0082627D01*
X0516992Y0085373D01*
X0519738Y0085373D01*
X0519738Y0084517D02*
X0516992Y0084517D01*
X0512832Y0085373D02*
X0512832Y0082627D01*
X0510086Y0082627D01*
X0510086Y0085373D01*
X0512832Y0085373D01*
X0512832Y0084517D02*
X0510086Y0084517D01*
X0512832Y0078873D02*
X0512832Y0076127D01*
X0510086Y0076127D01*
X0510086Y0078873D01*
X0512832Y0078873D01*
X0512832Y0078017D02*
X0510086Y0078017D01*
X0510086Y0072373D02*
X0510086Y0069627D01*
X0510086Y0072373D02*
X0512832Y0072373D01*
X0512832Y0069627D01*
X0510086Y0069627D01*
X0510086Y0071517D02*
X0512832Y0071517D01*
X0516992Y0072373D02*
X0516992Y0069627D01*
X0516992Y0072373D02*
X0519738Y0072373D01*
X0519738Y0069627D01*
X0516992Y0069627D01*
X0516992Y0071517D02*
X0519738Y0071517D01*
X0519738Y0076127D02*
X0519738Y0078873D01*
X0519738Y0076127D02*
X0516992Y0076127D01*
X0516992Y0078873D01*
X0519738Y0078873D01*
X0519738Y0078017D02*
X0516992Y0078017D01*
X0519738Y0066373D02*
X0519738Y0063627D01*
X0516992Y0063627D01*
X0516992Y0066373D01*
X0519738Y0066373D01*
X0519738Y0065517D02*
X0516992Y0065517D01*
X0512832Y0066373D02*
X0512832Y0063627D01*
X0510086Y0063627D01*
X0510086Y0066373D01*
X0512832Y0066373D01*
X0512832Y0065517D02*
X0510086Y0065517D01*
X0512832Y0059873D02*
X0512832Y0057127D01*
X0510086Y0057127D01*
X0510086Y0059873D01*
X0512832Y0059873D01*
X0512832Y0059017D02*
X0510086Y0059017D01*
X0519738Y0059873D02*
X0519738Y0057127D01*
X0516992Y0057127D01*
X0516992Y0059873D01*
X0519738Y0059873D01*
X0519738Y0059017D02*
X0516992Y0059017D01*
X0145738Y0301127D02*
X0145738Y0303873D01*
X0145738Y0301127D02*
X0142992Y0301127D01*
X0142992Y0303873D01*
X0145738Y0303873D01*
X0145738Y0303017D02*
X0142992Y0303017D01*
X0138832Y0303873D02*
X0138832Y0301127D01*
X0136086Y0301127D01*
X0136086Y0303873D01*
X0138832Y0303873D01*
X0138832Y0303017D02*
X0136086Y0303017D01*
X0138832Y0307627D02*
X0138832Y0310373D01*
X0138832Y0307627D02*
X0136086Y0307627D01*
X0136086Y0310373D01*
X0138832Y0310373D01*
X0138832Y0309517D02*
X0136086Y0309517D01*
X0136086Y0313627D02*
X0136086Y0316373D01*
X0138832Y0316373D01*
X0138832Y0313627D01*
X0136086Y0313627D01*
X0136086Y0315517D02*
X0138832Y0315517D01*
X0142992Y0316373D02*
X0142992Y0313627D01*
X0142992Y0316373D02*
X0145738Y0316373D01*
X0145738Y0313627D01*
X0142992Y0313627D01*
X0142992Y0315517D02*
X0145738Y0315517D01*
X0145738Y0320127D02*
X0145738Y0322873D01*
X0145738Y0320127D02*
X0142992Y0320127D01*
X0142992Y0322873D01*
X0145738Y0322873D01*
X0145738Y0322017D02*
X0142992Y0322017D01*
X0138832Y0322873D02*
X0138832Y0320127D01*
X0136086Y0320127D01*
X0136086Y0322873D01*
X0138832Y0322873D01*
X0138832Y0322017D02*
X0136086Y0322017D01*
X0138832Y0326627D02*
X0138832Y0329373D01*
X0138832Y0326627D02*
X0136086Y0326627D01*
X0136086Y0329373D01*
X0138832Y0329373D01*
X0138832Y0328517D02*
X0136086Y0328517D01*
X0145738Y0329373D02*
X0145738Y0326627D01*
X0142992Y0326627D01*
X0142992Y0329373D01*
X0145738Y0329373D01*
X0145738Y0328517D02*
X0142992Y0328517D01*
X0145738Y0310373D02*
X0145738Y0307627D01*
X0142992Y0307627D01*
X0142992Y0310373D01*
X0145738Y0310373D01*
X0145738Y0309517D02*
X0142992Y0309517D01*
D14*
X0114924Y0302500D03*
X0103900Y0302500D03*
X0290900Y0302500D03*
X0301924Y0302500D03*
X0477900Y0302500D03*
X0488924Y0302500D03*
X0488924Y0180500D03*
X0477900Y0180500D03*
X0301924Y0180500D03*
X0290900Y0180500D03*
X0114924Y0180500D03*
X0103900Y0180500D03*
X0103900Y0058500D03*
X0114924Y0058500D03*
X0290900Y0058500D03*
X0301924Y0058500D03*
X0477900Y0058500D03*
X0488924Y0058500D03*
D15*
X0453912Y0103382D03*
X0453912Y0105941D03*
X0453912Y0108500D03*
X0453912Y0111059D03*
X0453912Y0113618D03*
X0453912Y0225382D03*
X0453912Y0227941D03*
X0453912Y0230500D03*
X0453912Y0233059D03*
X0453912Y0235618D03*
X0453912Y0347382D03*
X0453912Y0349941D03*
X0453912Y0352500D03*
X0453912Y0355059D03*
X0453912Y0357618D03*
X0266912Y0357618D03*
X0266912Y0355059D03*
X0266912Y0352500D03*
X0266912Y0349941D03*
X0266912Y0347382D03*
X0266912Y0235618D03*
X0266912Y0233059D03*
X0266912Y0230500D03*
X0266912Y0227941D03*
X0266912Y0225382D03*
X0266912Y0113618D03*
X0266912Y0111059D03*
X0266912Y0108500D03*
X0266912Y0105941D03*
X0266912Y0103382D03*
X0079912Y0103382D03*
X0079912Y0105941D03*
X0079912Y0108500D03*
X0079912Y0111059D03*
X0079912Y0113618D03*
X0079912Y0225382D03*
X0079912Y0227941D03*
X0079912Y0230500D03*
X0079912Y0233059D03*
X0079912Y0235618D03*
X0079912Y0347382D03*
X0079912Y0349941D03*
X0079912Y0352500D03*
X0079912Y0355059D03*
X0079912Y0357618D03*
D16*
X0080994Y0363917D03*
X0080994Y0341083D03*
X0080994Y0241917D03*
X0080994Y0219083D03*
X0080994Y0119917D03*
X0080994Y0097083D03*
X0267994Y0097083D03*
X0267994Y0119917D03*
X0267994Y0219083D03*
X0267994Y0241917D03*
X0267994Y0341083D03*
X0267994Y0363917D03*
X0454994Y0363917D03*
X0454994Y0341083D03*
X0454994Y0241917D03*
X0454994Y0219083D03*
X0454994Y0119917D03*
X0454994Y0097083D03*
D17*
X0443380Y0104711D03*
X0443380Y0112289D03*
X0443380Y0226711D03*
X0443380Y0234289D03*
X0443380Y0348711D03*
X0443380Y0356289D03*
X0256380Y0356289D03*
X0256380Y0348711D03*
X0256380Y0234289D03*
X0256380Y0226711D03*
X0256380Y0112289D03*
X0256380Y0104711D03*
X0069380Y0104711D03*
X0069380Y0112289D03*
X0069380Y0226711D03*
X0069380Y0234289D03*
X0069380Y0348711D03*
X0069380Y0356289D03*
D18*
X0067215Y0360374D02*
X0066903Y0360365D01*
X0066598Y0360425D01*
X0066313Y0360552D01*
X0066064Y0360739D01*
X0065862Y0360977D01*
X0065719Y0361253D01*
X0065640Y0361555D01*
X0065640Y0364311D01*
X0065680Y0364661D01*
X0065796Y0364994D01*
X0065984Y0365293D01*
X0066233Y0365542D01*
X0066532Y0365730D01*
X0066865Y0365846D01*
X0067215Y0365886D01*
X0074302Y0365886D01*
X0074302Y0367461D01*
X0077451Y0367461D01*
X0077451Y0360374D01*
X0067215Y0360374D01*
X0066519Y0360460D02*
X0077451Y0360460D01*
X0077451Y0360858D02*
X0065962Y0360858D01*
X0065718Y0361257D02*
X0077451Y0361257D01*
X0077451Y0361655D02*
X0065640Y0361655D01*
X0065640Y0362054D02*
X0077451Y0362054D01*
X0077451Y0362452D02*
X0065640Y0362452D01*
X0065640Y0362851D02*
X0077451Y0362851D01*
X0077451Y0363250D02*
X0065640Y0363250D01*
X0065640Y0363648D02*
X0077451Y0363648D01*
X0077451Y0364047D02*
X0065640Y0364047D01*
X0065655Y0364445D02*
X0077451Y0364445D01*
X0077451Y0364844D02*
X0065743Y0364844D01*
X0065952Y0365242D02*
X0077451Y0365242D01*
X0077451Y0365641D02*
X0066390Y0365641D01*
X0074302Y0366039D02*
X0077451Y0366039D01*
X0077451Y0366438D02*
X0074302Y0366438D01*
X0074302Y0366836D02*
X0077451Y0366836D01*
X0077451Y0367235D02*
X0074302Y0367235D01*
X0077451Y0344626D02*
X0066821Y0344626D01*
X0066558Y0344596D01*
X0066309Y0344509D01*
X0066085Y0344368D01*
X0065898Y0344181D01*
X0065757Y0343957D01*
X0065670Y0343708D01*
X0065640Y0343445D01*
X0065640Y0340295D01*
X0065631Y0339984D01*
X0065691Y0339678D01*
X0065818Y0339393D01*
X0066005Y0339144D01*
X0066243Y0338942D01*
X0066520Y0338799D01*
X0066821Y0338720D01*
X0074302Y0338720D01*
X0074302Y0337539D01*
X0077451Y0337539D01*
X0077451Y0344626D01*
X0077451Y0344519D02*
X0066339Y0344519D01*
X0065860Y0344121D02*
X0077451Y0344121D01*
X0077451Y0343722D02*
X0065675Y0343722D01*
X0065640Y0343324D02*
X0077451Y0343324D01*
X0077451Y0342925D02*
X0065640Y0342925D01*
X0065640Y0342527D02*
X0077451Y0342527D01*
X0077451Y0342128D02*
X0065640Y0342128D01*
X0065640Y0341730D02*
X0077451Y0341730D01*
X0077451Y0341331D02*
X0065640Y0341331D01*
X0065640Y0340933D02*
X0077451Y0340933D01*
X0077451Y0340534D02*
X0065640Y0340534D01*
X0065635Y0340136D02*
X0077451Y0340136D01*
X0077451Y0339737D02*
X0065679Y0339737D01*
X0065859Y0339339D02*
X0077451Y0339339D01*
X0077451Y0338940D02*
X0066247Y0338940D01*
X0074302Y0338542D02*
X0077451Y0338542D01*
X0077451Y0338143D02*
X0074302Y0338143D01*
X0074302Y0337745D02*
X0077451Y0337745D01*
X0077451Y0245461D02*
X0074302Y0245461D01*
X0074302Y0243886D01*
X0067215Y0243886D01*
X0066865Y0243846D01*
X0066532Y0243730D01*
X0066233Y0243542D01*
X0065984Y0243293D01*
X0065796Y0242994D01*
X0065680Y0242661D01*
X0065640Y0242311D01*
X0065640Y0239555D01*
X0065719Y0239253D01*
X0065862Y0238977D01*
X0066064Y0238739D01*
X0066313Y0238552D01*
X0066598Y0238425D01*
X0066903Y0238365D01*
X0067215Y0238374D01*
X0077451Y0238374D01*
X0077451Y0245461D01*
X0077451Y0245290D02*
X0074302Y0245290D01*
X0074302Y0244892D02*
X0077451Y0244892D01*
X0077451Y0244493D02*
X0074302Y0244493D01*
X0074302Y0244095D02*
X0077451Y0244095D01*
X0077451Y0243696D02*
X0066478Y0243696D01*
X0065988Y0243298D02*
X0077451Y0243298D01*
X0077451Y0242899D02*
X0065763Y0242899D01*
X0065662Y0242501D02*
X0077451Y0242501D01*
X0077451Y0242102D02*
X0065640Y0242102D01*
X0065640Y0241704D02*
X0077451Y0241704D01*
X0077451Y0241305D02*
X0065640Y0241305D01*
X0065640Y0240907D02*
X0077451Y0240907D01*
X0077451Y0240508D02*
X0065640Y0240508D01*
X0065640Y0240110D02*
X0077451Y0240110D01*
X0077451Y0239711D02*
X0065640Y0239711D01*
X0065703Y0239312D02*
X0077451Y0239312D01*
X0077451Y0238914D02*
X0065915Y0238914D01*
X0066395Y0238515D02*
X0077451Y0238515D01*
X0077451Y0222626D02*
X0066821Y0222626D01*
X0066558Y0222596D01*
X0066309Y0222509D01*
X0066085Y0222368D01*
X0065898Y0222181D01*
X0065757Y0221957D01*
X0065670Y0221708D01*
X0065640Y0221445D01*
X0065640Y0218295D01*
X0065631Y0217984D01*
X0065691Y0217678D01*
X0065818Y0217393D01*
X0066005Y0217144D01*
X0066243Y0216942D01*
X0066520Y0216799D01*
X0066821Y0216720D01*
X0074302Y0216720D01*
X0074302Y0215539D01*
X0077451Y0215539D01*
X0077451Y0222626D01*
X0077451Y0222575D02*
X0066497Y0222575D01*
X0065895Y0222177D02*
X0077451Y0222177D01*
X0077451Y0221778D02*
X0065694Y0221778D01*
X0065640Y0221379D02*
X0077451Y0221379D01*
X0077451Y0220981D02*
X0065640Y0220981D01*
X0065640Y0220582D02*
X0077451Y0220582D01*
X0077451Y0220184D02*
X0065640Y0220184D01*
X0065640Y0219785D02*
X0077451Y0219785D01*
X0077451Y0219387D02*
X0065640Y0219387D01*
X0065640Y0218988D02*
X0077451Y0218988D01*
X0077451Y0218590D02*
X0065640Y0218590D01*
X0065637Y0218191D02*
X0077451Y0218191D01*
X0077451Y0217793D02*
X0065669Y0217793D01*
X0065818Y0217394D02*
X0077451Y0217394D01*
X0077451Y0216996D02*
X0066180Y0216996D01*
X0074302Y0216597D02*
X0077451Y0216597D01*
X0077451Y0216199D02*
X0074302Y0216199D01*
X0074302Y0215800D02*
X0077451Y0215800D01*
X0077451Y0123461D02*
X0074302Y0123461D01*
X0074302Y0121886D01*
X0067215Y0121886D01*
X0066865Y0121846D01*
X0066532Y0121730D01*
X0066233Y0121542D01*
X0065984Y0121293D01*
X0065796Y0120994D01*
X0065680Y0120661D01*
X0065640Y0120311D01*
X0065640Y0117555D01*
X0065719Y0117253D01*
X0065862Y0116977D01*
X0066064Y0116739D01*
X0066313Y0116552D01*
X0066598Y0116425D01*
X0066903Y0116365D01*
X0067215Y0116374D01*
X0077451Y0116374D01*
X0077451Y0123461D01*
X0077451Y0123346D02*
X0074302Y0123346D01*
X0074302Y0122947D02*
X0077451Y0122947D01*
X0077451Y0122549D02*
X0074302Y0122549D01*
X0074302Y0122150D02*
X0077451Y0122150D01*
X0077451Y0121752D02*
X0066594Y0121752D01*
X0066044Y0121353D02*
X0077451Y0121353D01*
X0077451Y0120955D02*
X0065782Y0120955D01*
X0065668Y0120556D02*
X0077451Y0120556D01*
X0077451Y0120158D02*
X0065640Y0120158D01*
X0065640Y0119759D02*
X0077451Y0119759D01*
X0077451Y0119361D02*
X0065640Y0119361D01*
X0065640Y0118962D02*
X0077451Y0118962D01*
X0077451Y0118564D02*
X0065640Y0118564D01*
X0065640Y0118165D02*
X0077451Y0118165D01*
X0077451Y0117767D02*
X0065640Y0117767D01*
X0065689Y0117368D02*
X0077451Y0117368D01*
X0077451Y0116970D02*
X0065868Y0116970D01*
X0066287Y0116571D02*
X0077451Y0116571D01*
X0077451Y0100626D02*
X0066821Y0100626D01*
X0066558Y0100596D01*
X0066309Y0100509D01*
X0066085Y0100368D01*
X0065898Y0100181D01*
X0065757Y0099957D01*
X0065670Y0099708D01*
X0065640Y0099445D01*
X0065640Y0096295D01*
X0065631Y0095984D01*
X0065691Y0095678D01*
X0065818Y0095393D01*
X0066005Y0095144D01*
X0066243Y0094942D01*
X0066520Y0094799D01*
X0066821Y0094720D01*
X0074302Y0094720D01*
X0074302Y0093539D01*
X0077451Y0093539D01*
X0077451Y0100626D01*
X0077451Y0100232D02*
X0065949Y0100232D01*
X0065714Y0099834D02*
X0077451Y0099834D01*
X0077451Y0099435D02*
X0065640Y0099435D01*
X0065640Y0099037D02*
X0077451Y0099037D01*
X0077451Y0098638D02*
X0065640Y0098638D01*
X0065640Y0098239D02*
X0077451Y0098239D01*
X0077451Y0097841D02*
X0065640Y0097841D01*
X0065640Y0097442D02*
X0077451Y0097442D01*
X0077451Y0097044D02*
X0065640Y0097044D01*
X0065640Y0096645D02*
X0077451Y0096645D01*
X0077451Y0096247D02*
X0065639Y0096247D01*
X0065658Y0095848D02*
X0077451Y0095848D01*
X0077451Y0095450D02*
X0065793Y0095450D01*
X0066114Y0095051D02*
X0077451Y0095051D01*
X0077451Y0094653D02*
X0074302Y0094653D01*
X0074302Y0094254D02*
X0077451Y0094254D01*
X0077451Y0093856D02*
X0074302Y0093856D01*
X0252631Y0095984D02*
X0252640Y0096295D01*
X0252640Y0099445D01*
X0252670Y0099708D01*
X0252757Y0099957D01*
X0252898Y0100181D01*
X0253085Y0100368D01*
X0253309Y0100509D01*
X0253558Y0100596D01*
X0253821Y0100626D01*
X0264451Y0100626D01*
X0264451Y0093539D01*
X0261302Y0093539D01*
X0261302Y0094720D01*
X0253821Y0094720D01*
X0253520Y0094799D01*
X0253243Y0094942D01*
X0253005Y0095144D01*
X0252818Y0095393D01*
X0252691Y0095678D01*
X0252631Y0095984D01*
X0252658Y0095848D02*
X0264451Y0095848D01*
X0264451Y0095450D02*
X0252793Y0095450D01*
X0253114Y0095051D02*
X0264451Y0095051D01*
X0264451Y0094653D02*
X0261302Y0094653D01*
X0261302Y0094254D02*
X0264451Y0094254D01*
X0264451Y0093856D02*
X0261302Y0093856D01*
X0264451Y0096247D02*
X0252639Y0096247D01*
X0252640Y0096645D02*
X0264451Y0096645D01*
X0264451Y0097044D02*
X0252640Y0097044D01*
X0252640Y0097442D02*
X0264451Y0097442D01*
X0264451Y0097841D02*
X0252640Y0097841D01*
X0252640Y0098239D02*
X0264451Y0098239D01*
X0264451Y0098638D02*
X0252640Y0098638D01*
X0252640Y0099037D02*
X0264451Y0099037D01*
X0264451Y0099435D02*
X0252640Y0099435D01*
X0252714Y0099834D02*
X0264451Y0099834D01*
X0264451Y0100232D02*
X0252949Y0100232D01*
X0253903Y0116365D02*
X0253598Y0116425D01*
X0253313Y0116552D01*
X0253064Y0116739D01*
X0252862Y0116977D01*
X0252719Y0117253D01*
X0252640Y0117555D01*
X0252640Y0120311D01*
X0252680Y0120661D01*
X0252796Y0120994D01*
X0252984Y0121293D01*
X0253233Y0121542D01*
X0253532Y0121730D01*
X0253865Y0121846D01*
X0254215Y0121886D01*
X0261302Y0121886D01*
X0261302Y0123461D01*
X0264451Y0123461D01*
X0264451Y0116374D01*
X0254215Y0116374D01*
X0253903Y0116365D01*
X0253287Y0116571D02*
X0264451Y0116571D01*
X0264451Y0116970D02*
X0252868Y0116970D01*
X0252689Y0117368D02*
X0264451Y0117368D01*
X0264451Y0117767D02*
X0252640Y0117767D01*
X0252640Y0118165D02*
X0264451Y0118165D01*
X0264451Y0118564D02*
X0252640Y0118564D01*
X0252640Y0118962D02*
X0264451Y0118962D01*
X0264451Y0119361D02*
X0252640Y0119361D01*
X0252640Y0119759D02*
X0264451Y0119759D01*
X0264451Y0120158D02*
X0252640Y0120158D01*
X0252668Y0120556D02*
X0264451Y0120556D01*
X0264451Y0120955D02*
X0252782Y0120955D01*
X0253044Y0121353D02*
X0264451Y0121353D01*
X0264451Y0121752D02*
X0253594Y0121752D01*
X0261302Y0122150D02*
X0264451Y0122150D01*
X0264451Y0122549D02*
X0261302Y0122549D01*
X0261302Y0122947D02*
X0264451Y0122947D01*
X0264451Y0123346D02*
X0261302Y0123346D01*
X0261302Y0215539D02*
X0261302Y0216720D01*
X0253821Y0216720D01*
X0253520Y0216799D01*
X0253243Y0216942D01*
X0253005Y0217144D01*
X0252818Y0217393D01*
X0252691Y0217678D01*
X0252631Y0217984D01*
X0252640Y0218295D01*
X0252640Y0221445D01*
X0252670Y0221708D01*
X0252757Y0221957D01*
X0252898Y0222181D01*
X0253085Y0222368D01*
X0253309Y0222509D01*
X0253558Y0222596D01*
X0253821Y0222626D01*
X0264451Y0222626D01*
X0264451Y0215539D01*
X0261302Y0215539D01*
X0261302Y0215800D02*
X0264451Y0215800D01*
X0264451Y0216199D02*
X0261302Y0216199D01*
X0261302Y0216597D02*
X0264451Y0216597D01*
X0264451Y0216996D02*
X0253180Y0216996D01*
X0252818Y0217394D02*
X0264451Y0217394D01*
X0264451Y0217793D02*
X0252669Y0217793D01*
X0252637Y0218191D02*
X0264451Y0218191D01*
X0264451Y0218590D02*
X0252640Y0218590D01*
X0252640Y0218988D02*
X0264451Y0218988D01*
X0264451Y0219387D02*
X0252640Y0219387D01*
X0252640Y0219785D02*
X0264451Y0219785D01*
X0264451Y0220184D02*
X0252640Y0220184D01*
X0252640Y0220582D02*
X0264451Y0220582D01*
X0264451Y0220981D02*
X0252640Y0220981D01*
X0252640Y0221379D02*
X0264451Y0221379D01*
X0264451Y0221778D02*
X0252694Y0221778D01*
X0252895Y0222177D02*
X0264451Y0222177D01*
X0264451Y0222575D02*
X0253497Y0222575D01*
X0253903Y0238365D02*
X0253598Y0238425D01*
X0253313Y0238552D01*
X0253064Y0238739D01*
X0252862Y0238977D01*
X0252719Y0239253D01*
X0252640Y0239555D01*
X0252640Y0242311D01*
X0252680Y0242661D01*
X0252796Y0242994D01*
X0252984Y0243293D01*
X0253233Y0243542D01*
X0253532Y0243730D01*
X0253865Y0243846D01*
X0254215Y0243886D01*
X0261302Y0243886D01*
X0261302Y0245461D01*
X0264451Y0245461D01*
X0264451Y0238374D01*
X0254215Y0238374D01*
X0253903Y0238365D01*
X0253395Y0238515D02*
X0264451Y0238515D01*
X0264451Y0238914D02*
X0252915Y0238914D01*
X0252703Y0239312D02*
X0264451Y0239312D01*
X0264451Y0239711D02*
X0252640Y0239711D01*
X0252640Y0240110D02*
X0264451Y0240110D01*
X0264451Y0240508D02*
X0252640Y0240508D01*
X0252640Y0240907D02*
X0264451Y0240907D01*
X0264451Y0241305D02*
X0252640Y0241305D01*
X0252640Y0241704D02*
X0264451Y0241704D01*
X0264451Y0242102D02*
X0252640Y0242102D01*
X0252662Y0242501D02*
X0264451Y0242501D01*
X0264451Y0242899D02*
X0252763Y0242899D01*
X0252988Y0243298D02*
X0264451Y0243298D01*
X0264451Y0243696D02*
X0253478Y0243696D01*
X0261302Y0244095D02*
X0264451Y0244095D01*
X0264451Y0244493D02*
X0261302Y0244493D01*
X0261302Y0244892D02*
X0264451Y0244892D01*
X0264451Y0245290D02*
X0261302Y0245290D01*
X0261302Y0337539D02*
X0261302Y0338720D01*
X0253821Y0338720D01*
X0253520Y0338799D01*
X0253243Y0338942D01*
X0253005Y0339144D01*
X0252818Y0339393D01*
X0252691Y0339678D01*
X0252631Y0339984D01*
X0252640Y0340295D01*
X0252640Y0343445D01*
X0252670Y0343708D01*
X0252757Y0343957D01*
X0252898Y0344181D01*
X0253085Y0344368D01*
X0253309Y0344509D01*
X0253558Y0344596D01*
X0253821Y0344626D01*
X0264451Y0344626D01*
X0264451Y0337539D01*
X0261302Y0337539D01*
X0261302Y0337745D02*
X0264451Y0337745D01*
X0264451Y0338143D02*
X0261302Y0338143D01*
X0261302Y0338542D02*
X0264451Y0338542D01*
X0264451Y0338940D02*
X0253247Y0338940D01*
X0252859Y0339339D02*
X0264451Y0339339D01*
X0264451Y0339737D02*
X0252679Y0339737D01*
X0252635Y0340136D02*
X0264451Y0340136D01*
X0264451Y0340534D02*
X0252640Y0340534D01*
X0252640Y0340933D02*
X0264451Y0340933D01*
X0264451Y0341331D02*
X0252640Y0341331D01*
X0252640Y0341730D02*
X0264451Y0341730D01*
X0264451Y0342128D02*
X0252640Y0342128D01*
X0252640Y0342527D02*
X0264451Y0342527D01*
X0264451Y0342925D02*
X0252640Y0342925D01*
X0252640Y0343324D02*
X0264451Y0343324D01*
X0264451Y0343722D02*
X0252675Y0343722D01*
X0252860Y0344121D02*
X0264451Y0344121D01*
X0264451Y0344519D02*
X0253339Y0344519D01*
X0253903Y0360365D02*
X0253598Y0360425D01*
X0253313Y0360552D01*
X0253064Y0360739D01*
X0252862Y0360977D01*
X0252719Y0361253D01*
X0252640Y0361555D01*
X0252640Y0364311D01*
X0252680Y0364661D01*
X0252796Y0364994D01*
X0252984Y0365293D01*
X0253233Y0365542D01*
X0253532Y0365730D01*
X0253865Y0365846D01*
X0254215Y0365886D01*
X0261302Y0365886D01*
X0261302Y0367461D01*
X0264451Y0367461D01*
X0264451Y0360374D01*
X0254215Y0360374D01*
X0253903Y0360365D01*
X0253519Y0360460D02*
X0264451Y0360460D01*
X0264451Y0360858D02*
X0252962Y0360858D01*
X0252718Y0361257D02*
X0264451Y0361257D01*
X0264451Y0361655D02*
X0252640Y0361655D01*
X0252640Y0362054D02*
X0264451Y0362054D01*
X0264451Y0362452D02*
X0252640Y0362452D01*
X0252640Y0362851D02*
X0264451Y0362851D01*
X0264451Y0363250D02*
X0252640Y0363250D01*
X0252640Y0363648D02*
X0264451Y0363648D01*
X0264451Y0364047D02*
X0252640Y0364047D01*
X0252655Y0364445D02*
X0264451Y0364445D01*
X0264451Y0364844D02*
X0252743Y0364844D01*
X0252952Y0365242D02*
X0264451Y0365242D01*
X0264451Y0365641D02*
X0253390Y0365641D01*
X0261302Y0366039D02*
X0264451Y0366039D01*
X0264451Y0366438D02*
X0261302Y0366438D01*
X0261302Y0366836D02*
X0264451Y0366836D01*
X0264451Y0367235D02*
X0261302Y0367235D01*
X0439640Y0364311D02*
X0439680Y0364661D01*
X0439796Y0364994D01*
X0439984Y0365293D01*
X0440233Y0365542D01*
X0440532Y0365730D01*
X0440865Y0365846D01*
X0441215Y0365886D01*
X0448302Y0365886D01*
X0448302Y0367461D01*
X0451451Y0367461D01*
X0451451Y0360374D01*
X0441215Y0360374D01*
X0440903Y0360365D01*
X0440598Y0360425D01*
X0440313Y0360552D01*
X0440064Y0360739D01*
X0439862Y0360977D01*
X0439719Y0361253D01*
X0439640Y0361555D01*
X0439640Y0364311D01*
X0439655Y0364445D02*
X0451451Y0364445D01*
X0451451Y0364047D02*
X0439640Y0364047D01*
X0439640Y0363648D02*
X0451451Y0363648D01*
X0451451Y0363250D02*
X0439640Y0363250D01*
X0439640Y0362851D02*
X0451451Y0362851D01*
X0451451Y0362452D02*
X0439640Y0362452D01*
X0439640Y0362054D02*
X0451451Y0362054D01*
X0451451Y0361655D02*
X0439640Y0361655D01*
X0439718Y0361257D02*
X0451451Y0361257D01*
X0451451Y0360858D02*
X0439962Y0360858D01*
X0440519Y0360460D02*
X0451451Y0360460D01*
X0451451Y0364844D02*
X0439743Y0364844D01*
X0439952Y0365242D02*
X0451451Y0365242D01*
X0451451Y0365641D02*
X0440390Y0365641D01*
X0448302Y0366039D02*
X0451451Y0366039D01*
X0451451Y0366438D02*
X0448302Y0366438D01*
X0448302Y0366836D02*
X0451451Y0366836D01*
X0451451Y0367235D02*
X0448302Y0367235D01*
X0451451Y0344626D02*
X0440821Y0344626D01*
X0440558Y0344596D01*
X0440309Y0344509D01*
X0440085Y0344368D01*
X0439898Y0344181D01*
X0439757Y0343957D01*
X0439670Y0343708D01*
X0439640Y0343445D01*
X0439640Y0340295D01*
X0439631Y0339984D01*
X0439691Y0339678D01*
X0439818Y0339393D01*
X0440005Y0339144D01*
X0440243Y0338942D01*
X0440520Y0338799D01*
X0440821Y0338720D01*
X0448302Y0338720D01*
X0448302Y0337539D01*
X0451451Y0337539D01*
X0451451Y0344626D01*
X0451451Y0344519D02*
X0440339Y0344519D01*
X0439860Y0344121D02*
X0451451Y0344121D01*
X0451451Y0343722D02*
X0439675Y0343722D01*
X0439640Y0343324D02*
X0451451Y0343324D01*
X0451451Y0342925D02*
X0439640Y0342925D01*
X0439640Y0342527D02*
X0451451Y0342527D01*
X0451451Y0342128D02*
X0439640Y0342128D01*
X0439640Y0341730D02*
X0451451Y0341730D01*
X0451451Y0341331D02*
X0439640Y0341331D01*
X0439640Y0340933D02*
X0451451Y0340933D01*
X0451451Y0340534D02*
X0439640Y0340534D01*
X0439635Y0340136D02*
X0451451Y0340136D01*
X0451451Y0339737D02*
X0439679Y0339737D01*
X0439859Y0339339D02*
X0451451Y0339339D01*
X0451451Y0338940D02*
X0440247Y0338940D01*
X0448302Y0338542D02*
X0451451Y0338542D01*
X0451451Y0338143D02*
X0448302Y0338143D01*
X0448302Y0337745D02*
X0451451Y0337745D01*
X0451451Y0245461D02*
X0448302Y0245461D01*
X0448302Y0243886D01*
X0441215Y0243886D01*
X0440865Y0243846D01*
X0440532Y0243730D01*
X0440233Y0243542D01*
X0439984Y0243293D01*
X0439796Y0242994D01*
X0439680Y0242661D01*
X0439640Y0242311D01*
X0439640Y0239555D01*
X0439719Y0239253D01*
X0439862Y0238977D01*
X0440064Y0238739D01*
X0440313Y0238552D01*
X0440598Y0238425D01*
X0440903Y0238365D01*
X0441215Y0238374D01*
X0451451Y0238374D01*
X0451451Y0245461D01*
X0451451Y0245290D02*
X0448302Y0245290D01*
X0448302Y0244892D02*
X0451451Y0244892D01*
X0451451Y0244493D02*
X0448302Y0244493D01*
X0448302Y0244095D02*
X0451451Y0244095D01*
X0451451Y0243696D02*
X0440478Y0243696D01*
X0439988Y0243298D02*
X0451451Y0243298D01*
X0451451Y0242899D02*
X0439763Y0242899D01*
X0439662Y0242501D02*
X0451451Y0242501D01*
X0451451Y0242102D02*
X0439640Y0242102D01*
X0439640Y0241704D02*
X0451451Y0241704D01*
X0451451Y0241305D02*
X0439640Y0241305D01*
X0439640Y0240907D02*
X0451451Y0240907D01*
X0451451Y0240508D02*
X0439640Y0240508D01*
X0439640Y0240110D02*
X0451451Y0240110D01*
X0451451Y0239711D02*
X0439640Y0239711D01*
X0439703Y0239312D02*
X0451451Y0239312D01*
X0451451Y0238914D02*
X0439915Y0238914D01*
X0440395Y0238515D02*
X0451451Y0238515D01*
X0451451Y0222626D02*
X0440821Y0222626D01*
X0440558Y0222596D01*
X0440309Y0222509D01*
X0440085Y0222368D01*
X0439898Y0222181D01*
X0439757Y0221957D01*
X0439670Y0221708D01*
X0439640Y0221445D01*
X0439640Y0218295D01*
X0439631Y0217984D01*
X0439691Y0217678D01*
X0439818Y0217393D01*
X0440005Y0217144D01*
X0440243Y0216942D01*
X0440520Y0216799D01*
X0440821Y0216720D01*
X0448302Y0216720D01*
X0448302Y0215539D01*
X0451451Y0215539D01*
X0451451Y0222626D01*
X0451451Y0222575D02*
X0440497Y0222575D01*
X0439895Y0222177D02*
X0451451Y0222177D01*
X0451451Y0221778D02*
X0439694Y0221778D01*
X0439640Y0221379D02*
X0451451Y0221379D01*
X0451451Y0220981D02*
X0439640Y0220981D01*
X0439640Y0220582D02*
X0451451Y0220582D01*
X0451451Y0220184D02*
X0439640Y0220184D01*
X0439640Y0219785D02*
X0451451Y0219785D01*
X0451451Y0219387D02*
X0439640Y0219387D01*
X0439640Y0218988D02*
X0451451Y0218988D01*
X0451451Y0218590D02*
X0439640Y0218590D01*
X0439637Y0218191D02*
X0451451Y0218191D01*
X0451451Y0217793D02*
X0439669Y0217793D01*
X0439818Y0217394D02*
X0451451Y0217394D01*
X0451451Y0216996D02*
X0440180Y0216996D01*
X0448302Y0216597D02*
X0451451Y0216597D01*
X0451451Y0216199D02*
X0448302Y0216199D01*
X0448302Y0215800D02*
X0451451Y0215800D01*
X0451451Y0123461D02*
X0448302Y0123461D01*
X0448302Y0121886D01*
X0441215Y0121886D01*
X0440865Y0121846D01*
X0440532Y0121730D01*
X0440233Y0121542D01*
X0439984Y0121293D01*
X0439796Y0120994D01*
X0439680Y0120661D01*
X0439640Y0120311D01*
X0439640Y0117555D01*
X0439719Y0117253D01*
X0439862Y0116977D01*
X0440064Y0116739D01*
X0440313Y0116552D01*
X0440598Y0116425D01*
X0440903Y0116365D01*
X0441215Y0116374D01*
X0451451Y0116374D01*
X0451451Y0123461D01*
X0451451Y0123346D02*
X0448302Y0123346D01*
X0448302Y0122947D02*
X0451451Y0122947D01*
X0451451Y0122549D02*
X0448302Y0122549D01*
X0448302Y0122150D02*
X0451451Y0122150D01*
X0451451Y0121752D02*
X0440594Y0121752D01*
X0440044Y0121353D02*
X0451451Y0121353D01*
X0451451Y0120955D02*
X0439782Y0120955D01*
X0439668Y0120556D02*
X0451451Y0120556D01*
X0451451Y0120158D02*
X0439640Y0120158D01*
X0439640Y0119759D02*
X0451451Y0119759D01*
X0451451Y0119361D02*
X0439640Y0119361D01*
X0439640Y0118962D02*
X0451451Y0118962D01*
X0451451Y0118564D02*
X0439640Y0118564D01*
X0439640Y0118165D02*
X0451451Y0118165D01*
X0451451Y0117767D02*
X0439640Y0117767D01*
X0439689Y0117368D02*
X0451451Y0117368D01*
X0451451Y0116970D02*
X0439868Y0116970D01*
X0440287Y0116571D02*
X0451451Y0116571D01*
X0451451Y0100626D02*
X0440821Y0100626D01*
X0440558Y0100596D01*
X0440309Y0100509D01*
X0440085Y0100368D01*
X0439898Y0100181D01*
X0439757Y0099957D01*
X0439670Y0099708D01*
X0439640Y0099445D01*
X0439640Y0096295D01*
X0439631Y0095984D01*
X0439691Y0095678D01*
X0439818Y0095393D01*
X0440005Y0095144D01*
X0440243Y0094942D01*
X0440520Y0094799D01*
X0440821Y0094720D01*
X0448302Y0094720D01*
X0448302Y0093539D01*
X0451451Y0093539D01*
X0451451Y0100626D01*
X0451451Y0100232D02*
X0439949Y0100232D01*
X0439714Y0099834D02*
X0451451Y0099834D01*
X0451451Y0099435D02*
X0439640Y0099435D01*
X0439640Y0099037D02*
X0451451Y0099037D01*
X0451451Y0098638D02*
X0439640Y0098638D01*
X0439640Y0098239D02*
X0451451Y0098239D01*
X0451451Y0097841D02*
X0439640Y0097841D01*
X0439640Y0097442D02*
X0451451Y0097442D01*
X0451451Y0097044D02*
X0439640Y0097044D01*
X0439640Y0096645D02*
X0451451Y0096645D01*
X0451451Y0096247D02*
X0439639Y0096247D01*
X0439658Y0095848D02*
X0451451Y0095848D01*
X0451451Y0095450D02*
X0439793Y0095450D01*
X0440114Y0095051D02*
X0451451Y0095051D01*
X0451451Y0094653D02*
X0448302Y0094653D01*
X0448302Y0094254D02*
X0451451Y0094254D01*
X0451451Y0093856D02*
X0448302Y0093856D01*
D19*
X0472912Y0092654D03*
X0472912Y0099346D03*
X0496412Y0098846D03*
X0496412Y0092154D03*
X0535912Y0110154D03*
X0542412Y0110154D03*
X0542412Y0116846D03*
X0535912Y0116846D03*
X0553412Y0117346D03*
X0553412Y0110654D03*
X0574412Y0110654D03*
X0574412Y0117346D03*
X0574412Y0101846D03*
X0574412Y0095154D03*
X0576412Y0088246D03*
X0576412Y0081554D03*
X0389412Y0081554D03*
X0389412Y0088246D03*
X0387412Y0095154D03*
X0387412Y0101846D03*
X0387412Y0110654D03*
X0387412Y0117346D03*
X0366412Y0117346D03*
X0366412Y0110654D03*
X0355412Y0110154D03*
X0348912Y0110154D03*
X0348912Y0116846D03*
X0355412Y0116846D03*
X0309412Y0098846D03*
X0309412Y0092154D03*
X0285912Y0092654D03*
X0285912Y0099346D03*
X0202412Y0088246D03*
X0200412Y0095154D03*
X0200412Y0101846D03*
X0200412Y0110654D03*
X0200412Y0117346D03*
X0179412Y0117346D03*
X0179412Y0110654D03*
X0168412Y0110154D03*
X0161912Y0110154D03*
X0161912Y0116846D03*
X0168412Y0116846D03*
X0122412Y0098846D03*
X0122412Y0092154D03*
X0098912Y0092654D03*
X0098912Y0099346D03*
X0202412Y0081554D03*
X0202412Y0203554D03*
X0202412Y0210246D03*
X0200412Y0217154D03*
X0200412Y0223846D03*
X0200412Y0232654D03*
X0200412Y0239346D03*
X0179412Y0239346D03*
X0168412Y0238846D03*
X0161912Y0238846D03*
X0161912Y0232154D03*
X0168412Y0232154D03*
X0179412Y0232654D03*
X0122412Y0220846D03*
X0122412Y0214154D03*
X0098912Y0214654D03*
X0098912Y0221346D03*
X0202412Y0325554D03*
X0202412Y0332246D03*
X0200412Y0339154D03*
X0200412Y0345846D03*
X0200412Y0354654D03*
X0200412Y0361346D03*
X0179412Y0361346D03*
X0179412Y0354654D03*
X0168412Y0354154D03*
X0161912Y0354154D03*
X0161912Y0360846D03*
X0168412Y0360846D03*
X0122412Y0342846D03*
X0122412Y0336154D03*
X0098912Y0336654D03*
X0098912Y0343346D03*
X0285912Y0343346D03*
X0285912Y0336654D03*
X0309412Y0336154D03*
X0309412Y0342846D03*
X0348912Y0354154D03*
X0355412Y0354154D03*
X0355412Y0360846D03*
X0348912Y0360846D03*
X0366412Y0361346D03*
X0366412Y0354654D03*
X0387412Y0354654D03*
X0387412Y0361346D03*
X0387412Y0345846D03*
X0387412Y0339154D03*
X0389412Y0332246D03*
X0389412Y0325554D03*
X0472912Y0336654D03*
X0472912Y0343346D03*
X0496412Y0342846D03*
X0496412Y0336154D03*
X0535912Y0354154D03*
X0542412Y0354154D03*
X0542412Y0360846D03*
X0535912Y0360846D03*
X0553412Y0361346D03*
X0553412Y0354654D03*
X0574412Y0354654D03*
X0574412Y0361346D03*
X0574412Y0345846D03*
X0574412Y0339154D03*
X0576412Y0332246D03*
X0576412Y0325554D03*
X0574412Y0239346D03*
X0574412Y0232654D03*
X0574412Y0223846D03*
X0574412Y0217154D03*
X0576412Y0210246D03*
X0576412Y0203554D03*
X0553412Y0232654D03*
X0553412Y0239346D03*
X0542412Y0238846D03*
X0535912Y0238846D03*
X0535912Y0232154D03*
X0542412Y0232154D03*
X0496412Y0220846D03*
X0496412Y0214154D03*
X0472912Y0214654D03*
X0472912Y0221346D03*
X0389412Y0210246D03*
X0389412Y0203554D03*
X0387412Y0217154D03*
X0387412Y0223846D03*
X0387412Y0232654D03*
X0387412Y0239346D03*
X0366412Y0239346D03*
X0366412Y0232654D03*
X0355412Y0232154D03*
X0348912Y0232154D03*
X0348912Y0238846D03*
X0355412Y0238846D03*
X0309412Y0220846D03*
X0309412Y0214154D03*
X0285912Y0214654D03*
X0285912Y0221346D03*
D20*
X0285270Y0173390D03*
X0279365Y0173390D03*
X0267554Y0173390D03*
X0098270Y0173390D03*
X0092365Y0173390D03*
X0080554Y0173390D03*
X0080554Y0295390D03*
X0092365Y0295390D03*
X0098270Y0295390D03*
X0267554Y0295390D03*
X0279365Y0295390D03*
X0285270Y0295390D03*
X0454554Y0295390D03*
X0466365Y0295390D03*
X0472270Y0295390D03*
X0472270Y0173390D03*
X0466365Y0173390D03*
X0454554Y0173390D03*
X0454554Y0051390D03*
X0466365Y0051390D03*
X0472270Y0051390D03*
X0285270Y0051390D03*
X0279365Y0051390D03*
X0267554Y0051390D03*
X0098270Y0051390D03*
X0092365Y0051390D03*
X0080554Y0051390D03*
D21*
X0075042Y0040563D03*
X0103782Y0040563D03*
X0262042Y0040563D03*
X0290782Y0040563D03*
X0449042Y0040563D03*
X0477782Y0040563D03*
X0477782Y0162563D03*
X0449042Y0162563D03*
X0290782Y0162563D03*
X0262042Y0162563D03*
X0103782Y0162563D03*
X0075042Y0162563D03*
X0075042Y0284563D03*
X0103782Y0284563D03*
X0262042Y0284563D03*
X0290782Y0284563D03*
X0449042Y0284563D03*
X0477782Y0284563D03*
D22*
X0477782Y0292831D03*
X0449042Y0292831D03*
X0290782Y0292831D03*
X0262042Y0292831D03*
X0103782Y0292831D03*
X0075042Y0292831D03*
X0075042Y0170831D03*
X0103782Y0170831D03*
X0262042Y0170831D03*
X0290782Y0170831D03*
X0449042Y0170831D03*
X0477782Y0170831D03*
X0477782Y0048831D03*
X0449042Y0048831D03*
X0290782Y0048831D03*
X0262042Y0048831D03*
X0103782Y0048831D03*
X0075042Y0048831D03*
D23*
X0083506Y0044500D03*
X0095317Y0044500D03*
X0270506Y0044500D03*
X0282317Y0044500D03*
X0457506Y0044500D03*
X0469317Y0044500D03*
X0469317Y0166500D03*
X0457506Y0166500D03*
X0282317Y0166500D03*
X0270506Y0166500D03*
X0095317Y0166500D03*
X0083506Y0166500D03*
X0083506Y0288500D03*
X0095317Y0288500D03*
X0270506Y0288500D03*
X0282317Y0288500D03*
X0457506Y0288500D03*
X0469317Y0288500D03*
D24*
X0480293Y0335760D03*
X0480293Y0339500D03*
X0480293Y0343240D03*
X0490530Y0343240D03*
X0490530Y0335760D03*
X0501793Y0336260D03*
X0501793Y0343740D03*
X0512030Y0343740D03*
X0512030Y0340000D03*
X0512030Y0336260D03*
X0512030Y0221740D03*
X0512030Y0218000D03*
X0512030Y0214260D03*
X0501793Y0214260D03*
X0501793Y0221740D03*
X0490530Y0221240D03*
X0480293Y0221240D03*
X0480293Y0217500D03*
X0480293Y0213760D03*
X0490530Y0213760D03*
X0325030Y0214260D03*
X0325030Y0218000D03*
X0325030Y0221740D03*
X0314793Y0221740D03*
X0314793Y0214260D03*
X0303530Y0213760D03*
X0293293Y0213760D03*
X0293293Y0217500D03*
X0293293Y0221240D03*
X0303530Y0221240D03*
X0138030Y0221740D03*
X0138030Y0218000D03*
X0138030Y0214260D03*
X0127793Y0214260D03*
X0116530Y0213760D03*
X0116530Y0221240D03*
X0127793Y0221740D03*
X0106293Y0221240D03*
X0106293Y0217500D03*
X0106293Y0213760D03*
X0106293Y0099240D03*
X0106293Y0095500D03*
X0106293Y0091760D03*
X0116530Y0091760D03*
X0127793Y0092260D03*
X0138030Y0092260D03*
X0138030Y0096000D03*
X0138030Y0099740D03*
X0127793Y0099740D03*
X0116530Y0099240D03*
X0293293Y0099240D03*
X0293293Y0095500D03*
X0293293Y0091760D03*
X0303530Y0091760D03*
X0303530Y0099240D03*
X0314793Y0099740D03*
X0325030Y0099740D03*
X0325030Y0096000D03*
X0325030Y0092260D03*
X0314793Y0092260D03*
X0480293Y0091760D03*
X0480293Y0095500D03*
X0480293Y0099240D03*
X0490530Y0099240D03*
X0490530Y0091760D03*
X0501793Y0092260D03*
X0512030Y0092260D03*
X0512030Y0096000D03*
X0512030Y0099740D03*
X0501793Y0099740D03*
X0325030Y0336260D03*
X0325030Y0340000D03*
X0325030Y0343740D03*
X0314793Y0343740D03*
X0314793Y0336260D03*
X0303530Y0335760D03*
X0303530Y0343240D03*
X0293293Y0343240D03*
X0293293Y0339500D03*
X0293293Y0335760D03*
X0138030Y0336260D03*
X0138030Y0340000D03*
X0138030Y0343740D03*
X0127793Y0343740D03*
X0127793Y0336260D03*
X0116530Y0335760D03*
X0116530Y0343240D03*
X0106293Y0343240D03*
X0106293Y0339500D03*
X0106293Y0335760D03*
D25*
X0109412Y0322500D03*
X0109412Y0312500D03*
X0114412Y0287500D03*
X0124412Y0287500D03*
X0134412Y0287500D03*
X0144412Y0287500D03*
X0154412Y0287500D03*
X0164412Y0287500D03*
X0174412Y0287500D03*
X0184412Y0287500D03*
X0194412Y0287500D03*
X0204412Y0287500D03*
X0214412Y0287500D03*
X0214412Y0277500D03*
X0204412Y0277500D03*
X0194412Y0277500D03*
X0184412Y0277500D03*
X0174412Y0277500D03*
X0164412Y0277500D03*
X0154412Y0277500D03*
X0144412Y0277500D03*
X0134412Y0277500D03*
X0124412Y0277500D03*
X0114412Y0277500D03*
X0114412Y0265500D03*
X0124412Y0265500D03*
X0134412Y0265500D03*
X0144412Y0265500D03*
X0154412Y0265500D03*
X0164412Y0265500D03*
X0174412Y0265500D03*
X0184412Y0265500D03*
X0194412Y0265500D03*
X0204412Y0265500D03*
X0204412Y0255500D03*
X0214412Y0255500D03*
X0194412Y0255500D03*
X0184412Y0255500D03*
X0174412Y0255500D03*
X0164412Y0255500D03*
X0154412Y0255500D03*
X0144412Y0255500D03*
X0134412Y0255500D03*
X0124412Y0255500D03*
X0114412Y0255500D03*
X0109412Y0200500D03*
X0109412Y0190500D03*
X0114412Y0165500D03*
X0124412Y0165500D03*
X0134412Y0165500D03*
X0144412Y0165500D03*
X0154412Y0165500D03*
X0164412Y0165500D03*
X0174412Y0165500D03*
X0184412Y0165500D03*
X0194412Y0165500D03*
X0204412Y0165500D03*
X0214412Y0165500D03*
X0214412Y0155500D03*
X0204412Y0155500D03*
X0194412Y0155500D03*
X0184412Y0155500D03*
X0174412Y0155500D03*
X0164412Y0155500D03*
X0154412Y0155500D03*
X0144412Y0155500D03*
X0134412Y0155500D03*
X0124412Y0155500D03*
X0114412Y0155500D03*
X0114412Y0143500D03*
X0124412Y0143500D03*
X0134412Y0143500D03*
X0144412Y0143500D03*
X0154412Y0143500D03*
X0164412Y0143500D03*
X0174412Y0143500D03*
X0184412Y0143500D03*
X0194412Y0143500D03*
X0204412Y0143500D03*
X0204412Y0133500D03*
X0214412Y0133500D03*
X0194412Y0133500D03*
X0184412Y0133500D03*
X0174412Y0133500D03*
X0164412Y0133500D03*
X0154412Y0133500D03*
X0144412Y0133500D03*
X0134412Y0133500D03*
X0124412Y0133500D03*
X0114412Y0133500D03*
X0109412Y0078500D03*
X0109412Y0068500D03*
X0114412Y0043500D03*
X0124412Y0043500D03*
X0134412Y0043500D03*
X0144412Y0043500D03*
X0154412Y0043500D03*
X0164412Y0043500D03*
X0174412Y0043500D03*
X0184412Y0043500D03*
X0194412Y0043500D03*
X0204412Y0043500D03*
X0214412Y0043500D03*
X0214412Y0033500D03*
X0204412Y0033500D03*
X0194412Y0033500D03*
X0184412Y0033500D03*
X0174412Y0033500D03*
X0164412Y0033500D03*
X0154412Y0033500D03*
X0144412Y0033500D03*
X0134412Y0033500D03*
X0124412Y0033500D03*
X0114412Y0033500D03*
X0234412Y0053500D03*
X0234412Y0063500D03*
X0296412Y0068500D03*
X0296412Y0078500D03*
X0301412Y0043500D03*
X0311412Y0043500D03*
X0321412Y0043500D03*
X0331412Y0043500D03*
X0341412Y0043500D03*
X0351412Y0043500D03*
X0361412Y0043500D03*
X0371412Y0043500D03*
X0381412Y0043500D03*
X0391412Y0043500D03*
X0401412Y0043500D03*
X0401412Y0033500D03*
X0391412Y0033500D03*
X0381412Y0033500D03*
X0371412Y0033500D03*
X0361412Y0033500D03*
X0351412Y0033500D03*
X0341412Y0033500D03*
X0331412Y0033500D03*
X0321412Y0033500D03*
X0311412Y0033500D03*
X0301412Y0033500D03*
X0421412Y0053500D03*
X0421412Y0063500D03*
X0483412Y0068500D03*
X0483412Y0078500D03*
X0488412Y0043500D03*
X0498412Y0043500D03*
X0508412Y0043500D03*
X0518412Y0043500D03*
X0528412Y0043500D03*
X0538412Y0043500D03*
X0548412Y0043500D03*
X0558412Y0043500D03*
X0568412Y0043500D03*
X0578412Y0043500D03*
X0588412Y0043500D03*
X0588412Y0033500D03*
X0578412Y0033500D03*
X0568412Y0033500D03*
X0558412Y0033500D03*
X0548412Y0033500D03*
X0538412Y0033500D03*
X0528412Y0033500D03*
X0518412Y0033500D03*
X0508412Y0033500D03*
X0498412Y0033500D03*
X0488412Y0033500D03*
X0608412Y0053500D03*
X0608412Y0063500D03*
X0588412Y0133500D03*
X0578412Y0133500D03*
X0568412Y0133500D03*
X0568412Y0143500D03*
X0578412Y0143500D03*
X0578412Y0155500D03*
X0588412Y0155500D03*
X0588412Y0165500D03*
X0578412Y0165500D03*
X0568412Y0165500D03*
X0568412Y0155500D03*
X0558412Y0155500D03*
X0548412Y0155500D03*
X0538412Y0155500D03*
X0538412Y0165500D03*
X0548412Y0165500D03*
X0558412Y0165500D03*
X0528412Y0165500D03*
X0518412Y0165500D03*
X0518412Y0155500D03*
X0528412Y0155500D03*
X0528412Y0143500D03*
X0518412Y0143500D03*
X0518412Y0133500D03*
X0528412Y0133500D03*
X0538412Y0133500D03*
X0548412Y0133500D03*
X0558412Y0133500D03*
X0558412Y0143500D03*
X0548412Y0143500D03*
X0538412Y0143500D03*
X0508412Y0143500D03*
X0498412Y0143500D03*
X0488412Y0143500D03*
X0488412Y0133500D03*
X0498412Y0133500D03*
X0508412Y0133500D03*
X0508412Y0155500D03*
X0498412Y0155500D03*
X0488412Y0155500D03*
X0488412Y0165500D03*
X0498412Y0165500D03*
X0508412Y0165500D03*
X0483412Y0190500D03*
X0483412Y0200500D03*
X0421412Y0185500D03*
X0421412Y0175500D03*
X0401412Y0165500D03*
X0401412Y0155500D03*
X0391412Y0155500D03*
X0381412Y0155500D03*
X0371412Y0155500D03*
X0371412Y0165500D03*
X0381412Y0165500D03*
X0391412Y0165500D03*
X0361412Y0165500D03*
X0351412Y0165500D03*
X0351412Y0155500D03*
X0361412Y0155500D03*
X0361412Y0143500D03*
X0351412Y0143500D03*
X0351412Y0133500D03*
X0361412Y0133500D03*
X0371412Y0133500D03*
X0381412Y0133500D03*
X0391412Y0133500D03*
X0401412Y0133500D03*
X0391412Y0143500D03*
X0381412Y0143500D03*
X0371412Y0143500D03*
X0341412Y0143500D03*
X0331412Y0143500D03*
X0321412Y0143500D03*
X0321412Y0133500D03*
X0331412Y0133500D03*
X0341412Y0133500D03*
X0311412Y0133500D03*
X0301412Y0133500D03*
X0301412Y0143500D03*
X0311412Y0143500D03*
X0311412Y0155500D03*
X0301412Y0155500D03*
X0301412Y0165500D03*
X0311412Y0165500D03*
X0321412Y0165500D03*
X0331412Y0165500D03*
X0341412Y0165500D03*
X0341412Y0155500D03*
X0331412Y0155500D03*
X0321412Y0155500D03*
X0296412Y0190500D03*
X0296412Y0200500D03*
X0234412Y0185500D03*
X0234412Y0175500D03*
X0301412Y0255500D03*
X0311412Y0255500D03*
X0321412Y0255500D03*
X0331412Y0255500D03*
X0341412Y0255500D03*
X0351412Y0255500D03*
X0361412Y0255500D03*
X0371412Y0255500D03*
X0381412Y0255500D03*
X0391412Y0255500D03*
X0401412Y0255500D03*
X0391412Y0265500D03*
X0381412Y0265500D03*
X0371412Y0265500D03*
X0361412Y0265500D03*
X0351412Y0265500D03*
X0341412Y0265500D03*
X0331412Y0265500D03*
X0321412Y0265500D03*
X0311412Y0265500D03*
X0301412Y0265500D03*
X0301412Y0277500D03*
X0311412Y0277500D03*
X0321412Y0277500D03*
X0331412Y0277500D03*
X0341412Y0277500D03*
X0351412Y0277500D03*
X0361412Y0277500D03*
X0371412Y0277500D03*
X0381412Y0277500D03*
X0391412Y0277500D03*
X0401412Y0277500D03*
X0401412Y0287500D03*
X0391412Y0287500D03*
X0381412Y0287500D03*
X0371412Y0287500D03*
X0361412Y0287500D03*
X0351412Y0287500D03*
X0341412Y0287500D03*
X0331412Y0287500D03*
X0321412Y0287500D03*
X0311412Y0287500D03*
X0301412Y0287500D03*
X0296412Y0312500D03*
X0296412Y0322500D03*
X0234412Y0307500D03*
X0234412Y0297500D03*
X0214412Y0377500D03*
X0204412Y0377500D03*
X0204412Y0387500D03*
X0194412Y0387500D03*
X0184412Y0387500D03*
X0174412Y0387500D03*
X0174412Y0377500D03*
X0184412Y0377500D03*
X0194412Y0377500D03*
X0164412Y0377500D03*
X0154412Y0377500D03*
X0154412Y0387500D03*
X0164412Y0387500D03*
X0144412Y0387500D03*
X0134412Y0387500D03*
X0124412Y0387500D03*
X0124412Y0377500D03*
X0134412Y0377500D03*
X0144412Y0377500D03*
X0114412Y0377500D03*
X0114412Y0387500D03*
X0301412Y0387500D03*
X0311412Y0387500D03*
X0321412Y0387500D03*
X0331412Y0387500D03*
X0341412Y0387500D03*
X0351412Y0387500D03*
X0361412Y0387500D03*
X0371412Y0387500D03*
X0381412Y0387500D03*
X0391412Y0387500D03*
X0391412Y0377500D03*
X0381412Y0377500D03*
X0371412Y0377500D03*
X0361412Y0377500D03*
X0351412Y0377500D03*
X0341412Y0377500D03*
X0331412Y0377500D03*
X0321412Y0377500D03*
X0311412Y0377500D03*
X0301412Y0377500D03*
X0401412Y0377500D03*
X0488412Y0377500D03*
X0498412Y0377500D03*
X0508412Y0377500D03*
X0518412Y0377500D03*
X0528412Y0377500D03*
X0538412Y0377500D03*
X0548412Y0377500D03*
X0558412Y0377500D03*
X0568412Y0377500D03*
X0578412Y0377500D03*
X0588412Y0377500D03*
X0578412Y0387500D03*
X0568412Y0387500D03*
X0558412Y0387500D03*
X0548412Y0387500D03*
X0538412Y0387500D03*
X0528412Y0387500D03*
X0518412Y0387500D03*
X0508412Y0387500D03*
X0498412Y0387500D03*
X0488412Y0387500D03*
X0483412Y0322500D03*
X0483412Y0312500D03*
X0488412Y0287500D03*
X0498412Y0287500D03*
X0508412Y0287500D03*
X0518412Y0287500D03*
X0528412Y0287500D03*
X0538412Y0287500D03*
X0548412Y0287500D03*
X0558412Y0287500D03*
X0568412Y0287500D03*
X0578412Y0287500D03*
X0588412Y0287500D03*
X0588412Y0277500D03*
X0578412Y0277500D03*
X0568412Y0277500D03*
X0558412Y0277500D03*
X0548412Y0277500D03*
X0538412Y0277500D03*
X0528412Y0277500D03*
X0518412Y0277500D03*
X0508412Y0277500D03*
X0498412Y0277500D03*
X0488412Y0277500D03*
X0488412Y0265500D03*
X0498412Y0265500D03*
X0508412Y0265500D03*
X0518412Y0265500D03*
X0528412Y0265500D03*
X0538412Y0265500D03*
X0548412Y0265500D03*
X0558412Y0265500D03*
X0568412Y0265500D03*
X0578412Y0265500D03*
X0578412Y0255500D03*
X0588412Y0255500D03*
X0568412Y0255500D03*
X0558412Y0255500D03*
X0548412Y0255500D03*
X0538412Y0255500D03*
X0528412Y0255500D03*
X0518412Y0255500D03*
X0508412Y0255500D03*
X0498412Y0255500D03*
X0488412Y0255500D03*
X0421412Y0297500D03*
X0421412Y0307500D03*
X0608412Y0307500D03*
X0608412Y0297500D03*
X0608412Y0185500D03*
X0608412Y0175500D03*
D26*
X0463412Y0136043D03*
X0463412Y0128957D03*
X0276412Y0128957D03*
X0276412Y0136043D03*
X0276412Y0250957D03*
X0276412Y0258043D03*
X0463412Y0258043D03*
X0463412Y0250957D03*
X0463412Y0372957D03*
X0463412Y0380043D03*
X0276412Y0380043D03*
X0276412Y0372957D03*
X0089412Y0372957D03*
X0089412Y0380043D03*
X0089412Y0258043D03*
X0089412Y0250957D03*
X0089412Y0136043D03*
X0089412Y0128957D03*
D27*
X0097089Y0132500D03*
X0081735Y0132500D03*
X0268735Y0132500D03*
X0284089Y0132500D03*
X0455735Y0132500D03*
X0471089Y0132500D03*
X0471089Y0254500D03*
X0455735Y0254500D03*
X0284089Y0254500D03*
X0268735Y0254500D03*
X0097089Y0254500D03*
X0081735Y0254500D03*
X0081735Y0376500D03*
X0097089Y0376500D03*
X0268735Y0376500D03*
X0284089Y0376500D03*
X0455735Y0376500D03*
X0471089Y0376500D03*
D28*
X0467979Y0321437D03*
X0467979Y0313563D03*
X0467979Y0199437D03*
X0467979Y0191563D03*
X0467979Y0077437D03*
X0467979Y0069563D03*
X0280979Y0069563D03*
X0280979Y0077437D03*
X0280979Y0191563D03*
X0280979Y0199437D03*
X0280979Y0313563D03*
X0280979Y0321437D03*
X0093979Y0321437D03*
X0093979Y0313563D03*
X0093979Y0199437D03*
X0093979Y0191563D03*
X0093979Y0077437D03*
X0093979Y0069563D03*
D29*
X0073506Y0060114D03*
X0073506Y0086886D03*
X0073506Y0182114D03*
X0073506Y0208886D03*
X0073506Y0304114D03*
X0073506Y0330886D03*
X0260506Y0330886D03*
X0260506Y0304114D03*
X0260506Y0208886D03*
X0260506Y0182114D03*
X0260506Y0086886D03*
X0260506Y0060114D03*
X0447506Y0060114D03*
X0447506Y0086886D03*
X0447506Y0182114D03*
X0447506Y0208886D03*
X0447506Y0304114D03*
X0447506Y0330886D03*
D30*
X0421380Y0320976D03*
X0421380Y0343024D03*
X0608380Y0343024D03*
X0608380Y0320976D03*
X0608380Y0221024D03*
X0608380Y0198976D03*
X0608380Y0099024D03*
X0608380Y0076976D03*
X0421380Y0076976D03*
X0421380Y0099024D03*
X0421380Y0198976D03*
X0421380Y0221024D03*
X0234380Y0221024D03*
X0234380Y0198976D03*
X0234380Y0099024D03*
X0234380Y0076976D03*
X0234380Y0320976D03*
X0234380Y0343024D03*
D31*
X0219912Y0337906D03*
X0219912Y0333969D03*
X0219912Y0330031D03*
X0219912Y0326094D03*
X0219912Y0215906D03*
X0219912Y0211969D03*
X0219912Y0208031D03*
X0219912Y0204094D03*
X0219912Y0093906D03*
X0219912Y0089969D03*
X0219912Y0086031D03*
X0219912Y0082094D03*
X0406912Y0082094D03*
X0406912Y0086031D03*
X0406912Y0089969D03*
X0406912Y0093906D03*
X0406912Y0204094D03*
X0406912Y0208031D03*
X0406912Y0211969D03*
X0406912Y0215906D03*
X0406912Y0326094D03*
X0406912Y0330031D03*
X0406912Y0333969D03*
X0406912Y0337906D03*
X0593912Y0337906D03*
X0593912Y0333969D03*
X0593912Y0330031D03*
X0593912Y0326094D03*
X0593912Y0215906D03*
X0593912Y0211969D03*
X0593912Y0208031D03*
X0593912Y0204094D03*
X0593912Y0093906D03*
X0593912Y0089969D03*
X0593912Y0086031D03*
X0593912Y0082094D03*
D32*
X0069412Y0044000D03*
X0236412Y0130900D03*
X0256412Y0166000D03*
X0236412Y0252900D03*
X0256412Y0288000D03*
X0236412Y0374900D03*
X0101412Y0400750D03*
X0069412Y0288000D03*
X0069412Y0166000D03*
X0256412Y0044000D03*
X0423412Y0130900D03*
X0443412Y0166000D03*
X0423412Y0252900D03*
X0443412Y0288000D03*
X0423412Y0374900D03*
X0576412Y0400750D03*
X0610412Y0374900D03*
X0610412Y0252900D03*
X0610412Y0130900D03*
X0443412Y0044000D03*
D33*
X0381833Y0112500D03*
X0371991Y0112500D03*
X0194833Y0112500D03*
X0184991Y0112500D03*
X0184991Y0234500D03*
X0194833Y0234500D03*
X0371991Y0234500D03*
X0381833Y0234500D03*
X0558991Y0234500D03*
X0568833Y0234500D03*
X0568833Y0356500D03*
X0558991Y0356500D03*
X0381833Y0356500D03*
X0371991Y0356500D03*
X0194833Y0356500D03*
X0184991Y0356500D03*
X0558991Y0112500D03*
X0568833Y0112500D03*
D34*
X0582998Y0115500D03*
X0593825Y0115500D03*
X0406825Y0115500D03*
X0395998Y0115500D03*
X0219825Y0115500D03*
X0208998Y0115500D03*
X0208998Y0237500D03*
X0219825Y0237500D03*
X0395998Y0237500D03*
X0406825Y0237500D03*
X0582998Y0237500D03*
X0593825Y0237500D03*
X0593825Y0359500D03*
X0582998Y0359500D03*
X0406825Y0359500D03*
X0395998Y0359500D03*
X0219825Y0359500D03*
X0208998Y0359500D03*
D35*
X0214412Y0353496D03*
X0214412Y0365504D03*
X0401412Y0365504D03*
X0401412Y0353496D03*
X0401412Y0243504D03*
X0401412Y0231496D03*
X0401412Y0121504D03*
X0401412Y0109496D03*
X0588412Y0109496D03*
X0588412Y0121504D03*
X0588412Y0231496D03*
X0588412Y0243504D03*
X0588412Y0353496D03*
X0588412Y0365504D03*
X0214412Y0243504D03*
X0214412Y0231496D03*
X0214412Y0121504D03*
X0214412Y0109496D03*
D36*
X0191239Y0102386D03*
X0189270Y0102386D03*
X0187302Y0102386D03*
X0185333Y0102386D03*
X0183365Y0102386D03*
X0181396Y0102386D03*
X0179428Y0102386D03*
X0177459Y0102386D03*
X0175491Y0102386D03*
X0173522Y0102386D03*
X0171554Y0102386D03*
X0169585Y0102386D03*
X0169585Y0075614D03*
X0171554Y0075614D03*
X0173522Y0075614D03*
X0175491Y0075614D03*
X0177459Y0075614D03*
X0179428Y0075614D03*
X0181396Y0075614D03*
X0183365Y0075614D03*
X0185333Y0075614D03*
X0187302Y0075614D03*
X0189270Y0075614D03*
X0191239Y0075614D03*
X0356585Y0075614D03*
X0358554Y0075614D03*
X0360522Y0075614D03*
X0362491Y0075614D03*
X0364459Y0075614D03*
X0366428Y0075614D03*
X0368396Y0075614D03*
X0370365Y0075614D03*
X0372333Y0075614D03*
X0374302Y0075614D03*
X0376270Y0075614D03*
X0378239Y0075614D03*
X0378239Y0102386D03*
X0376270Y0102386D03*
X0374302Y0102386D03*
X0372333Y0102386D03*
X0370365Y0102386D03*
X0368396Y0102386D03*
X0366428Y0102386D03*
X0364459Y0102386D03*
X0362491Y0102386D03*
X0360522Y0102386D03*
X0358554Y0102386D03*
X0356585Y0102386D03*
X0356585Y0197614D03*
X0358554Y0197614D03*
X0360522Y0197614D03*
X0362491Y0197614D03*
X0364459Y0197614D03*
X0366428Y0197614D03*
X0368396Y0197614D03*
X0370365Y0197614D03*
X0372333Y0197614D03*
X0374302Y0197614D03*
X0376270Y0197614D03*
X0378239Y0197614D03*
X0378239Y0224386D03*
X0376270Y0224386D03*
X0374302Y0224386D03*
X0372333Y0224386D03*
X0370365Y0224386D03*
X0368396Y0224386D03*
X0366428Y0224386D03*
X0364459Y0224386D03*
X0362491Y0224386D03*
X0360522Y0224386D03*
X0358554Y0224386D03*
X0356585Y0224386D03*
X0356585Y0319614D03*
X0358554Y0319614D03*
X0360522Y0319614D03*
X0362491Y0319614D03*
X0364459Y0319614D03*
X0366428Y0319614D03*
X0368396Y0319614D03*
X0370365Y0319614D03*
X0372333Y0319614D03*
X0374302Y0319614D03*
X0376270Y0319614D03*
X0378239Y0319614D03*
X0378239Y0346386D03*
X0376270Y0346386D03*
X0374302Y0346386D03*
X0372333Y0346386D03*
X0370365Y0346386D03*
X0368396Y0346386D03*
X0366428Y0346386D03*
X0364459Y0346386D03*
X0362491Y0346386D03*
X0360522Y0346386D03*
X0358554Y0346386D03*
X0356585Y0346386D03*
X0191239Y0346386D03*
X0189270Y0346386D03*
X0187302Y0346386D03*
X0185333Y0346386D03*
X0183365Y0346386D03*
X0181396Y0346386D03*
X0179428Y0346386D03*
X0177459Y0346386D03*
X0175491Y0346386D03*
X0173522Y0346386D03*
X0171554Y0346386D03*
X0169585Y0346386D03*
X0169585Y0319614D03*
X0171554Y0319614D03*
X0173522Y0319614D03*
X0175491Y0319614D03*
X0177459Y0319614D03*
X0179428Y0319614D03*
X0181396Y0319614D03*
X0183365Y0319614D03*
X0185333Y0319614D03*
X0187302Y0319614D03*
X0189270Y0319614D03*
X0191239Y0319614D03*
X0191239Y0224386D03*
X0189270Y0224386D03*
X0187302Y0224386D03*
X0185333Y0224386D03*
X0183365Y0224386D03*
X0181396Y0224386D03*
X0179428Y0224386D03*
X0177459Y0224386D03*
X0175491Y0224386D03*
X0173522Y0224386D03*
X0171554Y0224386D03*
X0169585Y0224386D03*
X0169585Y0197614D03*
X0171554Y0197614D03*
X0173522Y0197614D03*
X0175491Y0197614D03*
X0177459Y0197614D03*
X0179428Y0197614D03*
X0181396Y0197614D03*
X0183365Y0197614D03*
X0185333Y0197614D03*
X0187302Y0197614D03*
X0189270Y0197614D03*
X0191239Y0197614D03*
X0543585Y0197614D03*
X0545554Y0197614D03*
X0547522Y0197614D03*
X0549491Y0197614D03*
X0551459Y0197614D03*
X0553428Y0197614D03*
X0555396Y0197614D03*
X0557365Y0197614D03*
X0559333Y0197614D03*
X0561302Y0197614D03*
X0563270Y0197614D03*
X0565239Y0197614D03*
X0565239Y0224386D03*
X0563270Y0224386D03*
X0561302Y0224386D03*
X0559333Y0224386D03*
X0557365Y0224386D03*
X0555396Y0224386D03*
X0553428Y0224386D03*
X0551459Y0224386D03*
X0549491Y0224386D03*
X0547522Y0224386D03*
X0545554Y0224386D03*
X0543585Y0224386D03*
X0543585Y0319614D03*
X0545554Y0319614D03*
X0547522Y0319614D03*
X0549491Y0319614D03*
X0551459Y0319614D03*
X0553428Y0319614D03*
X0555396Y0319614D03*
X0557365Y0319614D03*
X0559333Y0319614D03*
X0561302Y0319614D03*
X0563270Y0319614D03*
X0565239Y0319614D03*
X0565239Y0346386D03*
X0563270Y0346386D03*
X0561302Y0346386D03*
X0559333Y0346386D03*
X0557365Y0346386D03*
X0555396Y0346386D03*
X0553428Y0346386D03*
X0551459Y0346386D03*
X0549491Y0346386D03*
X0547522Y0346386D03*
X0545554Y0346386D03*
X0543585Y0346386D03*
X0543585Y0102386D03*
X0545554Y0102386D03*
X0547522Y0102386D03*
X0549491Y0102386D03*
X0551459Y0102386D03*
X0553428Y0102386D03*
X0555396Y0102386D03*
X0557365Y0102386D03*
X0559333Y0102386D03*
X0561302Y0102386D03*
X0563270Y0102386D03*
X0565239Y0102386D03*
X0565239Y0075614D03*
X0563270Y0075614D03*
X0561302Y0075614D03*
X0559333Y0075614D03*
X0557365Y0075614D03*
X0555396Y0075614D03*
X0553428Y0075614D03*
X0551459Y0075614D03*
X0549491Y0075614D03*
X0547522Y0075614D03*
X0545554Y0075614D03*
X0543585Y0075614D03*
D37*
X0541026Y0078173D03*
X0541026Y0080142D03*
X0541026Y0082110D03*
X0541026Y0084079D03*
X0541026Y0086047D03*
X0541026Y0088016D03*
X0541026Y0089984D03*
X0541026Y0091953D03*
X0541026Y0093921D03*
X0541026Y0095890D03*
X0541026Y0097858D03*
X0541026Y0099827D03*
X0567798Y0099827D03*
X0567798Y0097858D03*
X0567798Y0095890D03*
X0567798Y0093921D03*
X0567798Y0091953D03*
X0567798Y0089984D03*
X0567798Y0088016D03*
X0567798Y0086047D03*
X0567798Y0084079D03*
X0567798Y0082110D03*
X0567798Y0080142D03*
X0567798Y0078173D03*
X0380798Y0078173D03*
X0380798Y0080142D03*
X0380798Y0082110D03*
X0380798Y0084079D03*
X0380798Y0086047D03*
X0380798Y0088016D03*
X0380798Y0089984D03*
X0380798Y0091953D03*
X0380798Y0093921D03*
X0380798Y0095890D03*
X0380798Y0097858D03*
X0380798Y0099827D03*
X0354026Y0099827D03*
X0354026Y0097858D03*
X0354026Y0095890D03*
X0354026Y0093921D03*
X0354026Y0091953D03*
X0354026Y0089984D03*
X0354026Y0088016D03*
X0354026Y0086047D03*
X0354026Y0084079D03*
X0354026Y0082110D03*
X0354026Y0080142D03*
X0354026Y0078173D03*
X0193798Y0078173D03*
X0193798Y0080142D03*
X0193798Y0082110D03*
X0193798Y0084079D03*
X0193798Y0086047D03*
X0193798Y0088016D03*
X0193798Y0089984D03*
X0193798Y0091953D03*
X0193798Y0093921D03*
X0193798Y0095890D03*
X0193798Y0097858D03*
X0193798Y0099827D03*
X0167026Y0099827D03*
X0167026Y0097858D03*
X0167026Y0095890D03*
X0167026Y0093921D03*
X0167026Y0091953D03*
X0167026Y0089984D03*
X0167026Y0088016D03*
X0167026Y0086047D03*
X0167026Y0084079D03*
X0167026Y0082110D03*
X0167026Y0080142D03*
X0167026Y0078173D03*
X0167026Y0200173D03*
X0167026Y0202142D03*
X0167026Y0204110D03*
X0167026Y0206079D03*
X0167026Y0208047D03*
X0167026Y0210016D03*
X0167026Y0211984D03*
X0167026Y0213953D03*
X0167026Y0215921D03*
X0167026Y0217890D03*
X0167026Y0219858D03*
X0167026Y0221827D03*
X0193798Y0221827D03*
X0193798Y0219858D03*
X0193798Y0217890D03*
X0193798Y0215921D03*
X0193798Y0213953D03*
X0193798Y0211984D03*
X0193798Y0210016D03*
X0193798Y0208047D03*
X0193798Y0206079D03*
X0193798Y0204110D03*
X0193798Y0202142D03*
X0193798Y0200173D03*
X0354026Y0200173D03*
X0354026Y0202142D03*
X0354026Y0204110D03*
X0354026Y0206079D03*
X0354026Y0208047D03*
X0354026Y0210016D03*
X0354026Y0211984D03*
X0354026Y0213953D03*
X0354026Y0215921D03*
X0354026Y0217890D03*
X0354026Y0219858D03*
X0354026Y0221827D03*
X0380798Y0221827D03*
X0380798Y0219858D03*
X0380798Y0217890D03*
X0380798Y0215921D03*
X0380798Y0213953D03*
X0380798Y0211984D03*
X0380798Y0210016D03*
X0380798Y0208047D03*
X0380798Y0206079D03*
X0380798Y0204110D03*
X0380798Y0202142D03*
X0380798Y0200173D03*
X0541026Y0200173D03*
X0541026Y0202142D03*
X0541026Y0204110D03*
X0541026Y0206079D03*
X0541026Y0208047D03*
X0541026Y0210016D03*
X0541026Y0211984D03*
X0541026Y0213953D03*
X0541026Y0215921D03*
X0541026Y0217890D03*
X0541026Y0219858D03*
X0541026Y0221827D03*
X0567798Y0221827D03*
X0567798Y0219858D03*
X0567798Y0217890D03*
X0567798Y0215921D03*
X0567798Y0213953D03*
X0567798Y0211984D03*
X0567798Y0210016D03*
X0567798Y0208047D03*
X0567798Y0206079D03*
X0567798Y0204110D03*
X0567798Y0202142D03*
X0567798Y0200173D03*
X0567798Y0322173D03*
X0567798Y0324142D03*
X0567798Y0326110D03*
X0567798Y0328079D03*
X0567798Y0330047D03*
X0567798Y0332016D03*
X0567798Y0333984D03*
X0567798Y0335953D03*
X0567798Y0337921D03*
X0567798Y0339890D03*
X0567798Y0341858D03*
X0567798Y0343827D03*
X0541026Y0343827D03*
X0541026Y0341858D03*
X0541026Y0339890D03*
X0541026Y0337921D03*
X0541026Y0335953D03*
X0541026Y0333984D03*
X0541026Y0332016D03*
X0541026Y0330047D03*
X0541026Y0328079D03*
X0541026Y0326110D03*
X0541026Y0324142D03*
X0541026Y0322173D03*
X0380798Y0322173D03*
X0380798Y0324142D03*
X0380798Y0326110D03*
X0380798Y0328079D03*
X0380798Y0330047D03*
X0380798Y0332016D03*
X0380798Y0333984D03*
X0380798Y0335953D03*
X0380798Y0337921D03*
X0380798Y0339890D03*
X0380798Y0341858D03*
X0380798Y0343827D03*
X0354026Y0343827D03*
X0354026Y0341858D03*
X0354026Y0339890D03*
X0354026Y0337921D03*
X0354026Y0335953D03*
X0354026Y0333984D03*
X0354026Y0332016D03*
X0354026Y0330047D03*
X0354026Y0328079D03*
X0354026Y0326110D03*
X0354026Y0324142D03*
X0354026Y0322173D03*
X0193798Y0322173D03*
X0193798Y0324142D03*
X0193798Y0326110D03*
X0193798Y0328079D03*
X0193798Y0330047D03*
X0193798Y0332016D03*
X0193798Y0333984D03*
X0193798Y0335953D03*
X0193798Y0337921D03*
X0193798Y0339890D03*
X0193798Y0341858D03*
X0193798Y0343827D03*
X0167026Y0343827D03*
X0167026Y0341858D03*
X0167026Y0339890D03*
X0167026Y0337921D03*
X0167026Y0335953D03*
X0167026Y0333984D03*
X0167026Y0332016D03*
X0167026Y0330047D03*
X0167026Y0328079D03*
X0167026Y0326110D03*
X0167026Y0324142D03*
X0167026Y0322173D03*
D38*
X0229412Y0282500D03*
X0229412Y0260500D03*
X0229412Y0160500D03*
X0229412Y0138500D03*
X0229412Y0038500D03*
X0416412Y0038500D03*
X0416412Y0138500D03*
X0416412Y0160500D03*
X0416412Y0260500D03*
X0416412Y0282500D03*
X0416412Y0382500D03*
X0603412Y0382500D03*
X0603412Y0282500D03*
X0603412Y0260500D03*
X0603412Y0160500D03*
X0603412Y0138500D03*
X0603412Y0038500D03*
X0229412Y0382500D03*
D39*
X0097847Y0020250D02*
X0097849Y0020369D01*
X0097855Y0020488D01*
X0097865Y0020607D01*
X0097879Y0020725D01*
X0097897Y0020843D01*
X0097918Y0020960D01*
X0097944Y0021076D01*
X0097974Y0021192D01*
X0098007Y0021306D01*
X0098044Y0021419D01*
X0098085Y0021531D01*
X0098130Y0021642D01*
X0098178Y0021751D01*
X0098230Y0021858D01*
X0098286Y0021963D01*
X0098345Y0022067D01*
X0098407Y0022168D01*
X0098473Y0022268D01*
X0098542Y0022365D01*
X0098614Y0022459D01*
X0098690Y0022552D01*
X0098768Y0022641D01*
X0098849Y0022728D01*
X0098934Y0022813D01*
X0099021Y0022894D01*
X0099110Y0022972D01*
X0099203Y0023048D01*
X0099297Y0023120D01*
X0099394Y0023189D01*
X0099494Y0023255D01*
X0099595Y0023317D01*
X0099699Y0023376D01*
X0099804Y0023432D01*
X0099911Y0023484D01*
X0100020Y0023532D01*
X0100131Y0023577D01*
X0100243Y0023618D01*
X0100356Y0023655D01*
X0100470Y0023688D01*
X0100586Y0023718D01*
X0100702Y0023744D01*
X0100819Y0023765D01*
X0100937Y0023783D01*
X0101055Y0023797D01*
X0101174Y0023807D01*
X0101293Y0023813D01*
X0101412Y0023815D01*
X0101531Y0023813D01*
X0101650Y0023807D01*
X0101769Y0023797D01*
X0101887Y0023783D01*
X0102005Y0023765D01*
X0102122Y0023744D01*
X0102238Y0023718D01*
X0102354Y0023688D01*
X0102468Y0023655D01*
X0102581Y0023618D01*
X0102693Y0023577D01*
X0102804Y0023532D01*
X0102913Y0023484D01*
X0103020Y0023432D01*
X0103125Y0023376D01*
X0103229Y0023317D01*
X0103330Y0023255D01*
X0103430Y0023189D01*
X0103527Y0023120D01*
X0103621Y0023048D01*
X0103714Y0022972D01*
X0103803Y0022894D01*
X0103890Y0022813D01*
X0103975Y0022728D01*
X0104056Y0022641D01*
X0104134Y0022552D01*
X0104210Y0022459D01*
X0104282Y0022365D01*
X0104351Y0022268D01*
X0104417Y0022168D01*
X0104479Y0022067D01*
X0104538Y0021963D01*
X0104594Y0021858D01*
X0104646Y0021751D01*
X0104694Y0021642D01*
X0104739Y0021531D01*
X0104780Y0021419D01*
X0104817Y0021306D01*
X0104850Y0021192D01*
X0104880Y0021076D01*
X0104906Y0020960D01*
X0104927Y0020843D01*
X0104945Y0020725D01*
X0104959Y0020607D01*
X0104969Y0020488D01*
X0104975Y0020369D01*
X0104977Y0020250D01*
X0104975Y0020131D01*
X0104969Y0020012D01*
X0104959Y0019893D01*
X0104945Y0019775D01*
X0104927Y0019657D01*
X0104906Y0019540D01*
X0104880Y0019424D01*
X0104850Y0019308D01*
X0104817Y0019194D01*
X0104780Y0019081D01*
X0104739Y0018969D01*
X0104694Y0018858D01*
X0104646Y0018749D01*
X0104594Y0018642D01*
X0104538Y0018537D01*
X0104479Y0018433D01*
X0104417Y0018332D01*
X0104351Y0018232D01*
X0104282Y0018135D01*
X0104210Y0018041D01*
X0104134Y0017948D01*
X0104056Y0017859D01*
X0103975Y0017772D01*
X0103890Y0017687D01*
X0103803Y0017606D01*
X0103714Y0017528D01*
X0103621Y0017452D01*
X0103527Y0017380D01*
X0103430Y0017311D01*
X0103330Y0017245D01*
X0103229Y0017183D01*
X0103125Y0017124D01*
X0103020Y0017068D01*
X0102913Y0017016D01*
X0102804Y0016968D01*
X0102693Y0016923D01*
X0102581Y0016882D01*
X0102468Y0016845D01*
X0102354Y0016812D01*
X0102238Y0016782D01*
X0102122Y0016756D01*
X0102005Y0016735D01*
X0101887Y0016717D01*
X0101769Y0016703D01*
X0101650Y0016693D01*
X0101531Y0016687D01*
X0101412Y0016685D01*
X0101293Y0016687D01*
X0101174Y0016693D01*
X0101055Y0016703D01*
X0100937Y0016717D01*
X0100819Y0016735D01*
X0100702Y0016756D01*
X0100586Y0016782D01*
X0100470Y0016812D01*
X0100356Y0016845D01*
X0100243Y0016882D01*
X0100131Y0016923D01*
X0100020Y0016968D01*
X0099911Y0017016D01*
X0099804Y0017068D01*
X0099699Y0017124D01*
X0099595Y0017183D01*
X0099494Y0017245D01*
X0099394Y0017311D01*
X0099297Y0017380D01*
X0099203Y0017452D01*
X0099110Y0017528D01*
X0099021Y0017606D01*
X0098934Y0017687D01*
X0098849Y0017772D01*
X0098768Y0017859D01*
X0098690Y0017948D01*
X0098614Y0018041D01*
X0098542Y0018135D01*
X0098473Y0018232D01*
X0098407Y0018332D01*
X0098345Y0018433D01*
X0098286Y0018537D01*
X0098230Y0018642D01*
X0098178Y0018749D01*
X0098130Y0018858D01*
X0098085Y0018969D01*
X0098044Y0019081D01*
X0098007Y0019194D01*
X0097974Y0019308D01*
X0097944Y0019424D01*
X0097918Y0019540D01*
X0097897Y0019657D01*
X0097879Y0019775D01*
X0097865Y0019893D01*
X0097855Y0020012D01*
X0097849Y0020131D01*
X0097847Y0020250D01*
D40*
X0101412Y0020250D03*
M02*
