M48
;GenerationSoftware,Autodesk,EAGLE,9.6.2*%
;CreationDate,2024-01-16T16:41:56Z*%
FMAT,2
ICI,OFF
METRIC,TZ,000.000
T7C0.305
T6C0.350
T5C0.700
T4C0.900
T3C1.016
T2C1.700
T1C3.048
%
G90
M71
T1
X136906Y58928
X89408Y27940
X89408Y2540
X136906Y33528
X136906Y89916
X136906Y64516
X136906Y27940
X136906Y2540
X41910Y89916
X41910Y64516
X41910Y58928
X41910Y33528
X89408Y89916
X89408Y58928
X89408Y33528
X89408Y64516
X41910Y27940
X41910Y2540
T2
X85598Y91186
X133096Y91186
X38100Y29210
X85598Y29210
X133096Y29210
X38100Y60198
X85598Y60198
X133096Y60198
X38100Y91186
T3
X38100Y26670
X77978Y88646
X80518Y88646
X83058Y88646
X85598Y88646
X130556Y34798
X90678Y68326
X90678Y70866
X106426Y72136
X106426Y74676
X107696Y91186
X107696Y88646
X107696Y63246
X107696Y65786
X110236Y65786
X112776Y65786
X115316Y65786
X117856Y65786
X120396Y65786
X122936Y65786
X125476Y65786
X128016Y65786
X130556Y65786
X133096Y65786
X110236Y63246
X112776Y63246
X115316Y63246
X117856Y63246
X120396Y63246
X122936Y63246
X125476Y63246
X128016Y63246
X130556Y63246
X133096Y63246
X110236Y91186
X112776Y91186
X115316Y91186
X117856Y91186
X120396Y91186
X122936Y91186
X125476Y91186
X128016Y91186
X130556Y91186
X110236Y88646
X112776Y88646
X115316Y88646
X117856Y88646
X120396Y88646
X122936Y88646
X22860Y60198
X125476Y88646
X128016Y88646
X130556Y88646
X133096Y88646
X138176Y68326
X11430Y10160
X11430Y12700
X12700Y29210
X12700Y26670
X12700Y1270
X12700Y3810
X15240Y3810
X17780Y3810
X20320Y3810
X22860Y3810
X25400Y3810
X27940Y3810
X30480Y3810
X33020Y3810
X35560Y3810
X38100Y3810
X15240Y1270
X17780Y1270
X20320Y1270
X22860Y1270
X25400Y1270
X27940Y1270
X30480Y1270
X33020Y1270
X35560Y1270
X38100Y1270
X15240Y29210
X17780Y29210
X20320Y29210
X22860Y29210
X25400Y29210
X27940Y29210
X30480Y29210
X33020Y29210
X35560Y29210
X15240Y26670
X17780Y26670
X20320Y26670
X22860Y26670
X25400Y26670
X27940Y26670
X30480Y26670
X33020Y26670
X35560Y26670
X138176Y70866
X43180Y6350
X43180Y8890
X58928Y10160
X58928Y12700
X60198Y29210
X60198Y26670
X60198Y1270
X60198Y3810
X62738Y3810
X65278Y3810
X67818Y3810
X70358Y3810
X72898Y3810
X75438Y3810
X77978Y3810
X80518Y3810
X83058Y3810
X85598Y3810
X62738Y1270
X65278Y1270
X67818Y1270
X70358Y1270
X72898Y1270
X75438Y1270
X77978Y1270
X80518Y1270
X83058Y1270
X85598Y1270
X62738Y29210
X65278Y29210
X67818Y29210
X70358Y29210
X72898Y29210
X75438Y29210
X77978Y29210
X80518Y29210
X83058Y29210
X62738Y26670
X65278Y26670
X67818Y26670
X70358Y26670
X72898Y26670
X75438Y26670
X77978Y26670
X80518Y26670
X83058Y26670
X85598Y26670
X90678Y6350
X90678Y8890
X106426Y10160
X106426Y12700
X107696Y29210
X107696Y26670
X107696Y1270
X107696Y3810
X110236Y3810
X112776Y3810
X115316Y3810
X117856Y3810
X120396Y3810
X122936Y3810
X125476Y3810
X128016Y3810
X130556Y3810
X133096Y3810
X110236Y1270
X112776Y1270
X115316Y1270
X117856Y1270
X120396Y1270
X122936Y1270
X125476Y1270
X128016Y1270
X130556Y1270
X133096Y1270
X110236Y29210
X112776Y29210
X115316Y29210
X117856Y29210
X120396Y29210
X122936Y29210
X125476Y29210
X128016Y29210
X130556Y29210
X110236Y26670
X112776Y26670
X115316Y26670
X117856Y26670
X120396Y26670
X122936Y26670
X125476Y26670
X128016Y26670
X130556Y26670
X133096Y26670
X138176Y6350
X138176Y8890
X11430Y41148
X11430Y43688
X12700Y60198
X12700Y57658
X12700Y32258
X12700Y34798
X15240Y34798
X17780Y34798
X20320Y34798
X22860Y34798
X25400Y34798
X27940Y34798
X30480Y34798
X33020Y34798
X35560Y34798
X38100Y34798
X15240Y32258
X17780Y32258
X20320Y32258
X22860Y32258
X25400Y32258
X27940Y32258
X30480Y32258
X33020Y32258
X35560Y32258
X38100Y32258
X15240Y60198
X17780Y60198
X20320Y60198
X72898Y91186
X25400Y60198
X27940Y60198
X30480Y60198
X33020Y60198
X35560Y60198
X15240Y57658
X17780Y57658
X20320Y57658
X22860Y57658
X25400Y57658
X27940Y57658
X30480Y57658
X33020Y57658
X35560Y57658
X38100Y57658
X43180Y37338
X43180Y39878
X58928Y41148
X58928Y43688
X60198Y60198
X60198Y57658
X60198Y32258
X60198Y34798
X62738Y34798
X65278Y34798
X67818Y34798
X70358Y34798
X72898Y34798
X75438Y34798
X77978Y34798
X80518Y34798
X83058Y34798
X85598Y34798
X62738Y32258
X65278Y32258
X67818Y32258
X70358Y32258
X72898Y32258
X75438Y32258
X77978Y32258
X80518Y32258
X83058Y32258
X85598Y32258
X62738Y60198
X65278Y60198
X67818Y60198
X70358Y60198
X72898Y60198
X75438Y60198
X77978Y60198
X80518Y60198
X83058Y60198
X62738Y57658
X65278Y57658
X67818Y57658
X70358Y57658
X72898Y57658
X75438Y57658
X77978Y57658
X80518Y57658
X83058Y57658
X85598Y57658
X90678Y37338
X90678Y39878
X106426Y41148
X106426Y43688
X107696Y60198
X107696Y57658
X107696Y32258
X107696Y34798
X110236Y34798
X112776Y34798
X115316Y34798
X117856Y34798
X120396Y34798
X122936Y34798
X125476Y34798
X128016Y34798
X133096Y34798
X110236Y32258
X112776Y32258
X115316Y32258
X117856Y32258
X120396Y32258
X122936Y32258
X125476Y32258
X128016Y32258
X130556Y32258
X133096Y32258
X110236Y60198
X112776Y60198
X115316Y60198
X117856Y60198
X120396Y60198
X122936Y60198
X125476Y60198
X128016Y60198
X130556Y60198
X110236Y57658
X112776Y57658
X115316Y57658
X117856Y57658
X120396Y57658
X122936Y57658
X125476Y57658
X128016Y57658
X130556Y57658
X133096Y57658
X138176Y37338
X138176Y39878
X11430Y72136
X11430Y74676
X12700Y91186
X12700Y88646
X12700Y63246
X12700Y65786
X15240Y65786
X17780Y65786
X20320Y65786
X22860Y65786
X25400Y65786
X27940Y65786
X30480Y65786
X33020Y65786
X35560Y65786
X38100Y65786
X15240Y63246
X17780Y63246
X20320Y63246
X22860Y63246
X25400Y63246
X27940Y63246
X30480Y63246
X33020Y63246
X35560Y63246
X38100Y63246
X15240Y91186
X17780Y91186
X20320Y91186
X22860Y91186
X25400Y91186
X27940Y91186
X30480Y91186
X33020Y91186
X35560Y91186
X15240Y88646
X17780Y88646
X20320Y88646
X22860Y88646
X25400Y88646
X27940Y88646
X30480Y88646
X33020Y88646
X35560Y88646
X38100Y88646
X43180Y68326
X43180Y70866
X58928Y72136
X58928Y74676
X60198Y91186
X60198Y88646
X60198Y63246
X60198Y65786
X62738Y65786
X65278Y65786
X67818Y65786
X70358Y65786
X72898Y65786
X75438Y65786
X77978Y65786
X80518Y65786
X83058Y65786
X85598Y65786
X62738Y63246
X65278Y63246
X67818Y63246
X70358Y63246
X72898Y63246
X75438Y63246
X77978Y63246
X80518Y63246
X83058Y63246
X85598Y63246
X62738Y91186
X65278Y91186
X67818Y91186
X70358Y91186
X75438Y91186
X77978Y91186
X80518Y91186
X83058Y91186
X62738Y88646
X65278Y88646
X67818Y88646
X70358Y88646
X72898Y88646
X75438Y88646
T4
X4850Y4064
X102846Y4064
X99846Y4064
X55348Y4064
X52348Y4064
X99846Y66040
X55348Y35052
X102846Y66040
X52348Y66040
X55348Y66040
X4850Y66040
X7850Y66040
X99846Y35052
X102846Y35052
X52348Y35052
X4850Y35052
X7850Y35052
X7850Y4064
T5
X6350Y87492
X6350Y89292
X101346Y87492
X101346Y89292
X53848Y87492
X6350Y25516
X6350Y27316
X53848Y25516
X53848Y27316
X53848Y89292
X101346Y27316
X6350Y56504
X6350Y58304
X101346Y25516
X53848Y56504
X53848Y58304
X101346Y56504
X101346Y58304
T6
X13894Y41758
X96266Y24257
X61392Y41758
X108890Y10770
X108890Y41758
X61392Y10770
X1270Y86233
X108890Y72746
X48768Y86233
X1270Y55245
X13894Y10770
X1270Y24257
X48768Y55245
X96266Y55245
X13894Y72746
X61392Y72746
X48768Y24257
X96266Y86233
T7
X131724Y44704
X128651Y46101
X126746Y43815
X121539Y35687
X127000Y46101
X97917Y58039
X130683Y50292
X125349Y50673
X130683Y49403
X131572Y56515
X129413Y55118
X118237Y54610
X109982Y45212
X110998Y51943
X121539Y55118
X124206Y55118
X126746Y55118
X116459Y39497
X97536Y42418
X101346Y44958
X101346Y39878
X114808Y47879
X105156Y44958
X122174Y43815
X116332Y41656
X116332Y42926
X121920Y39497
X126111Y50673
X127762Y50673
X124587Y50673
X128016Y54356
X123825Y50673
X125476Y54356
X121539Y41656
X101727Y51054
X123126Y38418
X122301Y46990
X116713Y45974
X131699Y45593
X123825Y44323
X123825Y46355
X109728Y37592
X116459Y55245
X107188Y45974
X110236Y49911
X113538Y49911
X125730Y41275
X101727Y50292
X123952Y38354
X103759Y40386
X124460Y46990
X124206Y45085
X123444Y40767
X127000Y45339
X128270Y38989
X128626Y45110
X117094Y56007
X102743Y55245
X104521Y57404
X131902Y46482
X124460Y43815
X131699Y47752
X124841Y45720
X125476Y44577
X126238Y40005
X126746Y39370
X125984Y43815
X121031Y50292
X125476Y48895
X123571Y41529
X125603Y40513
X128778Y40640
X96266Y47358
X124714Y48895
X122428Y51689
X128651Y44374
X130048Y40513
X132207Y36830
X111633Y36703
X126238Y48895
X116967Y44323
X126492Y47244
X129032Y38989
X128397Y37338
X127000Y44577
X127508Y38989
X125857Y37338
X122555Y44704
X121920Y45593
X123190Y46990
X116713Y47879
X116205Y36322
X124587Y36322
X112522Y45212
X116205Y44196
X110744Y45974
X100584Y52608
X6223Y80645
X36728Y75692
X33655Y77089
X31750Y74803
X26543Y66675
X32004Y77089
X2921Y89027
X35687Y81280
X30353Y81661
X35687Y80391
X36576Y87503
X34417Y86106
X23241Y85598
X14986Y76200
X16002Y82931
X26543Y86106
X29210Y86106
X31750Y86106
X21463Y70485
X2540Y73406
X6350Y75946
X6350Y70866
X19812Y78867
X10160Y75946
X27178Y74803
X21336Y72644
X21336Y73914
X26924Y70485
X31115Y81661
X32766Y81661
X29591Y81661
X33020Y85344
X28829Y81661
X30480Y85344
X26543Y72644
X6731Y82042
X28130Y69406
X27305Y77978
X21717Y76962
X36703Y76581
X28829Y75311
X28829Y77343
X14732Y68580
X21463Y86233
X12192Y76962
X15240Y80899
X18542Y80899
X30734Y72263
X6731Y81280
X28956Y69342
X8763Y71374
X29464Y77978
X29210Y76073
X28448Y71755
X32004Y76327
X33274Y69977
X33630Y76098
X22098Y86995
X7747Y86233
X9525Y88392
X36906Y77470
X29464Y74803
X36703Y78740
X29845Y76708
X30480Y75565
X31242Y70993
X31750Y70358
X30988Y74803
X26035Y81280
X30480Y79883
X28575Y72517
X30607Y71501
X33782Y71628
X1270Y78346
X29718Y79883
X27432Y82677
X33655Y75362
X35052Y71501
X37211Y67818
X16637Y67691
X31242Y79883
X21971Y75311
X31496Y78232
X34036Y69977
X33401Y68326
X32004Y75565
X32512Y69977
X30861Y68326
X27559Y75692
X26924Y76581
X28194Y77978
X21717Y78867
X6223Y18669
X29591Y67310
X17526Y76200
X21209Y75184
X15748Y76962
X5588Y83596
X36728Y13716
X53721Y80645
X84226Y75692
X81153Y77089
X79248Y74803
X74041Y66675
X79502Y77089
X50419Y89027
X83185Y81280
X77851Y81661
X83185Y80391
X84074Y87503
X81915Y86106
X70739Y85598
X62484Y76200
X63500Y82931
X74041Y86106
X76708Y86106
X79248Y86106
X68961Y70485
X50038Y73406
X53848Y75946
X53848Y70866
X67310Y78867
X57658Y75946
X74676Y74803
X68834Y72644
X68834Y73914
X74422Y70485
X78613Y81661
X80264Y81661
X77089Y81661
X80518Y85344
X76327Y81661
X77978Y85344
X74041Y72644
X54229Y82042
X75629Y69406
X74803Y77978
X69215Y76962
X84201Y76581
X76327Y75311
X76327Y77343
X62230Y68580
X68961Y86233
X59690Y76962
X62738Y80899
X66040Y80899
X78232Y72263
X54229Y81280
X76454Y69342
X56261Y71374
X76962Y77978
X76708Y76073
X75946Y71755
X79502Y76327
X80772Y69977
X81128Y76098
X69596Y86995
X55245Y86233
X57023Y88392
X84404Y77470
X76962Y74803
X84201Y78740
X77343Y76708
X77978Y75565
X78740Y70993
X79248Y70358
X78486Y74803
X73533Y81280
X77978Y79883
X76073Y72517
X78105Y71501
X81280Y71628
X33655Y15113
X48768Y78346
X77216Y79883
X74930Y82677
X81153Y75362
X82550Y71501
X84709Y67818
X64135Y67691
X78740Y79883
X69469Y75311
X78994Y78232
X81534Y69977
X80899Y68326
X79502Y75565
X80010Y69977
X78359Y68326
X75057Y75692
X74422Y76581
X75692Y77978
X69215Y78867
X68707Y67310
X77089Y67310
X65024Y76200
X68707Y75184
X63246Y76962
X53086Y83596
X31750Y12827
X101219Y80645
X131724Y75692
X128651Y77089
X126746Y74803
X121539Y66675
X127000Y77089
X97917Y89027
X130683Y81280
X125349Y81661
X130683Y80391
X131572Y87503
X129413Y86106
X118237Y85598
X109982Y76200
X110998Y82931
X121539Y86106
X124206Y86106
X126746Y86106
X116459Y70485
X97536Y73406
X101346Y75946
X101346Y70866
X114808Y78867
X105156Y75946
X122174Y74803
X116332Y72644
X116332Y73914
X121920Y70485
X126111Y81661
X127762Y81661
X124587Y81661
X128016Y85344
X123825Y81661
X125476Y85344
X121539Y72644
X101727Y82042
X123126Y69406
X122301Y77978
X116713Y76962
X131699Y76581
X123825Y75311
X123825Y77343
X109728Y68580
X116459Y86233
X107188Y76962
X110236Y80899
X113538Y80899
X125730Y72263
X101727Y81280
X123952Y69342
X103759Y71374
X124460Y77978
X124206Y76073
X123444Y71755
X127000Y76327
X128270Y69977
X128626Y76098
X117094Y86995
X102743Y86233
X104521Y88392
X131902Y77470
X124460Y74803
X131699Y78740
X124841Y76708
X125476Y75565
X126238Y70993
X126746Y70358
X125984Y74803
X121031Y81280
X125476Y79883
X123571Y72517
X125603Y71501
X128778Y71628
X26543Y4699
X96266Y78346
X124714Y79883
X122428Y82677
X128651Y75362
X130048Y71501
X132207Y67818
X111633Y67691
X126238Y79883
X116967Y75311
X126492Y78232
X129032Y69977
X128397Y68326
X127000Y75565
X127508Y69977
X125857Y68326
X122555Y75692
X121920Y76581
X123190Y77978
X116713Y78867
X116205Y67310
X124587Y67310
X112522Y76200
X116205Y75184
X110744Y76962
X100584Y83596
X32004Y15113
X2921Y27051
X35687Y19304
X30353Y19685
X35687Y18415
X36576Y25527
X34417Y24130
X23241Y23622
X14986Y14224
X16002Y20955
X26543Y24130
X29210Y24130
X31750Y24130
X21463Y8509
X2540Y11430
X6350Y13970
X6350Y8890
X19812Y16891
X10160Y13970
X27178Y12827
X21336Y10668
X21336Y11938
X26924Y8509
X31115Y19685
X32766Y19685
X29591Y19685
X33020Y23368
X28829Y19685
X30480Y23368
X26543Y10668
X6731Y20066
X28130Y7429
X27305Y16002
X21717Y14986
X36703Y14605
X28829Y13335
X28829Y15367
X14732Y6604
X21463Y24257
X12192Y14986
X15240Y18923
X18542Y18923
X30734Y10287
X6731Y19304
X28956Y7366
X8763Y9398
X29464Y16002
X29210Y14097
X28448Y9779
X32004Y14351
X33274Y8001
X33630Y14122
X22098Y25019
X7747Y24257
X9525Y26416
X36906Y15494
X29464Y12827
X36703Y16764
X29845Y14732
X30480Y13589
X31242Y9017
X31750Y8382
X30988Y12827
X26035Y19304
X30480Y17907
X28575Y10541
X30607Y9525
X33782Y9652
X1270Y16370
X29718Y17907
X27432Y20701
X33655Y13386
X35052Y9525
X37211Y5842
X16637Y5715
X31242Y17907
X21971Y13335
X31496Y16256
X34036Y8001
X33401Y6350
X32004Y13589
X32512Y8001
X30861Y6350
X27559Y13716
X26924Y14605
X28194Y16002
X21717Y16891
X21209Y5334
X29591Y5334
X17526Y14224
X21209Y13208
X15748Y14986
X5588Y21620
X53721Y18669
X84226Y13716
X81153Y15113
X79248Y12827
X74041Y4699
X79502Y15113
X50419Y27051
X83185Y19304
X77851Y19685
X83185Y18415
X84074Y25527
X81915Y24130
X70739Y23622
X62484Y14224
X63500Y20955
X74041Y24130
X76708Y24130
X79248Y24130
X68961Y8509
X50038Y11430
X53848Y13970
X53848Y8890
X67310Y16891
X57658Y13970
X74676Y12827
X68834Y10668
X68834Y11938
X74422Y8509
X78613Y19685
X80264Y19685
X77089Y19685
X80518Y23368
X76327Y19685
X77978Y23368
X74041Y10668
X54229Y20066
X75629Y7429
X74803Y16002
X69215Y14986
X84201Y14605
X76327Y13335
X76327Y15367
X62230Y6604
X68961Y24257
X59690Y14986
X62738Y18923
X66040Y18923
X78232Y10287
X54229Y19304
X76454Y7366
X56261Y9398
X76962Y16002
X76708Y14097
X75946Y9779
X79502Y14351
X80772Y8001
X81128Y14122
X69596Y25019
X55245Y24257
X57023Y26416
X84404Y15494
X76962Y12827
X84201Y16764
X77343Y14732
X77978Y13589
X78740Y9017
X79248Y8382
X78486Y12827
X73533Y19304
X77978Y17907
X76073Y10541
X78105Y9525
X81280Y9652
X48768Y16370
X77216Y17907
X74930Y20701
X81153Y13386
X82550Y9525
X84709Y5842
X64135Y5715
X78740Y17907
X69469Y13335
X78994Y16256
X81534Y8001
X80899Y6350
X79502Y13589
X80010Y8001
X78359Y6350
X75057Y13716
X74422Y14605
X75692Y16002
X69215Y16891
X68707Y5334
X77089Y5334
X65024Y14224
X68707Y13208
X63246Y14986
X53086Y21620
X101219Y18669
X131724Y13716
X128651Y15113
X126746Y12827
X121539Y4699
X127000Y15113
X97917Y27051
X130683Y19304
X125349Y19685
X130683Y18415
X131572Y25527
X129413Y24130
X118237Y23622
X109982Y14224
X110998Y20955
X121539Y24130
X124206Y24130
X126746Y24130
X116459Y8509
X97536Y11430
X101346Y13970
X101346Y8890
X114808Y16891
X105156Y13970
X122174Y12827
X116332Y10668
X116332Y11938
X121920Y8509
X126111Y19685
X127762Y19685
X124587Y19685
X128016Y23368
X123825Y19685
X125476Y23368
X121539Y10668
X101727Y20066
X123126Y7429
X122301Y16002
X116713Y14986
X131699Y14605
X123825Y13335
X123825Y15367
X109728Y6604
X116459Y24257
X107188Y14986
X110236Y18923
X113538Y18923
X125730Y10287
X101727Y19304
X123952Y7366
X103759Y9398
X124460Y16002
X124206Y14097
X123444Y9779
X127000Y14351
X128270Y8001
X128626Y14122
X117094Y25019
X102743Y24257
X104521Y26416
X131902Y15494
X124460Y12827
X131699Y16764
X124841Y14732
X125476Y13589
X126238Y9017
X126746Y8382
X125984Y12827
X121031Y19304
X125476Y17907
X123571Y10541
X125603Y9525
X128778Y9652
X96266Y16370
X124714Y17907
X122428Y20701
X128651Y13386
X130048Y9525
X132207Y5842
X111633Y5715
X126238Y17907
X116967Y13335
X126492Y16256
X129032Y8001
X128397Y6350
X127000Y13589
X127508Y8001
X125857Y6350
X122555Y13716
X121920Y14605
X123190Y16002
X116713Y16891
X116205Y5334
X124587Y5334
X112522Y14224
X116205Y13208
X110744Y14986
X100584Y21620
X6223Y49657
X36728Y44704
X33655Y46101
X31750Y43815
X26543Y35687
X32004Y46101
X2921Y58039
X35687Y50292
X30353Y50673
X35687Y49403
X36576Y56515
X34417Y55118
X23241Y54610
X14986Y45212
X16002Y51943
X26543Y55118
X29210Y55118
X31750Y55118
X21463Y39497
X2540Y42418
X6350Y44958
X6350Y39878
X19812Y47879
X10160Y44958
X21209Y67310
X27178Y43815
X21336Y41656
X21336Y42926
X26924Y39497
X31115Y50673
X32766Y50673
X29591Y50673
X33020Y54356
X28829Y50673
X30480Y54356
X26543Y41656
X6731Y51054
X28130Y38418
X27305Y46990
X21717Y45974
X36703Y45593
X28829Y44323
X28829Y46355
X14732Y37592
X21463Y55245
X12192Y45974
X15240Y49911
X18542Y49911
X30734Y41275
X6731Y50292
X28956Y38354
X8763Y40386
X29464Y46990
X29210Y45085
X28448Y40767
X32004Y45339
X33274Y38989
X33630Y45110
X22098Y56007
X7747Y55245
X9525Y57404
X36906Y46482
X29464Y43815
X36703Y47752
X29845Y45720
X30480Y44577
X31242Y40005
X31750Y39370
X30988Y43815
X26035Y50292
X30480Y48895
X28575Y41529
X30607Y40513
X33782Y40640
X1270Y47358
X29718Y48895
X27432Y51689
X33655Y44374
X35052Y40513
X37211Y36830
X16637Y36703
X31242Y48895
X21971Y44323
X31496Y47244
X34036Y38989
X33401Y37338
X32004Y44577
X32512Y38989
X30861Y37338
X27559Y44704
X26924Y45593
X28194Y46990
X21717Y47879
X21209Y36322
X29591Y36322
X17526Y45212
X21209Y44196
X15748Y45974
X5588Y52608
X53721Y49657
X84226Y44704
X81153Y46101
X79248Y43815
X74041Y35687
X79502Y46101
X50419Y58039
X83185Y50292
X77851Y50673
X83185Y49403
X84074Y56515
X81915Y55118
X70739Y54610
X62484Y45212
X63500Y51943
X74041Y55118
X76708Y55118
X79248Y55118
X68961Y39497
X50038Y42418
X53848Y44958
X53848Y39878
X67310Y47879
X57658Y44958
X74676Y43815
X68834Y41656
X68834Y42926
X74422Y39497
X78613Y50673
X80264Y50673
X77089Y50673
X80518Y54356
X76327Y50673
X77978Y54356
X74041Y41656
X54229Y51054
X75629Y38418
X74803Y46990
X69215Y45974
X84201Y45593
X76327Y44323
X76327Y46355
X62230Y37592
X68961Y55245
X59690Y45974
X62738Y49911
X66040Y49911
X78232Y41275
X54229Y50292
X76454Y38354
X56261Y40386
X76962Y46990
X76708Y45085
X75946Y40767
X79502Y45339
X80772Y38989
X81128Y45110
X69596Y56007
X55245Y55245
X57023Y57404
X84404Y46482
X76962Y43815
X84201Y47752
X77343Y45720
X77978Y44577
X78740Y40005
X79248Y39370
X78486Y43815
X73533Y50292
X77978Y48895
X76073Y41529
X78105Y40513
X81280Y40640
X48768Y47358
X77216Y48895
X74930Y51689
X81153Y44374
X82550Y40513
X84709Y36830
X64135Y36703
X78740Y48895
X69469Y44323
X78994Y47244
X81534Y38989
X80899Y37338
X79502Y44577
X80010Y38989
X78359Y37338
X75057Y44704
X74422Y45593
X75692Y46990
X69215Y47879
X68707Y36322
X77089Y36322
X65024Y45212
X68707Y44196
X63246Y45974
X53086Y52608
X101219Y49657
M30