%
M48
M72
T01C0.0120
T02C0.0138
T03C0.0276
T04C0.0354
T05C0.0400
T06C0.0669
T07C0.1200
%
T01
X12991Y5100
X12241Y5450
X14791Y4950
X16891Y4700
X18091Y4950
X18591Y5350
X17841Y5750
X17516Y5775
X17041Y6200
X17641Y6700
X17691Y7000
X16891Y7050
X18541Y6900
X18491Y6600
X18741Y6400
X18941Y6150
X19241Y6000
X19541Y6000
X19841Y6000
X19591Y5350
X20241Y6600
X19741Y6650
X18941Y7900
X18641Y7900
X18441Y8200
X18041Y7900
X17791Y8100
X17941Y8400
X18191Y8650
X17791Y8900
X17541Y9150
X17191Y9150
X17041Y8600
X17291Y8250
X17141Y7900
X19041Y8200
X19041Y8500
X19041Y8800
X18841Y9250
X18041Y9150
X19791Y8750
X19791Y8450
X19741Y8100
X20291Y8300
X20891Y8600
X20891Y9000
X20591Y9000
X20891Y9450
X20891Y9850
X20491Y10100
X20491Y10450
X19341Y10600
X18691Y10600
X18391Y10600
X18091Y10600
X17791Y10600
X17241Y11000
X16691Y10450
X18141Y9900
X18441Y9900
X18741Y9900
X14991Y9500
X14241Y9500
X13741Y10300
X12441Y10300
X12741Y11100
X14891Y12400
X15141Y12700
X15591Y12150
X16891Y12350
X17941Y12350
X18441Y12050
X18941Y12350
X19441Y12050
X19991Y12350
X20841Y12900
X26291Y13500
X28191Y12400
X28891Y13250
X33591Y12400
X33841Y12700
X34291Y12150
X35591Y12350
X36641Y12350
X37141Y12050
X37641Y12350
X38141Y12050
X38691Y12350
X39541Y12900
X38041Y10600
X37391Y10600
X37091Y10600
X36791Y10600
X36491Y10600
X35941Y11000
X35391Y10450
X36841Y9900
X37141Y9900
X37441Y9900
X39191Y10100
X39191Y10450
X39591Y9850
X39591Y9450
X39591Y9000
X39291Y9000
X39591Y8600
X38991Y8300
X38491Y8450
X38491Y8750
X38441Y8100
X37741Y8200
X37741Y8500
X37741Y8800
X37541Y9250
X36741Y9150
X36491Y8900
X36241Y9150
X35891Y9150
X35741Y8600
X35991Y8250
X35841Y7900
X36491Y8100
X36741Y7900
X37141Y8200
X37341Y7900
X37641Y7900
X36891Y8650
X36641Y8400
X33791Y8100
X33491Y8050
X33541Y7550
X33541Y7050
X33591Y6200
X35741Y6200
X36216Y5775
X36541Y5750
X37291Y5350
X36791Y4950
X35591Y4700
X33491Y4950
X31691Y5100
X30941Y5450
X28591Y6550
X27641Y6350
X26141Y7350
X27641Y8350
X29141Y8350
X29941Y8750
X31041Y8450
X31341Y8750
X32041Y8450
X33691Y8750
X33691Y9500
X32941Y9500
X32441Y10300
X31141Y10300
X31441Y11100
X27791Y10750
X27791Y10450
X27591Y10200
X27341Y11362
X25641Y9295
X35591Y7050
X36391Y7000
X36341Y6700
X37191Y6600
X37241Y6900
X37441Y6400
X37641Y6150
X37941Y6000
X38241Y6000
X38541Y6000
X38291Y5350
X38941Y6600
X38441Y6650
X39791Y5150
X44841Y7350
X46341Y6350
X47291Y6550
X49641Y5450
X50391Y5100
X52191Y4950
X54291Y4700
X55491Y4950
X55991Y5350
X55241Y5750
X54916Y5775
X54441Y6200
X55041Y6700
X55091Y7000
X54291Y7050
X55941Y6900
X55891Y6600
X56141Y6400
X56341Y6150
X56641Y6000
X56941Y6000
X57241Y6000
X56991Y5350
X57641Y6600
X57141Y6650
X56341Y7900
X56041Y7900
X55841Y8200
X55441Y7900
X55191Y8100
X55341Y8400
X55591Y8650
X55191Y8900
X54941Y9150
X54591Y9150
X54441Y8600
X54691Y8250
X54541Y7900
X56441Y8200
X56441Y8500
X56441Y8800
X56241Y9250
X55441Y9150
X57191Y8750
X57191Y8450
X57141Y8100
X57691Y8300
X58291Y8600
X58291Y9000
X57991Y9000
X58291Y9450
X58291Y9850
X57891Y10100
X57891Y10450
X56741Y10600
X56091Y10600
X55791Y10600
X55491Y10600
X55191Y10600
X54641Y11000
X54091Y10450
X55541Y9900
X55841Y9900
X56141Y9900
X52391Y9500
X51641Y9500
X51141Y10300
X49841Y10300
X50141Y11100
X52291Y12400
X52541Y12700
X52991Y12150
X54291Y12350
X55341Y12350
X55841Y12050
X56341Y12350
X56841Y12050
X57391Y12350
X58241Y12900
X63691Y13500
X65591Y12400
X66291Y13250
X70991Y12400
X71241Y12700
X71691Y12150
X72991Y12350
X74041Y12350
X74541Y12050
X75041Y12350
X75541Y12050
X76091Y12350
X76941Y12900
X75441Y10600
X74791Y10600
X74491Y10600
X74191Y10600
X73891Y10600
X73341Y11000
X72791Y10450
X74241Y9900
X74541Y9900
X74841Y9900
X76591Y10100
X76591Y10450
X76991Y9850
X76991Y9450
X76991Y9000
X76691Y9000
X76991Y8600
X76391Y8300
X75891Y8450
X75891Y8750
X75841Y8100
X75141Y8200
X75141Y8500
X75141Y8800
X74941Y9250
X74141Y9150
X73891Y8900
X73641Y9150
X73291Y9150
X73141Y8600
X73391Y8250
X73241Y7900
X73891Y8100
X74141Y7900
X74541Y8200
X74741Y7900
X75041Y7900
X74291Y8650
X74041Y8400
X71191Y8100
X70891Y8050
X70941Y7550
X70941Y7050
X70991Y6200
X73141Y6200
X73616Y5775
X73941Y5750
X74691Y5350
X74191Y4950
X72991Y4700
X70891Y4950
X69091Y5100
X68341Y5450
X65991Y6550
X65041Y6350
X63541Y7350
X65041Y8350
X66541Y8350
X67341Y8750
X68441Y8450
X68741Y8750
X69441Y8450
X71091Y8750
X71091Y9500
X70341Y9500
X69841Y10300
X68541Y10300
X68841Y11100
X65191Y10750
X65191Y10450
X64991Y10200
X64741Y11362
X63041Y9295
X72991Y7050
X73791Y7000
X73741Y6700
X74591Y6600
X74641Y6900
X74841Y6400
X75041Y6150
X75341Y6000
X75641Y6000
X75941Y6000
X75691Y5350
X76341Y6600
X75841Y6650
X77191Y5150
X82241Y7350
X83741Y6350
X84691Y6550
X87041Y5450
X87791Y5100
X89591Y4950
X91691Y4700
X92891Y4950
X93391Y5350
X92641Y5750
X92316Y5775
X91841Y6200
X92441Y6700
X92491Y7000
X91691Y7050
X93341Y6900
X93291Y6600
X93541Y6400
X93741Y6150
X94041Y6000
X94341Y6000
X94641Y6000
X94391Y5350
X95041Y6600
X94541Y6650
X93741Y7900
X93441Y7900
X93241Y8200
X92841Y7900
X92591Y8100
X92741Y8400
X92991Y8650
X92591Y8900
X92341Y9150
X91991Y9150
X91841Y8600
X92091Y8250
X91941Y7900
X93841Y8200
X93841Y8500
X93841Y8800
X93641Y9250
X92841Y9150
X94591Y8750
X94591Y8450
X94541Y8100
X95091Y8300
X95691Y8600
X95691Y9000
X95391Y9000
X95691Y9450
X95691Y9850
X95291Y10100
X95291Y10450
X94141Y10600
X93491Y10600
X93191Y10600
X92891Y10600
X92591Y10600
X92041Y11000
X91491Y10450
X92941Y9900
X93241Y9900
X93541Y9900
X89791Y9500
X89041Y9500
X88541Y10300
X87241Y10300
X87541Y11100
X89691Y12400
X89941Y12700
X90391Y12150
X91691Y12350
X92741Y12350
X93241Y12050
X93741Y12350
X94241Y12050
X94791Y12350
X95641Y12900
X92891Y17150
X93391Y17550
X92641Y17950
X92316Y17975
X91841Y18400
X92441Y18900
X92491Y19200
X91691Y19250
X93341Y19100
X93291Y18800
X93541Y18600
X93741Y18350
X94041Y18200
X94341Y18200
X94641Y18200
X94541Y18850
X95041Y18800
X94391Y17550
X95891Y17350
X91691Y16900
X89591Y17150
X87791Y17300
X87041Y17650
X89691Y18400
X89641Y19250
X89641Y19750
X89591Y20250
X89891Y20300
X89791Y20950
X88141Y20650
X87441Y20950
X87141Y20650
X86041Y20950
X85241Y20550
X83741Y20550
X82241Y19550
X83741Y18550
X84691Y18750
X81741Y21495
X83691Y22400
X83891Y22650
X83891Y22950
X83441Y23562
X84291Y24600
X84991Y25450
X82391Y25700
X76941Y25100
X76091Y24550
X75541Y24250
X75041Y24550
X74541Y24250
X74041Y24550
X72991Y24550
X71691Y24350
X71241Y24900
X70991Y24600
X68841Y23300
X68541Y22500
X69841Y22500
X70341Y21700
X71091Y21700
X71091Y20950
X71191Y20300
X70891Y20250
X70941Y19750
X70941Y19250
X70991Y18400
X73141Y18400
X73616Y17975
X73941Y17950
X74691Y17550
X74191Y17150
X72991Y16900
X70891Y17150
X69091Y17300
X68341Y17650
X65991Y18750
X65041Y18550
X63541Y19550
X65041Y20550
X66541Y20550
X67341Y20950
X68441Y20650
X68741Y20950
X69441Y20650
X73141Y20800
X73391Y20450
X73241Y20100
X73891Y20300
X74141Y20100
X74541Y20400
X74741Y20100
X75041Y20100
X75141Y20400
X75141Y20700
X75141Y21000
X74941Y21450
X74141Y21350
X73891Y21100
X73641Y21350
X73291Y21350
X74291Y20850
X74041Y20600
X75841Y20300
X75891Y20650
X75891Y20950
X76391Y20500
X76991Y20800
X76991Y21200
X76691Y21200
X76991Y21650
X76991Y22050
X76591Y22300
X76591Y22650
X75441Y22800
X74791Y22800
X74491Y22800
X74191Y22800
X73891Y22800
X73341Y23200
X72791Y22650
X74241Y22100
X74541Y22100
X74841Y22100
X74641Y19100
X74591Y18800
X74841Y18600
X75041Y18350
X75341Y18200
X75641Y18200
X75941Y18200
X75841Y18850
X76341Y18800
X73791Y19200
X73741Y18900
X72991Y19250
X75691Y17550
X77191Y17350
X82391Y13500
X84291Y12400
X84991Y13250
X83441Y11362
X83891Y10750
X83891Y10450
X83691Y10200
X81741Y9295
X83741Y8350
X85241Y8350
X86041Y8750
X87141Y8450
X87441Y8750
X88141Y8450
X89591Y8050
X89891Y8100
X89641Y7550
X89641Y7050
X89691Y6200
X89791Y8750
X95891Y5150
X93741Y20100
X93441Y20100
X93241Y20400
X92841Y20100
X92591Y20300
X92741Y20600
X92991Y20850
X92591Y21100
X92341Y21350
X91991Y21350
X91841Y20800
X92091Y20450
X91941Y20100
X93841Y20400
X93841Y20700
X93841Y21000
X93641Y21450
X92841Y21350
X94591Y20950
X94591Y20650
X94541Y20300
X95091Y20500
X95691Y20800
X95691Y21200
X95391Y21200
X95691Y21650
X95691Y22050
X95291Y22300
X95291Y22650
X94141Y22800
X93491Y22800
X93191Y22800
X92891Y22800
X92591Y22800
X92041Y23200
X91491Y22650
X92941Y22100
X93241Y22100
X93541Y22100
X89791Y21700
X89041Y21700
X88541Y22500
X87541Y23300
X87241Y22500
X89691Y24600
X89941Y24900
X90391Y24350
X91691Y24550
X92741Y24550
X93241Y24250
X93741Y24550
X94241Y24250
X94791Y24550
X95641Y25100
X91691Y29100
X92891Y29350
X93391Y29750
X92641Y30150
X92316Y30175
X91841Y30600
X92441Y31100
X92491Y31400
X91691Y31450
X93341Y31300
X93291Y31000
X93541Y30800
X93741Y30550
X94041Y30400
X94341Y30400
X94641Y30400
X94391Y29750
X95891Y29550
X95041Y31000
X94541Y31050
X94541Y32500
X94591Y32850
X94591Y33150
X95091Y32700
X95691Y33000
X95691Y33400
X95391Y33400
X95691Y33850
X95691Y34250
X95291Y34500
X95291Y34850
X94141Y35000
X93491Y35000
X93191Y35000
X92891Y35000
X92591Y35000
X92041Y35400
X91491Y34850
X92941Y34300
X93241Y34300
X93541Y34300
X93641Y33650
X93841Y33200
X93841Y32900
X93841Y32600
X93741Y32300
X93441Y32300
X93241Y32600
X92841Y32300
X92591Y32500
X92741Y32800
X92991Y33050
X92591Y33300
X92341Y33550
X91991Y33550
X92841Y33550
X91841Y33000
X92091Y32650
X91941Y32300
X89891Y32500
X89591Y32450
X89641Y31950
X89641Y31450
X89691Y30600
X87041Y29850
X87791Y29500
X89591Y29350
X84691Y30950
X83741Y30750
X82241Y31750
X83741Y32750
X85241Y32750
X86041Y33150
X87141Y32850
X87441Y33150
X88141Y32850
X89791Y33150
X89791Y33900
X89041Y33900
X88541Y34700
X87241Y34700
X87541Y35500
X89691Y36800
X89941Y37100
X90391Y36550
X91691Y36750
X92741Y36750
X93241Y36450
X93741Y36750
X94241Y36450
X94791Y36750
X95641Y37300
X84991Y37650
X84291Y36800
X83441Y35762
X83891Y35150
X83891Y34850
X83691Y34600
X81741Y33695
X76991Y33850
X76991Y34250
X76591Y34500
X76591Y34850
X75441Y35000
X74791Y35000
X74491Y35000
X74191Y35000
X73891Y35000
X73341Y35400
X72791Y34850
X74241Y34300
X74541Y34300
X74841Y34300
X74941Y33650
X75141Y33200
X75141Y32900
X75141Y32600
X75041Y32300
X74741Y32300
X74541Y32600
X74141Y32300
X73891Y32500
X74041Y32800
X74291Y33050
X73891Y33300
X73641Y33550
X73291Y33550
X74141Y33550
X75891Y33150
X75891Y32850
X75841Y32500
X76391Y32700
X76991Y33000
X76991Y33400
X76691Y33400
X73391Y32650
X73241Y32300
X73141Y33000
X71191Y32500
X70891Y32450
X70941Y31950
X70941Y31450
X70991Y30600
X73141Y30600
X73616Y30175
X73941Y30150
X74691Y29750
X74191Y29350
X72991Y29100
X70891Y29350
X69091Y29500
X68341Y29850
X65991Y30950
X65041Y30750
X63541Y31750
X65041Y32750
X66541Y32750
X67341Y33150
X68441Y32850
X68741Y33150
X69441Y32850
X71091Y33150
X71091Y33900
X70341Y33900
X69841Y34700
X68541Y34700
X68841Y35500
X70991Y36800
X71241Y37100
X71691Y36550
X72991Y36750
X74041Y36750
X74541Y36450
X75041Y36750
X75541Y36450
X76091Y36750
X76941Y37300
X82391Y37900
X73791Y31400
X73741Y31100
X72991Y31450
X74641Y31300
X74591Y31000
X74841Y30800
X75041Y30550
X75341Y30400
X75641Y30400
X75941Y30400
X75691Y29750
X77191Y29550
X76341Y31000
X75841Y31050
X65191Y34850
X65191Y35150
X64991Y34600
X63041Y33695
X64741Y35762
X65591Y36800
X66291Y37650
X63691Y37900
X58241Y37300
X57391Y36750
X56841Y36450
X56341Y36750
X55841Y36450
X55341Y36750
X54291Y36750
X52991Y36550
X52291Y36800
X52541Y37100
X54641Y35400
X55191Y35000
X55491Y35000
X55791Y35000
X56091Y35000
X56741Y35000
X57891Y34850
X57891Y34500
X58291Y34250
X58291Y33850
X58291Y33400
X57991Y33400
X58291Y33000
X57691Y32700
X57191Y32850
X57191Y33150
X56441Y33200
X56441Y32900
X56441Y32600
X56341Y32300
X56041Y32300
X55841Y32600
X55441Y32300
X55191Y32500
X55341Y32800
X55591Y33050
X55191Y33300
X54941Y33550
X54591Y33550
X55441Y33550
X55541Y34300
X55841Y34300
X56141Y34300
X56241Y33650
X54691Y32650
X54541Y32300
X54441Y33000
X52491Y32500
X52191Y32450
X52241Y31950
X52241Y31450
X52291Y30600
X54441Y30600
X54916Y30175
X55241Y30150
X55991Y29750
X55491Y29350
X54291Y29100
X52191Y29350
X50391Y29500
X49641Y29850
X47291Y30950
X46341Y30750
X44841Y31750
X46341Y32750
X47841Y32750
X48641Y33150
X49741Y32850
X50041Y33150
X50741Y32850
X52391Y33150
X52391Y33900
X51641Y33900
X51141Y34700
X49841Y34700
X50141Y35500
X46891Y36800
X47591Y37650
X44991Y37900
X46041Y35762
X46491Y35150
X46491Y34850
X46291Y34600
X44341Y33695
X39591Y33850
X39591Y34250
X39191Y34500
X39191Y34850
X38041Y35000
X37391Y35000
X37091Y35000
X36791Y35000
X36491Y35000
X35941Y35400
X35391Y34850
X36841Y34300
X37141Y34300
X37441Y34300
X37541Y33650
X37741Y33200
X37741Y32900
X37741Y32600
X37641Y32300
X37341Y32300
X37141Y32600
X36741Y32300
X36491Y32500
X36641Y32800
X36891Y33050
X36491Y33300
X36241Y33550
X35891Y33550
X36741Y33550
X38491Y33150
X38491Y32850
X38441Y32500
X38991Y32700
X39591Y33000
X39591Y33400
X39291Y33400
X35991Y32650
X35841Y32300
X35741Y33000
X33791Y32500
X33491Y32450
X33541Y31950
X33541Y31450
X33591Y30600
X35741Y30600
X36216Y30175
X36541Y30150
X37291Y29750
X36791Y29350
X35591Y29100
X33491Y29350
X31691Y29500
X30941Y29850
X28591Y30950
X27641Y30750
X26141Y31750
X27641Y32750
X29141Y32750
X29941Y33150
X31041Y32850
X31341Y33150
X32041Y32850
X33691Y33150
X33691Y33900
X32941Y33900
X32441Y34700
X31141Y34700
X31441Y35500
X33591Y36800
X33841Y37100
X34291Y36550
X35591Y36750
X36641Y36750
X37141Y36450
X37641Y36750
X38141Y36450
X38691Y36750
X39541Y37300
X28891Y37650
X28191Y36800
X27341Y35762
X27791Y35150
X27791Y34850
X27591Y34600
X25641Y33695
X20891Y33850
X20891Y34250
X20491Y34500
X20491Y34850
X19341Y35000
X18691Y35000
X18391Y35000
X18091Y35000
X17791Y35000
X17241Y35400
X16691Y34850
X18141Y34300
X18441Y34300
X18741Y34300
X18841Y33650
X19041Y33200
X19041Y32900
X19041Y32600
X18941Y32300
X18641Y32300
X18441Y32600
X18041Y32300
X17791Y32500
X17941Y32800
X18191Y33050
X17791Y33300
X17541Y33550
X17191Y33550
X18041Y33550
X19791Y33150
X19791Y32850
X19741Y32500
X20291Y32700
X20891Y33000
X20891Y33400
X20591Y33400
X17291Y32650
X17141Y32300
X17041Y33000
X15091Y32500
X14791Y32450
X14841Y31950
X14841Y31450
X14891Y30600
X17041Y30600
X17516Y30175
X17841Y30150
X18591Y29750
X18091Y29350
X16891Y29100
X14791Y29350
X12991Y29500
X12241Y29850
X9891Y30950
X8941Y30750
X7441Y31750
X8941Y32750
X10441Y32750
X11241Y33150
X12341Y32850
X12641Y33150
X13341Y32850
X14991Y33150
X14991Y33900
X14241Y33900
X13741Y34700
X12441Y34700
X12741Y35500
X14891Y36800
X15141Y37100
X15591Y36550
X16891Y36750
X17941Y36750
X18441Y36450
X18941Y36750
X19441Y36450
X19991Y36750
X20841Y37300
X26291Y37900
X17691Y31400
X17641Y31100
X16891Y31450
X18541Y31300
X18491Y31000
X18741Y30800
X18941Y30550
X19241Y30400
X19541Y30400
X19841Y30400
X19591Y29750
X21091Y29550
X20241Y31000
X19741Y31050
X9091Y34850
X9091Y35150
X8891Y34600
X6941Y33695
X8641Y35762
X9491Y36800
X10191Y37650
X7591Y37900
X35591Y31450
X36391Y31400
X36341Y31100
X37191Y31000
X37241Y31300
X37441Y30800
X37641Y30550
X37941Y30400
X38241Y30400
X38541Y30400
X38291Y29750
X39791Y29550
X38941Y31000
X38441Y31050
X44991Y25700
X46891Y24600
X47591Y25450
X46041Y23562
X46491Y22950
X46491Y22650
X46291Y22400
X44341Y21495
X46341Y20550
X47841Y20550
X48641Y20950
X49741Y20650
X50041Y20950
X50741Y20650
X52191Y20250
X52491Y20300
X52391Y20950
X52391Y21700
X51641Y21700
X51141Y22500
X50141Y23300
X49841Y22500
X52291Y24600
X52541Y24900
X52991Y24350
X54291Y24550
X55341Y24550
X55841Y24250
X56341Y24550
X56841Y24250
X57391Y24550
X58241Y25100
X54641Y23200
X55191Y22800
X55491Y22800
X55791Y22800
X56091Y22800
X56741Y22800
X56141Y22100
X55841Y22100
X55541Y22100
X54091Y22650
X54591Y21350
X54941Y21350
X55191Y21100
X55441Y21350
X55591Y20850
X55341Y20600
X55191Y20300
X55441Y20100
X55841Y20400
X56041Y20100
X56341Y20100
X56441Y20400
X56441Y20700
X56441Y21000
X56241Y21450
X57191Y20950
X57191Y20650
X57141Y20300
X57691Y20500
X58291Y20800
X58291Y21200
X57991Y21200
X58291Y21650
X58291Y22050
X57891Y22300
X57891Y22650
X54441Y20800
X54691Y20450
X54541Y20100
X54291Y19250
X55091Y19200
X55041Y18900
X54441Y18400
X54916Y17975
X55241Y17950
X55991Y17550
X55491Y17150
X54291Y16900
X52191Y17150
X50391Y17300
X49641Y17650
X52291Y18400
X52241Y19250
X52241Y19750
X55941Y19100
X55891Y18800
X56141Y18600
X56341Y18350
X56641Y18200
X56941Y18200
X57241Y18200
X57141Y18850
X57641Y18800
X56991Y17550
X58491Y17350
X63041Y21495
X64991Y22400
X65191Y22650
X65191Y22950
X64741Y23562
X65591Y24600
X66291Y25450
X63691Y25700
X58491Y29550
X57241Y30400
X56941Y30400
X56641Y30400
X56341Y30550
X56141Y30800
X55891Y31000
X55941Y31300
X55091Y31400
X55041Y31100
X54291Y31450
X57141Y31050
X57641Y31000
X56991Y29750
X57141Y32500
X54091Y34850
X39541Y25100
X38691Y24550
X38141Y24250
X37641Y24550
X37141Y24250
X36641Y24550
X35591Y24550
X34291Y24350
X33841Y24900
X33591Y24600
X31441Y23300
X31141Y22500
X32441Y22500
X32941Y21700
X33691Y21700
X33691Y20950
X33791Y20300
X33491Y20250
X33541Y19750
X33541Y19250
X33591Y18400
X35741Y18400
X36216Y17975
X36541Y17950
X37291Y17550
X36791Y17150
X35591Y16900
X33491Y17150
X31691Y17300
X30941Y17650
X28591Y18750
X27641Y18550
X26141Y19550
X27641Y20550
X29141Y20550
X29941Y20950
X31041Y20650
X31341Y20950
X32041Y20650
X35741Y20800
X35991Y20450
X35841Y20100
X36491Y20300
X36741Y20100
X37141Y20400
X37341Y20100
X37641Y20100
X37741Y20400
X37741Y20700
X37741Y21000
X37541Y21450
X36741Y21350
X36491Y21100
X36241Y21350
X35891Y21350
X36891Y20850
X36641Y20600
X38441Y20300
X38491Y20650
X38491Y20950
X38991Y20500
X39591Y20800
X39591Y21200
X39291Y21200
X39591Y21650
X39591Y22050
X39191Y22300
X39191Y22650
X38041Y22800
X37391Y22800
X37091Y22800
X36791Y22800
X36491Y22800
X35941Y23200
X35391Y22650
X36841Y22100
X37141Y22100
X37441Y22100
X44841Y19550
X46341Y18550
X47291Y18750
X39791Y17350
X38541Y18200
X38241Y18200
X37941Y18200
X37641Y18350
X37441Y18600
X37191Y18800
X37241Y19100
X36391Y19200
X36341Y18900
X35591Y19250
X38441Y18850
X38941Y18800
X38291Y17550
X44991Y13500
X46891Y12400
X47591Y13250
X46041Y11362
X46491Y10750
X46491Y10450
X46291Y10200
X44341Y9295
X46341Y8350
X47841Y8350
X48641Y8750
X49741Y8450
X50041Y8750
X50741Y8450
X52191Y8050
X52491Y8100
X52241Y7550
X52241Y7050
X52291Y6200
X52391Y8750
X58491Y5150
X21091Y5150
X14891Y6200
X14841Y7050
X14841Y7550
X14791Y8050
X15091Y8100
X14991Y8750
X13341Y8450
X12641Y8750
X12341Y8450
X11241Y8750
X10441Y8350
X8941Y8350
X7441Y7350
X8941Y6350
X9891Y6550
X6941Y9295
X8891Y10200
X9091Y10450
X9091Y10750
X8641Y11362
X9491Y12400
X10191Y13250
X7591Y13500
X14791Y17150
X12991Y17300
X12241Y17650
X14891Y18400
X14841Y19250
X14841Y19750
X14791Y20250
X15091Y20300
X14991Y20950
X13341Y20650
X12641Y20950
X12341Y20650
X11241Y20950
X10441Y20550
X8941Y20550
X7441Y19550
X8941Y18550
X9891Y18750
X6941Y21495
X8891Y22400
X9091Y22650
X9091Y22950
X8641Y23562
X9491Y24600
X10191Y25450
X7591Y25700
X12741Y23300
X12441Y22500
X13741Y22500
X14241Y21700
X14991Y21700
X16691Y22650
X17241Y23200
X17791Y22800
X18091Y22800
X18391Y22800
X18691Y22800
X19341Y22800
X18741Y22100
X18441Y22100
X18141Y22100
X18041Y21350
X17791Y21100
X17541Y21350
X17191Y21350
X17041Y20800
X17291Y20450
X17141Y20100
X17791Y20300
X18041Y20100
X18441Y20400
X18641Y20100
X18941Y20100
X19041Y20400
X19041Y20700
X19041Y21000
X18841Y21450
X18191Y20850
X17941Y20600
X19741Y20300
X19791Y20650
X19791Y20950
X20291Y20500
X20891Y20800
X20891Y21200
X20591Y21200
X20891Y21650
X20891Y22050
X20491Y22300
X20491Y22650
X19441Y24250
X18941Y24550
X18441Y24250
X17941Y24550
X16891Y24550
X15591Y24350
X15141Y24900
X14891Y24600
X19991Y24550
X20841Y25100
X26291Y25700
X28191Y24600
X28891Y25450
X27341Y23562
X27791Y22950
X27791Y22650
X27591Y22400
X25641Y21495
X20241Y18800
X19741Y18850
X19841Y18200
X19541Y18200
X19241Y18200
X18941Y18350
X18741Y18600
X18491Y18800
X18541Y19100
X17691Y19200
X17641Y18900
X17041Y18400
X17516Y17975
X17841Y17950
X18591Y17550
X18091Y17150
X16891Y16900
X19591Y17550
X21091Y17350
X16891Y19250
T02
X25641Y24600
X6941Y24600
X6941Y12400
X25641Y12400
X44341Y12400
X63041Y12400
X81741Y12400
X81741Y24600
X63041Y24600
X44341Y24600
X44341Y36800
X25641Y36800
X6941Y36800
X63041Y36800
X81741Y36800
T03
X83741Y37296
X83741Y38004
X65041Y38004
X65041Y37296
X46341Y37296
X46341Y38004
X27641Y38004
X27641Y37296
X8941Y37296
X8941Y38004
X8941Y25804
X8941Y25096
X27641Y25096
X27641Y25804
X46341Y25804
X46341Y25096
X65041Y25096
X65041Y25804
X83741Y25804
X83741Y25096
X83741Y13604
X83741Y12896
X65041Y12896
X65041Y13604
X46341Y13604
X46341Y12896
X27641Y12896
X27641Y13604
X8941Y13604
X8941Y12896
T04
X8351Y4450
X9532Y4450
X27051Y4450
X28232Y4450
X45751Y4450
X46932Y4450
X64451Y4450
X65632Y4450
X83151Y4450
X84332Y4450
X84332Y16650
X83151Y16650
X65632Y16650
X64451Y16650
X46932Y16650
X45751Y16650
X28232Y16650
X27051Y16650
X9532Y16650
X8351Y16650
X8351Y28850
X9532Y28850
X27051Y28850
X28232Y28850
X45751Y28850
X46932Y28850
X64451Y28850
X65632Y28850
X83151Y28850
X84332Y28850
T05
X86241Y28750
X87241Y28750
X88241Y28750
X89241Y28750
X90241Y28750
X91241Y28750
X92241Y28750
X93241Y28750
X94241Y28750
X95241Y28750
X96241Y28750
X96241Y27750
X95241Y27750
X94241Y27750
X93241Y27750
X92241Y27750
X91241Y27750
X90241Y27750
X89241Y27750
X88241Y27750
X87241Y27750
X86241Y27750
X86241Y26550
X87241Y26550
X88241Y26550
X89241Y26550
X90241Y26550
X91241Y26550
X92241Y26550
X93241Y26550
X94241Y26550
X95241Y26550
X95241Y25550
X94241Y25550
X93241Y25550
X92241Y25550
X91241Y25550
X90241Y25550
X89241Y25550
X88241Y25550
X87241Y25550
X86241Y25550
X77541Y25550
X76541Y25550
X75541Y25550
X74541Y25550
X73541Y25550
X72541Y25550
X71541Y25550
X70541Y25550
X69541Y25550
X68541Y25550
X67541Y25550
X67541Y26550
X68541Y26550
X69541Y26550
X70541Y26550
X71541Y26550
X72541Y26550
X73541Y26550
X74541Y26550
X75541Y26550
X76541Y26550
X76541Y27750
X75541Y27750
X74541Y27750
X73541Y27750
X72541Y27750
X71541Y27750
X70541Y27750
X69541Y27750
X68541Y27750
X67541Y27750
X67541Y28750
X68541Y28750
X69541Y28750
X70541Y28750
X71541Y28750
X72541Y28750
X73541Y28750
X74541Y28750
X75541Y28750
X76541Y28750
X77541Y28750
X77541Y27750
X85741Y31250
X85741Y32250
X86241Y37750
X87241Y37750
X88241Y37750
X89241Y37750
X90241Y37750
X91241Y37750
X92241Y37750
X93241Y37750
X94241Y37750
X95241Y37750
X96241Y37750
X95241Y38750
X94241Y38750
X93241Y38750
X92241Y38750
X91241Y38750
X90241Y38750
X89241Y38750
X88241Y38750
X87241Y38750
X86241Y38750
X77541Y37750
X76541Y37750
X75541Y37750
X74541Y37750
X73541Y37750
X72541Y37750
X71541Y37750
X70541Y37750
X69541Y37750
X68541Y37750
X67541Y37750
X67541Y38750
X68541Y38750
X69541Y38750
X70541Y38750
X71541Y38750
X72541Y38750
X73541Y38750
X74541Y38750
X75541Y38750
X76541Y38750
X67041Y32250
X67041Y31250
X58841Y28750
X57841Y28750
X56841Y28750
X55841Y28750
X54841Y28750
X53841Y28750
X52841Y28750
X51841Y28750
X50841Y28750
X49841Y28750
X48841Y28750
X48841Y27750
X49841Y27750
X50841Y27750
X51841Y27750
X52841Y27750
X53841Y27750
X54841Y27750
X55841Y27750
X56841Y27750
X57841Y27750
X58841Y27750
X57841Y26550
X56841Y26550
X55841Y26550
X54841Y26550
X53841Y26550
X52841Y26550
X51841Y26550
X50841Y26550
X49841Y26550
X48841Y26550
X48841Y25550
X49841Y25550
X50841Y25550
X51841Y25550
X52841Y25550
X53841Y25550
X54841Y25550
X55841Y25550
X56841Y25550
X57841Y25550
X58841Y25550
X67041Y20050
X67041Y19050
X67541Y16550
X68541Y16550
X69541Y16550
X70541Y16550
X71541Y16550
X72541Y16550
X73541Y16550
X74541Y16550
X75541Y16550
X76541Y16550
X77541Y16550
X77541Y15550
X76541Y15550
X75541Y15550
X74541Y15550
X73541Y15550
X72541Y15550
X71541Y15550
X70541Y15550
X69541Y15550
X68541Y15550
X67541Y15550
X67541Y14350
X68541Y14350
X69541Y14350
X70541Y14350
X71541Y14350
X72541Y14350
X73541Y14350
X74541Y14350
X75541Y14350
X76541Y14350
X76541Y13350
X75541Y13350
X74541Y13350
X73541Y13350
X72541Y13350
X71541Y13350
X70541Y13350
X69541Y13350
X68541Y13350
X67541Y13350
X58841Y13350
X57841Y13350
X56841Y13350
X55841Y13350
X54841Y13350
X53841Y13350
X52841Y13350
X51841Y13350
X50841Y13350
X49841Y13350
X48841Y13350
X48841Y14350
X49841Y14350
X50841Y14350
X51841Y14350
X52841Y14350
X53841Y14350
X54841Y14350
X55841Y14350
X56841Y14350
X57841Y14350
X57841Y15550
X56841Y15550
X55841Y15550
X54841Y15550
X53841Y15550
X52841Y15550
X51841Y15550
X50841Y15550
X49841Y15550
X48841Y15550
X48841Y16550
X49841Y16550
X50841Y16550
X51841Y16550
X52841Y16550
X53841Y16550
X54841Y16550
X55841Y16550
X56841Y16550
X57841Y16550
X58841Y16550
X58841Y15550
X48341Y19050
X48341Y20050
X40141Y16550
X39141Y16550
X38141Y16550
X37141Y16550
X36141Y16550
X35141Y16550
X34141Y16550
X33141Y16550
X32141Y16550
X31141Y16550
X30141Y16550
X30141Y15550
X31141Y15550
X32141Y15550
X33141Y15550
X34141Y15550
X35141Y15550
X36141Y15550
X37141Y15550
X38141Y15550
X39141Y15550
X40141Y15550
X39141Y14350
X38141Y14350
X37141Y14350
X36141Y14350
X35141Y14350
X34141Y14350
X33141Y14350
X32141Y14350
X31141Y14350
X30141Y14350
X30141Y13350
X31141Y13350
X32141Y13350
X33141Y13350
X34141Y13350
X35141Y13350
X36141Y13350
X37141Y13350
X38141Y13350
X39141Y13350
X40141Y13350
X48341Y7850
X48341Y6850
X48841Y4350
X49841Y4350
X50841Y4350
X51841Y4350
X52841Y4350
X53841Y4350
X54841Y4350
X55841Y4350
X56841Y4350
X57841Y4350
X58841Y4350
X58841Y3350
X57841Y3350
X56841Y3350
X55841Y3350
X54841Y3350
X53841Y3350
X52841Y3350
X51841Y3350
X50841Y3350
X49841Y3350
X48841Y3350
X40141Y3350
X39141Y3350
X38141Y3350
X37141Y3350
X36141Y3350
X35141Y3350
X34141Y3350
X33141Y3350
X32141Y3350
X31141Y3350
X30141Y3350
X30141Y4350
X31141Y4350
X32141Y4350
X33141Y4350
X34141Y4350
X35141Y4350
X36141Y4350
X37141Y4350
X38141Y4350
X39141Y4350
X40141Y4350
X29641Y6850
X29641Y7850
X21441Y4350
X20441Y4350
X19441Y4350
X18441Y4350
X17441Y4350
X16441Y4350
X15441Y4350
X14441Y4350
X13441Y4350
X12441Y4350
X11441Y4350
X11441Y3350
X12441Y3350
X13441Y3350
X14441Y3350
X15441Y3350
X16441Y3350
X17441Y3350
X18441Y3350
X19441Y3350
X20441Y3350
X21441Y3350
X10941Y6850
X10941Y7850
X11441Y13350
X12441Y13350
X13441Y13350
X14441Y13350
X15441Y13350
X16441Y13350
X17441Y13350
X18441Y13350
X19441Y13350
X20441Y13350
X21441Y13350
X20441Y14350
X19441Y14350
X18441Y14350
X17441Y14350
X16441Y14350
X15441Y14350
X14441Y14350
X13441Y14350
X12441Y14350
X11441Y14350
X11441Y15550
X12441Y15550
X13441Y15550
X14441Y15550
X15441Y15550
X16441Y15550
X17441Y15550
X18441Y15550
X19441Y15550
X20441Y15550
X21441Y15550
X21441Y16550
X20441Y16550
X19441Y16550
X18441Y16550
X17441Y16550
X16441Y16550
X15441Y16550
X14441Y16550
X13441Y16550
X12441Y16550
X11441Y16550
X10941Y19050
X10941Y20050
X11441Y25550
X12441Y25550
X13441Y25550
X14441Y25550
X15441Y25550
X16441Y25550
X17441Y25550
X18441Y25550
X19441Y25550
X20441Y25550
X21441Y25550
X20441Y26550
X19441Y26550
X18441Y26550
X17441Y26550
X16441Y26550
X15441Y26550
X14441Y26550
X13441Y26550
X12441Y26550
X11441Y26550
X11441Y27750
X12441Y27750
X13441Y27750
X14441Y27750
X15441Y27750
X16441Y27750
X17441Y27750
X18441Y27750
X19441Y27750
X20441Y27750
X21441Y27750
X21441Y28750
X20441Y28750
X19441Y28750
X18441Y28750
X17441Y28750
X16441Y28750
X15441Y28750
X14441Y28750
X13441Y28750
X12441Y28750
X11441Y28750
X10941Y31250
X10941Y32250
X11441Y37750
X12441Y37750
X13441Y37750
X14441Y37750
X15441Y37750
X16441Y37750
X17441Y37750
X18441Y37750
X19441Y37750
X20441Y37750
X21441Y37750
X20441Y38750
X19441Y38750
X18441Y38750
X17441Y38750
X16441Y38750
X15441Y38750
X14441Y38750
X13441Y38750
X12441Y38750
X11441Y38750
X29641Y32250
X29641Y31250
X30141Y28750
X31141Y28750
X32141Y28750
X33141Y28750
X34141Y28750
X35141Y28750
X36141Y28750
X37141Y28750
X38141Y28750
X39141Y28750
X40141Y28750
X40141Y27750
X39141Y27750
X38141Y27750
X37141Y27750
X36141Y27750
X35141Y27750
X34141Y27750
X33141Y27750
X32141Y27750
X31141Y27750
X30141Y27750
X30141Y26550
X31141Y26550
X32141Y26550
X33141Y26550
X34141Y26550
X35141Y26550
X36141Y26550
X37141Y26550
X38141Y26550
X39141Y26550
X39141Y25550
X38141Y25550
X37141Y25550
X36141Y25550
X35141Y25550
X34141Y25550
X33141Y25550
X32141Y25550
X31141Y25550
X30141Y25550
X40141Y25550
X29641Y20050
X29641Y19050
X48341Y31250
X48341Y32250
X48841Y37750
X49841Y37750
X50841Y37750
X51841Y37750
X52841Y37750
X53841Y37750
X54841Y37750
X55841Y37750
X56841Y37750
X57841Y37750
X58841Y37750
X57841Y38750
X56841Y38750
X55841Y38750
X54841Y38750
X53841Y38750
X52841Y38750
X51841Y38750
X50841Y38750
X49841Y38750
X48841Y38750
X40141Y37750
X39141Y37750
X38141Y37750
X37141Y37750
X36141Y37750
X35141Y37750
X34141Y37750
X33141Y37750
X32141Y37750
X31141Y37750
X30141Y37750
X30141Y38750
X31141Y38750
X32141Y38750
X33141Y38750
X34141Y38750
X35141Y38750
X36141Y38750
X37141Y38750
X38141Y38750
X39141Y38750
X85741Y20050
X85741Y19050
X86241Y16550
X87241Y16550
X88241Y16550
X89241Y16550
X90241Y16550
X91241Y16550
X92241Y16550
X93241Y16550
X94241Y16550
X95241Y16550
X96241Y16550
X96241Y15550
X95241Y15550
X94241Y15550
X93241Y15550
X92241Y15550
X91241Y15550
X90241Y15550
X89241Y15550
X88241Y15550
X87241Y15550
X86241Y15550
X86241Y14350
X87241Y14350
X88241Y14350
X89241Y14350
X90241Y14350
X91241Y14350
X92241Y14350
X93241Y14350
X94241Y14350
X95241Y14350
X95241Y13350
X94241Y13350
X93241Y13350
X92241Y13350
X91241Y13350
X90241Y13350
X89241Y13350
X88241Y13350
X87241Y13350
X86241Y13350
X77541Y13350
X85741Y7850
X85741Y6850
X86241Y4350
X87241Y4350
X88241Y4350
X89241Y4350
X90241Y4350
X91241Y4350
X92241Y4350
X93241Y4350
X94241Y4350
X95241Y4350
X96241Y4350
X96241Y3350
X95241Y3350
X94241Y3350
X93241Y3350
X92241Y3350
X91241Y3350
X90241Y3350
X89241Y3350
X88241Y3350
X87241Y3350
X86241Y3350
X77541Y3350
X76541Y3350
X75541Y3350
X74541Y3350
X73541Y3350
X72541Y3350
X71541Y3350
X70541Y3350
X69541Y3350
X68541Y3350
X67541Y3350
X67541Y4350
X68541Y4350
X69541Y4350
X70541Y4350
X71541Y4350
X72541Y4350
X73541Y4350
X74541Y4350
X75541Y4350
X76541Y4350
X77541Y4350
X67041Y6850
X67041Y7850
X96241Y13350
X96241Y25550
T06
X96241Y26550
X77541Y26550
X58841Y26550
X40141Y26550
X21441Y26550
X21441Y38750
X40141Y38750
X58841Y38750
X77541Y38750
X96241Y38750
X96241Y14350
X77541Y14350
X58841Y14350
X40141Y14350
X21441Y14350
T07
X22941Y13850
X22941Y16050
X41641Y16050
X41641Y13850
X60341Y13850
X60341Y16050
X79041Y16050
X79041Y13850
X97741Y13850
X97741Y16050
X97741Y26050
X97741Y28250
X79041Y28250
X79041Y26050
X60341Y26050
X60341Y28250
X41641Y28250
X41641Y26050
X22941Y26050
X22941Y28250
X22941Y38250
X41641Y38250
X60341Y38250
X79041Y38250
X97741Y38250
X97741Y3850
X79041Y3850
X60341Y3850
X41641Y3850
X22941Y3850
M30
