G04 EAGLE Gerber RS-274X export*
G75*
%MOMM*%
%FSLAX34Y34*%
%LPD*%
%INSoldermask Bottom*%
%IPPOS*%
%AMOC8*
5,1,8,0,0,1.08239X$1,22.5*%
G01*
%ADD10C,1.903200*%
%ADD11C,1.103200*%
%ADD12C,2.082800*%
%ADD13C,0.903200*%
%ADD14C,1.203200*%
%ADD15R,1.303200X1.203200*%
%ADD16R,3.203200X1.203200*%
%ADD17R,0.838200X1.473200*%
%ADD18C,0.965200*%
%ADD19C,3.251200*%
%ADD20R,1.033200X0.833200*%
%ADD21R,1.203200X1.303200*%
%ADD22R,1.103200X1.003200*%
%ADD23C,1.270000*%
%ADD24C,1.703200*%

G36*
X1073342Y691781D02*
X1073342Y691781D01*
X1073408Y691783D01*
X1073451Y691801D01*
X1073498Y691809D01*
X1073555Y691843D01*
X1073615Y691868D01*
X1073650Y691899D01*
X1073691Y691924D01*
X1073733Y691975D01*
X1073781Y692019D01*
X1073803Y692061D01*
X1073832Y692098D01*
X1073853Y692160D01*
X1073884Y692219D01*
X1073892Y692273D01*
X1073904Y692310D01*
X1073903Y692350D01*
X1073911Y692404D01*
X1073911Y694944D01*
X1073900Y695009D01*
X1073898Y695075D01*
X1073880Y695118D01*
X1073872Y695165D01*
X1073838Y695222D01*
X1073813Y695282D01*
X1073782Y695317D01*
X1073757Y695358D01*
X1073706Y695400D01*
X1073662Y695448D01*
X1073620Y695470D01*
X1073583Y695499D01*
X1073521Y695520D01*
X1073462Y695551D01*
X1073408Y695559D01*
X1073371Y695571D01*
X1073331Y695570D01*
X1073277Y695578D01*
X1069467Y695578D01*
X1069402Y695567D01*
X1069336Y695565D01*
X1069293Y695547D01*
X1069246Y695539D01*
X1069189Y695505D01*
X1069129Y695480D01*
X1069094Y695449D01*
X1069053Y695424D01*
X1069012Y695373D01*
X1068963Y695329D01*
X1068941Y695287D01*
X1068912Y695250D01*
X1068891Y695188D01*
X1068860Y695129D01*
X1068852Y695075D01*
X1068840Y695038D01*
X1068840Y695035D01*
X1068841Y694998D01*
X1068833Y694944D01*
X1068833Y692404D01*
X1068844Y692339D01*
X1068846Y692273D01*
X1068864Y692230D01*
X1068872Y692183D01*
X1068906Y692126D01*
X1068931Y692066D01*
X1068962Y692031D01*
X1068987Y691990D01*
X1069038Y691949D01*
X1069082Y691900D01*
X1069124Y691878D01*
X1069161Y691849D01*
X1069223Y691828D01*
X1069282Y691797D01*
X1069336Y691789D01*
X1069373Y691777D01*
X1069413Y691778D01*
X1069467Y691770D01*
X1073277Y691770D01*
X1073342Y691781D01*
G37*
G36*
X598362Y691781D02*
X598362Y691781D01*
X598428Y691783D01*
X598471Y691801D01*
X598518Y691809D01*
X598575Y691843D01*
X598635Y691868D01*
X598670Y691899D01*
X598711Y691924D01*
X598753Y691975D01*
X598801Y692019D01*
X598823Y692061D01*
X598852Y692098D01*
X598873Y692160D01*
X598904Y692219D01*
X598912Y692273D01*
X598924Y692310D01*
X598923Y692350D01*
X598931Y692404D01*
X598931Y694944D01*
X598920Y695009D01*
X598918Y695075D01*
X598900Y695118D01*
X598892Y695165D01*
X598858Y695222D01*
X598833Y695282D01*
X598802Y695317D01*
X598777Y695358D01*
X598726Y695400D01*
X598682Y695448D01*
X598640Y695470D01*
X598603Y695499D01*
X598541Y695520D01*
X598482Y695551D01*
X598428Y695559D01*
X598391Y695571D01*
X598351Y695570D01*
X598297Y695578D01*
X594487Y695578D01*
X594422Y695567D01*
X594356Y695565D01*
X594313Y695547D01*
X594266Y695539D01*
X594209Y695505D01*
X594149Y695480D01*
X594114Y695449D01*
X594073Y695424D01*
X594032Y695373D01*
X593983Y695329D01*
X593961Y695287D01*
X593932Y695250D01*
X593911Y695188D01*
X593880Y695129D01*
X593872Y695075D01*
X593860Y695038D01*
X593860Y695035D01*
X593861Y694998D01*
X593853Y694944D01*
X593853Y692404D01*
X593864Y692339D01*
X593866Y692273D01*
X593884Y692230D01*
X593892Y692183D01*
X593926Y692126D01*
X593951Y692066D01*
X593982Y692031D01*
X594007Y691990D01*
X594058Y691949D01*
X594102Y691900D01*
X594144Y691878D01*
X594181Y691849D01*
X594243Y691828D01*
X594302Y691797D01*
X594356Y691789D01*
X594393Y691777D01*
X594433Y691778D01*
X594487Y691770D01*
X598297Y691770D01*
X598362Y691781D01*
G37*
G36*
X123382Y691781D02*
X123382Y691781D01*
X123448Y691783D01*
X123491Y691801D01*
X123538Y691809D01*
X123595Y691843D01*
X123655Y691868D01*
X123690Y691899D01*
X123731Y691924D01*
X123773Y691975D01*
X123821Y692019D01*
X123843Y692061D01*
X123872Y692098D01*
X123893Y692160D01*
X123924Y692219D01*
X123932Y692273D01*
X123944Y692310D01*
X123943Y692350D01*
X123951Y692404D01*
X123951Y694944D01*
X123940Y695009D01*
X123938Y695075D01*
X123920Y695118D01*
X123912Y695165D01*
X123878Y695222D01*
X123853Y695282D01*
X123822Y695317D01*
X123797Y695358D01*
X123746Y695400D01*
X123702Y695448D01*
X123660Y695470D01*
X123623Y695499D01*
X123561Y695520D01*
X123502Y695551D01*
X123448Y695559D01*
X123411Y695571D01*
X123371Y695570D01*
X123317Y695578D01*
X119507Y695578D01*
X119442Y695567D01*
X119376Y695565D01*
X119333Y695547D01*
X119286Y695539D01*
X119229Y695505D01*
X119169Y695480D01*
X119134Y695449D01*
X119093Y695424D01*
X119052Y695373D01*
X119003Y695329D01*
X118981Y695287D01*
X118952Y695250D01*
X118931Y695188D01*
X118900Y695129D01*
X118892Y695075D01*
X118880Y695038D01*
X118880Y695035D01*
X118881Y694998D01*
X118873Y694944D01*
X118873Y692404D01*
X118884Y692339D01*
X118886Y692273D01*
X118904Y692230D01*
X118912Y692183D01*
X118946Y692126D01*
X118971Y692066D01*
X119002Y692031D01*
X119027Y691990D01*
X119078Y691949D01*
X119122Y691900D01*
X119164Y691878D01*
X119201Y691849D01*
X119263Y691828D01*
X119322Y691797D01*
X119376Y691789D01*
X119413Y691777D01*
X119453Y691778D01*
X119507Y691770D01*
X123317Y691770D01*
X123382Y691781D01*
G37*
G36*
X1073342Y381901D02*
X1073342Y381901D01*
X1073408Y381903D01*
X1073451Y381921D01*
X1073498Y381929D01*
X1073555Y381963D01*
X1073615Y381988D01*
X1073650Y382019D01*
X1073691Y382044D01*
X1073733Y382095D01*
X1073781Y382139D01*
X1073803Y382181D01*
X1073832Y382218D01*
X1073853Y382280D01*
X1073884Y382339D01*
X1073892Y382393D01*
X1073904Y382430D01*
X1073903Y382470D01*
X1073911Y382524D01*
X1073911Y385064D01*
X1073900Y385129D01*
X1073898Y385195D01*
X1073880Y385238D01*
X1073872Y385285D01*
X1073838Y385342D01*
X1073813Y385402D01*
X1073782Y385437D01*
X1073757Y385478D01*
X1073706Y385520D01*
X1073662Y385568D01*
X1073620Y385590D01*
X1073583Y385619D01*
X1073521Y385640D01*
X1073462Y385671D01*
X1073408Y385679D01*
X1073371Y385691D01*
X1073331Y385690D01*
X1073277Y385698D01*
X1069467Y385698D01*
X1069402Y385687D01*
X1069336Y385685D01*
X1069293Y385667D01*
X1069246Y385659D01*
X1069189Y385625D01*
X1069129Y385600D01*
X1069094Y385569D01*
X1069053Y385544D01*
X1069012Y385493D01*
X1068963Y385449D01*
X1068941Y385407D01*
X1068912Y385370D01*
X1068891Y385308D01*
X1068860Y385249D01*
X1068852Y385195D01*
X1068840Y385158D01*
X1068840Y385155D01*
X1068841Y385118D01*
X1068833Y385064D01*
X1068833Y382524D01*
X1068844Y382459D01*
X1068846Y382393D01*
X1068864Y382350D01*
X1068872Y382303D01*
X1068906Y382246D01*
X1068931Y382186D01*
X1068962Y382151D01*
X1068987Y382110D01*
X1069038Y382069D01*
X1069082Y382020D01*
X1069124Y381998D01*
X1069161Y381969D01*
X1069223Y381948D01*
X1069282Y381917D01*
X1069336Y381909D01*
X1069373Y381897D01*
X1069413Y381898D01*
X1069467Y381890D01*
X1073277Y381890D01*
X1073342Y381901D01*
G37*
G36*
X598362Y381901D02*
X598362Y381901D01*
X598428Y381903D01*
X598471Y381921D01*
X598518Y381929D01*
X598575Y381963D01*
X598635Y381988D01*
X598670Y382019D01*
X598711Y382044D01*
X598753Y382095D01*
X598801Y382139D01*
X598823Y382181D01*
X598852Y382218D01*
X598873Y382280D01*
X598904Y382339D01*
X598912Y382393D01*
X598924Y382430D01*
X598923Y382470D01*
X598931Y382524D01*
X598931Y385064D01*
X598920Y385129D01*
X598918Y385195D01*
X598900Y385238D01*
X598892Y385285D01*
X598858Y385342D01*
X598833Y385402D01*
X598802Y385437D01*
X598777Y385478D01*
X598726Y385520D01*
X598682Y385568D01*
X598640Y385590D01*
X598603Y385619D01*
X598541Y385640D01*
X598482Y385671D01*
X598428Y385679D01*
X598391Y385691D01*
X598351Y385690D01*
X598297Y385698D01*
X594487Y385698D01*
X594422Y385687D01*
X594356Y385685D01*
X594313Y385667D01*
X594266Y385659D01*
X594209Y385625D01*
X594149Y385600D01*
X594114Y385569D01*
X594073Y385544D01*
X594032Y385493D01*
X593983Y385449D01*
X593961Y385407D01*
X593932Y385370D01*
X593911Y385308D01*
X593880Y385249D01*
X593872Y385195D01*
X593860Y385158D01*
X593860Y385155D01*
X593861Y385118D01*
X593853Y385064D01*
X593853Y382524D01*
X593864Y382459D01*
X593866Y382393D01*
X593884Y382350D01*
X593892Y382303D01*
X593926Y382246D01*
X593951Y382186D01*
X593982Y382151D01*
X594007Y382110D01*
X594058Y382069D01*
X594102Y382020D01*
X594144Y381998D01*
X594181Y381969D01*
X594243Y381948D01*
X594302Y381917D01*
X594356Y381909D01*
X594393Y381897D01*
X594433Y381898D01*
X594487Y381890D01*
X598297Y381890D01*
X598362Y381901D01*
G37*
G36*
X123382Y381901D02*
X123382Y381901D01*
X123448Y381903D01*
X123491Y381921D01*
X123538Y381929D01*
X123595Y381963D01*
X123655Y381988D01*
X123690Y382019D01*
X123731Y382044D01*
X123773Y382095D01*
X123821Y382139D01*
X123843Y382181D01*
X123872Y382218D01*
X123893Y382280D01*
X123924Y382339D01*
X123932Y382393D01*
X123944Y382430D01*
X123943Y382470D01*
X123951Y382524D01*
X123951Y385064D01*
X123940Y385129D01*
X123938Y385195D01*
X123920Y385238D01*
X123912Y385285D01*
X123878Y385342D01*
X123853Y385402D01*
X123822Y385437D01*
X123797Y385478D01*
X123746Y385520D01*
X123702Y385568D01*
X123660Y385590D01*
X123623Y385619D01*
X123561Y385640D01*
X123502Y385671D01*
X123448Y385679D01*
X123411Y385691D01*
X123371Y385690D01*
X123317Y385698D01*
X119507Y385698D01*
X119442Y385687D01*
X119376Y385685D01*
X119333Y385667D01*
X119286Y385659D01*
X119229Y385625D01*
X119169Y385600D01*
X119134Y385569D01*
X119093Y385544D01*
X119052Y385493D01*
X119003Y385449D01*
X118981Y385407D01*
X118952Y385370D01*
X118931Y385308D01*
X118900Y385249D01*
X118892Y385195D01*
X118880Y385158D01*
X118880Y385155D01*
X118881Y385118D01*
X118873Y385064D01*
X118873Y382524D01*
X118884Y382459D01*
X118886Y382393D01*
X118904Y382350D01*
X118912Y382303D01*
X118946Y382246D01*
X118971Y382186D01*
X119002Y382151D01*
X119027Y382110D01*
X119078Y382069D01*
X119122Y382020D01*
X119164Y381998D01*
X119201Y381969D01*
X119263Y381948D01*
X119322Y381917D01*
X119376Y381909D01*
X119413Y381897D01*
X119453Y381898D01*
X119507Y381890D01*
X123317Y381890D01*
X123382Y381901D01*
G37*
G36*
X1073342Y72021D02*
X1073342Y72021D01*
X1073408Y72023D01*
X1073451Y72041D01*
X1073498Y72049D01*
X1073555Y72083D01*
X1073615Y72108D01*
X1073650Y72139D01*
X1073691Y72164D01*
X1073733Y72215D01*
X1073781Y72259D01*
X1073803Y72301D01*
X1073832Y72338D01*
X1073853Y72400D01*
X1073884Y72459D01*
X1073892Y72513D01*
X1073904Y72550D01*
X1073903Y72590D01*
X1073911Y72644D01*
X1073911Y75184D01*
X1073900Y75249D01*
X1073898Y75315D01*
X1073880Y75358D01*
X1073872Y75405D01*
X1073838Y75462D01*
X1073813Y75522D01*
X1073782Y75557D01*
X1073757Y75598D01*
X1073706Y75640D01*
X1073662Y75688D01*
X1073620Y75710D01*
X1073583Y75739D01*
X1073521Y75760D01*
X1073462Y75791D01*
X1073408Y75799D01*
X1073371Y75811D01*
X1073331Y75810D01*
X1073277Y75818D01*
X1069467Y75818D01*
X1069402Y75807D01*
X1069336Y75805D01*
X1069293Y75787D01*
X1069246Y75779D01*
X1069189Y75745D01*
X1069129Y75720D01*
X1069094Y75689D01*
X1069053Y75664D01*
X1069012Y75613D01*
X1068963Y75569D01*
X1068941Y75527D01*
X1068912Y75490D01*
X1068891Y75428D01*
X1068860Y75369D01*
X1068852Y75315D01*
X1068840Y75278D01*
X1068840Y75275D01*
X1068841Y75238D01*
X1068833Y75184D01*
X1068833Y72644D01*
X1068844Y72579D01*
X1068846Y72513D01*
X1068864Y72470D01*
X1068872Y72423D01*
X1068906Y72366D01*
X1068931Y72306D01*
X1068962Y72271D01*
X1068987Y72230D01*
X1069038Y72189D01*
X1069082Y72140D01*
X1069124Y72118D01*
X1069161Y72089D01*
X1069223Y72068D01*
X1069282Y72037D01*
X1069336Y72029D01*
X1069373Y72017D01*
X1069413Y72018D01*
X1069467Y72010D01*
X1073277Y72010D01*
X1073342Y72021D01*
G37*
G36*
X598362Y72021D02*
X598362Y72021D01*
X598428Y72023D01*
X598471Y72041D01*
X598518Y72049D01*
X598575Y72083D01*
X598635Y72108D01*
X598670Y72139D01*
X598711Y72164D01*
X598753Y72215D01*
X598801Y72259D01*
X598823Y72301D01*
X598852Y72338D01*
X598873Y72400D01*
X598904Y72459D01*
X598912Y72513D01*
X598924Y72550D01*
X598923Y72590D01*
X598931Y72644D01*
X598931Y75184D01*
X598920Y75249D01*
X598918Y75315D01*
X598900Y75358D01*
X598892Y75405D01*
X598858Y75462D01*
X598833Y75522D01*
X598802Y75557D01*
X598777Y75598D01*
X598726Y75640D01*
X598682Y75688D01*
X598640Y75710D01*
X598603Y75739D01*
X598541Y75760D01*
X598482Y75791D01*
X598428Y75799D01*
X598391Y75811D01*
X598351Y75810D01*
X598297Y75818D01*
X594487Y75818D01*
X594422Y75807D01*
X594356Y75805D01*
X594313Y75787D01*
X594266Y75779D01*
X594209Y75745D01*
X594149Y75720D01*
X594114Y75689D01*
X594073Y75664D01*
X594032Y75613D01*
X593983Y75569D01*
X593961Y75527D01*
X593932Y75490D01*
X593911Y75428D01*
X593880Y75369D01*
X593872Y75315D01*
X593860Y75278D01*
X593860Y75275D01*
X593861Y75238D01*
X593853Y75184D01*
X593853Y72644D01*
X593864Y72579D01*
X593866Y72513D01*
X593884Y72470D01*
X593892Y72423D01*
X593926Y72366D01*
X593951Y72306D01*
X593982Y72271D01*
X594007Y72230D01*
X594058Y72189D01*
X594102Y72140D01*
X594144Y72118D01*
X594181Y72089D01*
X594243Y72068D01*
X594302Y72037D01*
X594356Y72029D01*
X594393Y72017D01*
X594433Y72018D01*
X594487Y72010D01*
X598297Y72010D01*
X598362Y72021D01*
G37*
G36*
X123382Y72021D02*
X123382Y72021D01*
X123448Y72023D01*
X123491Y72041D01*
X123538Y72049D01*
X123595Y72083D01*
X123655Y72108D01*
X123690Y72139D01*
X123731Y72164D01*
X123773Y72215D01*
X123821Y72259D01*
X123843Y72301D01*
X123872Y72338D01*
X123893Y72400D01*
X123924Y72459D01*
X123932Y72513D01*
X123944Y72550D01*
X123943Y72590D01*
X123951Y72644D01*
X123951Y75184D01*
X123940Y75249D01*
X123938Y75315D01*
X123920Y75358D01*
X123912Y75405D01*
X123878Y75462D01*
X123853Y75522D01*
X123822Y75557D01*
X123797Y75598D01*
X123746Y75640D01*
X123702Y75688D01*
X123660Y75710D01*
X123623Y75739D01*
X123561Y75760D01*
X123502Y75791D01*
X123448Y75799D01*
X123411Y75811D01*
X123371Y75810D01*
X123317Y75818D01*
X119507Y75818D01*
X119442Y75807D01*
X119376Y75805D01*
X119333Y75787D01*
X119286Y75779D01*
X119229Y75745D01*
X119169Y75720D01*
X119134Y75689D01*
X119093Y75664D01*
X119052Y75613D01*
X119003Y75569D01*
X118981Y75527D01*
X118952Y75490D01*
X118931Y75428D01*
X118900Y75369D01*
X118892Y75315D01*
X118880Y75278D01*
X118880Y75275D01*
X118881Y75238D01*
X118873Y75184D01*
X118873Y72644D01*
X118884Y72579D01*
X118886Y72513D01*
X118904Y72470D01*
X118912Y72423D01*
X118946Y72366D01*
X118971Y72306D01*
X119002Y72271D01*
X119027Y72230D01*
X119078Y72189D01*
X119122Y72140D01*
X119164Y72118D01*
X119201Y72089D01*
X119263Y72068D01*
X119322Y72037D01*
X119376Y72029D01*
X119413Y72017D01*
X119453Y72018D01*
X119507Y72010D01*
X123317Y72010D01*
X123382Y72021D01*
G37*
D10*
X381000Y292100D03*
X855980Y292100D03*
X1330960Y292100D03*
X381000Y601980D03*
X855980Y601980D03*
X1330960Y601980D03*
X381000Y911860D03*
X855980Y911860D03*
X1330960Y911860D03*
D11*
X78500Y40640D03*
X48500Y40640D03*
D12*
X114300Y101600D03*
X114300Y127000D03*
X127000Y292100D03*
X127000Y266700D03*
X127000Y12700D03*
X127000Y38100D03*
D13*
X63500Y255160D03*
X63500Y273160D03*
D12*
X152400Y38100D03*
X177800Y38100D03*
X203200Y38100D03*
X228600Y38100D03*
X254000Y38100D03*
X279400Y38100D03*
X304800Y38100D03*
X330200Y38100D03*
X355600Y38100D03*
X381000Y38100D03*
X152400Y12700D03*
X177800Y12700D03*
X203200Y12700D03*
X228600Y12700D03*
X254000Y12700D03*
X279400Y12700D03*
X304800Y12700D03*
X330200Y12700D03*
X355600Y12700D03*
X381000Y12700D03*
X152400Y292100D03*
X177800Y292100D03*
X203200Y292100D03*
X228600Y292100D03*
X254000Y292100D03*
X279400Y292100D03*
X304800Y292100D03*
X330200Y292100D03*
X355600Y292100D03*
X152400Y266700D03*
X177800Y266700D03*
X203200Y266700D03*
X228600Y266700D03*
X254000Y266700D03*
X279400Y266700D03*
X304800Y266700D03*
X330200Y266700D03*
X355600Y266700D03*
X381000Y266700D03*
D14*
X12700Y39370D03*
X436880Y260096D03*
D15*
X171840Y132080D03*
X188840Y132080D03*
D16*
X237420Y183670D03*
X387420Y143670D03*
X387420Y223670D03*
X387420Y123670D03*
X387420Y103670D03*
X387420Y83670D03*
X387420Y183670D03*
X387420Y163670D03*
X237420Y203670D03*
X237420Y83670D03*
X237420Y223670D03*
X387420Y203670D03*
X237420Y103670D03*
X237420Y123670D03*
X237420Y163670D03*
X237420Y143670D03*
D17*
X199644Y83820D03*
X191516Y83820D03*
X157226Y83820D03*
X165354Y83820D03*
D18*
X342900Y63500D03*
X317500Y63500D03*
D19*
X419100Y279400D03*
X419100Y25400D03*
D20*
X82550Y105340D03*
X82550Y128340D03*
D21*
X73660Y176140D03*
X73660Y159140D03*
D22*
X62070Y125070D03*
X62070Y106070D03*
X41070Y115570D03*
D12*
X431800Y63500D03*
X431800Y88900D03*
D17*
X126492Y73914D03*
X116332Y73914D03*
D11*
X553480Y40640D03*
X523480Y40640D03*
D12*
X589280Y101600D03*
X589280Y127000D03*
X601980Y292100D03*
X601980Y266700D03*
X601980Y12700D03*
X601980Y38100D03*
D13*
X538480Y255160D03*
X538480Y273160D03*
D12*
X627380Y38100D03*
X652780Y38100D03*
X678180Y38100D03*
X703580Y38100D03*
X728980Y38100D03*
X754380Y38100D03*
X779780Y38100D03*
X805180Y38100D03*
X830580Y38100D03*
X855980Y38100D03*
X627380Y12700D03*
X652780Y12700D03*
X678180Y12700D03*
X703580Y12700D03*
X728980Y12700D03*
X754380Y12700D03*
X779780Y12700D03*
X805180Y12700D03*
X830580Y12700D03*
X855980Y12700D03*
X627380Y292100D03*
X652780Y292100D03*
X678180Y292100D03*
X703580Y292100D03*
X728980Y292100D03*
X754380Y292100D03*
X779780Y292100D03*
X805180Y292100D03*
X830580Y292100D03*
X627380Y266700D03*
X652780Y266700D03*
X678180Y266700D03*
X703580Y266700D03*
X728980Y266700D03*
X754380Y266700D03*
X779780Y266700D03*
X805180Y266700D03*
X830580Y266700D03*
X855980Y266700D03*
D14*
X487680Y39370D03*
X911860Y260096D03*
D15*
X646820Y132080D03*
X663820Y132080D03*
D16*
X712400Y183670D03*
X862400Y143670D03*
X862400Y223670D03*
X862400Y123670D03*
X862400Y103670D03*
X862400Y83670D03*
X862400Y183670D03*
X862400Y163670D03*
X712400Y203670D03*
X712400Y83670D03*
X712400Y223670D03*
X862400Y203670D03*
X712400Y103670D03*
X712400Y123670D03*
X712400Y163670D03*
X712400Y143670D03*
D17*
X674624Y83820D03*
X666496Y83820D03*
X632206Y83820D03*
X640334Y83820D03*
D18*
X817880Y63500D03*
X792480Y63500D03*
D19*
X894080Y279400D03*
X894080Y25400D03*
D20*
X557530Y105340D03*
X557530Y128340D03*
D21*
X548640Y176140D03*
X548640Y159140D03*
D22*
X537050Y125070D03*
X537050Y106070D03*
X516050Y115570D03*
D12*
X906780Y63500D03*
X906780Y88900D03*
D17*
X601472Y73914D03*
X591312Y73914D03*
D11*
X1028460Y40640D03*
X998460Y40640D03*
D12*
X1064260Y101600D03*
X1064260Y127000D03*
X1076960Y292100D03*
X1076960Y266700D03*
X1076960Y12700D03*
X1076960Y38100D03*
D13*
X1013460Y255160D03*
X1013460Y273160D03*
D12*
X1102360Y38100D03*
X1127760Y38100D03*
X1153160Y38100D03*
X1178560Y38100D03*
X1203960Y38100D03*
X1229360Y38100D03*
X1254760Y38100D03*
X1280160Y38100D03*
X1305560Y38100D03*
X1330960Y38100D03*
X1102360Y12700D03*
X1127760Y12700D03*
X1153160Y12700D03*
X1178560Y12700D03*
X1203960Y12700D03*
X1229360Y12700D03*
X1254760Y12700D03*
X1280160Y12700D03*
X1305560Y12700D03*
X1330960Y12700D03*
X1102360Y292100D03*
X1127760Y292100D03*
X1153160Y292100D03*
X1178560Y292100D03*
X1203960Y292100D03*
X1229360Y292100D03*
X1254760Y292100D03*
X1280160Y292100D03*
X1305560Y292100D03*
X1102360Y266700D03*
X1127760Y266700D03*
X1153160Y266700D03*
X1178560Y266700D03*
X1203960Y266700D03*
X1229360Y266700D03*
X1254760Y266700D03*
X1280160Y266700D03*
X1305560Y266700D03*
X1330960Y266700D03*
D14*
X962660Y39370D03*
X1386840Y260096D03*
D15*
X1121800Y132080D03*
X1138800Y132080D03*
D16*
X1187380Y183670D03*
X1337380Y143670D03*
X1337380Y223670D03*
X1337380Y123670D03*
X1337380Y103670D03*
X1337380Y83670D03*
X1337380Y183670D03*
X1337380Y163670D03*
X1187380Y203670D03*
X1187380Y83670D03*
X1187380Y223670D03*
X1337380Y203670D03*
X1187380Y103670D03*
X1187380Y123670D03*
X1187380Y163670D03*
X1187380Y143670D03*
D17*
X1149604Y83820D03*
X1141476Y83820D03*
X1107186Y83820D03*
X1115314Y83820D03*
D18*
X1292860Y63500D03*
X1267460Y63500D03*
D19*
X1369060Y279400D03*
X1369060Y25400D03*
D20*
X1032510Y105340D03*
X1032510Y128340D03*
D21*
X1023620Y176140D03*
X1023620Y159140D03*
D22*
X1012030Y125070D03*
X1012030Y106070D03*
X991030Y115570D03*
D12*
X1381760Y63500D03*
X1381760Y88900D03*
D17*
X1076452Y73914D03*
X1066292Y73914D03*
D11*
X78500Y350520D03*
X48500Y350520D03*
D12*
X114300Y411480D03*
X114300Y436880D03*
X127000Y601980D03*
X127000Y576580D03*
X127000Y322580D03*
X127000Y347980D03*
D13*
X63500Y565040D03*
X63500Y583040D03*
D12*
X152400Y347980D03*
X177800Y347980D03*
X203200Y347980D03*
X228600Y347980D03*
X254000Y347980D03*
X279400Y347980D03*
X304800Y347980D03*
X330200Y347980D03*
X355600Y347980D03*
X381000Y347980D03*
X152400Y322580D03*
X177800Y322580D03*
X203200Y322580D03*
X228600Y322580D03*
X254000Y322580D03*
X279400Y322580D03*
X304800Y322580D03*
X330200Y322580D03*
X355600Y322580D03*
X381000Y322580D03*
X152400Y601980D03*
X177800Y601980D03*
X203200Y601980D03*
X228600Y601980D03*
X254000Y601980D03*
X279400Y601980D03*
X304800Y601980D03*
X330200Y601980D03*
X355600Y601980D03*
X152400Y576580D03*
X177800Y576580D03*
X203200Y576580D03*
X228600Y576580D03*
X254000Y576580D03*
X279400Y576580D03*
X304800Y576580D03*
X330200Y576580D03*
X355600Y576580D03*
X381000Y576580D03*
D14*
X12700Y349250D03*
X436880Y569976D03*
D15*
X171840Y441960D03*
X188840Y441960D03*
D16*
X237420Y493550D03*
X387420Y453550D03*
X387420Y533550D03*
X387420Y433550D03*
X387420Y413550D03*
X387420Y393550D03*
X387420Y493550D03*
X387420Y473550D03*
X237420Y513550D03*
X237420Y393550D03*
X237420Y533550D03*
X387420Y513550D03*
X237420Y413550D03*
X237420Y433550D03*
X237420Y473550D03*
X237420Y453550D03*
D17*
X199644Y393700D03*
X191516Y393700D03*
X157226Y393700D03*
X165354Y393700D03*
D18*
X342900Y373380D03*
X317500Y373380D03*
D19*
X419100Y589280D03*
X419100Y335280D03*
D20*
X82550Y415220D03*
X82550Y438220D03*
D21*
X73660Y486020D03*
X73660Y469020D03*
D22*
X62070Y434950D03*
X62070Y415950D03*
X41070Y425450D03*
D12*
X431800Y373380D03*
X431800Y398780D03*
D17*
X126492Y383794D03*
X116332Y383794D03*
D11*
X553480Y350520D03*
X523480Y350520D03*
D12*
X589280Y411480D03*
X589280Y436880D03*
X601980Y601980D03*
X601980Y576580D03*
X601980Y322580D03*
X601980Y347980D03*
D13*
X538480Y565040D03*
X538480Y583040D03*
D12*
X627380Y347980D03*
X652780Y347980D03*
X678180Y347980D03*
X703580Y347980D03*
X728980Y347980D03*
X754380Y347980D03*
X779780Y347980D03*
X805180Y347980D03*
X830580Y347980D03*
X855980Y347980D03*
X627380Y322580D03*
X652780Y322580D03*
X678180Y322580D03*
X703580Y322580D03*
X728980Y322580D03*
X754380Y322580D03*
X779780Y322580D03*
X805180Y322580D03*
X830580Y322580D03*
X855980Y322580D03*
X627380Y601980D03*
X652780Y601980D03*
X678180Y601980D03*
X703580Y601980D03*
X728980Y601980D03*
X754380Y601980D03*
X779780Y601980D03*
X805180Y601980D03*
X830580Y601980D03*
X627380Y576580D03*
X652780Y576580D03*
X678180Y576580D03*
X703580Y576580D03*
X728980Y576580D03*
X754380Y576580D03*
X779780Y576580D03*
X805180Y576580D03*
X830580Y576580D03*
X855980Y576580D03*
D14*
X487680Y349250D03*
X911860Y569976D03*
D15*
X646820Y441960D03*
X663820Y441960D03*
D16*
X712400Y493550D03*
X862400Y453550D03*
X862400Y533550D03*
X862400Y433550D03*
X862400Y413550D03*
X862400Y393550D03*
X862400Y493550D03*
X862400Y473550D03*
X712400Y513550D03*
X712400Y393550D03*
X712400Y533550D03*
X862400Y513550D03*
X712400Y413550D03*
X712400Y433550D03*
X712400Y473550D03*
X712400Y453550D03*
D17*
X674624Y393700D03*
X666496Y393700D03*
X632206Y393700D03*
X640334Y393700D03*
D18*
X817880Y373380D03*
X792480Y373380D03*
D19*
X894080Y589280D03*
X894080Y335280D03*
D20*
X557530Y415220D03*
X557530Y438220D03*
D21*
X548640Y486020D03*
X548640Y469020D03*
D22*
X537050Y434950D03*
X537050Y415950D03*
X516050Y425450D03*
D12*
X906780Y373380D03*
X906780Y398780D03*
D17*
X601472Y383794D03*
X591312Y383794D03*
D11*
X1028460Y350520D03*
X998460Y350520D03*
D12*
X1064260Y411480D03*
X1064260Y436880D03*
X1076960Y601980D03*
X1076960Y576580D03*
X1076960Y322580D03*
X1076960Y347980D03*
D13*
X1013460Y565040D03*
X1013460Y583040D03*
D12*
X1102360Y347980D03*
X1127760Y347980D03*
X1153160Y347980D03*
X1178560Y347980D03*
X1203960Y347980D03*
X1229360Y347980D03*
X1254760Y347980D03*
X1280160Y347980D03*
X1305560Y347980D03*
X1330960Y347980D03*
X1102360Y322580D03*
X1127760Y322580D03*
X1153160Y322580D03*
X1178560Y322580D03*
X1203960Y322580D03*
X1229360Y322580D03*
X1254760Y322580D03*
X1280160Y322580D03*
X1305560Y322580D03*
X1330960Y322580D03*
X1102360Y601980D03*
X1127760Y601980D03*
X1153160Y601980D03*
X1178560Y601980D03*
X1203960Y601980D03*
X1229360Y601980D03*
X1254760Y601980D03*
X1280160Y601980D03*
X1305560Y601980D03*
X1102360Y576580D03*
X1127760Y576580D03*
X1153160Y576580D03*
X1178560Y576580D03*
X1203960Y576580D03*
X1229360Y576580D03*
X1254760Y576580D03*
X1280160Y576580D03*
X1305560Y576580D03*
X1330960Y576580D03*
D14*
X962660Y349250D03*
X1386840Y569976D03*
D15*
X1121800Y441960D03*
X1138800Y441960D03*
D16*
X1187380Y493550D03*
X1337380Y453550D03*
X1337380Y533550D03*
X1337380Y433550D03*
X1337380Y413550D03*
X1337380Y393550D03*
X1337380Y493550D03*
X1337380Y473550D03*
X1187380Y513550D03*
X1187380Y393550D03*
X1187380Y533550D03*
X1337380Y513550D03*
X1187380Y413550D03*
X1187380Y433550D03*
X1187380Y473550D03*
X1187380Y453550D03*
D17*
X1149604Y393700D03*
X1141476Y393700D03*
X1107186Y393700D03*
X1115314Y393700D03*
D18*
X1292860Y373380D03*
X1267460Y373380D03*
D19*
X1369060Y589280D03*
X1369060Y335280D03*
D20*
X1032510Y415220D03*
X1032510Y438220D03*
D21*
X1023620Y486020D03*
X1023620Y469020D03*
D22*
X1012030Y434950D03*
X1012030Y415950D03*
X991030Y425450D03*
D12*
X1381760Y373380D03*
X1381760Y398780D03*
D17*
X1076452Y383794D03*
X1066292Y383794D03*
D11*
X78500Y660400D03*
X48500Y660400D03*
D12*
X114300Y721360D03*
X114300Y746760D03*
X127000Y911860D03*
X127000Y886460D03*
X127000Y632460D03*
X127000Y657860D03*
D13*
X63500Y874920D03*
X63500Y892920D03*
D12*
X152400Y657860D03*
X177800Y657860D03*
X203200Y657860D03*
X228600Y657860D03*
X254000Y657860D03*
X279400Y657860D03*
X304800Y657860D03*
X330200Y657860D03*
X355600Y657860D03*
X381000Y657860D03*
X152400Y632460D03*
X177800Y632460D03*
X203200Y632460D03*
X228600Y632460D03*
X254000Y632460D03*
X279400Y632460D03*
X304800Y632460D03*
X330200Y632460D03*
X355600Y632460D03*
X381000Y632460D03*
X152400Y911860D03*
X177800Y911860D03*
X203200Y911860D03*
X228600Y911860D03*
X254000Y911860D03*
X279400Y911860D03*
X304800Y911860D03*
X330200Y911860D03*
X355600Y911860D03*
X152400Y886460D03*
X177800Y886460D03*
X203200Y886460D03*
X228600Y886460D03*
X254000Y886460D03*
X279400Y886460D03*
X304800Y886460D03*
X330200Y886460D03*
X355600Y886460D03*
X381000Y886460D03*
D14*
X12700Y659130D03*
X436880Y879856D03*
D15*
X171840Y751840D03*
X188840Y751840D03*
D16*
X237420Y803430D03*
X387420Y763430D03*
X387420Y843430D03*
X387420Y743430D03*
X387420Y723430D03*
X387420Y703430D03*
X387420Y803430D03*
X387420Y783430D03*
X237420Y823430D03*
X237420Y703430D03*
X237420Y843430D03*
X387420Y823430D03*
X237420Y723430D03*
X237420Y743430D03*
X237420Y783430D03*
X237420Y763430D03*
D17*
X199644Y703580D03*
X191516Y703580D03*
X157226Y703580D03*
X165354Y703580D03*
D18*
X342900Y683260D03*
X317500Y683260D03*
D19*
X419100Y899160D03*
X419100Y645160D03*
D20*
X82550Y725100D03*
X82550Y748100D03*
D21*
X73660Y795900D03*
X73660Y778900D03*
D22*
X62070Y744830D03*
X62070Y725830D03*
X41070Y735330D03*
D12*
X431800Y683260D03*
X431800Y708660D03*
D17*
X126492Y693674D03*
X116332Y693674D03*
D11*
X553480Y660400D03*
X523480Y660400D03*
D12*
X589280Y721360D03*
X589280Y746760D03*
X601980Y911860D03*
X601980Y886460D03*
X601980Y632460D03*
X601980Y657860D03*
D13*
X538480Y874920D03*
X538480Y892920D03*
D12*
X627380Y657860D03*
X652780Y657860D03*
X678180Y657860D03*
X703580Y657860D03*
X728980Y657860D03*
X754380Y657860D03*
X779780Y657860D03*
X805180Y657860D03*
X830580Y657860D03*
X855980Y657860D03*
X627380Y632460D03*
X652780Y632460D03*
X678180Y632460D03*
X703580Y632460D03*
X728980Y632460D03*
X754380Y632460D03*
X779780Y632460D03*
X805180Y632460D03*
X830580Y632460D03*
X855980Y632460D03*
X627380Y911860D03*
X652780Y911860D03*
X678180Y911860D03*
X703580Y911860D03*
X728980Y911860D03*
X754380Y911860D03*
X779780Y911860D03*
X805180Y911860D03*
X830580Y911860D03*
X627380Y886460D03*
X652780Y886460D03*
X678180Y886460D03*
X703580Y886460D03*
X728980Y886460D03*
X754380Y886460D03*
X779780Y886460D03*
X805180Y886460D03*
X830580Y886460D03*
X855980Y886460D03*
D14*
X487680Y659130D03*
X911860Y879856D03*
D15*
X646820Y751840D03*
X663820Y751840D03*
D16*
X712400Y803430D03*
X862400Y763430D03*
X862400Y843430D03*
X862400Y743430D03*
X862400Y723430D03*
X862400Y703430D03*
X862400Y803430D03*
X862400Y783430D03*
X712400Y823430D03*
X712400Y703430D03*
X712400Y843430D03*
X862400Y823430D03*
X712400Y723430D03*
X712400Y743430D03*
X712400Y783430D03*
X712400Y763430D03*
D17*
X674624Y703580D03*
X666496Y703580D03*
X632206Y703580D03*
X640334Y703580D03*
D18*
X817880Y683260D03*
X792480Y683260D03*
D19*
X894080Y899160D03*
X894080Y645160D03*
D20*
X557530Y725100D03*
X557530Y748100D03*
D21*
X548640Y795900D03*
X548640Y778900D03*
D22*
X537050Y744830D03*
X537050Y725830D03*
X516050Y735330D03*
D12*
X906780Y683260D03*
X906780Y708660D03*
D17*
X601472Y693674D03*
X591312Y693674D03*
D11*
X1028460Y660400D03*
X998460Y660400D03*
D12*
X1064260Y721360D03*
X1064260Y746760D03*
X1076960Y911860D03*
X1076960Y886460D03*
X1076960Y632460D03*
X1076960Y657860D03*
D13*
X1013460Y874920D03*
X1013460Y892920D03*
D12*
X1102360Y657860D03*
X1127760Y657860D03*
X1153160Y657860D03*
X1178560Y657860D03*
X1203960Y657860D03*
X1229360Y657860D03*
X1254760Y657860D03*
X1280160Y657860D03*
X1305560Y657860D03*
X1330960Y657860D03*
X1102360Y632460D03*
X1127760Y632460D03*
X1153160Y632460D03*
X1178560Y632460D03*
X1203960Y632460D03*
X1229360Y632460D03*
X1254760Y632460D03*
X1280160Y632460D03*
X1305560Y632460D03*
X1330960Y632460D03*
X1102360Y911860D03*
X1127760Y911860D03*
X1153160Y911860D03*
X1178560Y911860D03*
X1203960Y911860D03*
X1229360Y911860D03*
X1254760Y911860D03*
X1280160Y911860D03*
X1305560Y911860D03*
X1102360Y886460D03*
X1127760Y886460D03*
X1153160Y886460D03*
X1178560Y886460D03*
X1203960Y886460D03*
X1229360Y886460D03*
X1254760Y886460D03*
X1280160Y886460D03*
X1305560Y886460D03*
X1330960Y886460D03*
D14*
X962660Y659130D03*
X1386840Y879856D03*
D15*
X1121800Y751840D03*
X1138800Y751840D03*
D16*
X1187380Y803430D03*
X1337380Y763430D03*
X1337380Y843430D03*
X1337380Y743430D03*
X1337380Y723430D03*
X1337380Y703430D03*
X1337380Y803430D03*
X1337380Y783430D03*
X1187380Y823430D03*
X1187380Y703430D03*
X1187380Y843430D03*
X1337380Y823430D03*
X1187380Y723430D03*
X1187380Y743430D03*
X1187380Y783430D03*
X1187380Y763430D03*
D17*
X1149604Y703580D03*
X1141476Y703580D03*
X1107186Y703580D03*
X1115314Y703580D03*
D18*
X1292860Y683260D03*
X1267460Y683260D03*
D19*
X1369060Y899160D03*
X1369060Y645160D03*
D20*
X1032510Y725100D03*
X1032510Y748100D03*
D21*
X1023620Y795900D03*
X1023620Y778900D03*
D22*
X1012030Y744830D03*
X1012030Y725830D03*
X991030Y735330D03*
D12*
X1381760Y683260D03*
X1381760Y708660D03*
D17*
X1076452Y693674D03*
X1066292Y693674D03*
D14*
X93980Y945515D03*
X1376045Y945515D03*
D23*
X84925Y-20955D02*
X84928Y-20733D01*
X84936Y-20511D01*
X84950Y-20289D01*
X84969Y-20067D01*
X84993Y-19847D01*
X85023Y-19626D01*
X85058Y-19407D01*
X85099Y-19188D01*
X85145Y-18971D01*
X85196Y-18755D01*
X85253Y-18540D01*
X85315Y-18326D01*
X85382Y-18115D01*
X85454Y-17904D01*
X85532Y-17696D01*
X85614Y-17490D01*
X85702Y-17286D01*
X85794Y-17083D01*
X85892Y-16884D01*
X85994Y-16687D01*
X86101Y-16492D01*
X86213Y-16300D01*
X86330Y-16111D01*
X86451Y-15924D01*
X86577Y-15741D01*
X86707Y-15561D01*
X86842Y-15384D01*
X86980Y-15211D01*
X87123Y-15041D01*
X87271Y-14874D01*
X87422Y-14711D01*
X87577Y-14552D01*
X87736Y-14397D01*
X87899Y-14246D01*
X88066Y-14098D01*
X88236Y-13955D01*
X88409Y-13817D01*
X88586Y-13682D01*
X88766Y-13552D01*
X88949Y-13426D01*
X89136Y-13305D01*
X89325Y-13188D01*
X89517Y-13076D01*
X89712Y-12969D01*
X89909Y-12867D01*
X90108Y-12769D01*
X90311Y-12677D01*
X90515Y-12589D01*
X90721Y-12507D01*
X90929Y-12429D01*
X91140Y-12357D01*
X91351Y-12290D01*
X91565Y-12228D01*
X91780Y-12171D01*
X91996Y-12120D01*
X92213Y-12074D01*
X92432Y-12033D01*
X92651Y-11998D01*
X92872Y-11968D01*
X93092Y-11944D01*
X93314Y-11925D01*
X93536Y-11911D01*
X93758Y-11903D01*
X93980Y-11900D01*
X94202Y-11903D01*
X94424Y-11911D01*
X94646Y-11925D01*
X94868Y-11944D01*
X95088Y-11968D01*
X95309Y-11998D01*
X95528Y-12033D01*
X95747Y-12074D01*
X95964Y-12120D01*
X96180Y-12171D01*
X96395Y-12228D01*
X96609Y-12290D01*
X96820Y-12357D01*
X97031Y-12429D01*
X97239Y-12507D01*
X97445Y-12589D01*
X97649Y-12677D01*
X97852Y-12769D01*
X98051Y-12867D01*
X98248Y-12969D01*
X98443Y-13076D01*
X98635Y-13188D01*
X98824Y-13305D01*
X99011Y-13426D01*
X99194Y-13552D01*
X99374Y-13682D01*
X99551Y-13817D01*
X99724Y-13955D01*
X99894Y-14098D01*
X100061Y-14246D01*
X100224Y-14397D01*
X100383Y-14552D01*
X100538Y-14711D01*
X100689Y-14874D01*
X100837Y-15041D01*
X100980Y-15211D01*
X101118Y-15384D01*
X101253Y-15561D01*
X101383Y-15741D01*
X101509Y-15924D01*
X101630Y-16111D01*
X101747Y-16300D01*
X101859Y-16492D01*
X101966Y-16687D01*
X102068Y-16884D01*
X102166Y-17083D01*
X102258Y-17286D01*
X102346Y-17490D01*
X102428Y-17696D01*
X102506Y-17904D01*
X102578Y-18115D01*
X102645Y-18326D01*
X102707Y-18540D01*
X102764Y-18755D01*
X102815Y-18971D01*
X102861Y-19188D01*
X102902Y-19407D01*
X102937Y-19626D01*
X102967Y-19847D01*
X102991Y-20067D01*
X103010Y-20289D01*
X103024Y-20511D01*
X103032Y-20733D01*
X103035Y-20955D01*
X103032Y-21177D01*
X103024Y-21399D01*
X103010Y-21621D01*
X102991Y-21843D01*
X102967Y-22063D01*
X102937Y-22284D01*
X102902Y-22503D01*
X102861Y-22722D01*
X102815Y-22939D01*
X102764Y-23155D01*
X102707Y-23370D01*
X102645Y-23584D01*
X102578Y-23795D01*
X102506Y-24006D01*
X102428Y-24214D01*
X102346Y-24420D01*
X102258Y-24624D01*
X102166Y-24827D01*
X102068Y-25026D01*
X101966Y-25223D01*
X101859Y-25418D01*
X101747Y-25610D01*
X101630Y-25799D01*
X101509Y-25986D01*
X101383Y-26169D01*
X101253Y-26349D01*
X101118Y-26526D01*
X100980Y-26699D01*
X100837Y-26869D01*
X100689Y-27036D01*
X100538Y-27199D01*
X100383Y-27358D01*
X100224Y-27513D01*
X100061Y-27664D01*
X99894Y-27812D01*
X99724Y-27955D01*
X99551Y-28093D01*
X99374Y-28228D01*
X99194Y-28358D01*
X99011Y-28484D01*
X98824Y-28605D01*
X98635Y-28722D01*
X98443Y-28834D01*
X98248Y-28941D01*
X98051Y-29043D01*
X97852Y-29141D01*
X97649Y-29233D01*
X97445Y-29321D01*
X97239Y-29403D01*
X97031Y-29481D01*
X96820Y-29553D01*
X96609Y-29620D01*
X96395Y-29682D01*
X96180Y-29739D01*
X95964Y-29790D01*
X95747Y-29836D01*
X95528Y-29877D01*
X95309Y-29912D01*
X95088Y-29942D01*
X94868Y-29966D01*
X94646Y-29985D01*
X94424Y-29999D01*
X94202Y-30007D01*
X93980Y-30010D01*
X93758Y-30007D01*
X93536Y-29999D01*
X93314Y-29985D01*
X93092Y-29966D01*
X92872Y-29942D01*
X92651Y-29912D01*
X92432Y-29877D01*
X92213Y-29836D01*
X91996Y-29790D01*
X91780Y-29739D01*
X91565Y-29682D01*
X91351Y-29620D01*
X91140Y-29553D01*
X90929Y-29481D01*
X90721Y-29403D01*
X90515Y-29321D01*
X90311Y-29233D01*
X90108Y-29141D01*
X89909Y-29043D01*
X89712Y-28941D01*
X89517Y-28834D01*
X89325Y-28722D01*
X89136Y-28605D01*
X88949Y-28484D01*
X88766Y-28358D01*
X88586Y-28228D01*
X88409Y-28093D01*
X88236Y-27955D01*
X88066Y-27812D01*
X87899Y-27664D01*
X87736Y-27513D01*
X87577Y-27358D01*
X87422Y-27199D01*
X87271Y-27036D01*
X87123Y-26869D01*
X86980Y-26699D01*
X86842Y-26526D01*
X86707Y-26349D01*
X86577Y-26169D01*
X86451Y-25986D01*
X86330Y-25799D01*
X86213Y-25610D01*
X86101Y-25418D01*
X85994Y-25223D01*
X85892Y-25026D01*
X85794Y-24827D01*
X85702Y-24624D01*
X85614Y-24420D01*
X85532Y-24214D01*
X85454Y-24006D01*
X85382Y-23795D01*
X85315Y-23584D01*
X85253Y-23370D01*
X85196Y-23155D01*
X85145Y-22939D01*
X85099Y-22722D01*
X85058Y-22503D01*
X85023Y-22284D01*
X84993Y-22063D01*
X84969Y-21843D01*
X84950Y-21621D01*
X84936Y-21399D01*
X84928Y-21177D01*
X84925Y-20955D01*
D24*
X93980Y-20955D03*
M02*
