%
M48
M72
T01C0.0120
T02C0.0200
T03C0.0276
T04C0.0354
T05C0.0400
T06C0.0669
%
T01
X6675Y5250
X9425Y6050
X9425Y7050
X10025Y8550
X9675Y9300
X8875Y9500
X10625Y9250
X11375Y9300
X11375Y9650
X12425Y9000
X11425Y8900
X11675Y8600
X11875Y8050
X12225Y8000
X12425Y8250
X12525Y7600
X12075Y7650
X12275Y7050
X11273Y7648
X12275Y6500
X12425Y5600
X11375Y4600
X14375Y4600
X14950Y5275
X15275Y5200
X16275Y5600
X16675Y5550
X17325Y5350
X17775Y5900
X17225Y6100
X15975Y5900
X15325Y6350
X14875Y6150
X14375Y6550
X14575Y7400
X14725Y7750
X14475Y8100
X15225Y8400
X14975Y8650
X14625Y8650
X15475Y8650
X16275Y8750
X16475Y8300
X16475Y8000
X16475Y7700
X16375Y7400
X16075Y7400
X15875Y7700
X15475Y7400
X15225Y7600
X15375Y7900
X15625Y8150
X17225Y8250
X18325Y8150
X18325Y8500
X18325Y8950
X18075Y9800
X17725Y9800
X18025Y10150
X16825Y10100
X16125Y10100
X15825Y10100
X15525Y10100
X15225Y10100
X14675Y10500
X14425Y10100
X14125Y9950
X15575Y9400
X15875Y9400
X16175Y9400
X15875Y11300
X16875Y11300
X18275Y11950
X19475Y11800
X22225Y13000
X25425Y11850
X26375Y11600
X26725Y11900
X23725Y10250
X23725Y9950
X23525Y9700
X23675Y8800
X24275Y7800
X26625Y7050
X26625Y6050
X28575Y4600
X29625Y5600
X29475Y6500
X29475Y7050
X29725Y7600
X29275Y7650
X29425Y8000
X29625Y8250
X29075Y8050
X28875Y8600
X28625Y8900
X28575Y9300
X28575Y9650
X27825Y9250
X27225Y8550
X26875Y9300
X26075Y9500
X23275Y10862
X28473Y7648
X29625Y9000
X31325Y9950
X31625Y10100
X31875Y10500
X32425Y10100
X32725Y10100
X33025Y10100
X33325Y10100
X34025Y10100
X33375Y9400
X33075Y9400
X32775Y9400
X32675Y8650
X32425Y8400
X32175Y8650
X31825Y8650
X31675Y8100
X31925Y7750
X31775Y7400
X32425Y7600
X32675Y7400
X33075Y7700
X33275Y7400
X33575Y7400
X33675Y7700
X33675Y8000
X33675Y8300
X33475Y8750
X34425Y8250
X34425Y7700
X35075Y7350
X35525Y8150
X35525Y8500
X35525Y8950
X35275Y9800
X34925Y9800
X35225Y10150
X34075Y11300
X33075Y11300
X35475Y11950
X36675Y11800
X39425Y13000
X42625Y11850
X43575Y11600
X43925Y11900
X40925Y10250
X40925Y9950
X40725Y9700
X40875Y8800
X41475Y7800
X43825Y7050
X43825Y6050
X45775Y4600
X46825Y5600
X46675Y6500
X46675Y7050
X46925Y7600
X46475Y7650
X46625Y8000
X46825Y8250
X46275Y8050
X46075Y8600
X45825Y8900
X45775Y9300
X45775Y9650
X45025Y9250
X44075Y9300
X43275Y9500
X44425Y8550
X45673Y7648
X46825Y9000
X48525Y9950
X48825Y10100
X49075Y10500
X49625Y10100
X49925Y10100
X50225Y10100
X50525Y10100
X51225Y10100
X52125Y9800
X52475Y9800
X52425Y10150
X50575Y9400
X50275Y9400
X49975Y9400
X49875Y8650
X49625Y8400
X49375Y8650
X49025Y8650
X48875Y8100
X49125Y7750
X48975Y7400
X49625Y7600
X49875Y7400
X50275Y7700
X50475Y7400
X50775Y7400
X50875Y7700
X50875Y8000
X50875Y8300
X50675Y8750
X51625Y8250
X51625Y7700
X52275Y7350
X52725Y8150
X52725Y8500
X52725Y8950
X50025Y8150
X49775Y7900
X49725Y6350
X49275Y6150
X48775Y6550
X48725Y5650
X49350Y5275
X49675Y5200
X50375Y5900
X50675Y5600
X51075Y5550
X51725Y5350
X52175Y5900
X51625Y6100
X48775Y4600
X41075Y5250
X34975Y5900
X34425Y6100
X33875Y5550
X33475Y5600
X33175Y5900
X32525Y6350
X32075Y6150
X31575Y6550
X31525Y5650
X32150Y5275
X32475Y5200
X31575Y4600
X34525Y5350
X32575Y7900
X32825Y8150
X29625Y10950
X28575Y15800
X29625Y16800
X29475Y17700
X29475Y18250
X29725Y18800
X29275Y18850
X29425Y19200
X29625Y19450
X29075Y19250
X28875Y19800
X28625Y20100
X28575Y20500
X28575Y20850
X27825Y20450
X27225Y19750
X26875Y20500
X26075Y20700
X23725Y21150
X23725Y21450
X23525Y20900
X23675Y20000
X24275Y19000
X26625Y18250
X26625Y17250
X28473Y18848
X29625Y20200
X31325Y21150
X31625Y21300
X31875Y21700
X32425Y21300
X32725Y21300
X33025Y21300
X33325Y21300
X34025Y21300
X34925Y21000
X35275Y21000
X35225Y21350
X35525Y20150
X35525Y19700
X35525Y19350
X35075Y18550
X34425Y18900
X34425Y19450
X33675Y19500
X33675Y19200
X33675Y18900
X33575Y18600
X33275Y18600
X33075Y18900
X32675Y18600
X32425Y18800
X32575Y19100
X32825Y19350
X32425Y19600
X32175Y19850
X31825Y19850
X31675Y19300
X31925Y18950
X31775Y18600
X31575Y17750
X32075Y17350
X32525Y17550
X33175Y17100
X33475Y16800
X33875Y16750
X34525Y16550
X34975Y17100
X34425Y17300
X32475Y16400
X32150Y16475
X31525Y16850
X31575Y15800
X32675Y19850
X32775Y20600
X33075Y20600
X33375Y20600
X33475Y19950
X33075Y22500
X34075Y22500
X35475Y23150
X36675Y23000
X39425Y24200
X42625Y23050
X43575Y22800
X43925Y23100
X46825Y22150
X48525Y21150
X48825Y21300
X49075Y21700
X49625Y21300
X49925Y21300
X50225Y21300
X50525Y21300
X51225Y21300
X52125Y21000
X52475Y21000
X52425Y21350
X50575Y20600
X50275Y20600
X49975Y20600
X50675Y19950
X49875Y19850
X49625Y19600
X49375Y19850
X49025Y19850
X48875Y19300
X49125Y18950
X48975Y18600
X49625Y18800
X49875Y18600
X50275Y18900
X50475Y18600
X50775Y18600
X50875Y18900
X50875Y19200
X50875Y19500
X51625Y19450
X51625Y18900
X52275Y18550
X52725Y19350
X52725Y19700
X52725Y20150
X50025Y19350
X49775Y19100
X48775Y17750
X49275Y17350
X49725Y17550
X50375Y17100
X50675Y16800
X51075Y16750
X51725Y16550
X52175Y17100
X51625Y17300
X49675Y16400
X49350Y16475
X48725Y16850
X48775Y15800
X46825Y16800
X45775Y15800
X43825Y17250
X43825Y18250
X45673Y18848
X46275Y19250
X46625Y19200
X46825Y19450
X46925Y18800
X46475Y18850
X46675Y18250
X46675Y17700
X46075Y19800
X45825Y20100
X45775Y20500
X45775Y20850
X45025Y20450
X44075Y20500
X43275Y20700
X44425Y19750
X46825Y20200
X50275Y22500
X51275Y22500
X52675Y23150
X53875Y23000
X48775Y27000
X49350Y27675
X49675Y27600
X48725Y28050
X49275Y28550
X49725Y28750
X50375Y28300
X50675Y28000
X51075Y27950
X51725Y27750
X52175Y28300
X51625Y28500
X52275Y29750
X51625Y30100
X50875Y30100
X50875Y30400
X50875Y30700
X50675Y31150
X49875Y31050
X49625Y30800
X49375Y31050
X49025Y31050
X48875Y30500
X49125Y30150
X48975Y29800
X49625Y30000
X49875Y29800
X50275Y30100
X50475Y29800
X50775Y29800
X50025Y30550
X49775Y30300
X48775Y28950
X46675Y28900
X46675Y29450
X46925Y30000
X46475Y30050
X46625Y30400
X46825Y30650
X46275Y30450
X45673Y30048
X46075Y31000
X45825Y31300
X45775Y31700
X45775Y32050
X45025Y31650
X44425Y30950
X44075Y31700
X43275Y31900
X40925Y32350
X40925Y32650
X40725Y32100
X40875Y31200
X41475Y30200
X43825Y29450
X43825Y28450
X45775Y27000
X46825Y28000
X51625Y30650
X52725Y30550
X52725Y30900
X52725Y31350
X52475Y32200
X52125Y32200
X52425Y32550
X51225Y32500
X50525Y32500
X50225Y32500
X49925Y32500
X49625Y32500
X49075Y32900
X48825Y32500
X48525Y32350
X46825Y31400
X46825Y33350
X43925Y34300
X43575Y34000
X42625Y34250
X40475Y33262
X39425Y35400
X36675Y34200
X35475Y34350
X34075Y33700
X33075Y33700
X31875Y32900
X31625Y32500
X31325Y32350
X32425Y32500
X32725Y32500
X33025Y32500
X33325Y32500
X34025Y32500
X34925Y32200
X35275Y32200
X35225Y32550
X35525Y31350
X35525Y30900
X35525Y30550
X35075Y29750
X34425Y30100
X33675Y30100
X33675Y30400
X33675Y30700
X33475Y31150
X32825Y30550
X32575Y30300
X32425Y30000
X32675Y29800
X33075Y30100
X33275Y29800
X33575Y29800
X34425Y30650
X33375Y31800
X33075Y31800
X32775Y31800
X32675Y31050
X32425Y30800
X32175Y31050
X31825Y31050
X31675Y30500
X31925Y30150
X31775Y29800
X31575Y28950
X32075Y28550
X32525Y28750
X33175Y28300
X33475Y28000
X33875Y27950
X34525Y27750
X34975Y28300
X34425Y28500
X32475Y27600
X32150Y27675
X31525Y28050
X31575Y27000
X29625Y28000
X29475Y28900
X29475Y29450
X29725Y30000
X29275Y30050
X29425Y30400
X29625Y30650
X29075Y30450
X28473Y30048
X28875Y31000
X28625Y31300
X28575Y31700
X28575Y32050
X27825Y31650
X27225Y30950
X26875Y31700
X26075Y31900
X23725Y32350
X23725Y32650
X23525Y32100
X23675Y31200
X24275Y30200
X26625Y29450
X26625Y28450
X28575Y27000
X23875Y27650
X22225Y24200
X19475Y23000
X18275Y23150
X16875Y22500
X15875Y22500
X14675Y21700
X14425Y21300
X14125Y21150
X15225Y21300
X15525Y21300
X15825Y21300
X16125Y21300
X16825Y21300
X17725Y21000
X18075Y21000
X18025Y21350
X18325Y20150
X18325Y19700
X18325Y19350
X17225Y19450
X17225Y18900
X17875Y18550
X16475Y18900
X16475Y19200
X16475Y19500
X15875Y18900
X16075Y18600
X16375Y18600
X15475Y18600
X15225Y18800
X15375Y19100
X15625Y19350
X15225Y19600
X15475Y19850
X14975Y19850
X14625Y19850
X14475Y19300
X14725Y18950
X14575Y18600
X14375Y17750
X14875Y17350
X15325Y17550
X15975Y17100
X16275Y16800
X16675Y16750
X17325Y16550
X17775Y17100
X17225Y17300
X15275Y16400
X14950Y16475
X14325Y16850
X14375Y15800
X12425Y16800
X11375Y15800
X9425Y17250
X9425Y18250
X11273Y18848
X11875Y19250
X12225Y19200
X12425Y19450
X12525Y18800
X12075Y18850
X12275Y18250
X12275Y17700
X11675Y19800
X11425Y20100
X11375Y20500
X11375Y20850
X10625Y20450
X10025Y19750
X9675Y20500
X8875Y20700
X6525Y21150
X6525Y21450
X6325Y20900
X6475Y20000
X7075Y19000
X6675Y16450
X5025Y13000
X8225Y11850
X9175Y11600
X9525Y11900
X12425Y10950
X17225Y7700
X17875Y7350
X14325Y5650
X7075Y7800
X6475Y8800
X6325Y9700
X6525Y9950
X6525Y10250
X6075Y10862
X12425Y20200
X12425Y22150
X9525Y23100
X9175Y22800
X8225Y23050
X6075Y22062
X5025Y24200
X6675Y27650
X9425Y28450
X9425Y29450
X11273Y30048
X11875Y30450
X12225Y30400
X12425Y30650
X11675Y31000
X11425Y31300
X11375Y31700
X11375Y32050
X10625Y31650
X10025Y30950
X9675Y31700
X8875Y31900
X6525Y32350
X6525Y32650
X6325Y32100
X6475Y31200
X7075Y30200
X6075Y33262
X8225Y34250
X9175Y34000
X9525Y34300
X12425Y33350
X14125Y32350
X14425Y32500
X14675Y32900
X15225Y32500
X15525Y32500
X15825Y32500
X16125Y32500
X16825Y32500
X17725Y32200
X18075Y32200
X18025Y32550
X18325Y31350
X18325Y30900
X18325Y30550
X17225Y30650
X16475Y30700
X16475Y30400
X16475Y30100
X16375Y29800
X16075Y29800
X15875Y30100
X15475Y29800
X15225Y30000
X15375Y30300
X15625Y30550
X15225Y30800
X14975Y31050
X14625Y31050
X14475Y30500
X14725Y30150
X14575Y29800
X14375Y28950
X14875Y28550
X15325Y28750
X15975Y28300
X16275Y28000
X16675Y27950
X17325Y27750
X17775Y28300
X17225Y28500
X15275Y27600
X14950Y27675
X14325Y28050
X14375Y27000
X12425Y28000
X12275Y28900
X12275Y29450
X12525Y30000
X12075Y30050
X12425Y31400
X15475Y31050
X16275Y31150
X16175Y31800
X15875Y31800
X15575Y31800
X15875Y33700
X16875Y33700
X18275Y34350
X19475Y34200
X22225Y35400
X23275Y33262
X25425Y34250
X26375Y34000
X26725Y34300
X29625Y33350
X29625Y31400
X41075Y27650
X40475Y22062
X40925Y21450
X40925Y21150
X40725Y20900
X40875Y20000
X41475Y19000
X41075Y16450
X46825Y10950
X50275Y11300
X51275Y11300
X52675Y11950
X53875Y11800
X40475Y10862
X23875Y16450
X16275Y19950
X16175Y20600
X15875Y20600
X15575Y20600
X23275Y22062
X25425Y23050
X26375Y22800
X26725Y23100
X29625Y22150
X17875Y29750
X17225Y30100
X11375Y27000
X5025Y35400
X49975Y31800
X50275Y31800
X50575Y31800
X50275Y33700
X51275Y33700
X52675Y34350
X53875Y34200
X23875Y5250
T02
X17975Y5350
X16975Y5350
X15975Y5350
X15975Y6350
X16975Y6350
X17975Y6350
X33175Y6350
X34175Y6350
X35175Y6350
X35175Y5350
X34175Y5350
X33175Y5350
X50375Y5350
X51375Y5350
X52375Y5350
X52375Y6350
X51375Y6350
X50375Y6350
X50375Y16550
X50375Y17550
X51375Y17550
X52375Y17550
X52375Y16550
X51375Y16550
X35175Y16550
X34175Y16550
X34175Y17550
X35175Y17550
X33175Y17550
X33175Y16550
X17975Y16550
X17975Y17550
X16975Y17550
X15975Y17550
X15975Y16550
X16975Y16550
X16975Y27750
X15975Y27750
X15975Y28750
X16975Y28750
X17975Y28750
X17975Y27750
X33175Y27750
X34175Y27750
X35175Y27750
X35175Y28750
X34175Y28750
X33175Y28750
X50375Y28750
X51375Y28750
X52375Y28750
X52375Y27750
X51375Y27750
X50375Y27750
T03
X40775Y24304
X40775Y23596
X40775Y13104
X40775Y12396
X23575Y12396
X23575Y13104
X6375Y13104
X6375Y12396
X6375Y23596
X6375Y24304
X6375Y34796
X6375Y35504
X23575Y35504
X23575Y34796
X23575Y24304
X23575Y23596
X40775Y34796
X40775Y35504
T04
X5784Y3950
X6966Y3950
X22984Y3950
X24166Y3950
X40184Y3950
X41366Y3950
X41366Y15150
X40184Y15150
X24166Y15150
X22984Y15150
X6966Y15150
X5784Y15150
X5784Y26350
X6966Y26350
X22984Y26350
X24166Y26350
X40184Y26350
X41366Y26350
T05
X43275Y26750
X44275Y26750
X45275Y26750
X46275Y26750
X47275Y26750
X48275Y26750
X49275Y26750
X50275Y26750
X51275Y26750
X52275Y26750
X53275Y26750
X53275Y25750
X52275Y25750
X51275Y25750
X50275Y25750
X49275Y25750
X48275Y25750
X47275Y25750
X46275Y25750
X45275Y25750
X44275Y25750
X43275Y25750
X43275Y24550
X43275Y23550
X44275Y23550
X44275Y24550
X45275Y24550
X46275Y24550
X46275Y23550
X45275Y23550
X47275Y23550
X48275Y23550
X48275Y24550
X47275Y24550
X49275Y24550
X50275Y24550
X50275Y23550
X49275Y23550
X51275Y23550
X52275Y23550
X52275Y24550
X51275Y24550
X53275Y23550
X42775Y18550
X42775Y17550
X43275Y15550
X43275Y14550
X44275Y14550
X44275Y15550
X45275Y15550
X46275Y15550
X46275Y14550
X45275Y14550
X45275Y13350
X46275Y13350
X47275Y13350
X48275Y13350
X49275Y13350
X50275Y13350
X51275Y13350
X52275Y13350
X52275Y12350
X51275Y12350
X50275Y12350
X49275Y12350
X48275Y12350
X47275Y12350
X46275Y12350
X45275Y12350
X44275Y12350
X43275Y12350
X43275Y13350
X44275Y13350
X47275Y14550
X48275Y14550
X48275Y15550
X47275Y15550
X49275Y15550
X50275Y15550
X50275Y14550
X49275Y14550
X51275Y14550
X52275Y14550
X52275Y15550
X51275Y15550
X53275Y15550
X53275Y14550
X53275Y12350
X42775Y7350
X42775Y6350
X43275Y4350
X44275Y4350
X45275Y4350
X46275Y4350
X47275Y4350
X48275Y4350
X49275Y4350
X50275Y4350
X51275Y4350
X52275Y4350
X53275Y4350
X53275Y3350
X52275Y3350
X51275Y3350
X50275Y3350
X49275Y3350
X48275Y3350
X47275Y3350
X46275Y3350
X45275Y3350
X44275Y3350
X43275Y3350
X36075Y3350
X35075Y3350
X34075Y3350
X33075Y3350
X32075Y3350
X31075Y3350
X30075Y3350
X29075Y3350
X28075Y3350
X27075Y3350
X26075Y3350
X26075Y4350
X27075Y4350
X28075Y4350
X29075Y4350
X30075Y4350
X31075Y4350
X32075Y4350
X33075Y4350
X34075Y4350
X35075Y4350
X36075Y4350
X25575Y6350
X25575Y7350
X18875Y4350
X17875Y4350
X16875Y4350
X15875Y4350
X14875Y4350
X13875Y4350
X12875Y4350
X11875Y4350
X10875Y4350
X9875Y4350
X8875Y4350
X8875Y3350
X9875Y3350
X10875Y3350
X11875Y3350
X12875Y3350
X13875Y3350
X14875Y3350
X15875Y3350
X16875Y3350
X17875Y3350
X18875Y3350
X8375Y6350
X8375Y7350
X8875Y12350
X9875Y12350
X10875Y12350
X11875Y12350
X12875Y12350
X13875Y12350
X14875Y12350
X15875Y12350
X16875Y12350
X17875Y12350
X18875Y12350
X17875Y13350
X16875Y13350
X15875Y13350
X14875Y13350
X13875Y13350
X12875Y13350
X11875Y13350
X10875Y13350
X9875Y13350
X8875Y13350
X8875Y14550
X8875Y15550
X9875Y15550
X10875Y15550
X10875Y14550
X9875Y14550
X11875Y14550
X12875Y14550
X12875Y15550
X11875Y15550
X13875Y15550
X14875Y15550
X14875Y14550
X13875Y14550
X15875Y14550
X16875Y14550
X16875Y15550
X15875Y15550
X17875Y15550
X18875Y15550
X18875Y14550
X17875Y14550
X25575Y17550
X25575Y18550
X26075Y15550
X26075Y14550
X27075Y14550
X28075Y14550
X28075Y15550
X27075Y15550
X29075Y15550
X30075Y15550
X30075Y14550
X29075Y14550
X29075Y13350
X30075Y13350
X31075Y13350
X32075Y13350
X33075Y13350
X34075Y13350
X35075Y13350
X35075Y12350
X34075Y12350
X33075Y12350
X32075Y12350
X31075Y12350
X30075Y12350
X29075Y12350
X28075Y12350
X27075Y12350
X26075Y12350
X26075Y13350
X27075Y13350
X28075Y13350
X31075Y14550
X32075Y14550
X32075Y15550
X31075Y15550
X33075Y15550
X34075Y15550
X34075Y14550
X33075Y14550
X35075Y14550
X35075Y15550
X36075Y15550
X36075Y14550
X36075Y12350
X36075Y23550
X35075Y23550
X35075Y24550
X34075Y24550
X33075Y24550
X33075Y23550
X34075Y23550
X32075Y23550
X31075Y23550
X31075Y24550
X32075Y24550
X32075Y25750
X31075Y25750
X30075Y25750
X29075Y25750
X28075Y25750
X27075Y25750
X26075Y25750
X26075Y26750
X27075Y26750
X28075Y26750
X29075Y26750
X30075Y26750
X31075Y26750
X32075Y26750
X33075Y26750
X34075Y26750
X35075Y26750
X36075Y26750
X36075Y25750
X35075Y25750
X34075Y25750
X33075Y25750
X30075Y24550
X29075Y24550
X29075Y23550
X30075Y23550
X28075Y23550
X27075Y23550
X27075Y24550
X28075Y24550
X26075Y24550
X26075Y23550
X18875Y23550
X17875Y23550
X17875Y24550
X16875Y24550
X15875Y24550
X15875Y23550
X16875Y23550
X14875Y23550
X13875Y23550
X13875Y24550
X14875Y24550
X14875Y25750
X13875Y25750
X12875Y25750
X11875Y25750
X10875Y25750
X9875Y25750
X8875Y25750
X8875Y26750
X9875Y26750
X10875Y26750
X11875Y26750
X12875Y26750
X13875Y26750
X14875Y26750
X15875Y26750
X16875Y26750
X17875Y26750
X18875Y26750
X18875Y25750
X17875Y25750
X16875Y25750
X15875Y25750
X12875Y24550
X11875Y24550
X11875Y23550
X12875Y23550
X10875Y23550
X9875Y23550
X9875Y24550
X10875Y24550
X8875Y24550
X8875Y23550
X8375Y18550
X8375Y17550
X8375Y28750
X8375Y29750
X8875Y34750
X9875Y34750
X10875Y34750
X11875Y34750
X12875Y34750
X13875Y34750
X14875Y34750
X15875Y34750
X16875Y34750
X17875Y34750
X18875Y34750
X17875Y35750
X16875Y35750
X15875Y35750
X14875Y35750
X13875Y35750
X12875Y35750
X11875Y35750
X10875Y35750
X9875Y35750
X8875Y35750
X25575Y29750
X25575Y28750
X26075Y34750
X27075Y34750
X28075Y34750
X29075Y34750
X30075Y34750
X31075Y34750
X32075Y34750
X33075Y34750
X34075Y34750
X35075Y34750
X36075Y34750
X35075Y35750
X34075Y35750
X33075Y35750
X32075Y35750
X31075Y35750
X30075Y35750
X29075Y35750
X28075Y35750
X27075Y35750
X26075Y35750
X43275Y35750
X44275Y35750
X45275Y35750
X46275Y35750
X47275Y35750
X48275Y35750
X49275Y35750
X50275Y35750
X51275Y35750
X52275Y35750
X52275Y34750
X51275Y34750
X50275Y34750
X49275Y34750
X48275Y34750
X47275Y34750
X46275Y34750
X45275Y34750
X44275Y34750
X43275Y34750
X42775Y29750
X42775Y28750
X53275Y34750
T06
X53275Y35750
X36075Y35750
X18875Y35750
X18875Y24550
X36075Y24550
X53275Y24550
X53275Y13350
X36075Y13350
X18875Y13350
M30
