%
M48
M72
T01C0.0120
T02C0.0138
T03C0.0276
T04C0.0354
T05C0.0400
T06C0.0669
T07C0.1200
%
T01
X8941Y6350
X9891Y6550
X7441Y7350
X8941Y8350
X10441Y8350
X11241Y8750
X12341Y8450
X12641Y8750
X13341Y8450
X14241Y9500
X14991Y9500
X14991Y8750
X15091Y8100
X14791Y8050
X14841Y7550
X14841Y7050
X14891Y6200
X14791Y4950
X12991Y5100
X12241Y5450
X16891Y4700
X18091Y4950
X18591Y5350
X17841Y5750
X17516Y5775
X17041Y6200
X17641Y6700
X17691Y7000
X16891Y7050
X17141Y7900
X17291Y8250
X17041Y8600
X17191Y9150
X17541Y9150
X17791Y8900
X18041Y9150
X18191Y8650
X17941Y8400
X17791Y8100
X18041Y7900
X18441Y8200
X18641Y7900
X18941Y7900
X19041Y8200
X19041Y8500
X19041Y8800
X18841Y9250
X18741Y9900
X18441Y9900
X18141Y9900
X18091Y10600
X17791Y10600
X18391Y10600
X18691Y10600
X19341Y10600
X20491Y10450
X20491Y10100
X20891Y9450
X20971Y8950
X20891Y8600
X20901Y8250
X19691Y8120
X19681Y8410
X19691Y8800
X19741Y6650
X20241Y6600
X19841Y6000
X19541Y6000
X19241Y6000
X18941Y6150
X18741Y6400
X18491Y6600
X18541Y6900
X19591Y5350
X21091Y5150
X26141Y7350
X27641Y6350
X28591Y6550
X30941Y5450
X31691Y5100
X33491Y4950
X35591Y4700
X36791Y4950
X37291Y5350
X36541Y5750
X36216Y5775
X35741Y6200
X36341Y6700
X36391Y7000
X37241Y6900
X37191Y6600
X37441Y6400
X37641Y6150
X37941Y6000
X38241Y6000
X38541Y6000
X38291Y5350
X38941Y6600
X38441Y6650
X37641Y7900
X37341Y7900
X37141Y8200
X36741Y7900
X36491Y8100
X36641Y8400
X36891Y8650
X36491Y8900
X36241Y9150
X35891Y9150
X35741Y8600
X35991Y8250
X35841Y7900
X35591Y7050
X33541Y7050
X33591Y6200
X33541Y7550
X33491Y8050
X33791Y8100
X33691Y8750
X33691Y9500
X32941Y9500
X32441Y10300
X31441Y11100
X31141Y10300
X31341Y8750
X31041Y8450
X29941Y8750
X29141Y8350
X27641Y8350
X25641Y9295
X27591Y10200
X27791Y10450
X27791Y10750
X27341Y11362
X28191Y12400
X28891Y13250
X26291Y13500
X20841Y12900
X19991Y12350
X19441Y12050
X18941Y12350
X18441Y12050
X17941Y12350
X16891Y12350
X15591Y12150
X15141Y12700
X14891Y12400
X12741Y11100
X12441Y10300
X13741Y10300
X16691Y10450
X17241Y11000
X10191Y13250
X9491Y12400
X8641Y11362
X9091Y10750
X9091Y10450
X8891Y10200
X6941Y9295
X7591Y13500
X12991Y17300
X12241Y17650
X9891Y18750
X8941Y18550
X7441Y19550
X8941Y20550
X10441Y20550
X11241Y20950
X12341Y20650
X12641Y20950
X13341Y20650
X14791Y20250
X15091Y20300
X14991Y20950
X14991Y21700
X14241Y21700
X13741Y22500
X12741Y23300
X12441Y22500
X14891Y24600
X15141Y24900
X15591Y24350
X16891Y24550
X17941Y24550
X18441Y24250
X18941Y24550
X19441Y24250
X19991Y24550
X20841Y25100
X20491Y22650
X20491Y22300
X20891Y21650
X20971Y21150
X20891Y20800
X20901Y20450
X19691Y20320
X19681Y20610
X19691Y21000
X19041Y21000
X19041Y20700
X19041Y20400
X18941Y20100
X18641Y20100
X18441Y20400
X18041Y20100
X17791Y20300
X17941Y20600
X18191Y20850
X17791Y21100
X17541Y21350
X17191Y21350
X17041Y20800
X17291Y20450
X17141Y20100
X16891Y19250
X17691Y19200
X17641Y18900
X17041Y18400
X17516Y17975
X17841Y17950
X18591Y17550
X18091Y17150
X16891Y16900
X14791Y17150
X14891Y18400
X14841Y19250
X14841Y19750
X18041Y21350
X18841Y21450
X18741Y22100
X18441Y22100
X18141Y22100
X18091Y22800
X17791Y22800
X18391Y22800
X18691Y22800
X19341Y22800
X17241Y23200
X16691Y22650
X18541Y19100
X18491Y18800
X18741Y18600
X18941Y18350
X19241Y18200
X19541Y18200
X19841Y18200
X19741Y18850
X20241Y18800
X19591Y17550
X21091Y17350
X26141Y19550
X27641Y18550
X28591Y18750
X30941Y17650
X31691Y17300
X33491Y17150
X35591Y16900
X36791Y17150
X37291Y17550
X36541Y17950
X36216Y17975
X35741Y18400
X36341Y18900
X36391Y19200
X37241Y19100
X37191Y18800
X37441Y18600
X37641Y18350
X37941Y18200
X38241Y18200
X38541Y18200
X38441Y18850
X38941Y18800
X38291Y17550
X39791Y17350
X37641Y20100
X37341Y20100
X37141Y20400
X36741Y20100
X36491Y20300
X36641Y20600
X36891Y20850
X36491Y21100
X36241Y21350
X35891Y21350
X35741Y20800
X35991Y20450
X35841Y20100
X35591Y19250
X33541Y19250
X33541Y19750
X33491Y20250
X33791Y20300
X33691Y20950
X33691Y21700
X32941Y21700
X32441Y22500
X31441Y23300
X31141Y22500
X31341Y20950
X31041Y20650
X29941Y20950
X29141Y20550
X27641Y20550
X25641Y21495
X27591Y22400
X27791Y22650
X27791Y22950
X27341Y23562
X28191Y24600
X28891Y25450
X26291Y25700
X31691Y29500
X30941Y29850
X28591Y30950
X27641Y30750
X26141Y31750
X27641Y32750
X29141Y32750
X29941Y33150
X31041Y32850
X31341Y33150
X32041Y32850
X32941Y33900
X33691Y33900
X33691Y33150
X33791Y32500
X33491Y32450
X33541Y31950
X33541Y31450
X33591Y30600
X35591Y31450
X36391Y31400
X36341Y31100
X35741Y30600
X36216Y30175
X36541Y30150
X37291Y29750
X36791Y29350
X35591Y29100
X33491Y29350
X37191Y31000
X37241Y31300
X37441Y30800
X37641Y30550
X37941Y30400
X38241Y30400
X38541Y30400
X38291Y29750
X39791Y29550
X38941Y31000
X38441Y31050
X38391Y32520
X38381Y32810
X38391Y33200
X37741Y33200
X37741Y32900
X37741Y32600
X37641Y32300
X37341Y32300
X37141Y32600
X36741Y32300
X36491Y32500
X36641Y32800
X36891Y33050
X36491Y33300
X36241Y33550
X35891Y33550
X36741Y33550
X36841Y34300
X37141Y34300
X37441Y34300
X37541Y33650
X35991Y32650
X35841Y32300
X35741Y33000
X39191Y34500
X39191Y34850
X38041Y35000
X37391Y35000
X37091Y35000
X36791Y35000
X36491Y35000
X35941Y35400
X35391Y34850
X34291Y36550
X33591Y36800
X33841Y37100
X35591Y36750
X36641Y36750
X37141Y36450
X37641Y36750
X38141Y36450
X38691Y36750
X39541Y37300
X44991Y37900
X46891Y36800
X47591Y37650
X46041Y35762
X46491Y35150
X46491Y34850
X46291Y34600
X44341Y33695
X46341Y32750
X47841Y32750
X48641Y33150
X49741Y32850
X50041Y33150
X50741Y32850
X51641Y33900
X52391Y33900
X52391Y33150
X52491Y32500
X52191Y32450
X52241Y31950
X52241Y31450
X52291Y30600
X52191Y29350
X50391Y29500
X49641Y29850
X47291Y30950
X46341Y30750
X44841Y31750
X39601Y32650
X39591Y33000
X39671Y33350
X39591Y33850
X32441Y34700
X31441Y35500
X31141Y34700
X27791Y34850
X27791Y35150
X27591Y34600
X25641Y33695
X27341Y35762
X28191Y36800
X28891Y37650
X26291Y37900
X20841Y37300
X19991Y36750
X19441Y36450
X18941Y36750
X18441Y36450
X17941Y36750
X16891Y36750
X15591Y36550
X14891Y36800
X15141Y37100
X17241Y35400
X17791Y35000
X18091Y35000
X18391Y35000
X18691Y35000
X19341Y35000
X18741Y34300
X18441Y34300
X18141Y34300
X18041Y33550
X17791Y33300
X17541Y33550
X17191Y33550
X17041Y33000
X17291Y32650
X17141Y32300
X17791Y32500
X18041Y32300
X18441Y32600
X18641Y32300
X18941Y32300
X19041Y32600
X19041Y32900
X19041Y33200
X18841Y33650
X18191Y33050
X17941Y32800
X17691Y31400
X17641Y31100
X17041Y30600
X17516Y30175
X17841Y30150
X18591Y29750
X18091Y29350
X16891Y29100
X14791Y29350
X14891Y30600
X14841Y31450
X14841Y31950
X14791Y32450
X15091Y32500
X14991Y33150
X14991Y33900
X14241Y33900
X13741Y34700
X12441Y34700
X12741Y35500
X9491Y36800
X10191Y37650
X8641Y35762
X9091Y35150
X9091Y34850
X8891Y34600
X6941Y33695
X8941Y32750
X10441Y32750
X11241Y33150
X12341Y32850
X12641Y33150
X13341Y32850
X16891Y31450
X18541Y31300
X18491Y31000
X18741Y30800
X18941Y30550
X19241Y30400
X19541Y30400
X19841Y30400
X19591Y29750
X19741Y31050
X20241Y31000
X19691Y32520
X19681Y32810
X19691Y33200
X20891Y33000
X20901Y32650
X20971Y33350
X20891Y33850
X20491Y34500
X20491Y34850
X16691Y34850
X9891Y30950
X8941Y30750
X7441Y31750
X12241Y29850
X12991Y29500
X7591Y25700
X9491Y24600
X10191Y25450
X8641Y23562
X9091Y22950
X9091Y22650
X8891Y22400
X6941Y21495
X21091Y29550
X33591Y24600
X33841Y24900
X34291Y24350
X35591Y24550
X36641Y24550
X37141Y24250
X37641Y24550
X38141Y24250
X38691Y24550
X39541Y25100
X39191Y22650
X39191Y22300
X39591Y21650
X39671Y21150
X39591Y20800
X39601Y20450
X38391Y20320
X38381Y20610
X38391Y21000
X37741Y21000
X37741Y20700
X37741Y20400
X37541Y21450
X36741Y21350
X36841Y22100
X37141Y22100
X37441Y22100
X37391Y22800
X37091Y22800
X36791Y22800
X36491Y22800
X35941Y23200
X35391Y22650
X38041Y22800
X32041Y20650
X33591Y18400
X39541Y12900
X38691Y12350
X38141Y12050
X37641Y12350
X37141Y12050
X36641Y12350
X35591Y12350
X34291Y12150
X33841Y12700
X33591Y12400
X35941Y11000
X36491Y10600
X36791Y10600
X37091Y10600
X37391Y10600
X38041Y10600
X39191Y10450
X39191Y10100
X39591Y9450
X39671Y8950
X39591Y8600
X39601Y8250
X38391Y8120
X38381Y8410
X38391Y8800
X37741Y8800
X37741Y8500
X37741Y8200
X37541Y9250
X36741Y9150
X36841Y9900
X37141Y9900
X37441Y9900
X35391Y10450
X32041Y8450
X39791Y5150
X44841Y7350
X46341Y6350
X47291Y6550
X49641Y5450
X50391Y5100
X52191Y4950
X52291Y6200
X52241Y7050
X52241Y7550
X52191Y8050
X52491Y8100
X52391Y8750
X52391Y9500
X51641Y9500
X51141Y10300
X50141Y11100
X49841Y10300
X50041Y8750
X49741Y8450
X50741Y8450
X48641Y8750
X47841Y8350
X46341Y8350
X44341Y9295
X46291Y10200
X46491Y10450
X46491Y10750
X46041Y11362
X46891Y12400
X47591Y13250
X44991Y13500
X50391Y17300
X49641Y17650
X47291Y18750
X46341Y18550
X44841Y19550
X46341Y20550
X47841Y20550
X48641Y20950
X49741Y20650
X50041Y20950
X50741Y20650
X52191Y20250
X52491Y20300
X52391Y20950
X52391Y21700
X51641Y21700
X51141Y22500
X50141Y23300
X49841Y22500
X52291Y24600
X52541Y24900
X52991Y24350
X54291Y24550
X55341Y24550
X55841Y24250
X56341Y24550
X56841Y24250
X57391Y24550
X58241Y25100
X57891Y22650
X57891Y22300
X58291Y21650
X58371Y21150
X58291Y20800
X58301Y20450
X57091Y20320
X57081Y20610
X57091Y21000
X56441Y21000
X56441Y20700
X56441Y20400
X56341Y20100
X56041Y20100
X55841Y20400
X55441Y20100
X55191Y20300
X55341Y20600
X55591Y20850
X55191Y21100
X54941Y21350
X54591Y21350
X54441Y20800
X54691Y20450
X54541Y20100
X54291Y19250
X55091Y19200
X55041Y18900
X54441Y18400
X54916Y17975
X55241Y17950
X55991Y17550
X55491Y17150
X54291Y16900
X52191Y17150
X52291Y18400
X52241Y19250
X52241Y19750
X55441Y21350
X56241Y21450
X56141Y22100
X55841Y22100
X55541Y22100
X55491Y22800
X55191Y22800
X55791Y22800
X56091Y22800
X56741Y22800
X54641Y23200
X54091Y22650
X55941Y19100
X55891Y18800
X56141Y18600
X56341Y18350
X56641Y18200
X56941Y18200
X57241Y18200
X57141Y18850
X57641Y18800
X56991Y17550
X58491Y17350
X58241Y12900
X57391Y12350
X56841Y12050
X56341Y12350
X55841Y12050
X55341Y12350
X54291Y12350
X52991Y12150
X52541Y12700
X52291Y12400
X54641Y11000
X55191Y10600
X55491Y10600
X55791Y10600
X56091Y10600
X56741Y10600
X57891Y10450
X57891Y10100
X58291Y9450
X58371Y8950
X58291Y8600
X58301Y8250
X57091Y8120
X57081Y8410
X57091Y8800
X56441Y8800
X56441Y8500
X56441Y8200
X56341Y7900
X56041Y7900
X55841Y8200
X55441Y7900
X55191Y8100
X55341Y8400
X55591Y8650
X55191Y8900
X54941Y9150
X54591Y9150
X54441Y8600
X54691Y8250
X54541Y7900
X54291Y7050
X55091Y7000
X55041Y6700
X54441Y6200
X54916Y5775
X55241Y5750
X55991Y5350
X55491Y4950
X54291Y4700
X56341Y6150
X56141Y6400
X55891Y6600
X55941Y6900
X57141Y6650
X57641Y6600
X57241Y6000
X56941Y6000
X56641Y6000
X56991Y5350
X58491Y5150
X56241Y9250
X55441Y9150
X55541Y9900
X55841Y9900
X56141Y9900
X54091Y10450
X44341Y21495
X46291Y22400
X46491Y22650
X46491Y22950
X46041Y23562
X46891Y24600
X47591Y25450
X44991Y25700
X54291Y29100
X55491Y29350
X55991Y29750
X55241Y30150
X54916Y30175
X54441Y30600
X55041Y31100
X55091Y31400
X54291Y31450
X54541Y32300
X54691Y32650
X54441Y33000
X55191Y33300
X54941Y33550
X54591Y33550
X55441Y33550
X55541Y34300
X55841Y34300
X56141Y34300
X56241Y33650
X56441Y33200
X56441Y32900
X56441Y32600
X56341Y32300
X56041Y32300
X55841Y32600
X55441Y32300
X55191Y32500
X55341Y32800
X55591Y33050
X57091Y33200
X57081Y32810
X57091Y32520
X58301Y32650
X58291Y33000
X58371Y33350
X58291Y33850
X57891Y34500
X57891Y34850
X56741Y35000
X56091Y35000
X55791Y35000
X55491Y35000
X55191Y35000
X54641Y35400
X54091Y34850
X52991Y36550
X52291Y36800
X52541Y37100
X54291Y36750
X55341Y36750
X55841Y36450
X56341Y36750
X56841Y36450
X57391Y36750
X58241Y37300
X51141Y34700
X50141Y35500
X49841Y34700
X55891Y31000
X55941Y31300
X56141Y30800
X56341Y30550
X56641Y30400
X56941Y30400
X57241Y30400
X56991Y29750
X58491Y29550
X57641Y31000
X57141Y31050
X7591Y37900
T02
X6941Y36800
X11911Y31490
X6941Y24600
X11911Y19290
X6941Y12400
X11911Y7090
X25641Y12400
X30611Y7090
X44341Y12400
X49311Y7090
X49311Y19290
X44341Y24600
X49311Y31490
X44341Y36800
X30611Y31490
X25641Y36800
X25641Y24600
X30611Y19290
T03
X27641Y13604
X27641Y12896
X46341Y12896
X46341Y13604
X46341Y25096
X46341Y25804
X27641Y25804
X27641Y25096
X8941Y25096
X8941Y25804
X8941Y37296
X8941Y38004
X27641Y38004
X27641Y37296
X46341Y37296
X46341Y38004
X8941Y13604
X8941Y12896
T04
X8351Y4450
X9532Y4450
X27051Y4450
X28232Y4450
X45751Y4450
X46932Y4450
X46932Y16650
X45751Y16650
X28232Y16650
X27051Y16650
X9532Y16650
X8351Y16650
X8351Y28850
X9532Y28850
X27051Y28850
X28232Y28850
X45751Y28850
X46932Y28850
T05
X48841Y28750
X49841Y28750
X50841Y28750
X51841Y28750
X52841Y28750
X53841Y28750
X54841Y28750
X55841Y28750
X56841Y28750
X57841Y28750
X58841Y28750
X58841Y27750
X57841Y27750
X56841Y27750
X55841Y27750
X54841Y27750
X53841Y27750
X52841Y27750
X51841Y27750
X50841Y27750
X49841Y27750
X48841Y27750
X48841Y26550
X49841Y26550
X50841Y26550
X51841Y26550
X52841Y26550
X53841Y26550
X54841Y26550
X55841Y26550
X56841Y26550
X57841Y26550
X57841Y25550
X56841Y25550
X55841Y25550
X54841Y25550
X53841Y25550
X52841Y25550
X51841Y25550
X50841Y25550
X49841Y25550
X48841Y25550
X42141Y29750
X42141Y30750
X40141Y28750
X39141Y28750
X38141Y28750
X37141Y28750
X36141Y28750
X35141Y28750
X34141Y28750
X33141Y28750
X32141Y28750
X31141Y28750
X30141Y28750
X30141Y27750
X31141Y27750
X32141Y27750
X33141Y27750
X34141Y27750
X35141Y27750
X36141Y27750
X37141Y27750
X38141Y27750
X39141Y27750
X40141Y27750
X39141Y26550
X38141Y26550
X37141Y26550
X36141Y26550
X35141Y26550
X34141Y26550
X33141Y26550
X32141Y26550
X31141Y26550
X30141Y26550
X30141Y25550
X31141Y25550
X32141Y25550
X33141Y25550
X34141Y25550
X35141Y25550
X36141Y25550
X37141Y25550
X38141Y25550
X39141Y25550
X40141Y25550
X48341Y20050
X48341Y19050
X48841Y16550
X49841Y16550
X50841Y16550
X50841Y15550
X49841Y15550
X48841Y15550
X48841Y14350
X49841Y14350
X50841Y14350
X50841Y13350
X49841Y13350
X48841Y13350
X51841Y13350
X52841Y13350
X52841Y14350
X51841Y14350
X51841Y15550
X52841Y15550
X52841Y16550
X51841Y16550
X53841Y16550
X54841Y16550
X55841Y16550
X55841Y15550
X54841Y15550
X53841Y15550
X53841Y14350
X54841Y14350
X55841Y14350
X55841Y13350
X54841Y13350
X53841Y13350
X56841Y13350
X57841Y13350
X58841Y13350
X57841Y14350
X56841Y14350
X56841Y15550
X57841Y15550
X58841Y15550
X58841Y16550
X57841Y16550
X56841Y16550
X60841Y17550
X60841Y18550
X58841Y25550
X60841Y29750
X60841Y30750
X58841Y37750
X57841Y37750
X56841Y37750
X55841Y37750
X54841Y37750
X53841Y37750
X52841Y37750
X51841Y37750
X50841Y37750
X49841Y37750
X48841Y37750
X48841Y38750
X49841Y38750
X50841Y38750
X51841Y38750
X52841Y38750
X53841Y38750
X54841Y38750
X55841Y38750
X56841Y38750
X57841Y38750
X48341Y32250
X48341Y31250
X40141Y37750
X39141Y37750
X38141Y37750
X37141Y37750
X36141Y37750
X35141Y37750
X34141Y37750
X33141Y37750
X32141Y37750
X31141Y37750
X30141Y37750
X30141Y38750
X31141Y38750
X32141Y38750
X33141Y38750
X34141Y38750
X35141Y38750
X36141Y38750
X37141Y38750
X38141Y38750
X39141Y38750
X29641Y32250
X29641Y31250
X23441Y30750
X23441Y29750
X21441Y28750
X20441Y28750
X19441Y28750
X18441Y28750
X17441Y28750
X16441Y28750
X15441Y28750
X14441Y28750
X13441Y28750
X12441Y28750
X11441Y28750
X11441Y27750
X12441Y27750
X13441Y27750
X14441Y27750
X15441Y27750
X16441Y27750
X17441Y27750
X18441Y27750
X19441Y27750
X20441Y27750
X21441Y27750
X20441Y26550
X19441Y26550
X18441Y26550
X17441Y26550
X16441Y26550
X15441Y26550
X14441Y26550
X13441Y26550
X12441Y26550
X11441Y26550
X11441Y25550
X12441Y25550
X13441Y25550
X14441Y25550
X15441Y25550
X16441Y25550
X17441Y25550
X18441Y25550
X19441Y25550
X20441Y25550
X21441Y25550
X29641Y20050
X29641Y19050
X30141Y16550
X31141Y16550
X31141Y15550
X30141Y15550
X30141Y14350
X31141Y14350
X31141Y13350
X30141Y13350
X32141Y13350
X33141Y13350
X34141Y13350
X34141Y14350
X33141Y14350
X32141Y14350
X32141Y15550
X33141Y15550
X34141Y15550
X34141Y16550
X33141Y16550
X32141Y16550
X35141Y16550
X36141Y16550
X36141Y15550
X35141Y15550
X35141Y14350
X36141Y14350
X36141Y13350
X35141Y13350
X37141Y13350
X38141Y13350
X39141Y13350
X39141Y14350
X38141Y14350
X37141Y14350
X37141Y15550
X38141Y15550
X39141Y15550
X39141Y16550
X38141Y16550
X37141Y16550
X40141Y16550
X40141Y15550
X42141Y17550
X42141Y18550
X40141Y13350
X48341Y7850
X48341Y6850
X48841Y4350
X49841Y4350
X50841Y4350
X50841Y3350
X49841Y3350
X48841Y3350
X51841Y3350
X52841Y3350
X52841Y4350
X51841Y4350
X53841Y4350
X54841Y4350
X55841Y4350
X55841Y3350
X54841Y3350
X53841Y3350
X56841Y3350
X57841Y3350
X58841Y3350
X58841Y4350
X57841Y4350
X56841Y4350
X60841Y5350
X60841Y6350
X42141Y6350
X42141Y5350
X40141Y4350
X39141Y4350
X38141Y4350
X37141Y4350
X36141Y4350
X35141Y4350
X34141Y4350
X33141Y4350
X32141Y4350
X31141Y4350
X30141Y4350
X30141Y3350
X31141Y3350
X32141Y3350
X33141Y3350
X34141Y3350
X35141Y3350
X36141Y3350
X37141Y3350
X38141Y3350
X39141Y3350
X40141Y3350
X29641Y6850
X29641Y7850
X23441Y6350
X23441Y5350
X21441Y4350
X20441Y4350
X19441Y4350
X18441Y4350
X17441Y4350
X16441Y4350
X15441Y4350
X14441Y4350
X13441Y4350
X12441Y4350
X11441Y4350
X11441Y3350
X12441Y3350
X13441Y3350
X14441Y3350
X15441Y3350
X16441Y3350
X17441Y3350
X18441Y3350
X19441Y3350
X20441Y3350
X21441Y3350
X10941Y6850
X10941Y7850
X11441Y13350
X11441Y14350
X12441Y14350
X13441Y14350
X14441Y14350
X14441Y13350
X13441Y13350
X12441Y13350
X15441Y13350
X16441Y13350
X16441Y14350
X15441Y14350
X15441Y15550
X16441Y15550
X16441Y16550
X15441Y16550
X14441Y16550
X13441Y16550
X12441Y16550
X11441Y16550
X11441Y15550
X12441Y15550
X13441Y15550
X14441Y15550
X17441Y15550
X18441Y15550
X19441Y15550
X19441Y16550
X18441Y16550
X17441Y16550
X20441Y16550
X21441Y16550
X21441Y15550
X20441Y15550
X20441Y14350
X19441Y14350
X18441Y14350
X17441Y14350
X17441Y13350
X18441Y13350
X19441Y13350
X20441Y13350
X21441Y13350
X23441Y17550
X23441Y18550
X10941Y19050
X10941Y20050
X10941Y31250
X10941Y32250
X11441Y37750
X11441Y38750
X12441Y38750
X13441Y38750
X14441Y38750
X14441Y37750
X13441Y37750
X12441Y37750
X15441Y37750
X16441Y37750
X16441Y38750
X15441Y38750
X17441Y38750
X18441Y38750
X19441Y38750
X19441Y37750
X18441Y37750
X17441Y37750
X20441Y37750
X21441Y37750
X20441Y38750
T06
X21441Y38750
X40141Y38750
X58841Y38750
X58841Y26550
X40141Y26550
X21441Y26550
X21441Y14350
X40141Y14350
X58841Y14350
T07
X60341Y13850
X60341Y16050
X60341Y26050
X60341Y28250
X60341Y38250
X41641Y38250
X41641Y28250
X41641Y26050
X41641Y16050
X41641Y13850
X41641Y3850
X22941Y3850
X22941Y13850
X22941Y16050
X22941Y26050
X22941Y28250
X22941Y38250
X60341Y3850
M30
