G04 EAGLE Gerber RS-274X export*
G75*
%MOMM*%
%FSLAX34Y34*%
%LPD*%
%INSolderpaste Top*%
%IPPOS*%
%AMOC8*
5,1,8,0,0,1.08239X$1,22.5*%
G01*
%ADD10R,1.400000X1.600000*%
%ADD11R,1.100000X1.000000*%
%ADD12C,0.300000*%
%ADD13R,1.600000X1.800000*%
%ADD14R,1.460000X2.000000*%
%ADD15R,2.500000X1.425000*%
%ADD16R,1.000000X1.100000*%
%ADD17R,0.700000X1.500000*%
%ADD18R,1.000000X0.600000*%
%ADD19R,1.000000X0.800000*%
%ADD20R,1.200000X0.550000*%
%ADD21R,1.100000X2.000000*%
%ADD22R,4.600000X1.000000*%
%ADD23R,3.400000X1.600000*%
%ADD24R,2.000000X1.200000*%
%ADD25R,1.350000X0.600000*%
%ADD26R,1.000000X1.800000*%
%ADD27R,0.850000X2.200000*%
%ADD28R,1.000000X1.050000*%
%ADD29R,0.250000X0.700000*%
%ADD30R,0.700000X0.250000*%

G36*
X32873Y783830D02*
X32873Y783830D01*
X32878Y783829D01*
X32971Y783850D01*
X33065Y783868D01*
X33069Y783871D01*
X33074Y783872D01*
X33152Y783928D01*
X33230Y783981D01*
X33233Y783985D01*
X33237Y783988D01*
X33288Y784070D01*
X33340Y784149D01*
X33340Y784154D01*
X33343Y784159D01*
X33375Y784336D01*
X33375Y803132D01*
X33374Y803137D01*
X33375Y803142D01*
X33354Y803235D01*
X33336Y803329D01*
X33333Y803333D01*
X33332Y803338D01*
X33276Y803416D01*
X33223Y803494D01*
X33219Y803497D01*
X33216Y803501D01*
X33134Y803552D01*
X33055Y803604D01*
X33050Y803604D01*
X33045Y803607D01*
X32868Y803639D01*
X7468Y803639D01*
X7442Y803634D01*
X7411Y803636D01*
X6676Y803553D01*
X6629Y803538D01*
X6566Y803528D01*
X5868Y803284D01*
X5825Y803259D01*
X5765Y803235D01*
X5139Y802841D01*
X5104Y802807D01*
X5051Y802770D01*
X4528Y802247D01*
X4500Y802206D01*
X4457Y802159D01*
X4064Y801533D01*
X4046Y801486D01*
X4014Y801430D01*
X3770Y800732D01*
X3763Y800683D01*
X3745Y800622D01*
X3662Y799887D01*
X3664Y799860D01*
X3659Y799830D01*
X3659Y792464D01*
X3662Y792450D01*
X3660Y792442D01*
X3663Y792428D01*
X3662Y792407D01*
X3738Y791729D01*
X3753Y791682D01*
X3764Y791618D01*
X3989Y790974D01*
X4014Y790932D01*
X4038Y790872D01*
X4401Y790294D01*
X4435Y790258D01*
X4472Y790205D01*
X4955Y789722D01*
X4996Y789695D01*
X5044Y789651D01*
X5622Y789288D01*
X5668Y789271D01*
X5724Y789239D01*
X6368Y789014D01*
X6417Y789007D01*
X6479Y788988D01*
X7157Y788912D01*
X7184Y788914D01*
X7214Y788909D01*
X24487Y788909D01*
X24487Y784336D01*
X24488Y784331D01*
X24487Y784326D01*
X24508Y784233D01*
X24526Y784140D01*
X24529Y784135D01*
X24530Y784130D01*
X24586Y784052D01*
X24639Y783974D01*
X24643Y783971D01*
X24646Y783967D01*
X24728Y783916D01*
X24807Y783864D01*
X24812Y783864D01*
X24817Y783861D01*
X24994Y783829D01*
X32868Y783829D01*
X32873Y783830D01*
G37*
G36*
X507853Y783830D02*
X507853Y783830D01*
X507858Y783829D01*
X507951Y783850D01*
X508045Y783868D01*
X508049Y783871D01*
X508054Y783872D01*
X508132Y783928D01*
X508210Y783981D01*
X508213Y783985D01*
X508217Y783988D01*
X508268Y784070D01*
X508320Y784149D01*
X508320Y784154D01*
X508323Y784159D01*
X508355Y784336D01*
X508355Y803132D01*
X508354Y803137D01*
X508355Y803142D01*
X508334Y803235D01*
X508316Y803329D01*
X508313Y803333D01*
X508312Y803338D01*
X508256Y803416D01*
X508203Y803494D01*
X508199Y803497D01*
X508196Y803501D01*
X508114Y803552D01*
X508035Y803604D01*
X508030Y803604D01*
X508025Y803607D01*
X507848Y803639D01*
X482448Y803639D01*
X482422Y803634D01*
X482391Y803636D01*
X481656Y803553D01*
X481609Y803538D01*
X481546Y803528D01*
X480848Y803284D01*
X480805Y803259D01*
X480745Y803235D01*
X480119Y802841D01*
X480084Y802807D01*
X480031Y802770D01*
X479508Y802247D01*
X479480Y802206D01*
X479437Y802159D01*
X479044Y801533D01*
X479026Y801486D01*
X478994Y801430D01*
X478750Y800732D01*
X478743Y800683D01*
X478725Y800622D01*
X478642Y799887D01*
X478644Y799860D01*
X478639Y799830D01*
X478639Y792464D01*
X478642Y792450D01*
X478640Y792442D01*
X478643Y792428D01*
X478642Y792407D01*
X478718Y791729D01*
X478733Y791682D01*
X478744Y791618D01*
X478969Y790974D01*
X478994Y790932D01*
X479018Y790872D01*
X479381Y790294D01*
X479415Y790258D01*
X479452Y790205D01*
X479935Y789722D01*
X479976Y789695D01*
X480024Y789651D01*
X480602Y789288D01*
X480648Y789271D01*
X480704Y789239D01*
X481348Y789014D01*
X481397Y789007D01*
X481459Y788988D01*
X482137Y788912D01*
X482164Y788914D01*
X482194Y788909D01*
X499467Y788909D01*
X499467Y784336D01*
X499468Y784331D01*
X499467Y784326D01*
X499488Y784233D01*
X499506Y784140D01*
X499509Y784135D01*
X499510Y784130D01*
X499566Y784052D01*
X499619Y783974D01*
X499623Y783971D01*
X499626Y783967D01*
X499708Y783916D01*
X499787Y783864D01*
X499792Y783864D01*
X499797Y783861D01*
X499974Y783829D01*
X507848Y783829D01*
X507853Y783830D01*
G37*
G36*
X982833Y783830D02*
X982833Y783830D01*
X982838Y783829D01*
X982931Y783850D01*
X983025Y783868D01*
X983029Y783871D01*
X983034Y783872D01*
X983112Y783928D01*
X983190Y783981D01*
X983193Y783985D01*
X983197Y783988D01*
X983248Y784070D01*
X983300Y784149D01*
X983300Y784154D01*
X983303Y784159D01*
X983335Y784336D01*
X983335Y803132D01*
X983334Y803137D01*
X983335Y803142D01*
X983314Y803235D01*
X983296Y803329D01*
X983293Y803333D01*
X983292Y803338D01*
X983236Y803416D01*
X983183Y803494D01*
X983179Y803497D01*
X983176Y803501D01*
X983094Y803552D01*
X983015Y803604D01*
X983010Y803604D01*
X983005Y803607D01*
X982828Y803639D01*
X957428Y803639D01*
X957402Y803634D01*
X957371Y803636D01*
X956636Y803553D01*
X956589Y803538D01*
X956526Y803528D01*
X955828Y803284D01*
X955785Y803259D01*
X955725Y803235D01*
X955099Y802841D01*
X955064Y802807D01*
X955011Y802770D01*
X954488Y802247D01*
X954460Y802206D01*
X954417Y802159D01*
X954024Y801533D01*
X954006Y801486D01*
X953974Y801430D01*
X953730Y800732D01*
X953723Y800683D01*
X953705Y800622D01*
X953622Y799887D01*
X953624Y799860D01*
X953619Y799830D01*
X953619Y792464D01*
X953622Y792450D01*
X953620Y792442D01*
X953623Y792428D01*
X953622Y792407D01*
X953698Y791729D01*
X953713Y791682D01*
X953724Y791618D01*
X953949Y790974D01*
X953974Y790932D01*
X953998Y790872D01*
X954361Y790294D01*
X954395Y790258D01*
X954432Y790205D01*
X954915Y789722D01*
X954956Y789695D01*
X955004Y789651D01*
X955582Y789288D01*
X955628Y789271D01*
X955684Y789239D01*
X956328Y789014D01*
X956377Y789007D01*
X956439Y788988D01*
X957117Y788912D01*
X957144Y788914D01*
X957174Y788909D01*
X974447Y788909D01*
X974447Y784336D01*
X974448Y784331D01*
X974447Y784326D01*
X974468Y784233D01*
X974486Y784140D01*
X974489Y784135D01*
X974490Y784130D01*
X974546Y784052D01*
X974599Y783974D01*
X974603Y783971D01*
X974606Y783967D01*
X974688Y783916D01*
X974767Y783864D01*
X974772Y783864D01*
X974777Y783861D01*
X974954Y783829D01*
X982828Y783829D01*
X982833Y783830D01*
G37*
G36*
X32873Y473950D02*
X32873Y473950D01*
X32878Y473949D01*
X32971Y473970D01*
X33065Y473988D01*
X33069Y473991D01*
X33074Y473992D01*
X33152Y474048D01*
X33230Y474101D01*
X33233Y474105D01*
X33237Y474108D01*
X33288Y474190D01*
X33340Y474269D01*
X33340Y474274D01*
X33343Y474279D01*
X33375Y474456D01*
X33375Y493252D01*
X33374Y493257D01*
X33375Y493262D01*
X33354Y493355D01*
X33336Y493449D01*
X33333Y493453D01*
X33332Y493458D01*
X33276Y493536D01*
X33223Y493614D01*
X33219Y493617D01*
X33216Y493621D01*
X33134Y493672D01*
X33055Y493724D01*
X33050Y493724D01*
X33045Y493727D01*
X32868Y493759D01*
X7468Y493759D01*
X7442Y493754D01*
X7411Y493756D01*
X6676Y493673D01*
X6629Y493658D01*
X6566Y493648D01*
X5868Y493404D01*
X5825Y493379D01*
X5765Y493355D01*
X5139Y492961D01*
X5104Y492927D01*
X5051Y492890D01*
X4528Y492367D01*
X4500Y492326D01*
X4457Y492279D01*
X4064Y491653D01*
X4046Y491606D01*
X4014Y491550D01*
X3770Y490852D01*
X3763Y490803D01*
X3745Y490742D01*
X3662Y490007D01*
X3664Y489980D01*
X3659Y489950D01*
X3659Y482584D01*
X3662Y482570D01*
X3660Y482562D01*
X3663Y482548D01*
X3662Y482527D01*
X3738Y481849D01*
X3753Y481802D01*
X3764Y481738D01*
X3989Y481094D01*
X4014Y481052D01*
X4038Y480992D01*
X4401Y480414D01*
X4435Y480378D01*
X4472Y480325D01*
X4955Y479842D01*
X4996Y479815D01*
X5044Y479771D01*
X5622Y479408D01*
X5668Y479391D01*
X5724Y479359D01*
X6368Y479134D01*
X6417Y479127D01*
X6479Y479108D01*
X7157Y479032D01*
X7184Y479034D01*
X7214Y479029D01*
X24487Y479029D01*
X24487Y474456D01*
X24488Y474451D01*
X24487Y474446D01*
X24508Y474353D01*
X24526Y474260D01*
X24529Y474255D01*
X24530Y474250D01*
X24586Y474172D01*
X24639Y474094D01*
X24643Y474091D01*
X24646Y474087D01*
X24728Y474036D01*
X24807Y473984D01*
X24812Y473984D01*
X24817Y473981D01*
X24994Y473949D01*
X32868Y473949D01*
X32873Y473950D01*
G37*
G36*
X507853Y473950D02*
X507853Y473950D01*
X507858Y473949D01*
X507951Y473970D01*
X508045Y473988D01*
X508049Y473991D01*
X508054Y473992D01*
X508132Y474048D01*
X508210Y474101D01*
X508213Y474105D01*
X508217Y474108D01*
X508268Y474190D01*
X508320Y474269D01*
X508320Y474274D01*
X508323Y474279D01*
X508355Y474456D01*
X508355Y493252D01*
X508354Y493257D01*
X508355Y493262D01*
X508334Y493355D01*
X508316Y493449D01*
X508313Y493453D01*
X508312Y493458D01*
X508256Y493536D01*
X508203Y493614D01*
X508199Y493617D01*
X508196Y493621D01*
X508114Y493672D01*
X508035Y493724D01*
X508030Y493724D01*
X508025Y493727D01*
X507848Y493759D01*
X482448Y493759D01*
X482422Y493754D01*
X482391Y493756D01*
X481656Y493673D01*
X481609Y493658D01*
X481546Y493648D01*
X480848Y493404D01*
X480805Y493379D01*
X480745Y493355D01*
X480119Y492961D01*
X480084Y492927D01*
X480031Y492890D01*
X479508Y492367D01*
X479480Y492326D01*
X479437Y492279D01*
X479044Y491653D01*
X479026Y491606D01*
X478994Y491550D01*
X478750Y490852D01*
X478743Y490803D01*
X478725Y490742D01*
X478642Y490007D01*
X478644Y489980D01*
X478639Y489950D01*
X478639Y482584D01*
X478642Y482570D01*
X478640Y482562D01*
X478643Y482548D01*
X478642Y482527D01*
X478718Y481849D01*
X478733Y481802D01*
X478744Y481738D01*
X478969Y481094D01*
X478994Y481052D01*
X479018Y480992D01*
X479381Y480414D01*
X479415Y480378D01*
X479452Y480325D01*
X479935Y479842D01*
X479976Y479815D01*
X480024Y479771D01*
X480602Y479408D01*
X480648Y479391D01*
X480704Y479359D01*
X481348Y479134D01*
X481397Y479127D01*
X481459Y479108D01*
X482137Y479032D01*
X482164Y479034D01*
X482194Y479029D01*
X499467Y479029D01*
X499467Y474456D01*
X499468Y474451D01*
X499467Y474446D01*
X499488Y474353D01*
X499506Y474260D01*
X499509Y474255D01*
X499510Y474250D01*
X499566Y474172D01*
X499619Y474094D01*
X499623Y474091D01*
X499626Y474087D01*
X499708Y474036D01*
X499787Y473984D01*
X499792Y473984D01*
X499797Y473981D01*
X499974Y473949D01*
X507848Y473949D01*
X507853Y473950D01*
G37*
G36*
X982833Y473950D02*
X982833Y473950D01*
X982838Y473949D01*
X982931Y473970D01*
X983025Y473988D01*
X983029Y473991D01*
X983034Y473992D01*
X983112Y474048D01*
X983190Y474101D01*
X983193Y474105D01*
X983197Y474108D01*
X983248Y474190D01*
X983300Y474269D01*
X983300Y474274D01*
X983303Y474279D01*
X983335Y474456D01*
X983335Y493252D01*
X983334Y493257D01*
X983335Y493262D01*
X983314Y493355D01*
X983296Y493449D01*
X983293Y493453D01*
X983292Y493458D01*
X983236Y493536D01*
X983183Y493614D01*
X983179Y493617D01*
X983176Y493621D01*
X983094Y493672D01*
X983015Y493724D01*
X983010Y493724D01*
X983005Y493727D01*
X982828Y493759D01*
X957428Y493759D01*
X957402Y493754D01*
X957371Y493756D01*
X956636Y493673D01*
X956589Y493658D01*
X956526Y493648D01*
X955828Y493404D01*
X955785Y493379D01*
X955725Y493355D01*
X955099Y492961D01*
X955064Y492927D01*
X955011Y492890D01*
X954488Y492367D01*
X954460Y492326D01*
X954417Y492279D01*
X954024Y491653D01*
X954006Y491606D01*
X953974Y491550D01*
X953730Y490852D01*
X953723Y490803D01*
X953705Y490742D01*
X953622Y490007D01*
X953624Y489980D01*
X953619Y489950D01*
X953619Y482584D01*
X953622Y482570D01*
X953620Y482562D01*
X953623Y482548D01*
X953622Y482527D01*
X953698Y481849D01*
X953713Y481802D01*
X953724Y481738D01*
X953949Y481094D01*
X953974Y481052D01*
X953998Y480992D01*
X954361Y480414D01*
X954395Y480378D01*
X954432Y480325D01*
X954915Y479842D01*
X954956Y479815D01*
X955004Y479771D01*
X955582Y479408D01*
X955628Y479391D01*
X955684Y479359D01*
X956328Y479134D01*
X956377Y479127D01*
X956439Y479108D01*
X957117Y479032D01*
X957144Y479034D01*
X957174Y479029D01*
X974447Y479029D01*
X974447Y474456D01*
X974448Y474451D01*
X974447Y474446D01*
X974468Y474353D01*
X974486Y474260D01*
X974489Y474255D01*
X974490Y474250D01*
X974546Y474172D01*
X974599Y474094D01*
X974603Y474091D01*
X974606Y474087D01*
X974688Y474036D01*
X974767Y473984D01*
X974772Y473984D01*
X974777Y473981D01*
X974954Y473949D01*
X982828Y473949D01*
X982833Y473950D01*
G37*
G36*
X32873Y164070D02*
X32873Y164070D01*
X32878Y164069D01*
X32971Y164090D01*
X33065Y164108D01*
X33069Y164111D01*
X33074Y164112D01*
X33152Y164168D01*
X33230Y164221D01*
X33233Y164225D01*
X33237Y164228D01*
X33288Y164310D01*
X33340Y164389D01*
X33340Y164394D01*
X33343Y164399D01*
X33375Y164576D01*
X33375Y183372D01*
X33374Y183377D01*
X33375Y183382D01*
X33354Y183475D01*
X33336Y183569D01*
X33333Y183573D01*
X33332Y183578D01*
X33276Y183656D01*
X33223Y183734D01*
X33219Y183737D01*
X33216Y183741D01*
X33134Y183792D01*
X33055Y183844D01*
X33050Y183844D01*
X33045Y183847D01*
X32868Y183879D01*
X7468Y183879D01*
X7442Y183874D01*
X7411Y183876D01*
X6676Y183793D01*
X6629Y183778D01*
X6566Y183768D01*
X5868Y183524D01*
X5825Y183499D01*
X5765Y183475D01*
X5139Y183081D01*
X5104Y183047D01*
X5051Y183010D01*
X4528Y182487D01*
X4500Y182446D01*
X4457Y182399D01*
X4064Y181773D01*
X4046Y181726D01*
X4014Y181670D01*
X3770Y180972D01*
X3763Y180923D01*
X3745Y180862D01*
X3662Y180127D01*
X3664Y180100D01*
X3659Y180070D01*
X3659Y172704D01*
X3662Y172690D01*
X3660Y172682D01*
X3663Y172668D01*
X3662Y172647D01*
X3738Y171969D01*
X3753Y171922D01*
X3764Y171858D01*
X3989Y171214D01*
X4014Y171172D01*
X4038Y171112D01*
X4401Y170534D01*
X4435Y170498D01*
X4472Y170445D01*
X4955Y169962D01*
X4996Y169935D01*
X5044Y169891D01*
X5622Y169528D01*
X5668Y169511D01*
X5724Y169479D01*
X6368Y169254D01*
X6417Y169247D01*
X6479Y169228D01*
X7157Y169152D01*
X7184Y169154D01*
X7214Y169149D01*
X24487Y169149D01*
X24487Y164576D01*
X24488Y164571D01*
X24487Y164566D01*
X24508Y164473D01*
X24526Y164380D01*
X24529Y164375D01*
X24530Y164370D01*
X24586Y164292D01*
X24639Y164214D01*
X24643Y164211D01*
X24646Y164207D01*
X24728Y164156D01*
X24807Y164104D01*
X24812Y164104D01*
X24817Y164101D01*
X24994Y164069D01*
X32868Y164069D01*
X32873Y164070D01*
G37*
G36*
X507853Y164070D02*
X507853Y164070D01*
X507858Y164069D01*
X507951Y164090D01*
X508045Y164108D01*
X508049Y164111D01*
X508054Y164112D01*
X508132Y164168D01*
X508210Y164221D01*
X508213Y164225D01*
X508217Y164228D01*
X508268Y164310D01*
X508320Y164389D01*
X508320Y164394D01*
X508323Y164399D01*
X508355Y164576D01*
X508355Y183372D01*
X508354Y183377D01*
X508355Y183382D01*
X508334Y183475D01*
X508316Y183569D01*
X508313Y183573D01*
X508312Y183578D01*
X508256Y183656D01*
X508203Y183734D01*
X508199Y183737D01*
X508196Y183741D01*
X508114Y183792D01*
X508035Y183844D01*
X508030Y183844D01*
X508025Y183847D01*
X507848Y183879D01*
X482448Y183879D01*
X482422Y183874D01*
X482391Y183876D01*
X481656Y183793D01*
X481609Y183778D01*
X481546Y183768D01*
X480848Y183524D01*
X480805Y183499D01*
X480745Y183475D01*
X480119Y183081D01*
X480084Y183047D01*
X480031Y183010D01*
X479508Y182487D01*
X479480Y182446D01*
X479437Y182399D01*
X479044Y181773D01*
X479026Y181726D01*
X478994Y181670D01*
X478750Y180972D01*
X478743Y180923D01*
X478725Y180862D01*
X478642Y180127D01*
X478644Y180100D01*
X478639Y180070D01*
X478639Y172704D01*
X478642Y172690D01*
X478640Y172682D01*
X478643Y172668D01*
X478642Y172647D01*
X478718Y171969D01*
X478733Y171922D01*
X478744Y171858D01*
X478969Y171214D01*
X478994Y171172D01*
X479018Y171112D01*
X479381Y170534D01*
X479415Y170498D01*
X479452Y170445D01*
X479935Y169962D01*
X479976Y169935D01*
X480024Y169891D01*
X480602Y169528D01*
X480648Y169511D01*
X480704Y169479D01*
X481348Y169254D01*
X481397Y169247D01*
X481459Y169228D01*
X482137Y169152D01*
X482164Y169154D01*
X482194Y169149D01*
X499467Y169149D01*
X499467Y164576D01*
X499468Y164571D01*
X499467Y164566D01*
X499488Y164473D01*
X499506Y164380D01*
X499509Y164375D01*
X499510Y164370D01*
X499566Y164292D01*
X499619Y164214D01*
X499623Y164211D01*
X499626Y164207D01*
X499708Y164156D01*
X499787Y164104D01*
X499792Y164104D01*
X499797Y164101D01*
X499974Y164069D01*
X507848Y164069D01*
X507853Y164070D01*
G37*
G36*
X982833Y164070D02*
X982833Y164070D01*
X982838Y164069D01*
X982931Y164090D01*
X983025Y164108D01*
X983029Y164111D01*
X983034Y164112D01*
X983112Y164168D01*
X983190Y164221D01*
X983193Y164225D01*
X983197Y164228D01*
X983248Y164310D01*
X983300Y164389D01*
X983300Y164394D01*
X983303Y164399D01*
X983335Y164576D01*
X983335Y183372D01*
X983334Y183377D01*
X983335Y183382D01*
X983314Y183475D01*
X983296Y183569D01*
X983293Y183573D01*
X983292Y183578D01*
X983236Y183656D01*
X983183Y183734D01*
X983179Y183737D01*
X983176Y183741D01*
X983094Y183792D01*
X983015Y183844D01*
X983010Y183844D01*
X983005Y183847D01*
X982828Y183879D01*
X957428Y183879D01*
X957402Y183874D01*
X957371Y183876D01*
X956636Y183793D01*
X956589Y183778D01*
X956526Y183768D01*
X955828Y183524D01*
X955785Y183499D01*
X955725Y183475D01*
X955099Y183081D01*
X955064Y183047D01*
X955011Y183010D01*
X954488Y182487D01*
X954460Y182446D01*
X954417Y182399D01*
X954024Y181773D01*
X954006Y181726D01*
X953974Y181670D01*
X953730Y180972D01*
X953723Y180923D01*
X953705Y180862D01*
X953622Y180127D01*
X953624Y180100D01*
X953619Y180070D01*
X953619Y172704D01*
X953622Y172690D01*
X953620Y172682D01*
X953623Y172668D01*
X953622Y172647D01*
X953698Y171969D01*
X953713Y171922D01*
X953724Y171858D01*
X953949Y171214D01*
X953974Y171172D01*
X953998Y171112D01*
X954361Y170534D01*
X954395Y170498D01*
X954432Y170445D01*
X954915Y169962D01*
X954956Y169935D01*
X955004Y169891D01*
X955582Y169528D01*
X955628Y169511D01*
X955684Y169479D01*
X956328Y169254D01*
X956377Y169247D01*
X956439Y169228D01*
X957117Y169152D01*
X957144Y169154D01*
X957174Y169149D01*
X974447Y169149D01*
X974447Y164576D01*
X974448Y164571D01*
X974447Y164566D01*
X974468Y164473D01*
X974486Y164380D01*
X974489Y164375D01*
X974490Y164370D01*
X974546Y164292D01*
X974599Y164214D01*
X974603Y164211D01*
X974606Y164207D01*
X974688Y164156D01*
X974767Y164104D01*
X974772Y164104D01*
X974777Y164101D01*
X974954Y164069D01*
X982828Y164069D01*
X982833Y164070D01*
G37*
G36*
X507853Y842410D02*
X507853Y842410D01*
X507858Y842409D01*
X507951Y842430D01*
X508045Y842449D01*
X508049Y842452D01*
X508054Y842453D01*
X508132Y842508D01*
X508210Y842561D01*
X508213Y842566D01*
X508217Y842569D01*
X508268Y842650D01*
X508320Y842729D01*
X508320Y842735D01*
X508323Y842739D01*
X508355Y842916D01*
X508355Y861712D01*
X508354Y861718D01*
X508355Y861723D01*
X508334Y861816D01*
X508316Y861909D01*
X508313Y861913D01*
X508312Y861918D01*
X508256Y861996D01*
X508203Y862075D01*
X508199Y862078D01*
X508196Y862082D01*
X508114Y862132D01*
X508035Y862184D01*
X508030Y862185D01*
X508025Y862188D01*
X507848Y862220D01*
X499974Y862220D01*
X499969Y862219D01*
X499964Y862220D01*
X499871Y862199D01*
X499778Y862180D01*
X499773Y862177D01*
X499768Y862176D01*
X499690Y862121D01*
X499612Y862067D01*
X499609Y862063D01*
X499605Y862060D01*
X499554Y861979D01*
X499502Y861899D01*
X499502Y861894D01*
X499499Y861890D01*
X499467Y861712D01*
X499467Y857140D01*
X482194Y857140D01*
X482168Y857134D01*
X482137Y857136D01*
X481459Y857060D01*
X481412Y857045D01*
X481348Y857035D01*
X480704Y856809D01*
X480662Y856784D01*
X480602Y856760D01*
X480024Y856397D01*
X479988Y856363D01*
X479935Y856326D01*
X479452Y855843D01*
X479425Y855802D01*
X479381Y855755D01*
X479018Y855177D01*
X479001Y855131D01*
X478969Y855074D01*
X478744Y854430D01*
X478737Y854381D01*
X478718Y854319D01*
X478642Y853641D01*
X478644Y853615D01*
X478639Y853584D01*
X478639Y846218D01*
X478644Y846192D01*
X478642Y846162D01*
X478725Y845427D01*
X478740Y845380D01*
X478750Y845316D01*
X478994Y844618D01*
X479019Y844576D01*
X479044Y844516D01*
X479437Y843890D01*
X479471Y843854D01*
X479508Y843801D01*
X480031Y843278D01*
X480072Y843251D01*
X480119Y843207D01*
X480745Y842814D01*
X480792Y842796D01*
X480848Y842765D01*
X481546Y842520D01*
X481595Y842514D01*
X481656Y842495D01*
X482391Y842412D01*
X482418Y842415D01*
X482448Y842409D01*
X507848Y842409D01*
X507853Y842410D01*
G37*
G36*
X32873Y842410D02*
X32873Y842410D01*
X32878Y842409D01*
X32971Y842430D01*
X33065Y842449D01*
X33069Y842452D01*
X33074Y842453D01*
X33152Y842508D01*
X33230Y842561D01*
X33233Y842566D01*
X33237Y842569D01*
X33288Y842650D01*
X33340Y842729D01*
X33340Y842735D01*
X33343Y842739D01*
X33375Y842916D01*
X33375Y861712D01*
X33374Y861718D01*
X33375Y861723D01*
X33354Y861816D01*
X33336Y861909D01*
X33333Y861913D01*
X33332Y861918D01*
X33276Y861996D01*
X33223Y862075D01*
X33219Y862078D01*
X33216Y862082D01*
X33134Y862132D01*
X33055Y862184D01*
X33050Y862185D01*
X33045Y862188D01*
X32868Y862220D01*
X24994Y862220D01*
X24989Y862219D01*
X24984Y862220D01*
X24891Y862199D01*
X24798Y862180D01*
X24793Y862177D01*
X24788Y862176D01*
X24710Y862121D01*
X24632Y862067D01*
X24629Y862063D01*
X24625Y862060D01*
X24574Y861979D01*
X24522Y861899D01*
X24522Y861894D01*
X24519Y861890D01*
X24487Y861712D01*
X24487Y857140D01*
X7214Y857140D01*
X7188Y857134D01*
X7157Y857136D01*
X6479Y857060D01*
X6432Y857045D01*
X6368Y857035D01*
X5724Y856809D01*
X5682Y856784D01*
X5622Y856760D01*
X5044Y856397D01*
X5008Y856363D01*
X4955Y856326D01*
X4472Y855843D01*
X4445Y855802D01*
X4401Y855755D01*
X4038Y855177D01*
X4021Y855131D01*
X3989Y855074D01*
X3764Y854430D01*
X3757Y854381D01*
X3738Y854319D01*
X3662Y853641D01*
X3664Y853615D01*
X3659Y853584D01*
X3659Y846218D01*
X3664Y846192D01*
X3662Y846162D01*
X3745Y845427D01*
X3760Y845380D01*
X3770Y845316D01*
X4014Y844618D01*
X4039Y844576D01*
X4064Y844516D01*
X4457Y843890D01*
X4491Y843854D01*
X4528Y843801D01*
X5051Y843278D01*
X5092Y843251D01*
X5139Y843207D01*
X5765Y842814D01*
X5812Y842796D01*
X5868Y842765D01*
X6566Y842520D01*
X6615Y842514D01*
X6676Y842495D01*
X7411Y842412D01*
X7438Y842415D01*
X7468Y842409D01*
X32868Y842409D01*
X32873Y842410D01*
G37*
G36*
X982833Y842410D02*
X982833Y842410D01*
X982838Y842409D01*
X982931Y842430D01*
X983025Y842449D01*
X983029Y842452D01*
X983034Y842453D01*
X983112Y842508D01*
X983190Y842561D01*
X983193Y842566D01*
X983197Y842569D01*
X983248Y842650D01*
X983300Y842729D01*
X983300Y842735D01*
X983303Y842739D01*
X983335Y842916D01*
X983335Y861712D01*
X983334Y861718D01*
X983335Y861723D01*
X983314Y861816D01*
X983296Y861909D01*
X983293Y861913D01*
X983292Y861918D01*
X983236Y861996D01*
X983183Y862075D01*
X983179Y862078D01*
X983176Y862082D01*
X983094Y862132D01*
X983015Y862184D01*
X983010Y862185D01*
X983005Y862188D01*
X982828Y862220D01*
X974954Y862220D01*
X974949Y862219D01*
X974944Y862220D01*
X974851Y862199D01*
X974758Y862180D01*
X974753Y862177D01*
X974748Y862176D01*
X974670Y862121D01*
X974592Y862067D01*
X974589Y862063D01*
X974585Y862060D01*
X974534Y861979D01*
X974482Y861899D01*
X974482Y861894D01*
X974479Y861890D01*
X974447Y861712D01*
X974447Y857140D01*
X957174Y857140D01*
X957148Y857134D01*
X957117Y857136D01*
X956439Y857060D01*
X956392Y857045D01*
X956328Y857035D01*
X955684Y856809D01*
X955642Y856784D01*
X955582Y856760D01*
X955004Y856397D01*
X954968Y856363D01*
X954915Y856326D01*
X954432Y855843D01*
X954405Y855802D01*
X954361Y855755D01*
X953998Y855177D01*
X953981Y855131D01*
X953949Y855074D01*
X953724Y854430D01*
X953717Y854381D01*
X953698Y854319D01*
X953622Y853641D01*
X953624Y853615D01*
X953619Y853584D01*
X953619Y846218D01*
X953624Y846192D01*
X953622Y846162D01*
X953705Y845427D01*
X953720Y845380D01*
X953730Y845316D01*
X953974Y844618D01*
X953999Y844576D01*
X954024Y844516D01*
X954417Y843890D01*
X954451Y843854D01*
X954488Y843801D01*
X955011Y843278D01*
X955052Y843251D01*
X955099Y843207D01*
X955725Y842814D01*
X955772Y842796D01*
X955828Y842765D01*
X956526Y842520D01*
X956575Y842514D01*
X956636Y842495D01*
X957371Y842412D01*
X957398Y842415D01*
X957428Y842409D01*
X982828Y842409D01*
X982833Y842410D01*
G37*
G36*
X507853Y532530D02*
X507853Y532530D01*
X507858Y532529D01*
X507951Y532550D01*
X508045Y532569D01*
X508049Y532572D01*
X508054Y532573D01*
X508132Y532628D01*
X508210Y532681D01*
X508213Y532686D01*
X508217Y532689D01*
X508268Y532770D01*
X508320Y532849D01*
X508320Y532855D01*
X508323Y532859D01*
X508355Y533036D01*
X508355Y551832D01*
X508354Y551838D01*
X508355Y551843D01*
X508334Y551936D01*
X508316Y552029D01*
X508313Y552033D01*
X508312Y552038D01*
X508256Y552116D01*
X508203Y552195D01*
X508199Y552198D01*
X508196Y552202D01*
X508114Y552252D01*
X508035Y552304D01*
X508030Y552305D01*
X508025Y552308D01*
X507848Y552340D01*
X499974Y552340D01*
X499969Y552339D01*
X499964Y552340D01*
X499871Y552319D01*
X499778Y552300D01*
X499773Y552297D01*
X499768Y552296D01*
X499690Y552241D01*
X499612Y552187D01*
X499609Y552183D01*
X499605Y552180D01*
X499554Y552099D01*
X499502Y552019D01*
X499502Y552014D01*
X499499Y552010D01*
X499467Y551832D01*
X499467Y547260D01*
X482194Y547260D01*
X482168Y547254D01*
X482137Y547256D01*
X481459Y547180D01*
X481412Y547165D01*
X481348Y547155D01*
X480704Y546929D01*
X480662Y546904D01*
X480602Y546880D01*
X480024Y546517D01*
X479988Y546483D01*
X479935Y546446D01*
X479452Y545963D01*
X479425Y545922D01*
X479381Y545875D01*
X479018Y545297D01*
X479001Y545251D01*
X478969Y545194D01*
X478744Y544550D01*
X478737Y544501D01*
X478718Y544439D01*
X478642Y543761D01*
X478644Y543735D01*
X478639Y543704D01*
X478639Y536338D01*
X478644Y536312D01*
X478642Y536282D01*
X478725Y535547D01*
X478740Y535500D01*
X478750Y535436D01*
X478994Y534738D01*
X479019Y534696D01*
X479044Y534636D01*
X479437Y534010D01*
X479471Y533974D01*
X479508Y533921D01*
X480031Y533398D01*
X480072Y533371D01*
X480119Y533327D01*
X480745Y532934D01*
X480792Y532916D01*
X480848Y532885D01*
X481546Y532640D01*
X481595Y532634D01*
X481656Y532615D01*
X482391Y532532D01*
X482418Y532535D01*
X482448Y532529D01*
X507848Y532529D01*
X507853Y532530D01*
G37*
G36*
X32873Y532530D02*
X32873Y532530D01*
X32878Y532529D01*
X32971Y532550D01*
X33065Y532569D01*
X33069Y532572D01*
X33074Y532573D01*
X33152Y532628D01*
X33230Y532681D01*
X33233Y532686D01*
X33237Y532689D01*
X33288Y532770D01*
X33340Y532849D01*
X33340Y532855D01*
X33343Y532859D01*
X33375Y533036D01*
X33375Y551832D01*
X33374Y551838D01*
X33375Y551843D01*
X33354Y551936D01*
X33336Y552029D01*
X33333Y552033D01*
X33332Y552038D01*
X33276Y552116D01*
X33223Y552195D01*
X33219Y552198D01*
X33216Y552202D01*
X33134Y552252D01*
X33055Y552304D01*
X33050Y552305D01*
X33045Y552308D01*
X32868Y552340D01*
X24994Y552340D01*
X24989Y552339D01*
X24984Y552340D01*
X24891Y552319D01*
X24798Y552300D01*
X24793Y552297D01*
X24788Y552296D01*
X24710Y552241D01*
X24632Y552187D01*
X24629Y552183D01*
X24625Y552180D01*
X24574Y552099D01*
X24522Y552019D01*
X24522Y552014D01*
X24519Y552010D01*
X24487Y551832D01*
X24487Y547260D01*
X7214Y547260D01*
X7188Y547254D01*
X7157Y547256D01*
X6479Y547180D01*
X6432Y547165D01*
X6368Y547155D01*
X5724Y546929D01*
X5682Y546904D01*
X5622Y546880D01*
X5044Y546517D01*
X5008Y546483D01*
X4955Y546446D01*
X4472Y545963D01*
X4445Y545922D01*
X4401Y545875D01*
X4038Y545297D01*
X4021Y545251D01*
X3989Y545194D01*
X3764Y544550D01*
X3757Y544501D01*
X3738Y544439D01*
X3662Y543761D01*
X3664Y543735D01*
X3659Y543704D01*
X3659Y536338D01*
X3664Y536312D01*
X3662Y536282D01*
X3745Y535547D01*
X3760Y535500D01*
X3770Y535436D01*
X4014Y534738D01*
X4039Y534696D01*
X4064Y534636D01*
X4457Y534010D01*
X4491Y533974D01*
X4528Y533921D01*
X5051Y533398D01*
X5092Y533371D01*
X5139Y533327D01*
X5765Y532934D01*
X5812Y532916D01*
X5868Y532885D01*
X6566Y532640D01*
X6615Y532634D01*
X6676Y532615D01*
X7411Y532532D01*
X7438Y532535D01*
X7468Y532529D01*
X32868Y532529D01*
X32873Y532530D01*
G37*
G36*
X982833Y532530D02*
X982833Y532530D01*
X982838Y532529D01*
X982931Y532550D01*
X983025Y532569D01*
X983029Y532572D01*
X983034Y532573D01*
X983112Y532628D01*
X983190Y532681D01*
X983193Y532686D01*
X983197Y532689D01*
X983248Y532770D01*
X983300Y532849D01*
X983300Y532855D01*
X983303Y532859D01*
X983335Y533036D01*
X983335Y551832D01*
X983334Y551838D01*
X983335Y551843D01*
X983314Y551936D01*
X983296Y552029D01*
X983293Y552033D01*
X983292Y552038D01*
X983236Y552116D01*
X983183Y552195D01*
X983179Y552198D01*
X983176Y552202D01*
X983094Y552252D01*
X983015Y552304D01*
X983010Y552305D01*
X983005Y552308D01*
X982828Y552340D01*
X974954Y552340D01*
X974949Y552339D01*
X974944Y552340D01*
X974851Y552319D01*
X974758Y552300D01*
X974753Y552297D01*
X974748Y552296D01*
X974670Y552241D01*
X974592Y552187D01*
X974589Y552183D01*
X974585Y552180D01*
X974534Y552099D01*
X974482Y552019D01*
X974482Y552014D01*
X974479Y552010D01*
X974447Y551832D01*
X974447Y547260D01*
X957174Y547260D01*
X957148Y547254D01*
X957117Y547256D01*
X956439Y547180D01*
X956392Y547165D01*
X956328Y547155D01*
X955684Y546929D01*
X955642Y546904D01*
X955582Y546880D01*
X955004Y546517D01*
X954968Y546483D01*
X954915Y546446D01*
X954432Y545963D01*
X954405Y545922D01*
X954361Y545875D01*
X953998Y545297D01*
X953981Y545251D01*
X953949Y545194D01*
X953724Y544550D01*
X953717Y544501D01*
X953698Y544439D01*
X953622Y543761D01*
X953624Y543735D01*
X953619Y543704D01*
X953619Y536338D01*
X953624Y536312D01*
X953622Y536282D01*
X953705Y535547D01*
X953720Y535500D01*
X953730Y535436D01*
X953974Y534738D01*
X953999Y534696D01*
X954024Y534636D01*
X954417Y534010D01*
X954451Y533974D01*
X954488Y533921D01*
X955011Y533398D01*
X955052Y533371D01*
X955099Y533327D01*
X955725Y532934D01*
X955772Y532916D01*
X955828Y532885D01*
X956526Y532640D01*
X956575Y532634D01*
X956636Y532615D01*
X957371Y532532D01*
X957398Y532535D01*
X957428Y532529D01*
X982828Y532529D01*
X982833Y532530D01*
G37*
G36*
X507853Y222650D02*
X507853Y222650D01*
X507858Y222649D01*
X507951Y222670D01*
X508045Y222689D01*
X508049Y222692D01*
X508054Y222693D01*
X508132Y222748D01*
X508210Y222801D01*
X508213Y222806D01*
X508217Y222809D01*
X508268Y222890D01*
X508320Y222969D01*
X508320Y222975D01*
X508323Y222979D01*
X508355Y223156D01*
X508355Y241952D01*
X508354Y241958D01*
X508355Y241963D01*
X508334Y242056D01*
X508316Y242149D01*
X508313Y242153D01*
X508312Y242158D01*
X508256Y242236D01*
X508203Y242315D01*
X508199Y242318D01*
X508196Y242322D01*
X508114Y242372D01*
X508035Y242424D01*
X508030Y242425D01*
X508025Y242428D01*
X507848Y242460D01*
X499974Y242460D01*
X499969Y242459D01*
X499964Y242460D01*
X499871Y242439D01*
X499778Y242420D01*
X499773Y242417D01*
X499768Y242416D01*
X499690Y242361D01*
X499612Y242307D01*
X499609Y242303D01*
X499605Y242300D01*
X499554Y242219D01*
X499502Y242139D01*
X499502Y242134D01*
X499499Y242130D01*
X499467Y241952D01*
X499467Y237380D01*
X482194Y237380D01*
X482168Y237374D01*
X482137Y237376D01*
X481459Y237300D01*
X481412Y237285D01*
X481348Y237275D01*
X480704Y237049D01*
X480662Y237024D01*
X480602Y237000D01*
X480024Y236637D01*
X479988Y236603D01*
X479935Y236566D01*
X479452Y236083D01*
X479425Y236042D01*
X479381Y235995D01*
X479018Y235417D01*
X479001Y235371D01*
X478969Y235314D01*
X478744Y234670D01*
X478737Y234621D01*
X478718Y234559D01*
X478642Y233881D01*
X478644Y233855D01*
X478639Y233824D01*
X478639Y226458D01*
X478644Y226432D01*
X478642Y226402D01*
X478725Y225667D01*
X478740Y225620D01*
X478750Y225556D01*
X478994Y224858D01*
X479019Y224816D01*
X479044Y224756D01*
X479437Y224130D01*
X479471Y224094D01*
X479508Y224041D01*
X480031Y223518D01*
X480072Y223491D01*
X480119Y223447D01*
X480745Y223054D01*
X480792Y223036D01*
X480848Y223005D01*
X481546Y222760D01*
X481595Y222754D01*
X481656Y222735D01*
X482391Y222652D01*
X482418Y222655D01*
X482448Y222649D01*
X507848Y222649D01*
X507853Y222650D01*
G37*
G36*
X982833Y222650D02*
X982833Y222650D01*
X982838Y222649D01*
X982931Y222670D01*
X983025Y222689D01*
X983029Y222692D01*
X983034Y222693D01*
X983112Y222748D01*
X983190Y222801D01*
X983193Y222806D01*
X983197Y222809D01*
X983248Y222890D01*
X983300Y222969D01*
X983300Y222975D01*
X983303Y222979D01*
X983335Y223156D01*
X983335Y241952D01*
X983334Y241958D01*
X983335Y241963D01*
X983314Y242056D01*
X983296Y242149D01*
X983293Y242153D01*
X983292Y242158D01*
X983236Y242236D01*
X983183Y242315D01*
X983179Y242318D01*
X983176Y242322D01*
X983094Y242372D01*
X983015Y242424D01*
X983010Y242425D01*
X983005Y242428D01*
X982828Y242460D01*
X974954Y242460D01*
X974949Y242459D01*
X974944Y242460D01*
X974851Y242439D01*
X974758Y242420D01*
X974753Y242417D01*
X974748Y242416D01*
X974670Y242361D01*
X974592Y242307D01*
X974589Y242303D01*
X974585Y242300D01*
X974534Y242219D01*
X974482Y242139D01*
X974482Y242134D01*
X974479Y242130D01*
X974447Y241952D01*
X974447Y237380D01*
X957174Y237380D01*
X957148Y237374D01*
X957117Y237376D01*
X956439Y237300D01*
X956392Y237285D01*
X956328Y237275D01*
X955684Y237049D01*
X955642Y237024D01*
X955582Y237000D01*
X955004Y236637D01*
X954968Y236603D01*
X954915Y236566D01*
X954432Y236083D01*
X954405Y236042D01*
X954361Y235995D01*
X953998Y235417D01*
X953981Y235371D01*
X953949Y235314D01*
X953724Y234670D01*
X953717Y234621D01*
X953698Y234559D01*
X953622Y233881D01*
X953624Y233855D01*
X953619Y233824D01*
X953619Y226458D01*
X953624Y226432D01*
X953622Y226402D01*
X953705Y225667D01*
X953720Y225620D01*
X953730Y225556D01*
X953974Y224858D01*
X953999Y224816D01*
X954024Y224756D01*
X954417Y224130D01*
X954451Y224094D01*
X954488Y224041D01*
X955011Y223518D01*
X955052Y223491D01*
X955099Y223447D01*
X955725Y223054D01*
X955772Y223036D01*
X955828Y223005D01*
X956526Y222760D01*
X956575Y222754D01*
X956636Y222735D01*
X957371Y222652D01*
X957398Y222655D01*
X957428Y222649D01*
X982828Y222649D01*
X982833Y222650D01*
G37*
G36*
X32873Y222650D02*
X32873Y222650D01*
X32878Y222649D01*
X32971Y222670D01*
X33065Y222689D01*
X33069Y222692D01*
X33074Y222693D01*
X33152Y222748D01*
X33230Y222801D01*
X33233Y222806D01*
X33237Y222809D01*
X33288Y222890D01*
X33340Y222969D01*
X33340Y222975D01*
X33343Y222979D01*
X33375Y223156D01*
X33375Y241952D01*
X33374Y241958D01*
X33375Y241963D01*
X33354Y242056D01*
X33336Y242149D01*
X33333Y242153D01*
X33332Y242158D01*
X33276Y242236D01*
X33223Y242315D01*
X33219Y242318D01*
X33216Y242322D01*
X33134Y242372D01*
X33055Y242424D01*
X33050Y242425D01*
X33045Y242428D01*
X32868Y242460D01*
X24994Y242460D01*
X24989Y242459D01*
X24984Y242460D01*
X24891Y242439D01*
X24798Y242420D01*
X24793Y242417D01*
X24788Y242416D01*
X24710Y242361D01*
X24632Y242307D01*
X24629Y242303D01*
X24625Y242300D01*
X24574Y242219D01*
X24522Y242139D01*
X24522Y242134D01*
X24519Y242130D01*
X24487Y241952D01*
X24487Y237380D01*
X7214Y237380D01*
X7188Y237374D01*
X7157Y237376D01*
X6479Y237300D01*
X6432Y237285D01*
X6368Y237275D01*
X5724Y237049D01*
X5682Y237024D01*
X5622Y237000D01*
X5044Y236637D01*
X5008Y236603D01*
X4955Y236566D01*
X4472Y236083D01*
X4445Y236042D01*
X4401Y235995D01*
X4038Y235417D01*
X4021Y235371D01*
X3989Y235314D01*
X3764Y234670D01*
X3757Y234621D01*
X3738Y234559D01*
X3662Y233881D01*
X3664Y233855D01*
X3659Y233824D01*
X3659Y226458D01*
X3664Y226432D01*
X3662Y226402D01*
X3745Y225667D01*
X3760Y225620D01*
X3770Y225556D01*
X4014Y224858D01*
X4039Y224816D01*
X4064Y224756D01*
X4457Y224130D01*
X4491Y224094D01*
X4528Y224041D01*
X5051Y223518D01*
X5092Y223491D01*
X5139Y223447D01*
X5765Y223054D01*
X5812Y223036D01*
X5868Y223005D01*
X6566Y222760D01*
X6615Y222754D01*
X6676Y222735D01*
X7411Y222652D01*
X7438Y222655D01*
X7468Y222649D01*
X32868Y222649D01*
X32873Y222650D01*
G37*
G36*
X47577Y511586D02*
X47577Y511586D01*
X47594Y511583D01*
X47643Y511605D01*
X47695Y511620D01*
X47706Y511633D01*
X47722Y511640D01*
X47752Y511685D01*
X47787Y511725D01*
X47790Y511742D01*
X47799Y511757D01*
X47810Y511830D01*
X47810Y514330D01*
X47806Y514344D01*
X47808Y514356D01*
X47807Y514358D01*
X47808Y514363D01*
X47786Y514413D01*
X47771Y514464D01*
X47758Y514475D01*
X47751Y514491D01*
X47706Y514521D01*
X47666Y514556D01*
X47649Y514559D01*
X47634Y514568D01*
X47561Y514579D01*
X31311Y514579D01*
X31294Y514574D01*
X31277Y514577D01*
X31228Y514555D01*
X31177Y514540D01*
X31165Y514527D01*
X31150Y514520D01*
X31120Y514475D01*
X31085Y514435D01*
X31082Y514418D01*
X31073Y514404D01*
X31062Y514330D01*
X31062Y511830D01*
X31066Y511814D01*
X31064Y511797D01*
X31086Y511747D01*
X31101Y511696D01*
X31114Y511685D01*
X31121Y511669D01*
X31166Y511639D01*
X31206Y511604D01*
X31223Y511601D01*
X31237Y511592D01*
X31311Y511581D01*
X47561Y511581D01*
X47577Y511586D01*
G37*
G36*
X522557Y511586D02*
X522557Y511586D01*
X522574Y511583D01*
X522623Y511605D01*
X522675Y511620D01*
X522686Y511633D01*
X522702Y511640D01*
X522732Y511685D01*
X522767Y511725D01*
X522770Y511742D01*
X522779Y511757D01*
X522790Y511830D01*
X522790Y514330D01*
X522786Y514344D01*
X522788Y514356D01*
X522787Y514358D01*
X522788Y514363D01*
X522766Y514413D01*
X522751Y514464D01*
X522738Y514475D01*
X522731Y514491D01*
X522686Y514521D01*
X522646Y514556D01*
X522629Y514559D01*
X522614Y514568D01*
X522541Y514579D01*
X506291Y514579D01*
X506274Y514574D01*
X506257Y514577D01*
X506208Y514555D01*
X506157Y514540D01*
X506145Y514527D01*
X506130Y514520D01*
X506100Y514475D01*
X506065Y514435D01*
X506062Y514418D01*
X506053Y514404D01*
X506042Y514330D01*
X506042Y511830D01*
X506046Y511814D01*
X506044Y511797D01*
X506066Y511747D01*
X506081Y511696D01*
X506094Y511685D01*
X506101Y511669D01*
X506146Y511639D01*
X506186Y511604D01*
X506203Y511601D01*
X506217Y511592D01*
X506291Y511581D01*
X522541Y511581D01*
X522557Y511586D01*
G37*
G36*
X997537Y511586D02*
X997537Y511586D01*
X997554Y511583D01*
X997603Y511605D01*
X997655Y511620D01*
X997666Y511633D01*
X997682Y511640D01*
X997712Y511685D01*
X997747Y511725D01*
X997750Y511742D01*
X997759Y511757D01*
X997770Y511830D01*
X997770Y514330D01*
X997766Y514344D01*
X997768Y514356D01*
X997767Y514358D01*
X997768Y514363D01*
X997746Y514413D01*
X997731Y514464D01*
X997718Y514475D01*
X997711Y514491D01*
X997666Y514521D01*
X997626Y514556D01*
X997609Y514559D01*
X997594Y514568D01*
X997521Y514579D01*
X981271Y514579D01*
X981254Y514574D01*
X981237Y514577D01*
X981188Y514555D01*
X981137Y514540D01*
X981125Y514527D01*
X981110Y514520D01*
X981080Y514475D01*
X981045Y514435D01*
X981042Y514418D01*
X981033Y514404D01*
X981022Y514330D01*
X981022Y511830D01*
X981026Y511814D01*
X981024Y511797D01*
X981046Y511747D01*
X981061Y511696D01*
X981074Y511685D01*
X981081Y511669D01*
X981126Y511639D01*
X981166Y511604D01*
X981183Y511601D01*
X981197Y511592D01*
X981271Y511581D01*
X997521Y511581D01*
X997537Y511586D01*
G37*
G36*
X47577Y814966D02*
X47577Y814966D01*
X47594Y814963D01*
X47643Y814985D01*
X47695Y815000D01*
X47706Y815013D01*
X47722Y815020D01*
X47752Y815065D01*
X47787Y815105D01*
X47790Y815122D01*
X47799Y815137D01*
X47810Y815210D01*
X47810Y817710D01*
X47806Y817724D01*
X47808Y817736D01*
X47807Y817738D01*
X47808Y817743D01*
X47786Y817793D01*
X47771Y817844D01*
X47758Y817855D01*
X47751Y817871D01*
X47706Y817901D01*
X47666Y817936D01*
X47649Y817939D01*
X47634Y817948D01*
X47561Y817959D01*
X31311Y817959D01*
X31294Y817954D01*
X31277Y817957D01*
X31228Y817935D01*
X31177Y817920D01*
X31165Y817907D01*
X31150Y817900D01*
X31120Y817855D01*
X31085Y817815D01*
X31082Y817798D01*
X31073Y817784D01*
X31062Y817710D01*
X31062Y815210D01*
X31066Y815194D01*
X31064Y815177D01*
X31086Y815127D01*
X31101Y815076D01*
X31114Y815065D01*
X31121Y815049D01*
X31166Y815019D01*
X31206Y814984D01*
X31223Y814981D01*
X31237Y814972D01*
X31311Y814961D01*
X47561Y814961D01*
X47577Y814966D01*
G37*
G36*
X522557Y814966D02*
X522557Y814966D01*
X522574Y814963D01*
X522623Y814985D01*
X522675Y815000D01*
X522686Y815013D01*
X522702Y815020D01*
X522732Y815065D01*
X522767Y815105D01*
X522770Y815122D01*
X522779Y815137D01*
X522790Y815210D01*
X522790Y817710D01*
X522786Y817724D01*
X522788Y817736D01*
X522787Y817738D01*
X522788Y817743D01*
X522766Y817793D01*
X522751Y817844D01*
X522738Y817855D01*
X522731Y817871D01*
X522686Y817901D01*
X522646Y817936D01*
X522629Y817939D01*
X522614Y817948D01*
X522541Y817959D01*
X506291Y817959D01*
X506274Y817954D01*
X506257Y817957D01*
X506208Y817935D01*
X506157Y817920D01*
X506145Y817907D01*
X506130Y817900D01*
X506100Y817855D01*
X506065Y817815D01*
X506062Y817798D01*
X506053Y817784D01*
X506042Y817710D01*
X506042Y815210D01*
X506046Y815194D01*
X506044Y815177D01*
X506066Y815127D01*
X506081Y815076D01*
X506094Y815065D01*
X506101Y815049D01*
X506146Y815019D01*
X506186Y814984D01*
X506203Y814981D01*
X506217Y814972D01*
X506291Y814961D01*
X522541Y814961D01*
X522557Y814966D01*
G37*
G36*
X997537Y808466D02*
X997537Y808466D01*
X997554Y808463D01*
X997603Y808485D01*
X997655Y808500D01*
X997666Y808513D01*
X997682Y808520D01*
X997712Y808565D01*
X997747Y808605D01*
X997750Y808622D01*
X997759Y808637D01*
X997770Y808710D01*
X997770Y811210D01*
X997766Y811224D01*
X997768Y811236D01*
X997767Y811238D01*
X997768Y811243D01*
X997746Y811293D01*
X997731Y811344D01*
X997718Y811355D01*
X997711Y811371D01*
X997666Y811401D01*
X997626Y811436D01*
X997609Y811439D01*
X997594Y811448D01*
X997521Y811459D01*
X981271Y811459D01*
X981254Y811454D01*
X981237Y811457D01*
X981188Y811435D01*
X981137Y811420D01*
X981125Y811407D01*
X981110Y811400D01*
X981080Y811355D01*
X981045Y811315D01*
X981042Y811298D01*
X981033Y811284D01*
X981022Y811210D01*
X981022Y808710D01*
X981026Y808694D01*
X981024Y808677D01*
X981046Y808627D01*
X981061Y808576D01*
X981074Y808565D01*
X981081Y808549D01*
X981126Y808519D01*
X981166Y808484D01*
X981183Y808481D01*
X981197Y808472D01*
X981271Y808461D01*
X997521Y808461D01*
X997537Y808466D01*
G37*
G36*
X522557Y808466D02*
X522557Y808466D01*
X522574Y808463D01*
X522623Y808485D01*
X522675Y808500D01*
X522686Y808513D01*
X522702Y808520D01*
X522732Y808565D01*
X522767Y808605D01*
X522770Y808622D01*
X522779Y808637D01*
X522790Y808710D01*
X522790Y811210D01*
X522786Y811224D01*
X522788Y811236D01*
X522787Y811238D01*
X522788Y811243D01*
X522766Y811293D01*
X522751Y811344D01*
X522738Y811355D01*
X522731Y811371D01*
X522686Y811401D01*
X522646Y811436D01*
X522629Y811439D01*
X522614Y811448D01*
X522541Y811459D01*
X506291Y811459D01*
X506274Y811454D01*
X506257Y811457D01*
X506208Y811435D01*
X506157Y811420D01*
X506145Y811407D01*
X506130Y811400D01*
X506100Y811355D01*
X506065Y811315D01*
X506062Y811298D01*
X506053Y811284D01*
X506042Y811210D01*
X506042Y808710D01*
X506046Y808694D01*
X506044Y808677D01*
X506066Y808627D01*
X506081Y808576D01*
X506094Y808565D01*
X506101Y808549D01*
X506146Y808519D01*
X506186Y808484D01*
X506203Y808481D01*
X506217Y808472D01*
X506291Y808461D01*
X522541Y808461D01*
X522557Y808466D01*
G37*
G36*
X47577Y808466D02*
X47577Y808466D01*
X47594Y808463D01*
X47643Y808485D01*
X47695Y808500D01*
X47706Y808513D01*
X47722Y808520D01*
X47752Y808565D01*
X47787Y808605D01*
X47790Y808622D01*
X47799Y808637D01*
X47810Y808710D01*
X47810Y811210D01*
X47806Y811224D01*
X47808Y811236D01*
X47807Y811238D01*
X47808Y811243D01*
X47786Y811293D01*
X47771Y811344D01*
X47758Y811355D01*
X47751Y811371D01*
X47706Y811401D01*
X47666Y811436D01*
X47649Y811439D01*
X47634Y811448D01*
X47561Y811459D01*
X31311Y811459D01*
X31294Y811454D01*
X31277Y811457D01*
X31228Y811435D01*
X31177Y811420D01*
X31165Y811407D01*
X31150Y811400D01*
X31120Y811355D01*
X31085Y811315D01*
X31082Y811298D01*
X31073Y811284D01*
X31062Y811210D01*
X31062Y808710D01*
X31066Y808694D01*
X31064Y808677D01*
X31086Y808627D01*
X31101Y808576D01*
X31114Y808565D01*
X31121Y808549D01*
X31166Y808519D01*
X31206Y808484D01*
X31223Y808481D01*
X31237Y808472D01*
X31311Y808461D01*
X47561Y808461D01*
X47577Y808466D01*
G37*
G36*
X997537Y524586D02*
X997537Y524586D01*
X997554Y524583D01*
X997603Y524605D01*
X997655Y524620D01*
X997666Y524633D01*
X997682Y524640D01*
X997712Y524685D01*
X997747Y524725D01*
X997750Y524742D01*
X997759Y524757D01*
X997770Y524830D01*
X997770Y527330D01*
X997766Y527344D01*
X997768Y527356D01*
X997767Y527358D01*
X997768Y527363D01*
X997746Y527413D01*
X997731Y527464D01*
X997718Y527475D01*
X997711Y527491D01*
X997666Y527521D01*
X997626Y527556D01*
X997609Y527559D01*
X997594Y527568D01*
X997521Y527579D01*
X981271Y527579D01*
X981254Y527574D01*
X981237Y527577D01*
X981188Y527555D01*
X981137Y527540D01*
X981125Y527527D01*
X981110Y527520D01*
X981080Y527475D01*
X981045Y527435D01*
X981042Y527418D01*
X981033Y527404D01*
X981022Y527330D01*
X981022Y524830D01*
X981026Y524814D01*
X981024Y524797D01*
X981046Y524747D01*
X981061Y524696D01*
X981074Y524685D01*
X981081Y524669D01*
X981126Y524639D01*
X981166Y524604D01*
X981183Y524601D01*
X981197Y524592D01*
X981271Y524581D01*
X997521Y524581D01*
X997537Y524586D01*
G37*
G36*
X47577Y524586D02*
X47577Y524586D01*
X47594Y524583D01*
X47643Y524605D01*
X47695Y524620D01*
X47706Y524633D01*
X47722Y524640D01*
X47752Y524685D01*
X47787Y524725D01*
X47790Y524742D01*
X47799Y524757D01*
X47810Y524830D01*
X47810Y527330D01*
X47806Y527344D01*
X47808Y527356D01*
X47807Y527358D01*
X47808Y527363D01*
X47786Y527413D01*
X47771Y527464D01*
X47758Y527475D01*
X47751Y527491D01*
X47706Y527521D01*
X47666Y527556D01*
X47649Y527559D01*
X47634Y527568D01*
X47561Y527579D01*
X31311Y527579D01*
X31294Y527574D01*
X31277Y527577D01*
X31228Y527555D01*
X31177Y527540D01*
X31165Y527527D01*
X31150Y527520D01*
X31120Y527475D01*
X31085Y527435D01*
X31082Y527418D01*
X31073Y527404D01*
X31062Y527330D01*
X31062Y524830D01*
X31066Y524814D01*
X31064Y524797D01*
X31086Y524747D01*
X31101Y524696D01*
X31114Y524685D01*
X31121Y524669D01*
X31166Y524639D01*
X31206Y524604D01*
X31223Y524601D01*
X31237Y524592D01*
X31311Y524581D01*
X47561Y524581D01*
X47577Y524586D01*
G37*
G36*
X522557Y518086D02*
X522557Y518086D01*
X522574Y518083D01*
X522623Y518105D01*
X522675Y518120D01*
X522686Y518133D01*
X522702Y518140D01*
X522732Y518185D01*
X522767Y518225D01*
X522770Y518242D01*
X522779Y518257D01*
X522790Y518330D01*
X522790Y520830D01*
X522786Y520844D01*
X522788Y520856D01*
X522787Y520858D01*
X522788Y520863D01*
X522766Y520913D01*
X522751Y520964D01*
X522738Y520975D01*
X522731Y520991D01*
X522686Y521021D01*
X522646Y521056D01*
X522629Y521059D01*
X522614Y521068D01*
X522541Y521079D01*
X506291Y521079D01*
X506274Y521074D01*
X506257Y521077D01*
X506208Y521055D01*
X506157Y521040D01*
X506145Y521027D01*
X506130Y521020D01*
X506100Y520975D01*
X506065Y520935D01*
X506062Y520918D01*
X506053Y520904D01*
X506042Y520830D01*
X506042Y518330D01*
X506046Y518314D01*
X506044Y518297D01*
X506066Y518247D01*
X506081Y518196D01*
X506094Y518185D01*
X506101Y518169D01*
X506146Y518139D01*
X506186Y518104D01*
X506203Y518101D01*
X506217Y518092D01*
X506291Y518081D01*
X522541Y518081D01*
X522557Y518086D01*
G37*
G36*
X47577Y518086D02*
X47577Y518086D01*
X47594Y518083D01*
X47643Y518105D01*
X47695Y518120D01*
X47706Y518133D01*
X47722Y518140D01*
X47752Y518185D01*
X47787Y518225D01*
X47790Y518242D01*
X47799Y518257D01*
X47810Y518330D01*
X47810Y520830D01*
X47806Y520844D01*
X47808Y520856D01*
X47807Y520858D01*
X47808Y520863D01*
X47786Y520913D01*
X47771Y520964D01*
X47758Y520975D01*
X47751Y520991D01*
X47706Y521021D01*
X47666Y521056D01*
X47649Y521059D01*
X47634Y521068D01*
X47561Y521079D01*
X31311Y521079D01*
X31294Y521074D01*
X31277Y521077D01*
X31228Y521055D01*
X31177Y521040D01*
X31165Y521027D01*
X31150Y521020D01*
X31120Y520975D01*
X31085Y520935D01*
X31082Y520918D01*
X31073Y520904D01*
X31062Y520830D01*
X31062Y518330D01*
X31066Y518314D01*
X31064Y518297D01*
X31086Y518247D01*
X31101Y518196D01*
X31114Y518185D01*
X31121Y518169D01*
X31166Y518139D01*
X31206Y518104D01*
X31223Y518101D01*
X31237Y518092D01*
X31311Y518081D01*
X47561Y518081D01*
X47577Y518086D01*
G37*
G36*
X997537Y518086D02*
X997537Y518086D01*
X997554Y518083D01*
X997603Y518105D01*
X997655Y518120D01*
X997666Y518133D01*
X997682Y518140D01*
X997712Y518185D01*
X997747Y518225D01*
X997750Y518242D01*
X997759Y518257D01*
X997770Y518330D01*
X997770Y520830D01*
X997766Y520844D01*
X997768Y520856D01*
X997767Y520858D01*
X997768Y520863D01*
X997746Y520913D01*
X997731Y520964D01*
X997718Y520975D01*
X997711Y520991D01*
X997666Y521021D01*
X997626Y521056D01*
X997609Y521059D01*
X997594Y521068D01*
X997521Y521079D01*
X981271Y521079D01*
X981254Y521074D01*
X981237Y521077D01*
X981188Y521055D01*
X981137Y521040D01*
X981125Y521027D01*
X981110Y521020D01*
X981080Y520975D01*
X981045Y520935D01*
X981042Y520918D01*
X981033Y520904D01*
X981022Y520830D01*
X981022Y518330D01*
X981026Y518314D01*
X981024Y518297D01*
X981046Y518247D01*
X981061Y518196D01*
X981074Y518185D01*
X981081Y518169D01*
X981126Y518139D01*
X981166Y518104D01*
X981183Y518101D01*
X981197Y518092D01*
X981271Y518081D01*
X997521Y518081D01*
X997537Y518086D01*
G37*
G36*
X522557Y524586D02*
X522557Y524586D01*
X522574Y524583D01*
X522623Y524605D01*
X522675Y524620D01*
X522686Y524633D01*
X522702Y524640D01*
X522732Y524685D01*
X522767Y524725D01*
X522770Y524742D01*
X522779Y524757D01*
X522790Y524830D01*
X522790Y527330D01*
X522786Y527344D01*
X522788Y527356D01*
X522787Y527358D01*
X522788Y527363D01*
X522766Y527413D01*
X522751Y527464D01*
X522738Y527475D01*
X522731Y527491D01*
X522686Y527521D01*
X522646Y527556D01*
X522629Y527559D01*
X522614Y527568D01*
X522541Y527579D01*
X506291Y527579D01*
X506274Y527574D01*
X506257Y527577D01*
X506208Y527555D01*
X506157Y527540D01*
X506145Y527527D01*
X506130Y527520D01*
X506100Y527475D01*
X506065Y527435D01*
X506062Y527418D01*
X506053Y527404D01*
X506042Y527330D01*
X506042Y524830D01*
X506046Y524814D01*
X506044Y524797D01*
X506066Y524747D01*
X506081Y524696D01*
X506094Y524685D01*
X506101Y524669D01*
X506146Y524639D01*
X506186Y524604D01*
X506203Y524601D01*
X506217Y524592D01*
X506291Y524581D01*
X522541Y524581D01*
X522557Y524586D01*
G37*
G36*
X522557Y834466D02*
X522557Y834466D01*
X522574Y834463D01*
X522623Y834485D01*
X522675Y834500D01*
X522686Y834513D01*
X522702Y834520D01*
X522732Y834565D01*
X522767Y834605D01*
X522770Y834622D01*
X522779Y834637D01*
X522790Y834710D01*
X522790Y837210D01*
X522786Y837224D01*
X522788Y837236D01*
X522787Y837238D01*
X522788Y837243D01*
X522766Y837293D01*
X522751Y837344D01*
X522738Y837355D01*
X522731Y837371D01*
X522686Y837401D01*
X522646Y837436D01*
X522629Y837439D01*
X522614Y837448D01*
X522541Y837459D01*
X506291Y837459D01*
X506274Y837454D01*
X506257Y837457D01*
X506208Y837435D01*
X506157Y837420D01*
X506145Y837407D01*
X506130Y837400D01*
X506100Y837355D01*
X506065Y837315D01*
X506062Y837298D01*
X506053Y837284D01*
X506042Y837210D01*
X506042Y834710D01*
X506046Y834694D01*
X506044Y834677D01*
X506066Y834627D01*
X506081Y834576D01*
X506094Y834565D01*
X506101Y834549D01*
X506146Y834519D01*
X506186Y834484D01*
X506203Y834481D01*
X506217Y834472D01*
X506291Y834461D01*
X522541Y834461D01*
X522557Y834466D01*
G37*
G36*
X997537Y505086D02*
X997537Y505086D01*
X997554Y505083D01*
X997603Y505105D01*
X997655Y505120D01*
X997666Y505133D01*
X997682Y505140D01*
X997712Y505185D01*
X997747Y505225D01*
X997750Y505242D01*
X997759Y505257D01*
X997770Y505330D01*
X997770Y507830D01*
X997766Y507844D01*
X997768Y507856D01*
X997767Y507858D01*
X997768Y507863D01*
X997746Y507913D01*
X997731Y507964D01*
X997718Y507975D01*
X997711Y507991D01*
X997666Y508021D01*
X997626Y508056D01*
X997609Y508059D01*
X997594Y508068D01*
X997521Y508079D01*
X981271Y508079D01*
X981254Y508074D01*
X981237Y508077D01*
X981188Y508055D01*
X981137Y508040D01*
X981125Y508027D01*
X981110Y508020D01*
X981080Y507975D01*
X981045Y507935D01*
X981042Y507918D01*
X981033Y507904D01*
X981022Y507830D01*
X981022Y505330D01*
X981026Y505314D01*
X981024Y505297D01*
X981046Y505247D01*
X981061Y505196D01*
X981074Y505185D01*
X981081Y505169D01*
X981126Y505139D01*
X981166Y505104D01*
X981183Y505101D01*
X981197Y505092D01*
X981271Y505081D01*
X997521Y505081D01*
X997537Y505086D01*
G37*
G36*
X522557Y505086D02*
X522557Y505086D01*
X522574Y505083D01*
X522623Y505105D01*
X522675Y505120D01*
X522686Y505133D01*
X522702Y505140D01*
X522732Y505185D01*
X522767Y505225D01*
X522770Y505242D01*
X522779Y505257D01*
X522790Y505330D01*
X522790Y507830D01*
X522786Y507844D01*
X522788Y507856D01*
X522787Y507858D01*
X522788Y507863D01*
X522766Y507913D01*
X522751Y507964D01*
X522738Y507975D01*
X522731Y507991D01*
X522686Y508021D01*
X522646Y508056D01*
X522629Y508059D01*
X522614Y508068D01*
X522541Y508079D01*
X506291Y508079D01*
X506274Y508074D01*
X506257Y508077D01*
X506208Y508055D01*
X506157Y508040D01*
X506145Y508027D01*
X506130Y508020D01*
X506100Y507975D01*
X506065Y507935D01*
X506062Y507918D01*
X506053Y507904D01*
X506042Y507830D01*
X506042Y505330D01*
X506046Y505314D01*
X506044Y505297D01*
X506066Y505247D01*
X506081Y505196D01*
X506094Y505185D01*
X506101Y505169D01*
X506146Y505139D01*
X506186Y505104D01*
X506203Y505101D01*
X506217Y505092D01*
X506291Y505081D01*
X522541Y505081D01*
X522557Y505086D01*
G37*
G36*
X47577Y505086D02*
X47577Y505086D01*
X47594Y505083D01*
X47643Y505105D01*
X47695Y505120D01*
X47706Y505133D01*
X47722Y505140D01*
X47752Y505185D01*
X47787Y505225D01*
X47790Y505242D01*
X47799Y505257D01*
X47810Y505330D01*
X47810Y507830D01*
X47806Y507844D01*
X47808Y507856D01*
X47807Y507858D01*
X47808Y507863D01*
X47786Y507913D01*
X47771Y507964D01*
X47758Y507975D01*
X47751Y507991D01*
X47706Y508021D01*
X47666Y508056D01*
X47649Y508059D01*
X47634Y508068D01*
X47561Y508079D01*
X31311Y508079D01*
X31294Y508074D01*
X31277Y508077D01*
X31228Y508055D01*
X31177Y508040D01*
X31165Y508027D01*
X31150Y508020D01*
X31120Y507975D01*
X31085Y507935D01*
X31082Y507918D01*
X31073Y507904D01*
X31062Y507830D01*
X31062Y505330D01*
X31066Y505314D01*
X31064Y505297D01*
X31086Y505247D01*
X31101Y505196D01*
X31114Y505185D01*
X31121Y505169D01*
X31166Y505139D01*
X31206Y505104D01*
X31223Y505101D01*
X31237Y505092D01*
X31311Y505081D01*
X47561Y505081D01*
X47577Y505086D01*
G37*
G36*
X47577Y498586D02*
X47577Y498586D01*
X47594Y498583D01*
X47643Y498605D01*
X47695Y498620D01*
X47706Y498633D01*
X47722Y498640D01*
X47752Y498685D01*
X47787Y498725D01*
X47790Y498742D01*
X47799Y498757D01*
X47810Y498830D01*
X47810Y501330D01*
X47806Y501344D01*
X47808Y501356D01*
X47807Y501358D01*
X47808Y501363D01*
X47786Y501413D01*
X47771Y501464D01*
X47758Y501475D01*
X47751Y501491D01*
X47706Y501521D01*
X47666Y501556D01*
X47649Y501559D01*
X47634Y501568D01*
X47561Y501579D01*
X31311Y501579D01*
X31294Y501574D01*
X31277Y501577D01*
X31228Y501555D01*
X31177Y501540D01*
X31165Y501527D01*
X31150Y501520D01*
X31120Y501475D01*
X31085Y501435D01*
X31082Y501418D01*
X31073Y501404D01*
X31062Y501330D01*
X31062Y498830D01*
X31066Y498814D01*
X31064Y498797D01*
X31086Y498747D01*
X31101Y498696D01*
X31114Y498685D01*
X31121Y498669D01*
X31166Y498639D01*
X31206Y498604D01*
X31223Y498601D01*
X31237Y498592D01*
X31311Y498581D01*
X47561Y498581D01*
X47577Y498586D01*
G37*
G36*
X997537Y498586D02*
X997537Y498586D01*
X997554Y498583D01*
X997603Y498605D01*
X997655Y498620D01*
X997666Y498633D01*
X997682Y498640D01*
X997712Y498685D01*
X997747Y498725D01*
X997750Y498742D01*
X997759Y498757D01*
X997770Y498830D01*
X997770Y501330D01*
X997766Y501344D01*
X997768Y501356D01*
X997767Y501358D01*
X997768Y501363D01*
X997746Y501413D01*
X997731Y501464D01*
X997718Y501475D01*
X997711Y501491D01*
X997666Y501521D01*
X997626Y501556D01*
X997609Y501559D01*
X997594Y501568D01*
X997521Y501579D01*
X981271Y501579D01*
X981254Y501574D01*
X981237Y501577D01*
X981188Y501555D01*
X981137Y501540D01*
X981125Y501527D01*
X981110Y501520D01*
X981080Y501475D01*
X981045Y501435D01*
X981042Y501418D01*
X981033Y501404D01*
X981022Y501330D01*
X981022Y498830D01*
X981026Y498814D01*
X981024Y498797D01*
X981046Y498747D01*
X981061Y498696D01*
X981074Y498685D01*
X981081Y498669D01*
X981126Y498639D01*
X981166Y498604D01*
X981183Y498601D01*
X981197Y498592D01*
X981271Y498581D01*
X997521Y498581D01*
X997537Y498586D01*
G37*
G36*
X522557Y498586D02*
X522557Y498586D01*
X522574Y498583D01*
X522623Y498605D01*
X522675Y498620D01*
X522686Y498633D01*
X522702Y498640D01*
X522732Y498685D01*
X522767Y498725D01*
X522770Y498742D01*
X522779Y498757D01*
X522790Y498830D01*
X522790Y501330D01*
X522786Y501344D01*
X522788Y501356D01*
X522787Y501358D01*
X522788Y501363D01*
X522766Y501413D01*
X522751Y501464D01*
X522738Y501475D01*
X522731Y501491D01*
X522686Y501521D01*
X522646Y501556D01*
X522629Y501559D01*
X522614Y501568D01*
X522541Y501579D01*
X506291Y501579D01*
X506274Y501574D01*
X506257Y501577D01*
X506208Y501555D01*
X506157Y501540D01*
X506145Y501527D01*
X506130Y501520D01*
X506100Y501475D01*
X506065Y501435D01*
X506062Y501418D01*
X506053Y501404D01*
X506042Y501330D01*
X506042Y498830D01*
X506046Y498814D01*
X506044Y498797D01*
X506066Y498747D01*
X506081Y498696D01*
X506094Y498685D01*
X506101Y498669D01*
X506146Y498639D01*
X506186Y498604D01*
X506203Y498601D01*
X506217Y498592D01*
X506291Y498581D01*
X522541Y498581D01*
X522557Y498586D01*
G37*
G36*
X47577Y834466D02*
X47577Y834466D01*
X47594Y834463D01*
X47643Y834485D01*
X47695Y834500D01*
X47706Y834513D01*
X47722Y834520D01*
X47752Y834565D01*
X47787Y834605D01*
X47790Y834622D01*
X47799Y834637D01*
X47810Y834710D01*
X47810Y837210D01*
X47806Y837224D01*
X47808Y837236D01*
X47807Y837238D01*
X47808Y837243D01*
X47786Y837293D01*
X47771Y837344D01*
X47758Y837355D01*
X47751Y837371D01*
X47706Y837401D01*
X47666Y837436D01*
X47649Y837439D01*
X47634Y837448D01*
X47561Y837459D01*
X31311Y837459D01*
X31294Y837454D01*
X31277Y837457D01*
X31228Y837435D01*
X31177Y837420D01*
X31165Y837407D01*
X31150Y837400D01*
X31120Y837355D01*
X31085Y837315D01*
X31082Y837298D01*
X31073Y837284D01*
X31062Y837210D01*
X31062Y834710D01*
X31066Y834694D01*
X31064Y834677D01*
X31086Y834627D01*
X31101Y834576D01*
X31114Y834565D01*
X31121Y834549D01*
X31166Y834519D01*
X31206Y834484D01*
X31223Y834481D01*
X31237Y834472D01*
X31311Y834461D01*
X47561Y834461D01*
X47577Y834466D01*
G37*
G36*
X997537Y834466D02*
X997537Y834466D01*
X997554Y834463D01*
X997603Y834485D01*
X997655Y834500D01*
X997666Y834513D01*
X997682Y834520D01*
X997712Y834565D01*
X997747Y834605D01*
X997750Y834622D01*
X997759Y834637D01*
X997770Y834710D01*
X997770Y837210D01*
X997766Y837224D01*
X997768Y837236D01*
X997767Y837238D01*
X997768Y837243D01*
X997746Y837293D01*
X997731Y837344D01*
X997718Y837355D01*
X997711Y837371D01*
X997666Y837401D01*
X997626Y837436D01*
X997609Y837439D01*
X997594Y837448D01*
X997521Y837459D01*
X981271Y837459D01*
X981254Y837454D01*
X981237Y837457D01*
X981188Y837435D01*
X981137Y837420D01*
X981125Y837407D01*
X981110Y837400D01*
X981080Y837355D01*
X981045Y837315D01*
X981042Y837298D01*
X981033Y837284D01*
X981022Y837210D01*
X981022Y834710D01*
X981026Y834694D01*
X981024Y834677D01*
X981046Y834627D01*
X981061Y834576D01*
X981074Y834565D01*
X981081Y834549D01*
X981126Y834519D01*
X981166Y834484D01*
X981183Y834481D01*
X981197Y834472D01*
X981271Y834461D01*
X997521Y834461D01*
X997537Y834466D01*
G37*
G36*
X522557Y827966D02*
X522557Y827966D01*
X522574Y827963D01*
X522623Y827985D01*
X522675Y828000D01*
X522686Y828013D01*
X522702Y828020D01*
X522732Y828065D01*
X522767Y828105D01*
X522770Y828122D01*
X522779Y828137D01*
X522790Y828210D01*
X522790Y830710D01*
X522786Y830724D01*
X522788Y830736D01*
X522787Y830738D01*
X522788Y830743D01*
X522766Y830793D01*
X522751Y830844D01*
X522738Y830855D01*
X522731Y830871D01*
X522686Y830901D01*
X522646Y830936D01*
X522629Y830939D01*
X522614Y830948D01*
X522541Y830959D01*
X506291Y830959D01*
X506274Y830954D01*
X506257Y830957D01*
X506208Y830935D01*
X506157Y830920D01*
X506145Y830907D01*
X506130Y830900D01*
X506100Y830855D01*
X506065Y830815D01*
X506062Y830798D01*
X506053Y830784D01*
X506042Y830710D01*
X506042Y828210D01*
X506046Y828194D01*
X506044Y828177D01*
X506066Y828127D01*
X506081Y828076D01*
X506094Y828065D01*
X506101Y828049D01*
X506146Y828019D01*
X506186Y827984D01*
X506203Y827981D01*
X506217Y827972D01*
X506291Y827961D01*
X522541Y827961D01*
X522557Y827966D01*
G37*
G36*
X997537Y827966D02*
X997537Y827966D01*
X997554Y827963D01*
X997603Y827985D01*
X997655Y828000D01*
X997666Y828013D01*
X997682Y828020D01*
X997712Y828065D01*
X997747Y828105D01*
X997750Y828122D01*
X997759Y828137D01*
X997770Y828210D01*
X997770Y830710D01*
X997766Y830724D01*
X997768Y830736D01*
X997767Y830738D01*
X997768Y830743D01*
X997746Y830793D01*
X997731Y830844D01*
X997718Y830855D01*
X997711Y830871D01*
X997666Y830901D01*
X997626Y830936D01*
X997609Y830939D01*
X997594Y830948D01*
X997521Y830959D01*
X981271Y830959D01*
X981254Y830954D01*
X981237Y830957D01*
X981188Y830935D01*
X981137Y830920D01*
X981125Y830907D01*
X981110Y830900D01*
X981080Y830855D01*
X981045Y830815D01*
X981042Y830798D01*
X981033Y830784D01*
X981022Y830710D01*
X981022Y828210D01*
X981026Y828194D01*
X981024Y828177D01*
X981046Y828127D01*
X981061Y828076D01*
X981074Y828065D01*
X981081Y828049D01*
X981126Y828019D01*
X981166Y827984D01*
X981183Y827981D01*
X981197Y827972D01*
X981271Y827961D01*
X997521Y827961D01*
X997537Y827966D01*
G37*
G36*
X47577Y827966D02*
X47577Y827966D01*
X47594Y827963D01*
X47643Y827985D01*
X47695Y828000D01*
X47706Y828013D01*
X47722Y828020D01*
X47752Y828065D01*
X47787Y828105D01*
X47790Y828122D01*
X47799Y828137D01*
X47810Y828210D01*
X47810Y830710D01*
X47806Y830724D01*
X47808Y830736D01*
X47807Y830738D01*
X47808Y830743D01*
X47786Y830793D01*
X47771Y830844D01*
X47758Y830855D01*
X47751Y830871D01*
X47706Y830901D01*
X47666Y830936D01*
X47649Y830939D01*
X47634Y830948D01*
X47561Y830959D01*
X31311Y830959D01*
X31294Y830954D01*
X31277Y830957D01*
X31228Y830935D01*
X31177Y830920D01*
X31165Y830907D01*
X31150Y830900D01*
X31120Y830855D01*
X31085Y830815D01*
X31082Y830798D01*
X31073Y830784D01*
X31062Y830710D01*
X31062Y828210D01*
X31066Y828194D01*
X31064Y828177D01*
X31086Y828127D01*
X31101Y828076D01*
X31114Y828065D01*
X31121Y828049D01*
X31166Y828019D01*
X31206Y827984D01*
X31223Y827981D01*
X31237Y827972D01*
X31311Y827961D01*
X47561Y827961D01*
X47577Y827966D01*
G37*
G36*
X522557Y821466D02*
X522557Y821466D01*
X522574Y821463D01*
X522623Y821485D01*
X522675Y821500D01*
X522686Y821513D01*
X522702Y821520D01*
X522732Y821565D01*
X522767Y821605D01*
X522770Y821622D01*
X522779Y821637D01*
X522790Y821710D01*
X522790Y824210D01*
X522786Y824224D01*
X522788Y824236D01*
X522787Y824238D01*
X522788Y824243D01*
X522766Y824293D01*
X522751Y824344D01*
X522738Y824355D01*
X522731Y824371D01*
X522686Y824401D01*
X522646Y824436D01*
X522629Y824439D01*
X522614Y824448D01*
X522541Y824459D01*
X506291Y824459D01*
X506274Y824454D01*
X506257Y824457D01*
X506208Y824435D01*
X506157Y824420D01*
X506145Y824407D01*
X506130Y824400D01*
X506100Y824355D01*
X506065Y824315D01*
X506062Y824298D01*
X506053Y824284D01*
X506042Y824210D01*
X506042Y821710D01*
X506046Y821694D01*
X506044Y821677D01*
X506066Y821627D01*
X506081Y821576D01*
X506094Y821565D01*
X506101Y821549D01*
X506146Y821519D01*
X506186Y821484D01*
X506203Y821481D01*
X506217Y821472D01*
X506291Y821461D01*
X522541Y821461D01*
X522557Y821466D01*
G37*
G36*
X997537Y214706D02*
X997537Y214706D01*
X997554Y214703D01*
X997603Y214725D01*
X997655Y214740D01*
X997666Y214753D01*
X997682Y214760D01*
X997712Y214805D01*
X997747Y214845D01*
X997750Y214862D01*
X997759Y214877D01*
X997770Y214950D01*
X997770Y217450D01*
X997766Y217464D01*
X997768Y217476D01*
X997767Y217478D01*
X997768Y217483D01*
X997746Y217533D01*
X997731Y217584D01*
X997718Y217595D01*
X997711Y217611D01*
X997666Y217641D01*
X997626Y217676D01*
X997609Y217679D01*
X997594Y217688D01*
X997521Y217699D01*
X981271Y217699D01*
X981254Y217694D01*
X981237Y217697D01*
X981188Y217675D01*
X981137Y217660D01*
X981125Y217647D01*
X981110Y217640D01*
X981080Y217595D01*
X981045Y217555D01*
X981042Y217538D01*
X981033Y217524D01*
X981022Y217450D01*
X981022Y214950D01*
X981026Y214934D01*
X981024Y214917D01*
X981046Y214867D01*
X981061Y214816D01*
X981074Y214805D01*
X981081Y214789D01*
X981126Y214759D01*
X981166Y214724D01*
X981183Y214721D01*
X981197Y214712D01*
X981271Y214701D01*
X997521Y214701D01*
X997537Y214706D01*
G37*
G36*
X47577Y214706D02*
X47577Y214706D01*
X47594Y214703D01*
X47643Y214725D01*
X47695Y214740D01*
X47706Y214753D01*
X47722Y214760D01*
X47752Y214805D01*
X47787Y214845D01*
X47790Y214862D01*
X47799Y214877D01*
X47810Y214950D01*
X47810Y217450D01*
X47806Y217464D01*
X47808Y217476D01*
X47807Y217478D01*
X47808Y217483D01*
X47786Y217533D01*
X47771Y217584D01*
X47758Y217595D01*
X47751Y217611D01*
X47706Y217641D01*
X47666Y217676D01*
X47649Y217679D01*
X47634Y217688D01*
X47561Y217699D01*
X31311Y217699D01*
X31294Y217694D01*
X31277Y217697D01*
X31228Y217675D01*
X31177Y217660D01*
X31165Y217647D01*
X31150Y217640D01*
X31120Y217595D01*
X31085Y217555D01*
X31082Y217538D01*
X31073Y217524D01*
X31062Y217450D01*
X31062Y214950D01*
X31066Y214934D01*
X31064Y214917D01*
X31086Y214867D01*
X31101Y214816D01*
X31114Y214805D01*
X31121Y214789D01*
X31166Y214759D01*
X31206Y214724D01*
X31223Y214721D01*
X31237Y214712D01*
X31311Y214701D01*
X47561Y214701D01*
X47577Y214706D01*
G37*
G36*
X522557Y214706D02*
X522557Y214706D01*
X522574Y214703D01*
X522623Y214725D01*
X522675Y214740D01*
X522686Y214753D01*
X522702Y214760D01*
X522732Y214805D01*
X522767Y214845D01*
X522770Y214862D01*
X522779Y214877D01*
X522790Y214950D01*
X522790Y217450D01*
X522786Y217464D01*
X522788Y217476D01*
X522787Y217478D01*
X522788Y217483D01*
X522766Y217533D01*
X522751Y217584D01*
X522738Y217595D01*
X522731Y217611D01*
X522686Y217641D01*
X522646Y217676D01*
X522629Y217679D01*
X522614Y217688D01*
X522541Y217699D01*
X506291Y217699D01*
X506274Y217694D01*
X506257Y217697D01*
X506208Y217675D01*
X506157Y217660D01*
X506145Y217647D01*
X506130Y217640D01*
X506100Y217595D01*
X506065Y217555D01*
X506062Y217538D01*
X506053Y217524D01*
X506042Y217450D01*
X506042Y214950D01*
X506046Y214934D01*
X506044Y214917D01*
X506066Y214867D01*
X506081Y214816D01*
X506094Y214805D01*
X506101Y214789D01*
X506146Y214759D01*
X506186Y214724D01*
X506203Y214721D01*
X506217Y214712D01*
X506291Y214701D01*
X522541Y214701D01*
X522557Y214706D01*
G37*
G36*
X47577Y821466D02*
X47577Y821466D01*
X47594Y821463D01*
X47643Y821485D01*
X47695Y821500D01*
X47706Y821513D01*
X47722Y821520D01*
X47752Y821565D01*
X47787Y821605D01*
X47790Y821622D01*
X47799Y821637D01*
X47810Y821710D01*
X47810Y824210D01*
X47806Y824224D01*
X47808Y824236D01*
X47807Y824238D01*
X47808Y824243D01*
X47786Y824293D01*
X47771Y824344D01*
X47758Y824355D01*
X47751Y824371D01*
X47706Y824401D01*
X47666Y824436D01*
X47649Y824439D01*
X47634Y824448D01*
X47561Y824459D01*
X31311Y824459D01*
X31294Y824454D01*
X31277Y824457D01*
X31228Y824435D01*
X31177Y824420D01*
X31165Y824407D01*
X31150Y824400D01*
X31120Y824355D01*
X31085Y824315D01*
X31082Y824298D01*
X31073Y824284D01*
X31062Y824210D01*
X31062Y821710D01*
X31066Y821694D01*
X31064Y821677D01*
X31086Y821627D01*
X31101Y821576D01*
X31114Y821565D01*
X31121Y821549D01*
X31166Y821519D01*
X31206Y821484D01*
X31223Y821481D01*
X31237Y821472D01*
X31311Y821461D01*
X47561Y821461D01*
X47577Y821466D01*
G37*
G36*
X522557Y208206D02*
X522557Y208206D01*
X522574Y208203D01*
X522623Y208225D01*
X522675Y208240D01*
X522686Y208253D01*
X522702Y208260D01*
X522732Y208305D01*
X522767Y208345D01*
X522770Y208362D01*
X522779Y208377D01*
X522790Y208450D01*
X522790Y210950D01*
X522786Y210964D01*
X522788Y210976D01*
X522787Y210978D01*
X522788Y210983D01*
X522766Y211033D01*
X522751Y211084D01*
X522738Y211095D01*
X522731Y211111D01*
X522686Y211141D01*
X522646Y211176D01*
X522629Y211179D01*
X522614Y211188D01*
X522541Y211199D01*
X506291Y211199D01*
X506274Y211194D01*
X506257Y211197D01*
X506208Y211175D01*
X506157Y211160D01*
X506145Y211147D01*
X506130Y211140D01*
X506100Y211095D01*
X506065Y211055D01*
X506062Y211038D01*
X506053Y211024D01*
X506042Y210950D01*
X506042Y208450D01*
X506046Y208434D01*
X506044Y208417D01*
X506066Y208367D01*
X506081Y208316D01*
X506094Y208305D01*
X506101Y208289D01*
X506146Y208259D01*
X506186Y208224D01*
X506203Y208221D01*
X506217Y208212D01*
X506291Y208201D01*
X522541Y208201D01*
X522557Y208206D01*
G37*
G36*
X997537Y208206D02*
X997537Y208206D01*
X997554Y208203D01*
X997603Y208225D01*
X997655Y208240D01*
X997666Y208253D01*
X997682Y208260D01*
X997712Y208305D01*
X997747Y208345D01*
X997750Y208362D01*
X997759Y208377D01*
X997770Y208450D01*
X997770Y210950D01*
X997766Y210964D01*
X997768Y210976D01*
X997767Y210978D01*
X997768Y210983D01*
X997746Y211033D01*
X997731Y211084D01*
X997718Y211095D01*
X997711Y211111D01*
X997666Y211141D01*
X997626Y211176D01*
X997609Y211179D01*
X997594Y211188D01*
X997521Y211199D01*
X981271Y211199D01*
X981254Y211194D01*
X981237Y211197D01*
X981188Y211175D01*
X981137Y211160D01*
X981125Y211147D01*
X981110Y211140D01*
X981080Y211095D01*
X981045Y211055D01*
X981042Y211038D01*
X981033Y211024D01*
X981022Y210950D01*
X981022Y208450D01*
X981026Y208434D01*
X981024Y208417D01*
X981046Y208367D01*
X981061Y208316D01*
X981074Y208305D01*
X981081Y208289D01*
X981126Y208259D01*
X981166Y208224D01*
X981183Y208221D01*
X981197Y208212D01*
X981271Y208201D01*
X997521Y208201D01*
X997537Y208206D01*
G37*
G36*
X47577Y201706D02*
X47577Y201706D01*
X47594Y201703D01*
X47643Y201725D01*
X47695Y201740D01*
X47706Y201753D01*
X47722Y201760D01*
X47752Y201805D01*
X47787Y201845D01*
X47790Y201862D01*
X47799Y201877D01*
X47810Y201950D01*
X47810Y204450D01*
X47806Y204464D01*
X47808Y204476D01*
X47807Y204478D01*
X47808Y204483D01*
X47786Y204533D01*
X47771Y204584D01*
X47758Y204595D01*
X47751Y204611D01*
X47706Y204641D01*
X47666Y204676D01*
X47649Y204679D01*
X47634Y204688D01*
X47561Y204699D01*
X31311Y204699D01*
X31294Y204694D01*
X31277Y204697D01*
X31228Y204675D01*
X31177Y204660D01*
X31165Y204647D01*
X31150Y204640D01*
X31120Y204595D01*
X31085Y204555D01*
X31082Y204538D01*
X31073Y204524D01*
X31062Y204450D01*
X31062Y201950D01*
X31066Y201934D01*
X31064Y201917D01*
X31086Y201867D01*
X31101Y201816D01*
X31114Y201805D01*
X31121Y201789D01*
X31166Y201759D01*
X31206Y201724D01*
X31223Y201721D01*
X31237Y201712D01*
X31311Y201701D01*
X47561Y201701D01*
X47577Y201706D01*
G37*
G36*
X522557Y201706D02*
X522557Y201706D01*
X522574Y201703D01*
X522623Y201725D01*
X522675Y201740D01*
X522686Y201753D01*
X522702Y201760D01*
X522732Y201805D01*
X522767Y201845D01*
X522770Y201862D01*
X522779Y201877D01*
X522790Y201950D01*
X522790Y204450D01*
X522786Y204464D01*
X522788Y204476D01*
X522787Y204478D01*
X522788Y204483D01*
X522766Y204533D01*
X522751Y204584D01*
X522738Y204595D01*
X522731Y204611D01*
X522686Y204641D01*
X522646Y204676D01*
X522629Y204679D01*
X522614Y204688D01*
X522541Y204699D01*
X506291Y204699D01*
X506274Y204694D01*
X506257Y204697D01*
X506208Y204675D01*
X506157Y204660D01*
X506145Y204647D01*
X506130Y204640D01*
X506100Y204595D01*
X506065Y204555D01*
X506062Y204538D01*
X506053Y204524D01*
X506042Y204450D01*
X506042Y201950D01*
X506046Y201934D01*
X506044Y201917D01*
X506066Y201867D01*
X506081Y201816D01*
X506094Y201805D01*
X506101Y201789D01*
X506146Y201759D01*
X506186Y201724D01*
X506203Y201721D01*
X506217Y201712D01*
X506291Y201701D01*
X522541Y201701D01*
X522557Y201706D01*
G37*
G36*
X997537Y201706D02*
X997537Y201706D01*
X997554Y201703D01*
X997603Y201725D01*
X997655Y201740D01*
X997666Y201753D01*
X997682Y201760D01*
X997712Y201805D01*
X997747Y201845D01*
X997750Y201862D01*
X997759Y201877D01*
X997770Y201950D01*
X997770Y204450D01*
X997766Y204464D01*
X997768Y204476D01*
X997767Y204478D01*
X997768Y204483D01*
X997746Y204533D01*
X997731Y204584D01*
X997718Y204595D01*
X997711Y204611D01*
X997666Y204641D01*
X997626Y204676D01*
X997609Y204679D01*
X997594Y204688D01*
X997521Y204699D01*
X981271Y204699D01*
X981254Y204694D01*
X981237Y204697D01*
X981188Y204675D01*
X981137Y204660D01*
X981125Y204647D01*
X981110Y204640D01*
X981080Y204595D01*
X981045Y204555D01*
X981042Y204538D01*
X981033Y204524D01*
X981022Y204450D01*
X981022Y201950D01*
X981026Y201934D01*
X981024Y201917D01*
X981046Y201867D01*
X981061Y201816D01*
X981074Y201805D01*
X981081Y201789D01*
X981126Y201759D01*
X981166Y201724D01*
X981183Y201721D01*
X981197Y201712D01*
X981271Y201701D01*
X997521Y201701D01*
X997537Y201706D01*
G37*
G36*
X47577Y195206D02*
X47577Y195206D01*
X47594Y195203D01*
X47643Y195225D01*
X47695Y195240D01*
X47706Y195253D01*
X47722Y195260D01*
X47752Y195305D01*
X47787Y195345D01*
X47790Y195362D01*
X47799Y195377D01*
X47810Y195450D01*
X47810Y197950D01*
X47806Y197964D01*
X47808Y197976D01*
X47807Y197978D01*
X47808Y197983D01*
X47786Y198033D01*
X47771Y198084D01*
X47758Y198095D01*
X47751Y198111D01*
X47706Y198141D01*
X47666Y198176D01*
X47649Y198179D01*
X47634Y198188D01*
X47561Y198199D01*
X31311Y198199D01*
X31294Y198194D01*
X31277Y198197D01*
X31228Y198175D01*
X31177Y198160D01*
X31165Y198147D01*
X31150Y198140D01*
X31120Y198095D01*
X31085Y198055D01*
X31082Y198038D01*
X31073Y198024D01*
X31062Y197950D01*
X31062Y195450D01*
X31066Y195434D01*
X31064Y195417D01*
X31086Y195367D01*
X31101Y195316D01*
X31114Y195305D01*
X31121Y195289D01*
X31166Y195259D01*
X31206Y195224D01*
X31223Y195221D01*
X31237Y195212D01*
X31311Y195201D01*
X47561Y195201D01*
X47577Y195206D01*
G37*
G36*
X47577Y208206D02*
X47577Y208206D01*
X47594Y208203D01*
X47643Y208225D01*
X47695Y208240D01*
X47706Y208253D01*
X47722Y208260D01*
X47752Y208305D01*
X47787Y208345D01*
X47790Y208362D01*
X47799Y208377D01*
X47810Y208450D01*
X47810Y210950D01*
X47806Y210964D01*
X47808Y210976D01*
X47807Y210978D01*
X47808Y210983D01*
X47786Y211033D01*
X47771Y211084D01*
X47758Y211095D01*
X47751Y211111D01*
X47706Y211141D01*
X47666Y211176D01*
X47649Y211179D01*
X47634Y211188D01*
X47561Y211199D01*
X31311Y211199D01*
X31294Y211194D01*
X31277Y211197D01*
X31228Y211175D01*
X31177Y211160D01*
X31165Y211147D01*
X31150Y211140D01*
X31120Y211095D01*
X31085Y211055D01*
X31082Y211038D01*
X31073Y211024D01*
X31062Y210950D01*
X31062Y208450D01*
X31066Y208434D01*
X31064Y208417D01*
X31086Y208367D01*
X31101Y208316D01*
X31114Y208305D01*
X31121Y208289D01*
X31166Y208259D01*
X31206Y208224D01*
X31223Y208221D01*
X31237Y208212D01*
X31311Y208201D01*
X47561Y208201D01*
X47577Y208206D01*
G37*
G36*
X997537Y195206D02*
X997537Y195206D01*
X997554Y195203D01*
X997603Y195225D01*
X997655Y195240D01*
X997666Y195253D01*
X997682Y195260D01*
X997712Y195305D01*
X997747Y195345D01*
X997750Y195362D01*
X997759Y195377D01*
X997770Y195450D01*
X997770Y197950D01*
X997766Y197964D01*
X997768Y197976D01*
X997767Y197978D01*
X997768Y197983D01*
X997746Y198033D01*
X997731Y198084D01*
X997718Y198095D01*
X997711Y198111D01*
X997666Y198141D01*
X997626Y198176D01*
X997609Y198179D01*
X997594Y198188D01*
X997521Y198199D01*
X981271Y198199D01*
X981254Y198194D01*
X981237Y198197D01*
X981188Y198175D01*
X981137Y198160D01*
X981125Y198147D01*
X981110Y198140D01*
X981080Y198095D01*
X981045Y198055D01*
X981042Y198038D01*
X981033Y198024D01*
X981022Y197950D01*
X981022Y195450D01*
X981026Y195434D01*
X981024Y195417D01*
X981046Y195367D01*
X981061Y195316D01*
X981074Y195305D01*
X981081Y195289D01*
X981126Y195259D01*
X981166Y195224D01*
X981183Y195221D01*
X981197Y195212D01*
X981271Y195201D01*
X997521Y195201D01*
X997537Y195206D01*
G37*
G36*
X997537Y188706D02*
X997537Y188706D01*
X997554Y188703D01*
X997603Y188725D01*
X997655Y188740D01*
X997666Y188753D01*
X997682Y188760D01*
X997712Y188805D01*
X997747Y188845D01*
X997750Y188862D01*
X997759Y188877D01*
X997770Y188950D01*
X997770Y191450D01*
X997766Y191464D01*
X997768Y191476D01*
X997767Y191478D01*
X997768Y191483D01*
X997746Y191533D01*
X997731Y191584D01*
X997718Y191595D01*
X997711Y191611D01*
X997666Y191641D01*
X997626Y191676D01*
X997609Y191679D01*
X997594Y191688D01*
X997521Y191699D01*
X981271Y191699D01*
X981254Y191694D01*
X981237Y191697D01*
X981188Y191675D01*
X981137Y191660D01*
X981125Y191647D01*
X981110Y191640D01*
X981080Y191595D01*
X981045Y191555D01*
X981042Y191538D01*
X981033Y191524D01*
X981022Y191450D01*
X981022Y188950D01*
X981026Y188934D01*
X981024Y188917D01*
X981046Y188867D01*
X981061Y188816D01*
X981074Y188805D01*
X981081Y188789D01*
X981126Y188759D01*
X981166Y188724D01*
X981183Y188721D01*
X981197Y188712D01*
X981271Y188701D01*
X997521Y188701D01*
X997537Y188706D01*
G37*
G36*
X522557Y188706D02*
X522557Y188706D01*
X522574Y188703D01*
X522623Y188725D01*
X522675Y188740D01*
X522686Y188753D01*
X522702Y188760D01*
X522732Y188805D01*
X522767Y188845D01*
X522770Y188862D01*
X522779Y188877D01*
X522790Y188950D01*
X522790Y191450D01*
X522786Y191464D01*
X522788Y191476D01*
X522787Y191478D01*
X522788Y191483D01*
X522766Y191533D01*
X522751Y191584D01*
X522738Y191595D01*
X522731Y191611D01*
X522686Y191641D01*
X522646Y191676D01*
X522629Y191679D01*
X522614Y191688D01*
X522541Y191699D01*
X506291Y191699D01*
X506274Y191694D01*
X506257Y191697D01*
X506208Y191675D01*
X506157Y191660D01*
X506145Y191647D01*
X506130Y191640D01*
X506100Y191595D01*
X506065Y191555D01*
X506062Y191538D01*
X506053Y191524D01*
X506042Y191450D01*
X506042Y188950D01*
X506046Y188934D01*
X506044Y188917D01*
X506066Y188867D01*
X506081Y188816D01*
X506094Y188805D01*
X506101Y188789D01*
X506146Y188759D01*
X506186Y188724D01*
X506203Y188721D01*
X506217Y188712D01*
X506291Y188701D01*
X522541Y188701D01*
X522557Y188706D01*
G37*
G36*
X47577Y188706D02*
X47577Y188706D01*
X47594Y188703D01*
X47643Y188725D01*
X47695Y188740D01*
X47706Y188753D01*
X47722Y188760D01*
X47752Y188805D01*
X47787Y188845D01*
X47790Y188862D01*
X47799Y188877D01*
X47810Y188950D01*
X47810Y191450D01*
X47806Y191464D01*
X47808Y191476D01*
X47807Y191478D01*
X47808Y191483D01*
X47786Y191533D01*
X47771Y191584D01*
X47758Y191595D01*
X47751Y191611D01*
X47706Y191641D01*
X47666Y191676D01*
X47649Y191679D01*
X47634Y191688D01*
X47561Y191699D01*
X31311Y191699D01*
X31294Y191694D01*
X31277Y191697D01*
X31228Y191675D01*
X31177Y191660D01*
X31165Y191647D01*
X31150Y191640D01*
X31120Y191595D01*
X31085Y191555D01*
X31082Y191538D01*
X31073Y191524D01*
X31062Y191450D01*
X31062Y188950D01*
X31066Y188934D01*
X31064Y188917D01*
X31086Y188867D01*
X31101Y188816D01*
X31114Y188805D01*
X31121Y188789D01*
X31166Y188759D01*
X31206Y188724D01*
X31223Y188721D01*
X31237Y188712D01*
X31311Y188701D01*
X47561Y188701D01*
X47577Y188706D01*
G37*
G36*
X997537Y821466D02*
X997537Y821466D01*
X997554Y821463D01*
X997603Y821485D01*
X997655Y821500D01*
X997666Y821513D01*
X997682Y821520D01*
X997712Y821565D01*
X997747Y821605D01*
X997750Y821622D01*
X997759Y821637D01*
X997770Y821710D01*
X997770Y824210D01*
X997766Y824224D01*
X997768Y824236D01*
X997767Y824238D01*
X997768Y824243D01*
X997746Y824293D01*
X997731Y824344D01*
X997718Y824355D01*
X997711Y824371D01*
X997666Y824401D01*
X997626Y824436D01*
X997609Y824439D01*
X997594Y824448D01*
X997521Y824459D01*
X981271Y824459D01*
X981254Y824454D01*
X981237Y824457D01*
X981188Y824435D01*
X981137Y824420D01*
X981125Y824407D01*
X981110Y824400D01*
X981080Y824355D01*
X981045Y824315D01*
X981042Y824298D01*
X981033Y824284D01*
X981022Y824210D01*
X981022Y821710D01*
X981026Y821694D01*
X981024Y821677D01*
X981046Y821627D01*
X981061Y821576D01*
X981074Y821565D01*
X981081Y821549D01*
X981126Y821519D01*
X981166Y821484D01*
X981183Y821481D01*
X981197Y821472D01*
X981271Y821461D01*
X997521Y821461D01*
X997537Y821466D01*
G37*
G36*
X997537Y814966D02*
X997537Y814966D01*
X997554Y814963D01*
X997603Y814985D01*
X997655Y815000D01*
X997666Y815013D01*
X997682Y815020D01*
X997712Y815065D01*
X997747Y815105D01*
X997750Y815122D01*
X997759Y815137D01*
X997770Y815210D01*
X997770Y817710D01*
X997766Y817724D01*
X997768Y817736D01*
X997767Y817738D01*
X997768Y817743D01*
X997746Y817793D01*
X997731Y817844D01*
X997718Y817855D01*
X997711Y817871D01*
X997666Y817901D01*
X997626Y817936D01*
X997609Y817939D01*
X997594Y817948D01*
X997521Y817959D01*
X981271Y817959D01*
X981254Y817954D01*
X981237Y817957D01*
X981188Y817935D01*
X981137Y817920D01*
X981125Y817907D01*
X981110Y817900D01*
X981080Y817855D01*
X981045Y817815D01*
X981042Y817798D01*
X981033Y817784D01*
X981022Y817710D01*
X981022Y815210D01*
X981026Y815194D01*
X981024Y815177D01*
X981046Y815127D01*
X981061Y815076D01*
X981074Y815065D01*
X981081Y815049D01*
X981126Y815019D01*
X981166Y814984D01*
X981183Y814981D01*
X981197Y814972D01*
X981271Y814961D01*
X997521Y814961D01*
X997537Y814966D01*
G37*
G36*
X522557Y195206D02*
X522557Y195206D01*
X522574Y195203D01*
X522623Y195225D01*
X522675Y195240D01*
X522686Y195253D01*
X522702Y195260D01*
X522732Y195305D01*
X522767Y195345D01*
X522770Y195362D01*
X522779Y195377D01*
X522790Y195450D01*
X522790Y197950D01*
X522786Y197964D01*
X522788Y197976D01*
X522787Y197978D01*
X522788Y197983D01*
X522766Y198033D01*
X522751Y198084D01*
X522738Y198095D01*
X522731Y198111D01*
X522686Y198141D01*
X522646Y198176D01*
X522629Y198179D01*
X522614Y198188D01*
X522541Y198199D01*
X506291Y198199D01*
X506274Y198194D01*
X506257Y198197D01*
X506208Y198175D01*
X506157Y198160D01*
X506145Y198147D01*
X506130Y198140D01*
X506100Y198095D01*
X506065Y198055D01*
X506062Y198038D01*
X506053Y198024D01*
X506042Y197950D01*
X506042Y195450D01*
X506046Y195434D01*
X506044Y195417D01*
X506066Y195367D01*
X506081Y195316D01*
X506094Y195305D01*
X506101Y195289D01*
X506146Y195259D01*
X506186Y195224D01*
X506203Y195221D01*
X506217Y195212D01*
X506291Y195201D01*
X522541Y195201D01*
X522557Y195206D01*
G37*
D10*
X149830Y220980D03*
X177830Y220980D03*
D11*
X91050Y214630D03*
X74050Y214630D03*
X125340Y229870D03*
X108340Y229870D03*
D10*
X87600Y196850D03*
X115600Y196850D03*
D11*
X108340Y214630D03*
X125340Y214630D03*
X167250Y199390D03*
X150250Y199390D03*
D12*
X189040Y79700D02*
X189040Y72700D01*
X182040Y72700D01*
X182040Y79700D01*
X189040Y79700D01*
X189040Y75550D02*
X182040Y75550D01*
X182040Y78400D02*
X189040Y78400D01*
X206580Y79700D02*
X206580Y72700D01*
X199580Y72700D01*
X199580Y79700D01*
X206580Y79700D01*
X206580Y75550D02*
X199580Y75550D01*
X199580Y78400D02*
X206580Y78400D01*
X189040Y120960D02*
X189040Y127960D01*
X189040Y120960D02*
X182040Y120960D01*
X182040Y127960D01*
X189040Y127960D01*
X189040Y123810D02*
X182040Y123810D01*
X182040Y126660D02*
X189040Y126660D01*
X206580Y127960D02*
X206580Y120960D01*
X199580Y120960D01*
X199580Y127960D01*
X206580Y127960D01*
X206580Y123810D02*
X199580Y123810D01*
X199580Y126660D02*
X206580Y126660D01*
X189040Y96210D02*
X189040Y89210D01*
X182040Y89210D01*
X182040Y96210D01*
X189040Y96210D01*
X189040Y92060D02*
X182040Y92060D01*
X182040Y94910D02*
X189040Y94910D01*
X206580Y96210D02*
X206580Y89210D01*
X199580Y89210D01*
X199580Y96210D01*
X206580Y96210D01*
X206580Y92060D02*
X199580Y92060D01*
X199580Y94910D02*
X206580Y94910D01*
D13*
X128300Y76200D03*
X100300Y76200D03*
D14*
X42120Y174200D03*
X42120Y232200D03*
D15*
X12620Y212825D03*
X12620Y193575D03*
D12*
X199580Y111450D02*
X199580Y104450D01*
X199580Y111450D02*
X206580Y111450D01*
X206580Y104450D01*
X199580Y104450D01*
X199580Y107300D02*
X206580Y107300D01*
X206580Y110150D02*
X199580Y110150D01*
X182040Y111450D02*
X182040Y104450D01*
X182040Y111450D02*
X189040Y111450D01*
X189040Y104450D01*
X182040Y104450D01*
X182040Y107300D02*
X189040Y107300D01*
X189040Y110150D02*
X182040Y110150D01*
D11*
X152790Y92710D03*
X169790Y92710D03*
X169790Y107950D03*
X152790Y107950D03*
D16*
X147320Y178680D03*
X147320Y161680D03*
D11*
X74050Y229870D03*
X91050Y229870D03*
X152790Y76200D03*
X169790Y76200D03*
X152790Y124460D03*
X169790Y124460D03*
D17*
X86000Y58140D03*
X71000Y58140D03*
X41000Y58140D03*
D18*
X100000Y30640D03*
D19*
X100000Y51640D03*
D18*
X27000Y30640D03*
D19*
X27000Y51640D03*
D20*
X186991Y161950D03*
X186991Y171450D03*
X186991Y180950D03*
X160989Y180950D03*
X160989Y161950D03*
X106379Y179680D03*
X106379Y170180D03*
X106379Y160680D03*
X132381Y160680D03*
X132381Y179680D03*
D21*
X83000Y264160D03*
X44000Y264160D03*
D22*
X75100Y104300D03*
X75100Y124300D03*
D23*
X23100Y80300D03*
X23100Y148300D03*
D24*
X431720Y123130D03*
X431720Y179130D03*
D25*
X394970Y136130D03*
X394970Y146130D03*
X394970Y156130D03*
X394970Y166130D03*
D11*
X225670Y199390D03*
X208670Y199390D03*
X208670Y214630D03*
X225670Y214630D03*
X208670Y160020D03*
X225670Y160020D03*
D26*
X306270Y213360D03*
X331270Y213360D03*
D16*
X345440Y225670D03*
X345440Y208670D03*
X292100Y225670D03*
X292100Y208670D03*
D11*
X208670Y177800D03*
X225670Y177800D03*
D16*
X247650Y224400D03*
X247650Y207400D03*
D11*
X354194Y109220D03*
X337194Y109220D03*
D16*
X264160Y224400D03*
X264160Y207400D03*
D27*
X367250Y220980D03*
X394750Y220980D03*
D28*
X381000Y236230D03*
X381000Y205730D03*
D29*
X322140Y187670D03*
X317140Y187670D03*
X312140Y187670D03*
X307140Y187670D03*
X302140Y187670D03*
X297140Y187670D03*
X292140Y187670D03*
X287140Y187670D03*
X282140Y187670D03*
X277140Y187670D03*
X272140Y187670D03*
X267140Y187670D03*
D30*
X260640Y181170D03*
X260640Y176170D03*
X260640Y171170D03*
X260640Y166170D03*
X260640Y161170D03*
X260640Y156170D03*
X260640Y151170D03*
X260640Y146170D03*
X260640Y141170D03*
X260640Y136170D03*
X260640Y131170D03*
X260640Y126170D03*
D29*
X267140Y119670D03*
X272140Y119670D03*
X277140Y119670D03*
X282140Y119670D03*
X287140Y119670D03*
X292140Y119670D03*
X297140Y119670D03*
X302140Y119670D03*
X307140Y119670D03*
X312140Y119670D03*
X317140Y119670D03*
X322140Y119670D03*
D30*
X328640Y126170D03*
X328640Y131170D03*
X328640Y136170D03*
X328640Y141170D03*
X328640Y146170D03*
X328640Y151170D03*
X328640Y156170D03*
X328640Y161170D03*
X328640Y166170D03*
X328640Y171170D03*
X328640Y176170D03*
X328640Y181170D03*
D16*
X345440Y186300D03*
X345440Y169300D03*
D12*
X189040Y144470D02*
X189040Y137470D01*
X182040Y137470D01*
X182040Y144470D01*
X189040Y144470D01*
X189040Y140320D02*
X182040Y140320D01*
X182040Y143170D02*
X189040Y143170D01*
X206580Y144470D02*
X206580Y137470D01*
X199580Y137470D01*
X199580Y144470D01*
X206580Y144470D01*
X206580Y140320D02*
X199580Y140320D01*
X199580Y143170D02*
X206580Y143170D01*
D16*
X87630Y162950D03*
X87630Y179950D03*
X350520Y134756D03*
X350520Y151756D03*
D10*
X624810Y220980D03*
X652810Y220980D03*
D11*
X566030Y214630D03*
X549030Y214630D03*
X600320Y229870D03*
X583320Y229870D03*
D10*
X562580Y196850D03*
X590580Y196850D03*
D11*
X583320Y214630D03*
X600320Y214630D03*
X642230Y199390D03*
X625230Y199390D03*
D12*
X664020Y79700D02*
X664020Y72700D01*
X657020Y72700D01*
X657020Y79700D01*
X664020Y79700D01*
X664020Y75550D02*
X657020Y75550D01*
X657020Y78400D02*
X664020Y78400D01*
X681560Y79700D02*
X681560Y72700D01*
X674560Y72700D01*
X674560Y79700D01*
X681560Y79700D01*
X681560Y75550D02*
X674560Y75550D01*
X674560Y78400D02*
X681560Y78400D01*
X664020Y120960D02*
X664020Y127960D01*
X664020Y120960D02*
X657020Y120960D01*
X657020Y127960D01*
X664020Y127960D01*
X664020Y123810D02*
X657020Y123810D01*
X657020Y126660D02*
X664020Y126660D01*
X681560Y127960D02*
X681560Y120960D01*
X674560Y120960D01*
X674560Y127960D01*
X681560Y127960D01*
X681560Y123810D02*
X674560Y123810D01*
X674560Y126660D02*
X681560Y126660D01*
X664020Y96210D02*
X664020Y89210D01*
X657020Y89210D01*
X657020Y96210D01*
X664020Y96210D01*
X664020Y92060D02*
X657020Y92060D01*
X657020Y94910D02*
X664020Y94910D01*
X681560Y96210D02*
X681560Y89210D01*
X674560Y89210D01*
X674560Y96210D01*
X681560Y96210D01*
X681560Y92060D02*
X674560Y92060D01*
X674560Y94910D02*
X681560Y94910D01*
D13*
X603280Y76200D03*
X575280Y76200D03*
D14*
X517100Y174200D03*
X517100Y232200D03*
D15*
X487600Y212825D03*
X487600Y193575D03*
D12*
X674560Y111450D02*
X674560Y104450D01*
X674560Y111450D02*
X681560Y111450D01*
X681560Y104450D01*
X674560Y104450D01*
X674560Y107300D02*
X681560Y107300D01*
X681560Y110150D02*
X674560Y110150D01*
X657020Y111450D02*
X657020Y104450D01*
X657020Y111450D02*
X664020Y111450D01*
X664020Y104450D01*
X657020Y104450D01*
X657020Y107300D02*
X664020Y107300D01*
X664020Y110150D02*
X657020Y110150D01*
D11*
X627770Y92710D03*
X644770Y92710D03*
X644770Y107950D03*
X627770Y107950D03*
D16*
X622300Y178680D03*
X622300Y161680D03*
D11*
X549030Y229870D03*
X566030Y229870D03*
X627770Y76200D03*
X644770Y76200D03*
X627770Y124460D03*
X644770Y124460D03*
D17*
X560980Y58140D03*
X545980Y58140D03*
X515980Y58140D03*
D18*
X574980Y30640D03*
D19*
X574980Y51640D03*
D18*
X501980Y30640D03*
D19*
X501980Y51640D03*
D20*
X661971Y161950D03*
X661971Y171450D03*
X661971Y180950D03*
X635969Y180950D03*
X635969Y161950D03*
X581359Y179680D03*
X581359Y170180D03*
X581359Y160680D03*
X607361Y160680D03*
X607361Y179680D03*
D21*
X557980Y264160D03*
X518980Y264160D03*
D22*
X550080Y104300D03*
X550080Y124300D03*
D23*
X498080Y80300D03*
X498080Y148300D03*
D24*
X906700Y123130D03*
X906700Y179130D03*
D25*
X869950Y136130D03*
X869950Y146130D03*
X869950Y156130D03*
X869950Y166130D03*
D11*
X700650Y199390D03*
X683650Y199390D03*
X683650Y214630D03*
X700650Y214630D03*
X683650Y160020D03*
X700650Y160020D03*
D26*
X781250Y213360D03*
X806250Y213360D03*
D16*
X820420Y225670D03*
X820420Y208670D03*
X767080Y225670D03*
X767080Y208670D03*
D11*
X683650Y177800D03*
X700650Y177800D03*
D16*
X722630Y224400D03*
X722630Y207400D03*
D11*
X829174Y109220D03*
X812174Y109220D03*
D16*
X739140Y224400D03*
X739140Y207400D03*
D27*
X842230Y220980D03*
X869730Y220980D03*
D28*
X855980Y236230D03*
X855980Y205730D03*
D29*
X797120Y187670D03*
X792120Y187670D03*
X787120Y187670D03*
X782120Y187670D03*
X777120Y187670D03*
X772120Y187670D03*
X767120Y187670D03*
X762120Y187670D03*
X757120Y187670D03*
X752120Y187670D03*
X747120Y187670D03*
X742120Y187670D03*
D30*
X735620Y181170D03*
X735620Y176170D03*
X735620Y171170D03*
X735620Y166170D03*
X735620Y161170D03*
X735620Y156170D03*
X735620Y151170D03*
X735620Y146170D03*
X735620Y141170D03*
X735620Y136170D03*
X735620Y131170D03*
X735620Y126170D03*
D29*
X742120Y119670D03*
X747120Y119670D03*
X752120Y119670D03*
X757120Y119670D03*
X762120Y119670D03*
X767120Y119670D03*
X772120Y119670D03*
X777120Y119670D03*
X782120Y119670D03*
X787120Y119670D03*
X792120Y119670D03*
X797120Y119670D03*
D30*
X803620Y126170D03*
X803620Y131170D03*
X803620Y136170D03*
X803620Y141170D03*
X803620Y146170D03*
X803620Y151170D03*
X803620Y156170D03*
X803620Y161170D03*
X803620Y166170D03*
X803620Y171170D03*
X803620Y176170D03*
X803620Y181170D03*
D16*
X820420Y186300D03*
X820420Y169300D03*
D12*
X664020Y144470D02*
X664020Y137470D01*
X657020Y137470D01*
X657020Y144470D01*
X664020Y144470D01*
X664020Y140320D02*
X657020Y140320D01*
X657020Y143170D02*
X664020Y143170D01*
X681560Y144470D02*
X681560Y137470D01*
X674560Y137470D01*
X674560Y144470D01*
X681560Y144470D01*
X681560Y140320D02*
X674560Y140320D01*
X674560Y143170D02*
X681560Y143170D01*
D16*
X562610Y162950D03*
X562610Y179950D03*
X825500Y134756D03*
X825500Y151756D03*
D10*
X1099790Y220980D03*
X1127790Y220980D03*
D11*
X1041010Y214630D03*
X1024010Y214630D03*
X1075300Y229870D03*
X1058300Y229870D03*
D10*
X1037560Y196850D03*
X1065560Y196850D03*
D11*
X1058300Y214630D03*
X1075300Y214630D03*
X1117210Y199390D03*
X1100210Y199390D03*
D12*
X1139000Y79700D02*
X1139000Y72700D01*
X1132000Y72700D01*
X1132000Y79700D01*
X1139000Y79700D01*
X1139000Y75550D02*
X1132000Y75550D01*
X1132000Y78400D02*
X1139000Y78400D01*
X1156540Y79700D02*
X1156540Y72700D01*
X1149540Y72700D01*
X1149540Y79700D01*
X1156540Y79700D01*
X1156540Y75550D02*
X1149540Y75550D01*
X1149540Y78400D02*
X1156540Y78400D01*
X1139000Y120960D02*
X1139000Y127960D01*
X1139000Y120960D02*
X1132000Y120960D01*
X1132000Y127960D01*
X1139000Y127960D01*
X1139000Y123810D02*
X1132000Y123810D01*
X1132000Y126660D02*
X1139000Y126660D01*
X1156540Y127960D02*
X1156540Y120960D01*
X1149540Y120960D01*
X1149540Y127960D01*
X1156540Y127960D01*
X1156540Y123810D02*
X1149540Y123810D01*
X1149540Y126660D02*
X1156540Y126660D01*
X1139000Y96210D02*
X1139000Y89210D01*
X1132000Y89210D01*
X1132000Y96210D01*
X1139000Y96210D01*
X1139000Y92060D02*
X1132000Y92060D01*
X1132000Y94910D02*
X1139000Y94910D01*
X1156540Y96210D02*
X1156540Y89210D01*
X1149540Y89210D01*
X1149540Y96210D01*
X1156540Y96210D01*
X1156540Y92060D02*
X1149540Y92060D01*
X1149540Y94910D02*
X1156540Y94910D01*
D13*
X1078260Y76200D03*
X1050260Y76200D03*
D14*
X992080Y174200D03*
X992080Y232200D03*
D15*
X962580Y212825D03*
X962580Y193575D03*
D12*
X1149540Y111450D02*
X1149540Y104450D01*
X1149540Y111450D02*
X1156540Y111450D01*
X1156540Y104450D01*
X1149540Y104450D01*
X1149540Y107300D02*
X1156540Y107300D01*
X1156540Y110150D02*
X1149540Y110150D01*
X1132000Y111450D02*
X1132000Y104450D01*
X1132000Y111450D02*
X1139000Y111450D01*
X1139000Y104450D01*
X1132000Y104450D01*
X1132000Y107300D02*
X1139000Y107300D01*
X1139000Y110150D02*
X1132000Y110150D01*
D11*
X1102750Y92710D03*
X1119750Y92710D03*
X1119750Y107950D03*
X1102750Y107950D03*
D16*
X1097280Y178680D03*
X1097280Y161680D03*
D11*
X1024010Y229870D03*
X1041010Y229870D03*
X1102750Y76200D03*
X1119750Y76200D03*
X1102750Y124460D03*
X1119750Y124460D03*
D17*
X1035960Y58140D03*
X1020960Y58140D03*
X990960Y58140D03*
D18*
X1049960Y30640D03*
D19*
X1049960Y51640D03*
D18*
X976960Y30640D03*
D19*
X976960Y51640D03*
D20*
X1136951Y161950D03*
X1136951Y171450D03*
X1136951Y180950D03*
X1110949Y180950D03*
X1110949Y161950D03*
X1056339Y179680D03*
X1056339Y170180D03*
X1056339Y160680D03*
X1082341Y160680D03*
X1082341Y179680D03*
D21*
X1032960Y264160D03*
X993960Y264160D03*
D22*
X1025060Y104300D03*
X1025060Y124300D03*
D23*
X973060Y80300D03*
X973060Y148300D03*
D24*
X1381680Y123130D03*
X1381680Y179130D03*
D25*
X1344930Y136130D03*
X1344930Y146130D03*
X1344930Y156130D03*
X1344930Y166130D03*
D11*
X1175630Y199390D03*
X1158630Y199390D03*
X1158630Y214630D03*
X1175630Y214630D03*
X1158630Y160020D03*
X1175630Y160020D03*
D26*
X1256230Y213360D03*
X1281230Y213360D03*
D16*
X1295400Y225670D03*
X1295400Y208670D03*
X1242060Y225670D03*
X1242060Y208670D03*
D11*
X1158630Y177800D03*
X1175630Y177800D03*
D16*
X1197610Y224400D03*
X1197610Y207400D03*
D11*
X1304154Y109220D03*
X1287154Y109220D03*
D16*
X1214120Y224400D03*
X1214120Y207400D03*
D27*
X1317210Y220980D03*
X1344710Y220980D03*
D28*
X1330960Y236230D03*
X1330960Y205730D03*
D29*
X1272100Y187670D03*
X1267100Y187670D03*
X1262100Y187670D03*
X1257100Y187670D03*
X1252100Y187670D03*
X1247100Y187670D03*
X1242100Y187670D03*
X1237100Y187670D03*
X1232100Y187670D03*
X1227100Y187670D03*
X1222100Y187670D03*
X1217100Y187670D03*
D30*
X1210600Y181170D03*
X1210600Y176170D03*
X1210600Y171170D03*
X1210600Y166170D03*
X1210600Y161170D03*
X1210600Y156170D03*
X1210600Y151170D03*
X1210600Y146170D03*
X1210600Y141170D03*
X1210600Y136170D03*
X1210600Y131170D03*
X1210600Y126170D03*
D29*
X1217100Y119670D03*
X1222100Y119670D03*
X1227100Y119670D03*
X1232100Y119670D03*
X1237100Y119670D03*
X1242100Y119670D03*
X1247100Y119670D03*
X1252100Y119670D03*
X1257100Y119670D03*
X1262100Y119670D03*
X1267100Y119670D03*
X1272100Y119670D03*
D30*
X1278600Y126170D03*
X1278600Y131170D03*
X1278600Y136170D03*
X1278600Y141170D03*
X1278600Y146170D03*
X1278600Y151170D03*
X1278600Y156170D03*
X1278600Y161170D03*
X1278600Y166170D03*
X1278600Y171170D03*
X1278600Y176170D03*
X1278600Y181170D03*
D16*
X1295400Y186300D03*
X1295400Y169300D03*
D12*
X1139000Y144470D02*
X1139000Y137470D01*
X1132000Y137470D01*
X1132000Y144470D01*
X1139000Y144470D01*
X1139000Y140320D02*
X1132000Y140320D01*
X1132000Y143170D02*
X1139000Y143170D01*
X1156540Y144470D02*
X1156540Y137470D01*
X1149540Y137470D01*
X1149540Y144470D01*
X1156540Y144470D01*
X1156540Y140320D02*
X1149540Y140320D01*
X1149540Y143170D02*
X1156540Y143170D01*
D16*
X1037590Y162950D03*
X1037590Y179950D03*
X1300480Y134756D03*
X1300480Y151756D03*
D10*
X149830Y530860D03*
X177830Y530860D03*
D11*
X91050Y524510D03*
X74050Y524510D03*
X125340Y539750D03*
X108340Y539750D03*
D10*
X87600Y506730D03*
X115600Y506730D03*
D11*
X108340Y524510D03*
X125340Y524510D03*
X167250Y509270D03*
X150250Y509270D03*
D12*
X189040Y389580D02*
X189040Y382580D01*
X182040Y382580D01*
X182040Y389580D01*
X189040Y389580D01*
X189040Y385430D02*
X182040Y385430D01*
X182040Y388280D02*
X189040Y388280D01*
X206580Y389580D02*
X206580Y382580D01*
X199580Y382580D01*
X199580Y389580D01*
X206580Y389580D01*
X206580Y385430D02*
X199580Y385430D01*
X199580Y388280D02*
X206580Y388280D01*
X189040Y430840D02*
X189040Y437840D01*
X189040Y430840D02*
X182040Y430840D01*
X182040Y437840D01*
X189040Y437840D01*
X189040Y433690D02*
X182040Y433690D01*
X182040Y436540D02*
X189040Y436540D01*
X206580Y437840D02*
X206580Y430840D01*
X199580Y430840D01*
X199580Y437840D01*
X206580Y437840D01*
X206580Y433690D02*
X199580Y433690D01*
X199580Y436540D02*
X206580Y436540D01*
X189040Y406090D02*
X189040Y399090D01*
X182040Y399090D01*
X182040Y406090D01*
X189040Y406090D01*
X189040Y401940D02*
X182040Y401940D01*
X182040Y404790D02*
X189040Y404790D01*
X206580Y406090D02*
X206580Y399090D01*
X199580Y399090D01*
X199580Y406090D01*
X206580Y406090D01*
X206580Y401940D02*
X199580Y401940D01*
X199580Y404790D02*
X206580Y404790D01*
D13*
X128300Y386080D03*
X100300Y386080D03*
D14*
X42120Y484080D03*
X42120Y542080D03*
D15*
X12620Y522705D03*
X12620Y503455D03*
D12*
X199580Y421330D02*
X199580Y414330D01*
X199580Y421330D02*
X206580Y421330D01*
X206580Y414330D01*
X199580Y414330D01*
X199580Y417180D02*
X206580Y417180D01*
X206580Y420030D02*
X199580Y420030D01*
X182040Y421330D02*
X182040Y414330D01*
X182040Y421330D02*
X189040Y421330D01*
X189040Y414330D01*
X182040Y414330D01*
X182040Y417180D02*
X189040Y417180D01*
X189040Y420030D02*
X182040Y420030D01*
D11*
X152790Y402590D03*
X169790Y402590D03*
X169790Y417830D03*
X152790Y417830D03*
D16*
X147320Y488560D03*
X147320Y471560D03*
D11*
X74050Y539750D03*
X91050Y539750D03*
X152790Y386080D03*
X169790Y386080D03*
X152790Y434340D03*
X169790Y434340D03*
D17*
X86000Y368020D03*
X71000Y368020D03*
X41000Y368020D03*
D18*
X100000Y340520D03*
D19*
X100000Y361520D03*
D18*
X27000Y340520D03*
D19*
X27000Y361520D03*
D20*
X186991Y471830D03*
X186991Y481330D03*
X186991Y490830D03*
X160989Y490830D03*
X160989Y471830D03*
X106379Y489560D03*
X106379Y480060D03*
X106379Y470560D03*
X132381Y470560D03*
X132381Y489560D03*
D21*
X83000Y574040D03*
X44000Y574040D03*
D22*
X75100Y414180D03*
X75100Y434180D03*
D23*
X23100Y390180D03*
X23100Y458180D03*
D24*
X431720Y433010D03*
X431720Y489010D03*
D25*
X394970Y446010D03*
X394970Y456010D03*
X394970Y466010D03*
X394970Y476010D03*
D11*
X225670Y509270D03*
X208670Y509270D03*
X208670Y524510D03*
X225670Y524510D03*
X208670Y469900D03*
X225670Y469900D03*
D26*
X306270Y523240D03*
X331270Y523240D03*
D16*
X345440Y535550D03*
X345440Y518550D03*
X292100Y535550D03*
X292100Y518550D03*
D11*
X208670Y487680D03*
X225670Y487680D03*
D16*
X247650Y534280D03*
X247650Y517280D03*
D11*
X354194Y419100D03*
X337194Y419100D03*
D16*
X264160Y534280D03*
X264160Y517280D03*
D27*
X367250Y530860D03*
X394750Y530860D03*
D28*
X381000Y546110D03*
X381000Y515610D03*
D29*
X322140Y497550D03*
X317140Y497550D03*
X312140Y497550D03*
X307140Y497550D03*
X302140Y497550D03*
X297140Y497550D03*
X292140Y497550D03*
X287140Y497550D03*
X282140Y497550D03*
X277140Y497550D03*
X272140Y497550D03*
X267140Y497550D03*
D30*
X260640Y491050D03*
X260640Y486050D03*
X260640Y481050D03*
X260640Y476050D03*
X260640Y471050D03*
X260640Y466050D03*
X260640Y461050D03*
X260640Y456050D03*
X260640Y451050D03*
X260640Y446050D03*
X260640Y441050D03*
X260640Y436050D03*
D29*
X267140Y429550D03*
X272140Y429550D03*
X277140Y429550D03*
X282140Y429550D03*
X287140Y429550D03*
X292140Y429550D03*
X297140Y429550D03*
X302140Y429550D03*
X307140Y429550D03*
X312140Y429550D03*
X317140Y429550D03*
X322140Y429550D03*
D30*
X328640Y436050D03*
X328640Y441050D03*
X328640Y446050D03*
X328640Y451050D03*
X328640Y456050D03*
X328640Y461050D03*
X328640Y466050D03*
X328640Y471050D03*
X328640Y476050D03*
X328640Y481050D03*
X328640Y486050D03*
X328640Y491050D03*
D16*
X345440Y496180D03*
X345440Y479180D03*
D12*
X189040Y454350D02*
X189040Y447350D01*
X182040Y447350D01*
X182040Y454350D01*
X189040Y454350D01*
X189040Y450200D02*
X182040Y450200D01*
X182040Y453050D02*
X189040Y453050D01*
X206580Y454350D02*
X206580Y447350D01*
X199580Y447350D01*
X199580Y454350D01*
X206580Y454350D01*
X206580Y450200D02*
X199580Y450200D01*
X199580Y453050D02*
X206580Y453050D01*
D16*
X87630Y472830D03*
X87630Y489830D03*
X350520Y444636D03*
X350520Y461636D03*
D10*
X624810Y530860D03*
X652810Y530860D03*
D11*
X566030Y524510D03*
X549030Y524510D03*
X600320Y539750D03*
X583320Y539750D03*
D10*
X562580Y506730D03*
X590580Y506730D03*
D11*
X583320Y524510D03*
X600320Y524510D03*
X642230Y509270D03*
X625230Y509270D03*
D12*
X664020Y389580D02*
X664020Y382580D01*
X657020Y382580D01*
X657020Y389580D01*
X664020Y389580D01*
X664020Y385430D02*
X657020Y385430D01*
X657020Y388280D02*
X664020Y388280D01*
X681560Y389580D02*
X681560Y382580D01*
X674560Y382580D01*
X674560Y389580D01*
X681560Y389580D01*
X681560Y385430D02*
X674560Y385430D01*
X674560Y388280D02*
X681560Y388280D01*
X664020Y430840D02*
X664020Y437840D01*
X664020Y430840D02*
X657020Y430840D01*
X657020Y437840D01*
X664020Y437840D01*
X664020Y433690D02*
X657020Y433690D01*
X657020Y436540D02*
X664020Y436540D01*
X681560Y437840D02*
X681560Y430840D01*
X674560Y430840D01*
X674560Y437840D01*
X681560Y437840D01*
X681560Y433690D02*
X674560Y433690D01*
X674560Y436540D02*
X681560Y436540D01*
X664020Y406090D02*
X664020Y399090D01*
X657020Y399090D01*
X657020Y406090D01*
X664020Y406090D01*
X664020Y401940D02*
X657020Y401940D01*
X657020Y404790D02*
X664020Y404790D01*
X681560Y406090D02*
X681560Y399090D01*
X674560Y399090D01*
X674560Y406090D01*
X681560Y406090D01*
X681560Y401940D02*
X674560Y401940D01*
X674560Y404790D02*
X681560Y404790D01*
D13*
X603280Y386080D03*
X575280Y386080D03*
D14*
X517100Y484080D03*
X517100Y542080D03*
D15*
X487600Y522705D03*
X487600Y503455D03*
D12*
X674560Y421330D02*
X674560Y414330D01*
X674560Y421330D02*
X681560Y421330D01*
X681560Y414330D01*
X674560Y414330D01*
X674560Y417180D02*
X681560Y417180D01*
X681560Y420030D02*
X674560Y420030D01*
X657020Y421330D02*
X657020Y414330D01*
X657020Y421330D02*
X664020Y421330D01*
X664020Y414330D01*
X657020Y414330D01*
X657020Y417180D02*
X664020Y417180D01*
X664020Y420030D02*
X657020Y420030D01*
D11*
X627770Y402590D03*
X644770Y402590D03*
X644770Y417830D03*
X627770Y417830D03*
D16*
X622300Y488560D03*
X622300Y471560D03*
D11*
X549030Y539750D03*
X566030Y539750D03*
X627770Y386080D03*
X644770Y386080D03*
X627770Y434340D03*
X644770Y434340D03*
D17*
X560980Y368020D03*
X545980Y368020D03*
X515980Y368020D03*
D18*
X574980Y340520D03*
D19*
X574980Y361520D03*
D18*
X501980Y340520D03*
D19*
X501980Y361520D03*
D20*
X661971Y471830D03*
X661971Y481330D03*
X661971Y490830D03*
X635969Y490830D03*
X635969Y471830D03*
X581359Y489560D03*
X581359Y480060D03*
X581359Y470560D03*
X607361Y470560D03*
X607361Y489560D03*
D21*
X557980Y574040D03*
X518980Y574040D03*
D22*
X550080Y414180D03*
X550080Y434180D03*
D23*
X498080Y390180D03*
X498080Y458180D03*
D24*
X906700Y433010D03*
X906700Y489010D03*
D25*
X869950Y446010D03*
X869950Y456010D03*
X869950Y466010D03*
X869950Y476010D03*
D11*
X700650Y509270D03*
X683650Y509270D03*
X683650Y524510D03*
X700650Y524510D03*
X683650Y469900D03*
X700650Y469900D03*
D26*
X781250Y523240D03*
X806250Y523240D03*
D16*
X820420Y535550D03*
X820420Y518550D03*
X767080Y535550D03*
X767080Y518550D03*
D11*
X683650Y487680D03*
X700650Y487680D03*
D16*
X722630Y534280D03*
X722630Y517280D03*
D11*
X829174Y419100D03*
X812174Y419100D03*
D16*
X739140Y534280D03*
X739140Y517280D03*
D27*
X842230Y530860D03*
X869730Y530860D03*
D28*
X855980Y546110D03*
X855980Y515610D03*
D29*
X797120Y497550D03*
X792120Y497550D03*
X787120Y497550D03*
X782120Y497550D03*
X777120Y497550D03*
X772120Y497550D03*
X767120Y497550D03*
X762120Y497550D03*
X757120Y497550D03*
X752120Y497550D03*
X747120Y497550D03*
X742120Y497550D03*
D30*
X735620Y491050D03*
X735620Y486050D03*
X735620Y481050D03*
X735620Y476050D03*
X735620Y471050D03*
X735620Y466050D03*
X735620Y461050D03*
X735620Y456050D03*
X735620Y451050D03*
X735620Y446050D03*
X735620Y441050D03*
X735620Y436050D03*
D29*
X742120Y429550D03*
X747120Y429550D03*
X752120Y429550D03*
X757120Y429550D03*
X762120Y429550D03*
X767120Y429550D03*
X772120Y429550D03*
X777120Y429550D03*
X782120Y429550D03*
X787120Y429550D03*
X792120Y429550D03*
X797120Y429550D03*
D30*
X803620Y436050D03*
X803620Y441050D03*
X803620Y446050D03*
X803620Y451050D03*
X803620Y456050D03*
X803620Y461050D03*
X803620Y466050D03*
X803620Y471050D03*
X803620Y476050D03*
X803620Y481050D03*
X803620Y486050D03*
X803620Y491050D03*
D16*
X820420Y496180D03*
X820420Y479180D03*
D12*
X664020Y454350D02*
X664020Y447350D01*
X657020Y447350D01*
X657020Y454350D01*
X664020Y454350D01*
X664020Y450200D02*
X657020Y450200D01*
X657020Y453050D02*
X664020Y453050D01*
X681560Y454350D02*
X681560Y447350D01*
X674560Y447350D01*
X674560Y454350D01*
X681560Y454350D01*
X681560Y450200D02*
X674560Y450200D01*
X674560Y453050D02*
X681560Y453050D01*
D16*
X562610Y472830D03*
X562610Y489830D03*
X825500Y444636D03*
X825500Y461636D03*
D10*
X1099790Y530860D03*
X1127790Y530860D03*
D11*
X1041010Y524510D03*
X1024010Y524510D03*
X1075300Y539750D03*
X1058300Y539750D03*
D10*
X1037560Y506730D03*
X1065560Y506730D03*
D11*
X1058300Y524510D03*
X1075300Y524510D03*
X1117210Y509270D03*
X1100210Y509270D03*
D12*
X1139000Y389580D02*
X1139000Y382580D01*
X1132000Y382580D01*
X1132000Y389580D01*
X1139000Y389580D01*
X1139000Y385430D02*
X1132000Y385430D01*
X1132000Y388280D02*
X1139000Y388280D01*
X1156540Y389580D02*
X1156540Y382580D01*
X1149540Y382580D01*
X1149540Y389580D01*
X1156540Y389580D01*
X1156540Y385430D02*
X1149540Y385430D01*
X1149540Y388280D02*
X1156540Y388280D01*
X1139000Y430840D02*
X1139000Y437840D01*
X1139000Y430840D02*
X1132000Y430840D01*
X1132000Y437840D01*
X1139000Y437840D01*
X1139000Y433690D02*
X1132000Y433690D01*
X1132000Y436540D02*
X1139000Y436540D01*
X1156540Y437840D02*
X1156540Y430840D01*
X1149540Y430840D01*
X1149540Y437840D01*
X1156540Y437840D01*
X1156540Y433690D02*
X1149540Y433690D01*
X1149540Y436540D02*
X1156540Y436540D01*
X1139000Y406090D02*
X1139000Y399090D01*
X1132000Y399090D01*
X1132000Y406090D01*
X1139000Y406090D01*
X1139000Y401940D02*
X1132000Y401940D01*
X1132000Y404790D02*
X1139000Y404790D01*
X1156540Y406090D02*
X1156540Y399090D01*
X1149540Y399090D01*
X1149540Y406090D01*
X1156540Y406090D01*
X1156540Y401940D02*
X1149540Y401940D01*
X1149540Y404790D02*
X1156540Y404790D01*
D13*
X1078260Y386080D03*
X1050260Y386080D03*
D14*
X992080Y484080D03*
X992080Y542080D03*
D15*
X962580Y522705D03*
X962580Y503455D03*
D12*
X1149540Y421330D02*
X1149540Y414330D01*
X1149540Y421330D02*
X1156540Y421330D01*
X1156540Y414330D01*
X1149540Y414330D01*
X1149540Y417180D02*
X1156540Y417180D01*
X1156540Y420030D02*
X1149540Y420030D01*
X1132000Y421330D02*
X1132000Y414330D01*
X1132000Y421330D02*
X1139000Y421330D01*
X1139000Y414330D01*
X1132000Y414330D01*
X1132000Y417180D02*
X1139000Y417180D01*
X1139000Y420030D02*
X1132000Y420030D01*
D11*
X1102750Y402590D03*
X1119750Y402590D03*
X1119750Y417830D03*
X1102750Y417830D03*
D16*
X1097280Y488560D03*
X1097280Y471560D03*
D11*
X1024010Y539750D03*
X1041010Y539750D03*
X1102750Y386080D03*
X1119750Y386080D03*
X1102750Y434340D03*
X1119750Y434340D03*
D17*
X1035960Y368020D03*
X1020960Y368020D03*
X990960Y368020D03*
D18*
X1049960Y340520D03*
D19*
X1049960Y361520D03*
D18*
X976960Y340520D03*
D19*
X976960Y361520D03*
D20*
X1136951Y471830D03*
X1136951Y481330D03*
X1136951Y490830D03*
X1110949Y490830D03*
X1110949Y471830D03*
X1056339Y489560D03*
X1056339Y480060D03*
X1056339Y470560D03*
X1082341Y470560D03*
X1082341Y489560D03*
D21*
X1032960Y574040D03*
X993960Y574040D03*
D22*
X1025060Y414180D03*
X1025060Y434180D03*
D23*
X973060Y390180D03*
X973060Y458180D03*
D24*
X1381680Y433010D03*
X1381680Y489010D03*
D25*
X1344930Y446010D03*
X1344930Y456010D03*
X1344930Y466010D03*
X1344930Y476010D03*
D11*
X1175630Y509270D03*
X1158630Y509270D03*
X1158630Y524510D03*
X1175630Y524510D03*
X1158630Y469900D03*
X1175630Y469900D03*
D26*
X1256230Y523240D03*
X1281230Y523240D03*
D16*
X1295400Y535550D03*
X1295400Y518550D03*
X1242060Y535550D03*
X1242060Y518550D03*
D11*
X1158630Y487680D03*
X1175630Y487680D03*
D16*
X1197610Y534280D03*
X1197610Y517280D03*
D11*
X1304154Y419100D03*
X1287154Y419100D03*
D16*
X1214120Y534280D03*
X1214120Y517280D03*
D27*
X1317210Y530860D03*
X1344710Y530860D03*
D28*
X1330960Y546110D03*
X1330960Y515610D03*
D29*
X1272100Y497550D03*
X1267100Y497550D03*
X1262100Y497550D03*
X1257100Y497550D03*
X1252100Y497550D03*
X1247100Y497550D03*
X1242100Y497550D03*
X1237100Y497550D03*
X1232100Y497550D03*
X1227100Y497550D03*
X1222100Y497550D03*
X1217100Y497550D03*
D30*
X1210600Y491050D03*
X1210600Y486050D03*
X1210600Y481050D03*
X1210600Y476050D03*
X1210600Y471050D03*
X1210600Y466050D03*
X1210600Y461050D03*
X1210600Y456050D03*
X1210600Y451050D03*
X1210600Y446050D03*
X1210600Y441050D03*
X1210600Y436050D03*
D29*
X1217100Y429550D03*
X1222100Y429550D03*
X1227100Y429550D03*
X1232100Y429550D03*
X1237100Y429550D03*
X1242100Y429550D03*
X1247100Y429550D03*
X1252100Y429550D03*
X1257100Y429550D03*
X1262100Y429550D03*
X1267100Y429550D03*
X1272100Y429550D03*
D30*
X1278600Y436050D03*
X1278600Y441050D03*
X1278600Y446050D03*
X1278600Y451050D03*
X1278600Y456050D03*
X1278600Y461050D03*
X1278600Y466050D03*
X1278600Y471050D03*
X1278600Y476050D03*
X1278600Y481050D03*
X1278600Y486050D03*
X1278600Y491050D03*
D16*
X1295400Y496180D03*
X1295400Y479180D03*
D12*
X1139000Y454350D02*
X1139000Y447350D01*
X1132000Y447350D01*
X1132000Y454350D01*
X1139000Y454350D01*
X1139000Y450200D02*
X1132000Y450200D01*
X1132000Y453050D02*
X1139000Y453050D01*
X1156540Y454350D02*
X1156540Y447350D01*
X1149540Y447350D01*
X1149540Y454350D01*
X1156540Y454350D01*
X1156540Y450200D02*
X1149540Y450200D01*
X1149540Y453050D02*
X1156540Y453050D01*
D16*
X1037590Y472830D03*
X1037590Y489830D03*
X1300480Y444636D03*
X1300480Y461636D03*
D10*
X149830Y840740D03*
X177830Y840740D03*
D11*
X91050Y834390D03*
X74050Y834390D03*
X125340Y849630D03*
X108340Y849630D03*
D10*
X87600Y816610D03*
X115600Y816610D03*
D11*
X108340Y834390D03*
X125340Y834390D03*
X167250Y819150D03*
X150250Y819150D03*
D12*
X189040Y699460D02*
X189040Y692460D01*
X182040Y692460D01*
X182040Y699460D01*
X189040Y699460D01*
X189040Y695310D02*
X182040Y695310D01*
X182040Y698160D02*
X189040Y698160D01*
X206580Y699460D02*
X206580Y692460D01*
X199580Y692460D01*
X199580Y699460D01*
X206580Y699460D01*
X206580Y695310D02*
X199580Y695310D01*
X199580Y698160D02*
X206580Y698160D01*
X189040Y740720D02*
X189040Y747720D01*
X189040Y740720D02*
X182040Y740720D01*
X182040Y747720D01*
X189040Y747720D01*
X189040Y743570D02*
X182040Y743570D01*
X182040Y746420D02*
X189040Y746420D01*
X206580Y747720D02*
X206580Y740720D01*
X199580Y740720D01*
X199580Y747720D01*
X206580Y747720D01*
X206580Y743570D02*
X199580Y743570D01*
X199580Y746420D02*
X206580Y746420D01*
X189040Y715970D02*
X189040Y708970D01*
X182040Y708970D01*
X182040Y715970D01*
X189040Y715970D01*
X189040Y711820D02*
X182040Y711820D01*
X182040Y714670D02*
X189040Y714670D01*
X206580Y715970D02*
X206580Y708970D01*
X199580Y708970D01*
X199580Y715970D01*
X206580Y715970D01*
X206580Y711820D02*
X199580Y711820D01*
X199580Y714670D02*
X206580Y714670D01*
D13*
X128300Y695960D03*
X100300Y695960D03*
D14*
X42120Y793960D03*
X42120Y851960D03*
D15*
X12620Y832585D03*
X12620Y813335D03*
D12*
X199580Y731210D02*
X199580Y724210D01*
X199580Y731210D02*
X206580Y731210D01*
X206580Y724210D01*
X199580Y724210D01*
X199580Y727060D02*
X206580Y727060D01*
X206580Y729910D02*
X199580Y729910D01*
X182040Y731210D02*
X182040Y724210D01*
X182040Y731210D02*
X189040Y731210D01*
X189040Y724210D01*
X182040Y724210D01*
X182040Y727060D02*
X189040Y727060D01*
X189040Y729910D02*
X182040Y729910D01*
D11*
X152790Y712470D03*
X169790Y712470D03*
X169790Y727710D03*
X152790Y727710D03*
D16*
X147320Y798440D03*
X147320Y781440D03*
D11*
X74050Y849630D03*
X91050Y849630D03*
X152790Y695960D03*
X169790Y695960D03*
X152790Y744220D03*
X169790Y744220D03*
D17*
X86000Y677900D03*
X71000Y677900D03*
X41000Y677900D03*
D18*
X100000Y650400D03*
D19*
X100000Y671400D03*
D18*
X27000Y650400D03*
D19*
X27000Y671400D03*
D20*
X186991Y781710D03*
X186991Y791210D03*
X186991Y800710D03*
X160989Y800710D03*
X160989Y781710D03*
X106379Y799440D03*
X106379Y789940D03*
X106379Y780440D03*
X132381Y780440D03*
X132381Y799440D03*
D21*
X83000Y883920D03*
X44000Y883920D03*
D22*
X75100Y724060D03*
X75100Y744060D03*
D23*
X23100Y700060D03*
X23100Y768060D03*
D24*
X431720Y742890D03*
X431720Y798890D03*
D25*
X394970Y755890D03*
X394970Y765890D03*
X394970Y775890D03*
X394970Y785890D03*
D11*
X225670Y819150D03*
X208670Y819150D03*
X208670Y834390D03*
X225670Y834390D03*
X208670Y779780D03*
X225670Y779780D03*
D26*
X306270Y833120D03*
X331270Y833120D03*
D16*
X345440Y845430D03*
X345440Y828430D03*
X292100Y845430D03*
X292100Y828430D03*
D11*
X208670Y797560D03*
X225670Y797560D03*
D16*
X247650Y844160D03*
X247650Y827160D03*
D11*
X354194Y728980D03*
X337194Y728980D03*
D16*
X264160Y844160D03*
X264160Y827160D03*
D27*
X367250Y840740D03*
X394750Y840740D03*
D28*
X381000Y855990D03*
X381000Y825490D03*
D29*
X322140Y807430D03*
X317140Y807430D03*
X312140Y807430D03*
X307140Y807430D03*
X302140Y807430D03*
X297140Y807430D03*
X292140Y807430D03*
X287140Y807430D03*
X282140Y807430D03*
X277140Y807430D03*
X272140Y807430D03*
X267140Y807430D03*
D30*
X260640Y800930D03*
X260640Y795930D03*
X260640Y790930D03*
X260640Y785930D03*
X260640Y780930D03*
X260640Y775930D03*
X260640Y770930D03*
X260640Y765930D03*
X260640Y760930D03*
X260640Y755930D03*
X260640Y750930D03*
X260640Y745930D03*
D29*
X267140Y739430D03*
X272140Y739430D03*
X277140Y739430D03*
X282140Y739430D03*
X287140Y739430D03*
X292140Y739430D03*
X297140Y739430D03*
X302140Y739430D03*
X307140Y739430D03*
X312140Y739430D03*
X317140Y739430D03*
X322140Y739430D03*
D30*
X328640Y745930D03*
X328640Y750930D03*
X328640Y755930D03*
X328640Y760930D03*
X328640Y765930D03*
X328640Y770930D03*
X328640Y775930D03*
X328640Y780930D03*
X328640Y785930D03*
X328640Y790930D03*
X328640Y795930D03*
X328640Y800930D03*
D16*
X345440Y806060D03*
X345440Y789060D03*
D12*
X189040Y764230D02*
X189040Y757230D01*
X182040Y757230D01*
X182040Y764230D01*
X189040Y764230D01*
X189040Y760080D02*
X182040Y760080D01*
X182040Y762930D02*
X189040Y762930D01*
X206580Y764230D02*
X206580Y757230D01*
X199580Y757230D01*
X199580Y764230D01*
X206580Y764230D01*
X206580Y760080D02*
X199580Y760080D01*
X199580Y762930D02*
X206580Y762930D01*
D16*
X87630Y782710D03*
X87630Y799710D03*
X350520Y754516D03*
X350520Y771516D03*
D10*
X624810Y840740D03*
X652810Y840740D03*
D11*
X566030Y834390D03*
X549030Y834390D03*
X600320Y849630D03*
X583320Y849630D03*
D10*
X562580Y816610D03*
X590580Y816610D03*
D11*
X583320Y834390D03*
X600320Y834390D03*
X642230Y819150D03*
X625230Y819150D03*
D12*
X664020Y699460D02*
X664020Y692460D01*
X657020Y692460D01*
X657020Y699460D01*
X664020Y699460D01*
X664020Y695310D02*
X657020Y695310D01*
X657020Y698160D02*
X664020Y698160D01*
X681560Y699460D02*
X681560Y692460D01*
X674560Y692460D01*
X674560Y699460D01*
X681560Y699460D01*
X681560Y695310D02*
X674560Y695310D01*
X674560Y698160D02*
X681560Y698160D01*
X664020Y740720D02*
X664020Y747720D01*
X664020Y740720D02*
X657020Y740720D01*
X657020Y747720D01*
X664020Y747720D01*
X664020Y743570D02*
X657020Y743570D01*
X657020Y746420D02*
X664020Y746420D01*
X681560Y747720D02*
X681560Y740720D01*
X674560Y740720D01*
X674560Y747720D01*
X681560Y747720D01*
X681560Y743570D02*
X674560Y743570D01*
X674560Y746420D02*
X681560Y746420D01*
X664020Y715970D02*
X664020Y708970D01*
X657020Y708970D01*
X657020Y715970D01*
X664020Y715970D01*
X664020Y711820D02*
X657020Y711820D01*
X657020Y714670D02*
X664020Y714670D01*
X681560Y715970D02*
X681560Y708970D01*
X674560Y708970D01*
X674560Y715970D01*
X681560Y715970D01*
X681560Y711820D02*
X674560Y711820D01*
X674560Y714670D02*
X681560Y714670D01*
D13*
X603280Y695960D03*
X575280Y695960D03*
D14*
X517100Y793960D03*
X517100Y851960D03*
D15*
X487600Y832585D03*
X487600Y813335D03*
D12*
X674560Y731210D02*
X674560Y724210D01*
X674560Y731210D02*
X681560Y731210D01*
X681560Y724210D01*
X674560Y724210D01*
X674560Y727060D02*
X681560Y727060D01*
X681560Y729910D02*
X674560Y729910D01*
X657020Y731210D02*
X657020Y724210D01*
X657020Y731210D02*
X664020Y731210D01*
X664020Y724210D01*
X657020Y724210D01*
X657020Y727060D02*
X664020Y727060D01*
X664020Y729910D02*
X657020Y729910D01*
D11*
X627770Y712470D03*
X644770Y712470D03*
X644770Y727710D03*
X627770Y727710D03*
D16*
X622300Y798440D03*
X622300Y781440D03*
D11*
X549030Y849630D03*
X566030Y849630D03*
X627770Y695960D03*
X644770Y695960D03*
X627770Y744220D03*
X644770Y744220D03*
D17*
X560980Y677900D03*
X545980Y677900D03*
X515980Y677900D03*
D18*
X574980Y650400D03*
D19*
X574980Y671400D03*
D18*
X501980Y650400D03*
D19*
X501980Y671400D03*
D20*
X661971Y781710D03*
X661971Y791210D03*
X661971Y800710D03*
X635969Y800710D03*
X635969Y781710D03*
X581359Y799440D03*
X581359Y789940D03*
X581359Y780440D03*
X607361Y780440D03*
X607361Y799440D03*
D21*
X557980Y883920D03*
X518980Y883920D03*
D22*
X550080Y724060D03*
X550080Y744060D03*
D23*
X498080Y700060D03*
X498080Y768060D03*
D24*
X906700Y742890D03*
X906700Y798890D03*
D25*
X869950Y755890D03*
X869950Y765890D03*
X869950Y775890D03*
X869950Y785890D03*
D11*
X700650Y819150D03*
X683650Y819150D03*
X683650Y834390D03*
X700650Y834390D03*
X683650Y779780D03*
X700650Y779780D03*
D26*
X781250Y833120D03*
X806250Y833120D03*
D16*
X820420Y845430D03*
X820420Y828430D03*
X767080Y845430D03*
X767080Y828430D03*
D11*
X683650Y797560D03*
X700650Y797560D03*
D16*
X722630Y844160D03*
X722630Y827160D03*
D11*
X829174Y728980D03*
X812174Y728980D03*
D16*
X739140Y844160D03*
X739140Y827160D03*
D27*
X842230Y840740D03*
X869730Y840740D03*
D28*
X855980Y855990D03*
X855980Y825490D03*
D29*
X797120Y807430D03*
X792120Y807430D03*
X787120Y807430D03*
X782120Y807430D03*
X777120Y807430D03*
X772120Y807430D03*
X767120Y807430D03*
X762120Y807430D03*
X757120Y807430D03*
X752120Y807430D03*
X747120Y807430D03*
X742120Y807430D03*
D30*
X735620Y800930D03*
X735620Y795930D03*
X735620Y790930D03*
X735620Y785930D03*
X735620Y780930D03*
X735620Y775930D03*
X735620Y770930D03*
X735620Y765930D03*
X735620Y760930D03*
X735620Y755930D03*
X735620Y750930D03*
X735620Y745930D03*
D29*
X742120Y739430D03*
X747120Y739430D03*
X752120Y739430D03*
X757120Y739430D03*
X762120Y739430D03*
X767120Y739430D03*
X772120Y739430D03*
X777120Y739430D03*
X782120Y739430D03*
X787120Y739430D03*
X792120Y739430D03*
X797120Y739430D03*
D30*
X803620Y745930D03*
X803620Y750930D03*
X803620Y755930D03*
X803620Y760930D03*
X803620Y765930D03*
X803620Y770930D03*
X803620Y775930D03*
X803620Y780930D03*
X803620Y785930D03*
X803620Y790930D03*
X803620Y795930D03*
X803620Y800930D03*
D16*
X820420Y806060D03*
X820420Y789060D03*
D12*
X664020Y764230D02*
X664020Y757230D01*
X657020Y757230D01*
X657020Y764230D01*
X664020Y764230D01*
X664020Y760080D02*
X657020Y760080D01*
X657020Y762930D02*
X664020Y762930D01*
X681560Y764230D02*
X681560Y757230D01*
X674560Y757230D01*
X674560Y764230D01*
X681560Y764230D01*
X681560Y760080D02*
X674560Y760080D01*
X674560Y762930D02*
X681560Y762930D01*
D16*
X562610Y782710D03*
X562610Y799710D03*
X825500Y754516D03*
X825500Y771516D03*
D10*
X1099790Y840740D03*
X1127790Y840740D03*
D11*
X1041010Y834390D03*
X1024010Y834390D03*
X1075300Y849630D03*
X1058300Y849630D03*
D10*
X1037560Y816610D03*
X1065560Y816610D03*
D11*
X1058300Y834390D03*
X1075300Y834390D03*
X1117210Y819150D03*
X1100210Y819150D03*
D12*
X1139000Y699460D02*
X1139000Y692460D01*
X1132000Y692460D01*
X1132000Y699460D01*
X1139000Y699460D01*
X1139000Y695310D02*
X1132000Y695310D01*
X1132000Y698160D02*
X1139000Y698160D01*
X1156540Y699460D02*
X1156540Y692460D01*
X1149540Y692460D01*
X1149540Y699460D01*
X1156540Y699460D01*
X1156540Y695310D02*
X1149540Y695310D01*
X1149540Y698160D02*
X1156540Y698160D01*
X1139000Y740720D02*
X1139000Y747720D01*
X1139000Y740720D02*
X1132000Y740720D01*
X1132000Y747720D01*
X1139000Y747720D01*
X1139000Y743570D02*
X1132000Y743570D01*
X1132000Y746420D02*
X1139000Y746420D01*
X1156540Y747720D02*
X1156540Y740720D01*
X1149540Y740720D01*
X1149540Y747720D01*
X1156540Y747720D01*
X1156540Y743570D02*
X1149540Y743570D01*
X1149540Y746420D02*
X1156540Y746420D01*
X1139000Y715970D02*
X1139000Y708970D01*
X1132000Y708970D01*
X1132000Y715970D01*
X1139000Y715970D01*
X1139000Y711820D02*
X1132000Y711820D01*
X1132000Y714670D02*
X1139000Y714670D01*
X1156540Y715970D02*
X1156540Y708970D01*
X1149540Y708970D01*
X1149540Y715970D01*
X1156540Y715970D01*
X1156540Y711820D02*
X1149540Y711820D01*
X1149540Y714670D02*
X1156540Y714670D01*
D13*
X1078260Y695960D03*
X1050260Y695960D03*
D14*
X992080Y793960D03*
X992080Y851960D03*
D15*
X962580Y832585D03*
X962580Y813335D03*
D12*
X1149540Y731210D02*
X1149540Y724210D01*
X1149540Y731210D02*
X1156540Y731210D01*
X1156540Y724210D01*
X1149540Y724210D01*
X1149540Y727060D02*
X1156540Y727060D01*
X1156540Y729910D02*
X1149540Y729910D01*
X1132000Y731210D02*
X1132000Y724210D01*
X1132000Y731210D02*
X1139000Y731210D01*
X1139000Y724210D01*
X1132000Y724210D01*
X1132000Y727060D02*
X1139000Y727060D01*
X1139000Y729910D02*
X1132000Y729910D01*
D11*
X1102750Y712470D03*
X1119750Y712470D03*
X1119750Y727710D03*
X1102750Y727710D03*
D16*
X1097280Y798440D03*
X1097280Y781440D03*
D11*
X1024010Y849630D03*
X1041010Y849630D03*
X1102750Y695960D03*
X1119750Y695960D03*
X1102750Y744220D03*
X1119750Y744220D03*
D17*
X1035960Y677900D03*
X1020960Y677900D03*
X990960Y677900D03*
D18*
X1049960Y650400D03*
D19*
X1049960Y671400D03*
D18*
X976960Y650400D03*
D19*
X976960Y671400D03*
D20*
X1136951Y781710D03*
X1136951Y791210D03*
X1136951Y800710D03*
X1110949Y800710D03*
X1110949Y781710D03*
X1056339Y799440D03*
X1056339Y789940D03*
X1056339Y780440D03*
X1082341Y780440D03*
X1082341Y799440D03*
D21*
X1032960Y883920D03*
X993960Y883920D03*
D22*
X1025060Y724060D03*
X1025060Y744060D03*
D23*
X973060Y700060D03*
X973060Y768060D03*
D24*
X1381680Y742890D03*
X1381680Y798890D03*
D25*
X1344930Y755890D03*
X1344930Y765890D03*
X1344930Y775890D03*
X1344930Y785890D03*
D11*
X1175630Y819150D03*
X1158630Y819150D03*
X1158630Y834390D03*
X1175630Y834390D03*
X1158630Y779780D03*
X1175630Y779780D03*
D26*
X1256230Y833120D03*
X1281230Y833120D03*
D16*
X1295400Y845430D03*
X1295400Y828430D03*
X1242060Y845430D03*
X1242060Y828430D03*
D11*
X1158630Y797560D03*
X1175630Y797560D03*
D16*
X1197610Y844160D03*
X1197610Y827160D03*
D11*
X1304154Y728980D03*
X1287154Y728980D03*
D16*
X1214120Y844160D03*
X1214120Y827160D03*
D27*
X1317210Y840740D03*
X1344710Y840740D03*
D28*
X1330960Y855990D03*
X1330960Y825490D03*
D29*
X1272100Y807430D03*
X1267100Y807430D03*
X1262100Y807430D03*
X1257100Y807430D03*
X1252100Y807430D03*
X1247100Y807430D03*
X1242100Y807430D03*
X1237100Y807430D03*
X1232100Y807430D03*
X1227100Y807430D03*
X1222100Y807430D03*
X1217100Y807430D03*
D30*
X1210600Y800930D03*
X1210600Y795930D03*
X1210600Y790930D03*
X1210600Y785930D03*
X1210600Y780930D03*
X1210600Y775930D03*
X1210600Y770930D03*
X1210600Y765930D03*
X1210600Y760930D03*
X1210600Y755930D03*
X1210600Y750930D03*
X1210600Y745930D03*
D29*
X1217100Y739430D03*
X1222100Y739430D03*
X1227100Y739430D03*
X1232100Y739430D03*
X1237100Y739430D03*
X1242100Y739430D03*
X1247100Y739430D03*
X1252100Y739430D03*
X1257100Y739430D03*
X1262100Y739430D03*
X1267100Y739430D03*
X1272100Y739430D03*
D30*
X1278600Y745930D03*
X1278600Y750930D03*
X1278600Y755930D03*
X1278600Y760930D03*
X1278600Y765930D03*
X1278600Y770930D03*
X1278600Y775930D03*
X1278600Y780930D03*
X1278600Y785930D03*
X1278600Y790930D03*
X1278600Y795930D03*
X1278600Y800930D03*
D16*
X1295400Y806060D03*
X1295400Y789060D03*
D12*
X1139000Y764230D02*
X1139000Y757230D01*
X1132000Y757230D01*
X1132000Y764230D01*
X1139000Y764230D01*
X1139000Y760080D02*
X1132000Y760080D01*
X1132000Y762930D02*
X1139000Y762930D01*
X1156540Y764230D02*
X1156540Y757230D01*
X1149540Y757230D01*
X1149540Y764230D01*
X1156540Y764230D01*
X1156540Y760080D02*
X1149540Y760080D01*
X1149540Y762930D02*
X1156540Y762930D01*
D16*
X1037590Y782710D03*
X1037590Y799710D03*
X1300480Y754516D03*
X1300480Y771516D03*
M02*
