G75*
%MOIN*%
%OFA0B0*%
%FSLAX25Y25*%
%IPPOS*%
%LPD*%
%AMOC8*
5,1,8,0,0,1.08239X$1,22.5*
%
%ADD10R,0.05512X0.06299*%
%ADD11R,0.04331X0.03937*%
%ADD12C,0.01181*%
%ADD13R,0.06299X0.07087*%
%ADD14R,0.05748X0.07874*%
%ADD15R,0.09843X0.05610*%
%ADD16C,0.00400*%
%ADD17C,0.00197*%
%ADD18R,0.03937X0.04331*%
%ADD19R,0.02756X0.05906*%
%ADD20R,0.03937X0.02362*%
%ADD21R,0.03937X0.03150*%
%ADD22R,0.04724X0.02165*%
%ADD23R,0.04331X0.07874*%
%ADD24R,0.18110X0.03937*%
%ADD25R,0.13386X0.06299*%
%ADD26R,0.07874X0.04724*%
%ADD27R,0.05315X0.02362*%
%ADD28R,0.03937X0.07087*%
%ADD29R,0.03346X0.08661*%
%ADD30R,0.03937X0.04134*%
%ADD31R,0.00984X0.02756*%
%ADD32R,0.02756X0.00984*%
D10*
X0098900Y0106000D03*
X0109924Y0106000D03*
X0123400Y0115500D03*
X0134424Y0115500D03*
X0285900Y0106000D03*
X0296924Y0106000D03*
X0310400Y0115500D03*
X0321424Y0115500D03*
X0472900Y0106000D03*
X0483924Y0106000D03*
X0497400Y0115500D03*
X0508424Y0115500D03*
X0483924Y0228000D03*
X0472900Y0228000D03*
X0497400Y0237500D03*
X0508424Y0237500D03*
X0321424Y0237500D03*
X0310400Y0237500D03*
X0296924Y0228000D03*
X0285900Y0228000D03*
X0134424Y0237500D03*
X0123400Y0237500D03*
X0109924Y0228000D03*
X0098900Y0228000D03*
X0098900Y0350000D03*
X0109924Y0350000D03*
X0123400Y0359500D03*
X0134424Y0359500D03*
X0285900Y0350000D03*
X0296924Y0350000D03*
X0310400Y0359500D03*
X0321424Y0359500D03*
X0472900Y0350000D03*
X0483924Y0350000D03*
X0497400Y0359500D03*
X0508424Y0359500D03*
D11*
X0504258Y0351000D03*
X0497565Y0351000D03*
X0487758Y0357000D03*
X0481065Y0357000D03*
X0474258Y0357000D03*
X0467565Y0357000D03*
X0467565Y0363000D03*
X0474258Y0363000D03*
X0481065Y0363000D03*
X0487758Y0363000D03*
X0520565Y0357000D03*
X0520565Y0351000D03*
X0527258Y0351000D03*
X0527258Y0357000D03*
X0527258Y0342500D03*
X0520565Y0342500D03*
X0520565Y0335500D03*
X0527258Y0335500D03*
X0505258Y0321500D03*
X0505258Y0315000D03*
X0505258Y0309000D03*
X0498565Y0309000D03*
X0498565Y0315000D03*
X0498565Y0321500D03*
X0498565Y0302500D03*
X0505258Y0302500D03*
X0571165Y0315500D03*
X0577858Y0315500D03*
X0487758Y0241000D03*
X0487758Y0235000D03*
X0481065Y0235000D03*
X0481065Y0241000D03*
X0474258Y0241000D03*
X0474258Y0235000D03*
X0467565Y0235000D03*
X0467565Y0241000D03*
X0497565Y0229000D03*
X0504258Y0229000D03*
X0520565Y0229000D03*
X0527258Y0229000D03*
X0527258Y0220500D03*
X0520565Y0220500D03*
X0520565Y0213500D03*
X0527258Y0213500D03*
X0505258Y0199500D03*
X0498565Y0199500D03*
X0498565Y0193000D03*
X0498565Y0187000D03*
X0505258Y0187000D03*
X0505258Y0193000D03*
X0505258Y0180500D03*
X0498565Y0180500D03*
X0571165Y0193500D03*
X0577858Y0193500D03*
X0527258Y0235000D03*
X0520565Y0235000D03*
X0390858Y0193500D03*
X0384165Y0193500D03*
X0340258Y0213500D03*
X0333565Y0213500D03*
X0333565Y0220500D03*
X0340258Y0220500D03*
X0340258Y0229000D03*
X0333565Y0229000D03*
X0333565Y0235000D03*
X0340258Y0235000D03*
X0317258Y0229000D03*
X0310565Y0229000D03*
X0300758Y0235000D03*
X0300758Y0241000D03*
X0294065Y0241000D03*
X0294065Y0235000D03*
X0287258Y0235000D03*
X0287258Y0241000D03*
X0280565Y0241000D03*
X0280565Y0235000D03*
X0311565Y0199500D03*
X0318258Y0199500D03*
X0318258Y0193000D03*
X0318258Y0187000D03*
X0311565Y0187000D03*
X0311565Y0193000D03*
X0311565Y0180500D03*
X0318258Y0180500D03*
X0300758Y0119000D03*
X0300758Y0113000D03*
X0294065Y0113000D03*
X0294065Y0119000D03*
X0287258Y0119000D03*
X0287258Y0113000D03*
X0280565Y0113000D03*
X0280565Y0119000D03*
X0310565Y0107000D03*
X0317258Y0107000D03*
X0333565Y0107000D03*
X0333565Y0113000D03*
X0340258Y0113000D03*
X0340258Y0107000D03*
X0340258Y0098500D03*
X0333565Y0098500D03*
X0333565Y0091500D03*
X0340258Y0091500D03*
X0318258Y0077500D03*
X0318258Y0071000D03*
X0311565Y0071000D03*
X0311565Y0077500D03*
X0311565Y0065000D03*
X0311565Y0058500D03*
X0318258Y0058500D03*
X0318258Y0065000D03*
X0384165Y0071500D03*
X0390858Y0071500D03*
X0467565Y0113000D03*
X0467565Y0119000D03*
X0474258Y0119000D03*
X0474258Y0113000D03*
X0481065Y0113000D03*
X0481065Y0119000D03*
X0487758Y0119000D03*
X0487758Y0113000D03*
X0497565Y0107000D03*
X0504258Y0107000D03*
X0520565Y0107000D03*
X0520565Y0113000D03*
X0527258Y0113000D03*
X0527258Y0107000D03*
X0527258Y0098500D03*
X0520565Y0098500D03*
X0520565Y0091500D03*
X0527258Y0091500D03*
X0505258Y0077500D03*
X0505258Y0071000D03*
X0498565Y0071000D03*
X0498565Y0077500D03*
X0498565Y0065000D03*
X0498565Y0058500D03*
X0505258Y0058500D03*
X0505258Y0065000D03*
X0571165Y0071500D03*
X0577858Y0071500D03*
X0203858Y0071500D03*
X0197165Y0071500D03*
X0153258Y0091500D03*
X0146565Y0091500D03*
X0146565Y0098500D03*
X0153258Y0098500D03*
X0153258Y0107000D03*
X0153258Y0113000D03*
X0146565Y0113000D03*
X0146565Y0107000D03*
X0130258Y0107000D03*
X0123565Y0107000D03*
X0113758Y0113000D03*
X0113758Y0119000D03*
X0107065Y0119000D03*
X0107065Y0113000D03*
X0100258Y0113000D03*
X0100258Y0119000D03*
X0093565Y0119000D03*
X0093565Y0113000D03*
X0124565Y0077500D03*
X0124565Y0071000D03*
X0131258Y0071000D03*
X0131258Y0077500D03*
X0131258Y0065000D03*
X0131258Y0058500D03*
X0124565Y0058500D03*
X0124565Y0065000D03*
X0124565Y0180500D03*
X0131258Y0180500D03*
X0131258Y0187000D03*
X0131258Y0193000D03*
X0124565Y0193000D03*
X0124565Y0187000D03*
X0124565Y0199500D03*
X0131258Y0199500D03*
X0146565Y0213500D03*
X0153258Y0213500D03*
X0153258Y0220500D03*
X0146565Y0220500D03*
X0146565Y0229000D03*
X0153258Y0229000D03*
X0153258Y0235000D03*
X0146565Y0235000D03*
X0130258Y0229000D03*
X0123565Y0229000D03*
X0113758Y0235000D03*
X0113758Y0241000D03*
X0107065Y0241000D03*
X0107065Y0235000D03*
X0100258Y0235000D03*
X0100258Y0241000D03*
X0093565Y0241000D03*
X0093565Y0235000D03*
X0124565Y0302500D03*
X0131258Y0302500D03*
X0131258Y0309000D03*
X0131258Y0315000D03*
X0131258Y0321500D03*
X0124565Y0321500D03*
X0124565Y0315000D03*
X0124565Y0309000D03*
X0146565Y0335500D03*
X0153258Y0335500D03*
X0153258Y0342500D03*
X0146565Y0342500D03*
X0146565Y0351000D03*
X0146565Y0357000D03*
X0153258Y0357000D03*
X0153258Y0351000D03*
X0130258Y0351000D03*
X0123565Y0351000D03*
X0113758Y0357000D03*
X0107065Y0357000D03*
X0100258Y0357000D03*
X0093565Y0357000D03*
X0093565Y0363000D03*
X0100258Y0363000D03*
X0107065Y0363000D03*
X0113758Y0363000D03*
X0197165Y0315500D03*
X0203858Y0315500D03*
X0280565Y0357000D03*
X0287258Y0357000D03*
X0294065Y0357000D03*
X0300758Y0357000D03*
X0310565Y0351000D03*
X0317258Y0351000D03*
X0333565Y0351000D03*
X0333565Y0357000D03*
X0340258Y0357000D03*
X0340258Y0351000D03*
X0340258Y0342500D03*
X0333565Y0342500D03*
X0333565Y0335500D03*
X0340258Y0335500D03*
X0318258Y0321500D03*
X0318258Y0315000D03*
X0318258Y0309000D03*
X0311565Y0309000D03*
X0311565Y0315000D03*
X0311565Y0321500D03*
X0311565Y0302500D03*
X0318258Y0302500D03*
X0384165Y0315500D03*
X0390858Y0315500D03*
X0300758Y0363000D03*
X0294065Y0363000D03*
X0287258Y0363000D03*
X0280565Y0363000D03*
X0203858Y0193500D03*
X0197165Y0193500D03*
D12*
X0142987Y0194378D02*
X0142987Y0191622D01*
X0142987Y0194378D02*
X0145743Y0194378D01*
X0145743Y0191622D01*
X0142987Y0191622D01*
X0142987Y0192744D02*
X0145743Y0192744D01*
X0145743Y0193866D02*
X0142987Y0193866D01*
X0136081Y0194378D02*
X0136081Y0191622D01*
X0136081Y0194378D02*
X0138837Y0194378D01*
X0138837Y0191622D01*
X0136081Y0191622D01*
X0136081Y0192744D02*
X0138837Y0192744D01*
X0138837Y0193866D02*
X0136081Y0193866D01*
X0138837Y0188378D02*
X0138837Y0185622D01*
X0136081Y0185622D01*
X0136081Y0188378D01*
X0138837Y0188378D01*
X0138837Y0186744D02*
X0136081Y0186744D01*
X0136081Y0187866D02*
X0138837Y0187866D01*
X0145743Y0188378D02*
X0145743Y0185622D01*
X0142987Y0185622D01*
X0142987Y0188378D01*
X0145743Y0188378D01*
X0145743Y0186744D02*
X0142987Y0186744D01*
X0142987Y0187866D02*
X0145743Y0187866D01*
X0145743Y0181878D02*
X0145743Y0179122D01*
X0142987Y0179122D01*
X0142987Y0181878D01*
X0145743Y0181878D01*
X0145743Y0180244D02*
X0142987Y0180244D01*
X0142987Y0181366D02*
X0145743Y0181366D01*
X0138837Y0181878D02*
X0138837Y0179122D01*
X0136081Y0179122D01*
X0136081Y0181878D01*
X0138837Y0181878D01*
X0138837Y0180244D02*
X0136081Y0180244D01*
X0136081Y0181366D02*
X0138837Y0181366D01*
X0138837Y0198122D02*
X0138837Y0200878D01*
X0138837Y0198122D02*
X0136081Y0198122D01*
X0136081Y0200878D01*
X0138837Y0200878D01*
X0138837Y0199244D02*
X0136081Y0199244D01*
X0136081Y0200366D02*
X0138837Y0200366D01*
X0145743Y0200878D02*
X0145743Y0198122D01*
X0142987Y0198122D01*
X0142987Y0200878D01*
X0145743Y0200878D01*
X0145743Y0199244D02*
X0142987Y0199244D01*
X0142987Y0200366D02*
X0145743Y0200366D01*
X0145743Y0204622D02*
X0145743Y0207378D01*
X0145743Y0204622D02*
X0142987Y0204622D01*
X0142987Y0207378D01*
X0145743Y0207378D01*
X0145743Y0205744D02*
X0142987Y0205744D01*
X0142987Y0206866D02*
X0145743Y0206866D01*
X0138837Y0207378D02*
X0138837Y0204622D01*
X0136081Y0204622D01*
X0136081Y0207378D01*
X0138837Y0207378D01*
X0138837Y0205744D02*
X0136081Y0205744D01*
X0136081Y0206866D02*
X0138837Y0206866D01*
X0138837Y0301122D02*
X0138837Y0303878D01*
X0138837Y0301122D02*
X0136081Y0301122D01*
X0136081Y0303878D01*
X0138837Y0303878D01*
X0138837Y0302244D02*
X0136081Y0302244D01*
X0136081Y0303366D02*
X0138837Y0303366D01*
X0145743Y0303878D02*
X0145743Y0301122D01*
X0142987Y0301122D01*
X0142987Y0303878D01*
X0145743Y0303878D01*
X0145743Y0302244D02*
X0142987Y0302244D01*
X0142987Y0303366D02*
X0145743Y0303366D01*
X0145743Y0307622D02*
X0145743Y0310378D01*
X0145743Y0307622D02*
X0142987Y0307622D01*
X0142987Y0310378D01*
X0145743Y0310378D01*
X0145743Y0308744D02*
X0142987Y0308744D01*
X0142987Y0309866D02*
X0145743Y0309866D01*
X0142987Y0313622D02*
X0142987Y0316378D01*
X0145743Y0316378D01*
X0145743Y0313622D01*
X0142987Y0313622D01*
X0142987Y0314744D02*
X0145743Y0314744D01*
X0145743Y0315866D02*
X0142987Y0315866D01*
X0136081Y0316378D02*
X0136081Y0313622D01*
X0136081Y0316378D02*
X0138837Y0316378D01*
X0138837Y0313622D01*
X0136081Y0313622D01*
X0136081Y0314744D02*
X0138837Y0314744D01*
X0138837Y0315866D02*
X0136081Y0315866D01*
X0138837Y0320122D02*
X0138837Y0322878D01*
X0138837Y0320122D02*
X0136081Y0320122D01*
X0136081Y0322878D01*
X0138837Y0322878D01*
X0138837Y0321244D02*
X0136081Y0321244D01*
X0136081Y0322366D02*
X0138837Y0322366D01*
X0145743Y0322878D02*
X0145743Y0320122D01*
X0142987Y0320122D01*
X0142987Y0322878D01*
X0145743Y0322878D01*
X0145743Y0321244D02*
X0142987Y0321244D01*
X0142987Y0322366D02*
X0145743Y0322366D01*
X0145743Y0326622D02*
X0145743Y0329378D01*
X0145743Y0326622D02*
X0142987Y0326622D01*
X0142987Y0329378D01*
X0145743Y0329378D01*
X0145743Y0327744D02*
X0142987Y0327744D01*
X0142987Y0328866D02*
X0145743Y0328866D01*
X0138837Y0329378D02*
X0138837Y0326622D01*
X0136081Y0326622D01*
X0136081Y0329378D01*
X0138837Y0329378D01*
X0138837Y0327744D02*
X0136081Y0327744D01*
X0136081Y0328866D02*
X0138837Y0328866D01*
X0138837Y0310378D02*
X0138837Y0307622D01*
X0136081Y0307622D01*
X0136081Y0310378D01*
X0138837Y0310378D01*
X0138837Y0308744D02*
X0136081Y0308744D01*
X0136081Y0309866D02*
X0138837Y0309866D01*
X0325837Y0310378D02*
X0325837Y0307622D01*
X0323081Y0307622D01*
X0323081Y0310378D01*
X0325837Y0310378D01*
X0325837Y0308744D02*
X0323081Y0308744D01*
X0323081Y0309866D02*
X0325837Y0309866D01*
X0323081Y0313622D02*
X0323081Y0316378D01*
X0325837Y0316378D01*
X0325837Y0313622D01*
X0323081Y0313622D01*
X0323081Y0314744D02*
X0325837Y0314744D01*
X0325837Y0315866D02*
X0323081Y0315866D01*
X0325837Y0320122D02*
X0325837Y0322878D01*
X0325837Y0320122D02*
X0323081Y0320122D01*
X0323081Y0322878D01*
X0325837Y0322878D01*
X0325837Y0321244D02*
X0323081Y0321244D01*
X0323081Y0322366D02*
X0325837Y0322366D01*
X0332743Y0322878D02*
X0332743Y0320122D01*
X0329987Y0320122D01*
X0329987Y0322878D01*
X0332743Y0322878D01*
X0332743Y0321244D02*
X0329987Y0321244D01*
X0329987Y0322366D02*
X0332743Y0322366D01*
X0332743Y0326622D02*
X0332743Y0329378D01*
X0332743Y0326622D02*
X0329987Y0326622D01*
X0329987Y0329378D01*
X0332743Y0329378D01*
X0332743Y0327744D02*
X0329987Y0327744D01*
X0329987Y0328866D02*
X0332743Y0328866D01*
X0325837Y0329378D02*
X0325837Y0326622D01*
X0323081Y0326622D01*
X0323081Y0329378D01*
X0325837Y0329378D01*
X0325837Y0327744D02*
X0323081Y0327744D01*
X0323081Y0328866D02*
X0325837Y0328866D01*
X0329987Y0316378D02*
X0329987Y0313622D01*
X0329987Y0316378D02*
X0332743Y0316378D01*
X0332743Y0313622D01*
X0329987Y0313622D01*
X0329987Y0314744D02*
X0332743Y0314744D01*
X0332743Y0315866D02*
X0329987Y0315866D01*
X0332743Y0310378D02*
X0332743Y0307622D01*
X0329987Y0307622D01*
X0329987Y0310378D01*
X0332743Y0310378D01*
X0332743Y0308744D02*
X0329987Y0308744D01*
X0329987Y0309866D02*
X0332743Y0309866D01*
X0332743Y0303878D02*
X0332743Y0301122D01*
X0329987Y0301122D01*
X0329987Y0303878D01*
X0332743Y0303878D01*
X0332743Y0302244D02*
X0329987Y0302244D01*
X0329987Y0303366D02*
X0332743Y0303366D01*
X0325837Y0303878D02*
X0325837Y0301122D01*
X0323081Y0301122D01*
X0323081Y0303878D01*
X0325837Y0303878D01*
X0325837Y0302244D02*
X0323081Y0302244D01*
X0323081Y0303366D02*
X0325837Y0303366D01*
X0325837Y0207378D02*
X0325837Y0204622D01*
X0323081Y0204622D01*
X0323081Y0207378D01*
X0325837Y0207378D01*
X0325837Y0205744D02*
X0323081Y0205744D01*
X0323081Y0206866D02*
X0325837Y0206866D01*
X0332743Y0207378D02*
X0332743Y0204622D01*
X0329987Y0204622D01*
X0329987Y0207378D01*
X0332743Y0207378D01*
X0332743Y0205744D02*
X0329987Y0205744D01*
X0329987Y0206866D02*
X0332743Y0206866D01*
X0332743Y0200878D02*
X0332743Y0198122D01*
X0329987Y0198122D01*
X0329987Y0200878D01*
X0332743Y0200878D01*
X0332743Y0199244D02*
X0329987Y0199244D01*
X0329987Y0200366D02*
X0332743Y0200366D01*
X0325837Y0200878D02*
X0325837Y0198122D01*
X0323081Y0198122D01*
X0323081Y0200878D01*
X0325837Y0200878D01*
X0325837Y0199244D02*
X0323081Y0199244D01*
X0323081Y0200366D02*
X0325837Y0200366D01*
X0323081Y0194378D02*
X0323081Y0191622D01*
X0323081Y0194378D02*
X0325837Y0194378D01*
X0325837Y0191622D01*
X0323081Y0191622D01*
X0323081Y0192744D02*
X0325837Y0192744D01*
X0325837Y0193866D02*
X0323081Y0193866D01*
X0325837Y0188378D02*
X0325837Y0185622D01*
X0323081Y0185622D01*
X0323081Y0188378D01*
X0325837Y0188378D01*
X0325837Y0186744D02*
X0323081Y0186744D01*
X0323081Y0187866D02*
X0325837Y0187866D01*
X0332743Y0188378D02*
X0332743Y0185622D01*
X0329987Y0185622D01*
X0329987Y0188378D01*
X0332743Y0188378D01*
X0332743Y0186744D02*
X0329987Y0186744D01*
X0329987Y0187866D02*
X0332743Y0187866D01*
X0329987Y0191622D02*
X0329987Y0194378D01*
X0332743Y0194378D01*
X0332743Y0191622D01*
X0329987Y0191622D01*
X0329987Y0192744D02*
X0332743Y0192744D01*
X0332743Y0193866D02*
X0329987Y0193866D01*
X0332743Y0181878D02*
X0332743Y0179122D01*
X0329987Y0179122D01*
X0329987Y0181878D01*
X0332743Y0181878D01*
X0332743Y0180244D02*
X0329987Y0180244D01*
X0329987Y0181366D02*
X0332743Y0181366D01*
X0325837Y0181878D02*
X0325837Y0179122D01*
X0323081Y0179122D01*
X0323081Y0181878D01*
X0325837Y0181878D01*
X0325837Y0180244D02*
X0323081Y0180244D01*
X0323081Y0181366D02*
X0325837Y0181366D01*
X0325837Y0085378D02*
X0325837Y0082622D01*
X0323081Y0082622D01*
X0323081Y0085378D01*
X0325837Y0085378D01*
X0325837Y0083744D02*
X0323081Y0083744D01*
X0323081Y0084866D02*
X0325837Y0084866D01*
X0332743Y0085378D02*
X0332743Y0082622D01*
X0329987Y0082622D01*
X0329987Y0085378D01*
X0332743Y0085378D01*
X0332743Y0083744D02*
X0329987Y0083744D01*
X0329987Y0084866D02*
X0332743Y0084866D01*
X0332743Y0078878D02*
X0332743Y0076122D01*
X0329987Y0076122D01*
X0329987Y0078878D01*
X0332743Y0078878D01*
X0332743Y0077244D02*
X0329987Y0077244D01*
X0329987Y0078366D02*
X0332743Y0078366D01*
X0329987Y0072378D02*
X0329987Y0069622D01*
X0329987Y0072378D02*
X0332743Y0072378D01*
X0332743Y0069622D01*
X0329987Y0069622D01*
X0329987Y0070744D02*
X0332743Y0070744D01*
X0332743Y0071866D02*
X0329987Y0071866D01*
X0323081Y0072378D02*
X0323081Y0069622D01*
X0323081Y0072378D02*
X0325837Y0072378D01*
X0325837Y0069622D01*
X0323081Y0069622D01*
X0323081Y0070744D02*
X0325837Y0070744D01*
X0325837Y0071866D02*
X0323081Y0071866D01*
X0325837Y0076122D02*
X0325837Y0078878D01*
X0325837Y0076122D02*
X0323081Y0076122D01*
X0323081Y0078878D01*
X0325837Y0078878D01*
X0325837Y0077244D02*
X0323081Y0077244D01*
X0323081Y0078366D02*
X0325837Y0078366D01*
X0325837Y0066378D02*
X0325837Y0063622D01*
X0323081Y0063622D01*
X0323081Y0066378D01*
X0325837Y0066378D01*
X0325837Y0064744D02*
X0323081Y0064744D01*
X0323081Y0065866D02*
X0325837Y0065866D01*
X0332743Y0066378D02*
X0332743Y0063622D01*
X0329987Y0063622D01*
X0329987Y0066378D01*
X0332743Y0066378D01*
X0332743Y0064744D02*
X0329987Y0064744D01*
X0329987Y0065866D02*
X0332743Y0065866D01*
X0332743Y0059878D02*
X0332743Y0057122D01*
X0329987Y0057122D01*
X0329987Y0059878D01*
X0332743Y0059878D01*
X0332743Y0058244D02*
X0329987Y0058244D01*
X0329987Y0059366D02*
X0332743Y0059366D01*
X0325837Y0059878D02*
X0325837Y0057122D01*
X0323081Y0057122D01*
X0323081Y0059878D01*
X0325837Y0059878D01*
X0325837Y0058244D02*
X0323081Y0058244D01*
X0323081Y0059366D02*
X0325837Y0059366D01*
X0145743Y0059878D02*
X0145743Y0057122D01*
X0142987Y0057122D01*
X0142987Y0059878D01*
X0145743Y0059878D01*
X0145743Y0058244D02*
X0142987Y0058244D01*
X0142987Y0059366D02*
X0145743Y0059366D01*
X0145743Y0063622D02*
X0145743Y0066378D01*
X0145743Y0063622D02*
X0142987Y0063622D01*
X0142987Y0066378D01*
X0145743Y0066378D01*
X0145743Y0064744D02*
X0142987Y0064744D01*
X0142987Y0065866D02*
X0145743Y0065866D01*
X0142987Y0069622D02*
X0142987Y0072378D01*
X0145743Y0072378D01*
X0145743Y0069622D01*
X0142987Y0069622D01*
X0142987Y0070744D02*
X0145743Y0070744D01*
X0145743Y0071866D02*
X0142987Y0071866D01*
X0136081Y0072378D02*
X0136081Y0069622D01*
X0136081Y0072378D02*
X0138837Y0072378D01*
X0138837Y0069622D01*
X0136081Y0069622D01*
X0136081Y0070744D02*
X0138837Y0070744D01*
X0138837Y0071866D02*
X0136081Y0071866D01*
X0138837Y0076122D02*
X0138837Y0078878D01*
X0138837Y0076122D02*
X0136081Y0076122D01*
X0136081Y0078878D01*
X0138837Y0078878D01*
X0138837Y0077244D02*
X0136081Y0077244D01*
X0136081Y0078366D02*
X0138837Y0078366D01*
X0145743Y0078878D02*
X0145743Y0076122D01*
X0142987Y0076122D01*
X0142987Y0078878D01*
X0145743Y0078878D01*
X0145743Y0077244D02*
X0142987Y0077244D01*
X0142987Y0078366D02*
X0145743Y0078366D01*
X0145743Y0082622D02*
X0145743Y0085378D01*
X0145743Y0082622D02*
X0142987Y0082622D01*
X0142987Y0085378D01*
X0145743Y0085378D01*
X0145743Y0083744D02*
X0142987Y0083744D01*
X0142987Y0084866D02*
X0145743Y0084866D01*
X0138837Y0085378D02*
X0138837Y0082622D01*
X0136081Y0082622D01*
X0136081Y0085378D01*
X0138837Y0085378D01*
X0138837Y0083744D02*
X0136081Y0083744D01*
X0136081Y0084866D02*
X0138837Y0084866D01*
X0138837Y0066378D02*
X0138837Y0063622D01*
X0136081Y0063622D01*
X0136081Y0066378D01*
X0138837Y0066378D01*
X0138837Y0064744D02*
X0136081Y0064744D01*
X0136081Y0065866D02*
X0138837Y0065866D01*
X0138837Y0059878D02*
X0138837Y0057122D01*
X0136081Y0057122D01*
X0136081Y0059878D01*
X0138837Y0059878D01*
X0138837Y0058244D02*
X0136081Y0058244D01*
X0136081Y0059366D02*
X0138837Y0059366D01*
X0512837Y0059878D02*
X0512837Y0057122D01*
X0510081Y0057122D01*
X0510081Y0059878D01*
X0512837Y0059878D01*
X0512837Y0058244D02*
X0510081Y0058244D01*
X0510081Y0059366D02*
X0512837Y0059366D01*
X0519743Y0059878D02*
X0519743Y0057122D01*
X0516987Y0057122D01*
X0516987Y0059878D01*
X0519743Y0059878D01*
X0519743Y0058244D02*
X0516987Y0058244D01*
X0516987Y0059366D02*
X0519743Y0059366D01*
X0519743Y0063622D02*
X0519743Y0066378D01*
X0519743Y0063622D02*
X0516987Y0063622D01*
X0516987Y0066378D01*
X0519743Y0066378D01*
X0519743Y0064744D02*
X0516987Y0064744D01*
X0516987Y0065866D02*
X0519743Y0065866D01*
X0512837Y0066378D02*
X0512837Y0063622D01*
X0510081Y0063622D01*
X0510081Y0066378D01*
X0512837Y0066378D01*
X0512837Y0064744D02*
X0510081Y0064744D01*
X0510081Y0065866D02*
X0512837Y0065866D01*
X0510081Y0069622D02*
X0510081Y0072378D01*
X0512837Y0072378D01*
X0512837Y0069622D01*
X0510081Y0069622D01*
X0510081Y0070744D02*
X0512837Y0070744D01*
X0512837Y0071866D02*
X0510081Y0071866D01*
X0512837Y0076122D02*
X0512837Y0078878D01*
X0512837Y0076122D02*
X0510081Y0076122D01*
X0510081Y0078878D01*
X0512837Y0078878D01*
X0512837Y0077244D02*
X0510081Y0077244D01*
X0510081Y0078366D02*
X0512837Y0078366D01*
X0519743Y0078878D02*
X0519743Y0076122D01*
X0516987Y0076122D01*
X0516987Y0078878D01*
X0519743Y0078878D01*
X0519743Y0077244D02*
X0516987Y0077244D01*
X0516987Y0078366D02*
X0519743Y0078366D01*
X0516987Y0072378D02*
X0516987Y0069622D01*
X0516987Y0072378D02*
X0519743Y0072378D01*
X0519743Y0069622D01*
X0516987Y0069622D01*
X0516987Y0070744D02*
X0519743Y0070744D01*
X0519743Y0071866D02*
X0516987Y0071866D01*
X0519743Y0082622D02*
X0519743Y0085378D01*
X0519743Y0082622D02*
X0516987Y0082622D01*
X0516987Y0085378D01*
X0519743Y0085378D01*
X0519743Y0083744D02*
X0516987Y0083744D01*
X0516987Y0084866D02*
X0519743Y0084866D01*
X0512837Y0085378D02*
X0512837Y0082622D01*
X0510081Y0082622D01*
X0510081Y0085378D01*
X0512837Y0085378D01*
X0512837Y0083744D02*
X0510081Y0083744D01*
X0510081Y0084866D02*
X0512837Y0084866D01*
X0512837Y0179122D02*
X0512837Y0181878D01*
X0512837Y0179122D02*
X0510081Y0179122D01*
X0510081Y0181878D01*
X0512837Y0181878D01*
X0512837Y0180244D02*
X0510081Y0180244D01*
X0510081Y0181366D02*
X0512837Y0181366D01*
X0519743Y0181878D02*
X0519743Y0179122D01*
X0516987Y0179122D01*
X0516987Y0181878D01*
X0519743Y0181878D01*
X0519743Y0180244D02*
X0516987Y0180244D01*
X0516987Y0181366D02*
X0519743Y0181366D01*
X0519743Y0185622D02*
X0519743Y0188378D01*
X0519743Y0185622D02*
X0516987Y0185622D01*
X0516987Y0188378D01*
X0519743Y0188378D01*
X0519743Y0186744D02*
X0516987Y0186744D01*
X0516987Y0187866D02*
X0519743Y0187866D01*
X0516987Y0191622D02*
X0516987Y0194378D01*
X0519743Y0194378D01*
X0519743Y0191622D01*
X0516987Y0191622D01*
X0516987Y0192744D02*
X0519743Y0192744D01*
X0519743Y0193866D02*
X0516987Y0193866D01*
X0510081Y0194378D02*
X0510081Y0191622D01*
X0510081Y0194378D02*
X0512837Y0194378D01*
X0512837Y0191622D01*
X0510081Y0191622D01*
X0510081Y0192744D02*
X0512837Y0192744D01*
X0512837Y0193866D02*
X0510081Y0193866D01*
X0512837Y0188378D02*
X0512837Y0185622D01*
X0510081Y0185622D01*
X0510081Y0188378D01*
X0512837Y0188378D01*
X0512837Y0186744D02*
X0510081Y0186744D01*
X0510081Y0187866D02*
X0512837Y0187866D01*
X0512837Y0198122D02*
X0512837Y0200878D01*
X0512837Y0198122D02*
X0510081Y0198122D01*
X0510081Y0200878D01*
X0512837Y0200878D01*
X0512837Y0199244D02*
X0510081Y0199244D01*
X0510081Y0200366D02*
X0512837Y0200366D01*
X0519743Y0200878D02*
X0519743Y0198122D01*
X0516987Y0198122D01*
X0516987Y0200878D01*
X0519743Y0200878D01*
X0519743Y0199244D02*
X0516987Y0199244D01*
X0516987Y0200366D02*
X0519743Y0200366D01*
X0519743Y0204622D02*
X0519743Y0207378D01*
X0519743Y0204622D02*
X0516987Y0204622D01*
X0516987Y0207378D01*
X0519743Y0207378D01*
X0519743Y0205744D02*
X0516987Y0205744D01*
X0516987Y0206866D02*
X0519743Y0206866D01*
X0512837Y0207378D02*
X0512837Y0204622D01*
X0510081Y0204622D01*
X0510081Y0207378D01*
X0512837Y0207378D01*
X0512837Y0205744D02*
X0510081Y0205744D01*
X0510081Y0206866D02*
X0512837Y0206866D01*
X0512837Y0301122D02*
X0512837Y0303878D01*
X0512837Y0301122D02*
X0510081Y0301122D01*
X0510081Y0303878D01*
X0512837Y0303878D01*
X0512837Y0302244D02*
X0510081Y0302244D01*
X0510081Y0303366D02*
X0512837Y0303366D01*
X0519743Y0303878D02*
X0519743Y0301122D01*
X0516987Y0301122D01*
X0516987Y0303878D01*
X0519743Y0303878D01*
X0519743Y0302244D02*
X0516987Y0302244D01*
X0516987Y0303366D02*
X0519743Y0303366D01*
X0519743Y0307622D02*
X0519743Y0310378D01*
X0519743Y0307622D02*
X0516987Y0307622D01*
X0516987Y0310378D01*
X0519743Y0310378D01*
X0519743Y0308744D02*
X0516987Y0308744D01*
X0516987Y0309866D02*
X0519743Y0309866D01*
X0516987Y0313622D02*
X0516987Y0316378D01*
X0519743Y0316378D01*
X0519743Y0313622D01*
X0516987Y0313622D01*
X0516987Y0314744D02*
X0519743Y0314744D01*
X0519743Y0315866D02*
X0516987Y0315866D01*
X0510081Y0316378D02*
X0510081Y0313622D01*
X0510081Y0316378D02*
X0512837Y0316378D01*
X0512837Y0313622D01*
X0510081Y0313622D01*
X0510081Y0314744D02*
X0512837Y0314744D01*
X0512837Y0315866D02*
X0510081Y0315866D01*
X0512837Y0320122D02*
X0512837Y0322878D01*
X0512837Y0320122D02*
X0510081Y0320122D01*
X0510081Y0322878D01*
X0512837Y0322878D01*
X0512837Y0321244D02*
X0510081Y0321244D01*
X0510081Y0322366D02*
X0512837Y0322366D01*
X0519743Y0322878D02*
X0519743Y0320122D01*
X0516987Y0320122D01*
X0516987Y0322878D01*
X0519743Y0322878D01*
X0519743Y0321244D02*
X0516987Y0321244D01*
X0516987Y0322366D02*
X0519743Y0322366D01*
X0519743Y0326622D02*
X0519743Y0329378D01*
X0519743Y0326622D02*
X0516987Y0326622D01*
X0516987Y0329378D01*
X0519743Y0329378D01*
X0519743Y0327744D02*
X0516987Y0327744D01*
X0516987Y0328866D02*
X0519743Y0328866D01*
X0512837Y0329378D02*
X0512837Y0326622D01*
X0510081Y0326622D01*
X0510081Y0329378D01*
X0512837Y0329378D01*
X0512837Y0327744D02*
X0510081Y0327744D01*
X0510081Y0328866D02*
X0512837Y0328866D01*
X0512837Y0310378D02*
X0512837Y0307622D01*
X0510081Y0307622D01*
X0510081Y0310378D01*
X0512837Y0310378D01*
X0512837Y0308744D02*
X0510081Y0308744D01*
X0510081Y0309866D02*
X0512837Y0309866D01*
D13*
X0488924Y0302500D03*
X0477900Y0302500D03*
X0301924Y0302500D03*
X0290900Y0302500D03*
X0114924Y0302500D03*
X0103900Y0302500D03*
X0103900Y0180500D03*
X0114924Y0180500D03*
X0290900Y0180500D03*
X0301924Y0180500D03*
X0477900Y0180500D03*
X0488924Y0180500D03*
X0488924Y0058500D03*
X0477900Y0058500D03*
X0301924Y0058500D03*
X0290900Y0058500D03*
X0114924Y0058500D03*
X0103900Y0058500D03*
D14*
X0080994Y0097083D03*
X0080994Y0119917D03*
X0080994Y0219083D03*
X0080994Y0241917D03*
X0080994Y0341083D03*
X0080994Y0363917D03*
X0267994Y0363917D03*
X0267994Y0341083D03*
X0267994Y0241917D03*
X0267994Y0219083D03*
X0267994Y0119917D03*
X0267994Y0097083D03*
X0454994Y0097083D03*
X0454994Y0119917D03*
X0454994Y0219083D03*
X0454994Y0241917D03*
X0454994Y0341083D03*
X0454994Y0363917D03*
D15*
X0443380Y0356289D03*
X0443380Y0348711D03*
X0443380Y0234289D03*
X0443380Y0226711D03*
X0443380Y0112289D03*
X0443380Y0104711D03*
X0256380Y0104711D03*
X0256380Y0112289D03*
X0256380Y0226711D03*
X0256380Y0234289D03*
X0256380Y0348711D03*
X0256380Y0356289D03*
X0069380Y0356289D03*
X0069380Y0348711D03*
X0069380Y0234289D03*
X0069380Y0226711D03*
X0069380Y0112289D03*
X0069380Y0104711D03*
D16*
X0067352Y0100694D02*
X0067063Y0100661D01*
X0066788Y0100565D01*
X0066541Y0100410D01*
X0066336Y0100204D01*
X0066181Y0099958D01*
X0066085Y0099683D01*
X0066052Y0099394D01*
X0066052Y0096494D01*
X0066082Y0096227D01*
X0066171Y0095973D01*
X0066314Y0095746D01*
X0066504Y0095555D01*
X0066731Y0095413D01*
X0066985Y0095324D01*
X0067252Y0095294D01*
X0074152Y0095294D01*
X0074190Y0095286D01*
X0074223Y0095264D01*
X0074244Y0095232D01*
X0074252Y0095194D01*
X0074252Y0093294D01*
X0077352Y0093294D01*
X0077352Y0100694D01*
X0067352Y0100694D01*
X0066975Y0100631D02*
X0077352Y0100631D01*
X0077352Y0100232D02*
X0066363Y0100232D01*
X0066137Y0099834D02*
X0077352Y0099834D01*
X0077352Y0099435D02*
X0066057Y0099435D01*
X0066052Y0099037D02*
X0077352Y0099037D01*
X0077352Y0098638D02*
X0066052Y0098638D01*
X0066052Y0098239D02*
X0077352Y0098239D01*
X0077352Y0097841D02*
X0066052Y0097841D01*
X0066052Y0097442D02*
X0077352Y0097442D01*
X0077352Y0097044D02*
X0066052Y0097044D01*
X0066052Y0096645D02*
X0077352Y0096645D01*
X0077352Y0096247D02*
X0066080Y0096247D01*
X0066249Y0095848D02*
X0077352Y0095848D01*
X0077352Y0095450D02*
X0066672Y0095450D01*
X0074252Y0095051D02*
X0077352Y0095051D01*
X0077352Y0094653D02*
X0074252Y0094653D01*
X0074252Y0094254D02*
X0077352Y0094254D01*
X0077352Y0093856D02*
X0074252Y0093856D01*
X0074252Y0093457D02*
X0077352Y0093457D01*
X0077352Y0116357D02*
X0067352Y0116357D01*
X0067063Y0116389D01*
X0066788Y0116486D01*
X0066541Y0116640D01*
X0066336Y0116846D01*
X0066181Y0117093D01*
X0066085Y0117368D01*
X0077352Y0117368D01*
X0077352Y0116970D02*
X0066258Y0116970D01*
X0066085Y0117368D02*
X0066052Y0117657D01*
X0066052Y0120557D01*
X0066082Y0120824D01*
X0066171Y0121077D01*
X0066314Y0121305D01*
X0066504Y0121495D01*
X0066731Y0121638D01*
X0066985Y0121727D01*
X0067252Y0121757D01*
X0074152Y0121757D01*
X0074190Y0121764D01*
X0074223Y0121786D01*
X0074244Y0121819D01*
X0074252Y0121857D01*
X0074252Y0123757D01*
X0077352Y0123757D01*
X0077352Y0116357D01*
X0077352Y0116571D02*
X0066652Y0116571D01*
X0066052Y0117767D02*
X0077352Y0117767D01*
X0077352Y0118165D02*
X0066052Y0118165D01*
X0066052Y0118564D02*
X0077352Y0118564D01*
X0077352Y0118962D02*
X0066052Y0118962D01*
X0066052Y0119361D02*
X0077352Y0119361D01*
X0077352Y0119759D02*
X0066052Y0119759D01*
X0066052Y0120158D02*
X0077352Y0120158D01*
X0077352Y0120556D02*
X0066052Y0120556D01*
X0066128Y0120955D02*
X0077352Y0120955D01*
X0077352Y0121353D02*
X0066362Y0121353D01*
X0067206Y0121752D02*
X0077352Y0121752D01*
X0077352Y0122150D02*
X0074252Y0122150D01*
X0074252Y0122549D02*
X0077352Y0122549D01*
X0077352Y0122947D02*
X0074252Y0122947D01*
X0074252Y0123346D02*
X0077352Y0123346D01*
X0077352Y0123744D02*
X0074252Y0123744D01*
X0074252Y0215294D02*
X0077352Y0215294D01*
X0077352Y0222694D01*
X0067352Y0222694D01*
X0067063Y0222661D01*
X0066788Y0222565D01*
X0066541Y0222410D01*
X0066336Y0222204D01*
X0066181Y0221958D01*
X0066085Y0221683D01*
X0066052Y0221394D01*
X0066052Y0218494D01*
X0066082Y0218227D01*
X0066171Y0217973D01*
X0066314Y0217746D01*
X0066504Y0217555D01*
X0066731Y0217413D01*
X0066985Y0217324D01*
X0067252Y0217294D01*
X0074152Y0217294D01*
X0074190Y0217286D01*
X0074223Y0217264D01*
X0074244Y0217232D01*
X0074252Y0217194D01*
X0074252Y0215294D01*
X0074252Y0215402D02*
X0077352Y0215402D01*
X0077352Y0215800D02*
X0074252Y0215800D01*
X0074252Y0216199D02*
X0077352Y0216199D01*
X0077352Y0216597D02*
X0074252Y0216597D01*
X0074252Y0216996D02*
X0077352Y0216996D01*
X0077352Y0217394D02*
X0066783Y0217394D01*
X0066284Y0217793D02*
X0077352Y0217793D01*
X0077352Y0218191D02*
X0066094Y0218191D01*
X0066052Y0218590D02*
X0077352Y0218590D01*
X0077352Y0218988D02*
X0066052Y0218988D01*
X0066052Y0219387D02*
X0077352Y0219387D01*
X0077352Y0219785D02*
X0066052Y0219785D01*
X0066052Y0220184D02*
X0077352Y0220184D01*
X0077352Y0220582D02*
X0066052Y0220582D01*
X0066052Y0220981D02*
X0077352Y0220981D01*
X0077352Y0221379D02*
X0066052Y0221379D01*
X0066118Y0221778D02*
X0077352Y0221778D01*
X0077352Y0222177D02*
X0066318Y0222177D01*
X0066817Y0222575D02*
X0077352Y0222575D01*
X0077352Y0238357D02*
X0067352Y0238357D01*
X0067063Y0238389D01*
X0066788Y0238486D01*
X0066541Y0238640D01*
X0066336Y0238846D01*
X0066181Y0239093D01*
X0066085Y0239368D01*
X0066052Y0239657D01*
X0066052Y0242557D01*
X0066082Y0242824D01*
X0066171Y0243077D01*
X0066314Y0243305D01*
X0066504Y0243495D01*
X0066731Y0243638D01*
X0066985Y0243727D01*
X0067252Y0243757D01*
X0074152Y0243757D01*
X0074190Y0243764D01*
X0074223Y0243786D01*
X0074244Y0243819D01*
X0074252Y0243857D01*
X0074252Y0245757D01*
X0077352Y0245757D01*
X0077352Y0238357D01*
X0077352Y0238515D02*
X0066740Y0238515D01*
X0066293Y0238914D02*
X0077352Y0238914D01*
X0077352Y0239312D02*
X0066104Y0239312D01*
X0066052Y0239711D02*
X0077352Y0239711D01*
X0077352Y0240110D02*
X0066052Y0240110D01*
X0066052Y0240508D02*
X0077352Y0240508D01*
X0077352Y0240907D02*
X0066052Y0240907D01*
X0066052Y0241305D02*
X0077352Y0241305D01*
X0077352Y0241704D02*
X0066052Y0241704D01*
X0066052Y0242102D02*
X0077352Y0242102D01*
X0077352Y0242501D02*
X0066052Y0242501D01*
X0066108Y0242899D02*
X0077352Y0242899D01*
X0077352Y0243298D02*
X0066309Y0243298D01*
X0066897Y0243696D02*
X0077352Y0243696D01*
X0077352Y0244095D02*
X0074252Y0244095D01*
X0074252Y0244493D02*
X0077352Y0244493D01*
X0077352Y0244892D02*
X0074252Y0244892D01*
X0074252Y0245290D02*
X0077352Y0245290D01*
X0077352Y0245689D02*
X0074252Y0245689D01*
X0074252Y0337294D02*
X0077352Y0337294D01*
X0077352Y0344694D01*
X0067352Y0344694D01*
X0067063Y0344661D01*
X0066788Y0344565D01*
X0066541Y0344410D01*
X0066336Y0344204D01*
X0066181Y0343958D01*
X0066085Y0343683D01*
X0066052Y0343394D01*
X0066052Y0340494D01*
X0066082Y0340227D01*
X0066171Y0339973D01*
X0066314Y0339746D01*
X0066504Y0339555D01*
X0066731Y0339413D01*
X0066985Y0339324D01*
X0067252Y0339294D01*
X0074152Y0339294D01*
X0074190Y0339286D01*
X0074223Y0339264D01*
X0074244Y0339232D01*
X0074252Y0339194D01*
X0074252Y0337294D01*
X0074252Y0337346D02*
X0077352Y0337346D01*
X0077352Y0337745D02*
X0074252Y0337745D01*
X0074252Y0338143D02*
X0077352Y0338143D01*
X0077352Y0338542D02*
X0074252Y0338542D01*
X0074252Y0338940D02*
X0077352Y0338940D01*
X0077352Y0339339D02*
X0066942Y0339339D01*
X0066322Y0339737D02*
X0077352Y0339737D01*
X0077352Y0340136D02*
X0066114Y0340136D01*
X0066052Y0340534D02*
X0077352Y0340534D01*
X0077352Y0340933D02*
X0066052Y0340933D01*
X0066052Y0341331D02*
X0077352Y0341331D01*
X0077352Y0341730D02*
X0066052Y0341730D01*
X0066052Y0342128D02*
X0077352Y0342128D01*
X0077352Y0342527D02*
X0066052Y0342527D01*
X0066052Y0342925D02*
X0077352Y0342925D01*
X0077352Y0343324D02*
X0066052Y0343324D01*
X0066098Y0343722D02*
X0077352Y0343722D01*
X0077352Y0344121D02*
X0066283Y0344121D01*
X0066716Y0344519D02*
X0077352Y0344519D01*
X0077352Y0360357D02*
X0067352Y0360357D01*
X0067063Y0360389D01*
X0066788Y0360486D01*
X0066541Y0360640D01*
X0066336Y0360846D01*
X0066181Y0361093D01*
X0066085Y0361368D01*
X0066052Y0361657D01*
X0066052Y0364557D01*
X0066082Y0364824D01*
X0066171Y0365077D01*
X0066314Y0365305D01*
X0066504Y0365495D01*
X0066731Y0365638D01*
X0066985Y0365727D01*
X0067252Y0365757D01*
X0074152Y0365757D01*
X0074190Y0365764D01*
X0074223Y0365786D01*
X0074244Y0365819D01*
X0074252Y0365857D01*
X0074252Y0367757D01*
X0077352Y0367757D01*
X0077352Y0360357D01*
X0077352Y0360460D02*
X0066861Y0360460D01*
X0066328Y0360858D02*
X0077352Y0360858D01*
X0077352Y0361257D02*
X0066123Y0361257D01*
X0066052Y0361655D02*
X0077352Y0361655D01*
X0077352Y0362054D02*
X0066052Y0362054D01*
X0066052Y0362452D02*
X0077352Y0362452D01*
X0077352Y0362851D02*
X0066052Y0362851D01*
X0066052Y0363250D02*
X0077352Y0363250D01*
X0077352Y0363648D02*
X0066052Y0363648D01*
X0066052Y0364047D02*
X0077352Y0364047D01*
X0077352Y0364445D02*
X0066052Y0364445D01*
X0066089Y0364844D02*
X0077352Y0364844D01*
X0077352Y0365242D02*
X0066274Y0365242D01*
X0066739Y0365641D02*
X0077352Y0365641D01*
X0077352Y0366039D02*
X0074252Y0366039D01*
X0074252Y0366438D02*
X0077352Y0366438D01*
X0077352Y0366836D02*
X0074252Y0366836D01*
X0074252Y0367235D02*
X0077352Y0367235D01*
X0077352Y0367633D02*
X0074252Y0367633D01*
X0253052Y0364557D02*
X0253082Y0364824D01*
X0253171Y0365077D01*
X0253314Y0365305D01*
X0253504Y0365495D01*
X0253731Y0365638D01*
X0253985Y0365727D01*
X0254252Y0365757D01*
X0261152Y0365757D01*
X0261190Y0365764D01*
X0261223Y0365786D01*
X0261244Y0365819D01*
X0261252Y0365857D01*
X0261252Y0367757D01*
X0264352Y0367757D01*
X0264352Y0360357D01*
X0254352Y0360357D01*
X0254063Y0360389D01*
X0253788Y0360486D01*
X0253541Y0360640D01*
X0253336Y0360846D01*
X0253181Y0361093D01*
X0253085Y0361368D01*
X0253052Y0361657D01*
X0253052Y0364557D01*
X0253052Y0364445D02*
X0264352Y0364445D01*
X0264352Y0364047D02*
X0253052Y0364047D01*
X0253052Y0363648D02*
X0264352Y0363648D01*
X0264352Y0363250D02*
X0253052Y0363250D01*
X0253052Y0362851D02*
X0264352Y0362851D01*
X0264352Y0362452D02*
X0253052Y0362452D01*
X0253052Y0362054D02*
X0264352Y0362054D01*
X0264352Y0361655D02*
X0253052Y0361655D01*
X0253123Y0361257D02*
X0264352Y0361257D01*
X0264352Y0360858D02*
X0253328Y0360858D01*
X0253861Y0360460D02*
X0264352Y0360460D01*
X0264352Y0364844D02*
X0253089Y0364844D01*
X0253274Y0365242D02*
X0264352Y0365242D01*
X0264352Y0365641D02*
X0253739Y0365641D01*
X0261252Y0366039D02*
X0264352Y0366039D01*
X0264352Y0366438D02*
X0261252Y0366438D01*
X0261252Y0366836D02*
X0264352Y0366836D01*
X0264352Y0367235D02*
X0261252Y0367235D01*
X0261252Y0367633D02*
X0264352Y0367633D01*
X0264352Y0344694D02*
X0254352Y0344694D01*
X0254063Y0344661D01*
X0253788Y0344565D01*
X0253541Y0344410D01*
X0253336Y0344204D01*
X0253181Y0343958D01*
X0253085Y0343683D01*
X0253052Y0343394D01*
X0253052Y0340494D01*
X0253082Y0340227D01*
X0253171Y0339973D01*
X0253314Y0339746D01*
X0253504Y0339555D01*
X0253731Y0339413D01*
X0253985Y0339324D01*
X0254252Y0339294D01*
X0261152Y0339294D01*
X0261190Y0339286D01*
X0261223Y0339264D01*
X0261244Y0339232D01*
X0261252Y0339194D01*
X0261252Y0337294D01*
X0264352Y0337294D01*
X0264352Y0344694D01*
X0264352Y0344519D02*
X0253716Y0344519D01*
X0253283Y0344121D02*
X0264352Y0344121D01*
X0264352Y0343722D02*
X0253098Y0343722D01*
X0253052Y0343324D02*
X0264352Y0343324D01*
X0264352Y0342925D02*
X0253052Y0342925D01*
X0253052Y0342527D02*
X0264352Y0342527D01*
X0264352Y0342128D02*
X0253052Y0342128D01*
X0253052Y0341730D02*
X0264352Y0341730D01*
X0264352Y0341331D02*
X0253052Y0341331D01*
X0253052Y0340933D02*
X0264352Y0340933D01*
X0264352Y0340534D02*
X0253052Y0340534D01*
X0253114Y0340136D02*
X0264352Y0340136D01*
X0264352Y0339737D02*
X0253322Y0339737D01*
X0253942Y0339339D02*
X0264352Y0339339D01*
X0264352Y0338940D02*
X0261252Y0338940D01*
X0261252Y0338542D02*
X0264352Y0338542D01*
X0264352Y0338143D02*
X0261252Y0338143D01*
X0261252Y0337745D02*
X0264352Y0337745D01*
X0264352Y0337346D02*
X0261252Y0337346D01*
X0261252Y0245757D02*
X0264352Y0245757D01*
X0264352Y0238357D01*
X0254352Y0238357D01*
X0254063Y0238389D01*
X0253788Y0238486D01*
X0253541Y0238640D01*
X0253336Y0238846D01*
X0253181Y0239093D01*
X0253085Y0239368D01*
X0253052Y0239657D01*
X0253052Y0242557D01*
X0253082Y0242824D01*
X0253171Y0243077D01*
X0253314Y0243305D01*
X0253504Y0243495D01*
X0253731Y0243638D01*
X0253985Y0243727D01*
X0254252Y0243757D01*
X0261152Y0243757D01*
X0261190Y0243764D01*
X0261223Y0243786D01*
X0261244Y0243819D01*
X0261252Y0243857D01*
X0261252Y0245757D01*
X0261252Y0245689D02*
X0264352Y0245689D01*
X0264352Y0245290D02*
X0261252Y0245290D01*
X0261252Y0244892D02*
X0264352Y0244892D01*
X0264352Y0244493D02*
X0261252Y0244493D01*
X0261252Y0244095D02*
X0264352Y0244095D01*
X0264352Y0243696D02*
X0253897Y0243696D01*
X0253309Y0243298D02*
X0264352Y0243298D01*
X0264352Y0242899D02*
X0253108Y0242899D01*
X0253052Y0242501D02*
X0264352Y0242501D01*
X0264352Y0242102D02*
X0253052Y0242102D01*
X0253052Y0241704D02*
X0264352Y0241704D01*
X0264352Y0241305D02*
X0253052Y0241305D01*
X0253052Y0240907D02*
X0264352Y0240907D01*
X0264352Y0240508D02*
X0253052Y0240508D01*
X0253052Y0240110D02*
X0264352Y0240110D01*
X0264352Y0239711D02*
X0253052Y0239711D01*
X0253104Y0239312D02*
X0264352Y0239312D01*
X0264352Y0238914D02*
X0253293Y0238914D01*
X0253740Y0238515D02*
X0264352Y0238515D01*
X0264352Y0222694D02*
X0254352Y0222694D01*
X0254063Y0222661D01*
X0253788Y0222565D01*
X0253541Y0222410D01*
X0253336Y0222204D01*
X0253181Y0221958D01*
X0253085Y0221683D01*
X0253052Y0221394D01*
X0253052Y0218494D01*
X0253082Y0218227D01*
X0253171Y0217973D01*
X0253314Y0217746D01*
X0253504Y0217555D01*
X0253731Y0217413D01*
X0253985Y0217324D01*
X0254252Y0217294D01*
X0261152Y0217294D01*
X0261190Y0217286D01*
X0261223Y0217264D01*
X0261244Y0217232D01*
X0261252Y0217194D01*
X0261252Y0215294D01*
X0264352Y0215294D01*
X0264352Y0222694D01*
X0264352Y0222575D02*
X0253817Y0222575D01*
X0253318Y0222177D02*
X0264352Y0222177D01*
X0264352Y0221778D02*
X0253118Y0221778D01*
X0253052Y0221379D02*
X0264352Y0221379D01*
X0264352Y0220981D02*
X0253052Y0220981D01*
X0253052Y0220582D02*
X0264352Y0220582D01*
X0264352Y0220184D02*
X0253052Y0220184D01*
X0253052Y0219785D02*
X0264352Y0219785D01*
X0264352Y0219387D02*
X0253052Y0219387D01*
X0253052Y0218988D02*
X0264352Y0218988D01*
X0264352Y0218590D02*
X0253052Y0218590D01*
X0253094Y0218191D02*
X0264352Y0218191D01*
X0264352Y0217793D02*
X0253284Y0217793D01*
X0253783Y0217394D02*
X0264352Y0217394D01*
X0264352Y0216996D02*
X0261252Y0216996D01*
X0261252Y0216597D02*
X0264352Y0216597D01*
X0264352Y0216199D02*
X0261252Y0216199D01*
X0261252Y0215800D02*
X0264352Y0215800D01*
X0264352Y0215402D02*
X0261252Y0215402D01*
X0261252Y0123757D02*
X0264352Y0123757D01*
X0264352Y0116357D01*
X0254352Y0116357D01*
X0254063Y0116389D01*
X0253788Y0116486D01*
X0253541Y0116640D01*
X0253336Y0116846D01*
X0253181Y0117093D01*
X0253085Y0117368D01*
X0264352Y0117368D01*
X0264352Y0116970D02*
X0253258Y0116970D01*
X0253085Y0117368D02*
X0253052Y0117657D01*
X0253052Y0120557D01*
X0253082Y0120824D01*
X0253171Y0121077D01*
X0253314Y0121305D01*
X0253504Y0121495D01*
X0253731Y0121638D01*
X0253985Y0121727D01*
X0254252Y0121757D01*
X0261152Y0121757D01*
X0261190Y0121764D01*
X0261223Y0121786D01*
X0261244Y0121819D01*
X0261252Y0121857D01*
X0261252Y0123757D01*
X0261252Y0123744D02*
X0264352Y0123744D01*
X0264352Y0123346D02*
X0261252Y0123346D01*
X0261252Y0122947D02*
X0264352Y0122947D01*
X0264352Y0122549D02*
X0261252Y0122549D01*
X0261252Y0122150D02*
X0264352Y0122150D01*
X0264352Y0121752D02*
X0254206Y0121752D01*
X0253362Y0121353D02*
X0264352Y0121353D01*
X0264352Y0120955D02*
X0253128Y0120955D01*
X0253052Y0120556D02*
X0264352Y0120556D01*
X0264352Y0120158D02*
X0253052Y0120158D01*
X0253052Y0119759D02*
X0264352Y0119759D01*
X0264352Y0119361D02*
X0253052Y0119361D01*
X0253052Y0118962D02*
X0264352Y0118962D01*
X0264352Y0118564D02*
X0253052Y0118564D01*
X0253052Y0118165D02*
X0264352Y0118165D01*
X0264352Y0117767D02*
X0253052Y0117767D01*
X0253652Y0116571D02*
X0264352Y0116571D01*
X0264352Y0100694D02*
X0254352Y0100694D01*
X0254063Y0100661D01*
X0253788Y0100565D01*
X0253541Y0100410D01*
X0253336Y0100204D01*
X0253181Y0099958D01*
X0253085Y0099683D01*
X0253052Y0099394D01*
X0253052Y0096494D01*
X0253082Y0096227D01*
X0253171Y0095973D01*
X0253314Y0095746D01*
X0253504Y0095555D01*
X0253731Y0095413D01*
X0253985Y0095324D01*
X0254252Y0095294D01*
X0261152Y0095294D01*
X0261190Y0095286D01*
X0261223Y0095264D01*
X0261244Y0095232D01*
X0261252Y0095194D01*
X0261252Y0093294D01*
X0264352Y0093294D01*
X0264352Y0100694D01*
X0264352Y0100631D02*
X0253975Y0100631D01*
X0253363Y0100232D02*
X0264352Y0100232D01*
X0264352Y0099834D02*
X0253137Y0099834D01*
X0253057Y0099435D02*
X0264352Y0099435D01*
X0264352Y0099037D02*
X0253052Y0099037D01*
X0253052Y0098638D02*
X0264352Y0098638D01*
X0264352Y0098239D02*
X0253052Y0098239D01*
X0253052Y0097841D02*
X0264352Y0097841D01*
X0264352Y0097442D02*
X0253052Y0097442D01*
X0253052Y0097044D02*
X0264352Y0097044D01*
X0264352Y0096645D02*
X0253052Y0096645D01*
X0253080Y0096247D02*
X0264352Y0096247D01*
X0264352Y0095848D02*
X0253249Y0095848D01*
X0253672Y0095450D02*
X0264352Y0095450D01*
X0264352Y0095051D02*
X0261252Y0095051D01*
X0261252Y0094653D02*
X0264352Y0094653D01*
X0264352Y0094254D02*
X0261252Y0094254D01*
X0261252Y0093856D02*
X0264352Y0093856D01*
X0264352Y0093457D02*
X0261252Y0093457D01*
X0440052Y0096494D02*
X0440082Y0096227D01*
X0440171Y0095973D01*
X0440314Y0095746D01*
X0440504Y0095555D01*
X0440731Y0095413D01*
X0440985Y0095324D01*
X0441252Y0095294D01*
X0448152Y0095294D01*
X0448190Y0095286D01*
X0448223Y0095264D01*
X0448244Y0095232D01*
X0448252Y0095194D01*
X0448252Y0093294D01*
X0451352Y0093294D01*
X0451352Y0100694D01*
X0441352Y0100694D01*
X0441063Y0100661D01*
X0440788Y0100565D01*
X0440541Y0100410D01*
X0440336Y0100204D01*
X0440181Y0099958D01*
X0440085Y0099683D01*
X0440052Y0099394D01*
X0440052Y0096494D01*
X0440052Y0096645D02*
X0451352Y0096645D01*
X0451352Y0096247D02*
X0440080Y0096247D01*
X0440249Y0095848D02*
X0451352Y0095848D01*
X0451352Y0095450D02*
X0440672Y0095450D01*
X0440052Y0097044D02*
X0451352Y0097044D01*
X0451352Y0097442D02*
X0440052Y0097442D01*
X0440052Y0097841D02*
X0451352Y0097841D01*
X0451352Y0098239D02*
X0440052Y0098239D01*
X0440052Y0098638D02*
X0451352Y0098638D01*
X0451352Y0099037D02*
X0440052Y0099037D01*
X0440057Y0099435D02*
X0451352Y0099435D01*
X0451352Y0099834D02*
X0440137Y0099834D01*
X0440363Y0100232D02*
X0451352Y0100232D01*
X0451352Y0100631D02*
X0440975Y0100631D01*
X0448252Y0095051D02*
X0451352Y0095051D01*
X0451352Y0094653D02*
X0448252Y0094653D01*
X0448252Y0094254D02*
X0451352Y0094254D01*
X0451352Y0093856D02*
X0448252Y0093856D01*
X0448252Y0093457D02*
X0451352Y0093457D01*
X0451352Y0116357D02*
X0441352Y0116357D01*
X0441063Y0116389D01*
X0440788Y0116486D01*
X0440541Y0116640D01*
X0440336Y0116846D01*
X0440181Y0117093D01*
X0440085Y0117368D01*
X0451352Y0117368D01*
X0451352Y0116970D02*
X0440258Y0116970D01*
X0440085Y0117368D02*
X0440052Y0117657D01*
X0440052Y0120557D01*
X0440082Y0120824D01*
X0440171Y0121077D01*
X0440314Y0121305D01*
X0440504Y0121495D01*
X0440731Y0121638D01*
X0440985Y0121727D01*
X0441252Y0121757D01*
X0448152Y0121757D01*
X0448190Y0121764D01*
X0448223Y0121786D01*
X0448244Y0121819D01*
X0448252Y0121857D01*
X0448252Y0123757D01*
X0451352Y0123757D01*
X0451352Y0116357D01*
X0451352Y0116571D02*
X0440652Y0116571D01*
X0440052Y0117767D02*
X0451352Y0117767D01*
X0451352Y0118165D02*
X0440052Y0118165D01*
X0440052Y0118564D02*
X0451352Y0118564D01*
X0451352Y0118962D02*
X0440052Y0118962D01*
X0440052Y0119361D02*
X0451352Y0119361D01*
X0451352Y0119759D02*
X0440052Y0119759D01*
X0440052Y0120158D02*
X0451352Y0120158D01*
X0451352Y0120556D02*
X0440052Y0120556D01*
X0440128Y0120955D02*
X0451352Y0120955D01*
X0451352Y0121353D02*
X0440362Y0121353D01*
X0441206Y0121752D02*
X0451352Y0121752D01*
X0451352Y0122150D02*
X0448252Y0122150D01*
X0448252Y0122549D02*
X0451352Y0122549D01*
X0451352Y0122947D02*
X0448252Y0122947D01*
X0448252Y0123346D02*
X0451352Y0123346D01*
X0451352Y0123744D02*
X0448252Y0123744D01*
X0448252Y0215294D02*
X0451352Y0215294D01*
X0451352Y0222694D01*
X0441352Y0222694D01*
X0441063Y0222661D01*
X0440788Y0222565D01*
X0440541Y0222410D01*
X0440336Y0222204D01*
X0440181Y0221958D01*
X0440085Y0221683D01*
X0440052Y0221394D01*
X0440052Y0218494D01*
X0440082Y0218227D01*
X0440171Y0217973D01*
X0440314Y0217746D01*
X0440504Y0217555D01*
X0440731Y0217413D01*
X0440985Y0217324D01*
X0441252Y0217294D01*
X0448152Y0217294D01*
X0448190Y0217286D01*
X0448223Y0217264D01*
X0448244Y0217232D01*
X0448252Y0217194D01*
X0448252Y0215294D01*
X0448252Y0215402D02*
X0451352Y0215402D01*
X0451352Y0215800D02*
X0448252Y0215800D01*
X0448252Y0216199D02*
X0451352Y0216199D01*
X0451352Y0216597D02*
X0448252Y0216597D01*
X0448252Y0216996D02*
X0451352Y0216996D01*
X0451352Y0217394D02*
X0440783Y0217394D01*
X0440284Y0217793D02*
X0451352Y0217793D01*
X0451352Y0218191D02*
X0440094Y0218191D01*
X0440052Y0218590D02*
X0451352Y0218590D01*
X0451352Y0218988D02*
X0440052Y0218988D01*
X0440052Y0219387D02*
X0451352Y0219387D01*
X0451352Y0219785D02*
X0440052Y0219785D01*
X0440052Y0220184D02*
X0451352Y0220184D01*
X0451352Y0220582D02*
X0440052Y0220582D01*
X0440052Y0220981D02*
X0451352Y0220981D01*
X0451352Y0221379D02*
X0440052Y0221379D01*
X0440118Y0221778D02*
X0451352Y0221778D01*
X0451352Y0222177D02*
X0440318Y0222177D01*
X0440817Y0222575D02*
X0451352Y0222575D01*
X0451352Y0238357D02*
X0441352Y0238357D01*
X0441063Y0238389D01*
X0440788Y0238486D01*
X0440541Y0238640D01*
X0440336Y0238846D01*
X0440181Y0239093D01*
X0440085Y0239368D01*
X0440052Y0239657D01*
X0440052Y0242557D01*
X0440082Y0242824D01*
X0440171Y0243077D01*
X0440314Y0243305D01*
X0440504Y0243495D01*
X0440731Y0243638D01*
X0440985Y0243727D01*
X0441252Y0243757D01*
X0448152Y0243757D01*
X0448190Y0243764D01*
X0448223Y0243786D01*
X0448244Y0243819D01*
X0448252Y0243857D01*
X0448252Y0245757D01*
X0451352Y0245757D01*
X0451352Y0238357D01*
X0451352Y0238515D02*
X0440740Y0238515D01*
X0440293Y0238914D02*
X0451352Y0238914D01*
X0451352Y0239312D02*
X0440104Y0239312D01*
X0440052Y0239711D02*
X0451352Y0239711D01*
X0451352Y0240110D02*
X0440052Y0240110D01*
X0440052Y0240508D02*
X0451352Y0240508D01*
X0451352Y0240907D02*
X0440052Y0240907D01*
X0440052Y0241305D02*
X0451352Y0241305D01*
X0451352Y0241704D02*
X0440052Y0241704D01*
X0440052Y0242102D02*
X0451352Y0242102D01*
X0451352Y0242501D02*
X0440052Y0242501D01*
X0440108Y0242899D02*
X0451352Y0242899D01*
X0451352Y0243298D02*
X0440309Y0243298D01*
X0440897Y0243696D02*
X0451352Y0243696D01*
X0451352Y0244095D02*
X0448252Y0244095D01*
X0448252Y0244493D02*
X0451352Y0244493D01*
X0451352Y0244892D02*
X0448252Y0244892D01*
X0448252Y0245290D02*
X0451352Y0245290D01*
X0451352Y0245689D02*
X0448252Y0245689D01*
X0448252Y0337294D02*
X0451352Y0337294D01*
X0451352Y0344694D01*
X0441352Y0344694D01*
X0441063Y0344661D01*
X0440788Y0344565D01*
X0440541Y0344410D01*
X0440336Y0344204D01*
X0440181Y0343958D01*
X0440085Y0343683D01*
X0440052Y0343394D01*
X0440052Y0340494D01*
X0440082Y0340227D01*
X0440171Y0339973D01*
X0440314Y0339746D01*
X0440504Y0339555D01*
X0440731Y0339413D01*
X0440985Y0339324D01*
X0441252Y0339294D01*
X0448152Y0339294D01*
X0448190Y0339286D01*
X0448223Y0339264D01*
X0448244Y0339232D01*
X0448252Y0339194D01*
X0448252Y0337294D01*
X0448252Y0337346D02*
X0451352Y0337346D01*
X0451352Y0337745D02*
X0448252Y0337745D01*
X0448252Y0338143D02*
X0451352Y0338143D01*
X0451352Y0338542D02*
X0448252Y0338542D01*
X0448252Y0338940D02*
X0451352Y0338940D01*
X0451352Y0339339D02*
X0440942Y0339339D01*
X0440322Y0339737D02*
X0451352Y0339737D01*
X0451352Y0340136D02*
X0440114Y0340136D01*
X0440052Y0340534D02*
X0451352Y0340534D01*
X0451352Y0340933D02*
X0440052Y0340933D01*
X0440052Y0341331D02*
X0451352Y0341331D01*
X0451352Y0341730D02*
X0440052Y0341730D01*
X0440052Y0342128D02*
X0451352Y0342128D01*
X0451352Y0342527D02*
X0440052Y0342527D01*
X0440052Y0342925D02*
X0451352Y0342925D01*
X0451352Y0343324D02*
X0440052Y0343324D01*
X0440098Y0343722D02*
X0451352Y0343722D01*
X0451352Y0344121D02*
X0440283Y0344121D01*
X0440716Y0344519D02*
X0451352Y0344519D01*
X0451352Y0360357D02*
X0441352Y0360357D01*
X0441063Y0360389D01*
X0440788Y0360486D01*
X0440541Y0360640D01*
X0440336Y0360846D01*
X0440181Y0361093D01*
X0440085Y0361368D01*
X0440052Y0361657D01*
X0440052Y0364557D01*
X0440082Y0364824D01*
X0440171Y0365077D01*
X0440314Y0365305D01*
X0440504Y0365495D01*
X0440731Y0365638D01*
X0440985Y0365727D01*
X0441252Y0365757D01*
X0448152Y0365757D01*
X0448190Y0365764D01*
X0448223Y0365786D01*
X0448244Y0365819D01*
X0448252Y0365857D01*
X0448252Y0367757D01*
X0451352Y0367757D01*
X0451352Y0360357D01*
X0451352Y0360460D02*
X0440861Y0360460D01*
X0440328Y0360858D02*
X0451352Y0360858D01*
X0451352Y0361257D02*
X0440123Y0361257D01*
X0440052Y0361655D02*
X0451352Y0361655D01*
X0451352Y0362054D02*
X0440052Y0362054D01*
X0440052Y0362452D02*
X0451352Y0362452D01*
X0451352Y0362851D02*
X0440052Y0362851D01*
X0440052Y0363250D02*
X0451352Y0363250D01*
X0451352Y0363648D02*
X0440052Y0363648D01*
X0440052Y0364047D02*
X0451352Y0364047D01*
X0451352Y0364445D02*
X0440052Y0364445D01*
X0440089Y0364844D02*
X0451352Y0364844D01*
X0451352Y0365242D02*
X0440274Y0365242D01*
X0440739Y0365641D02*
X0451352Y0365641D01*
X0451352Y0366039D02*
X0448252Y0366039D01*
X0448252Y0366438D02*
X0451352Y0366438D01*
X0451352Y0366836D02*
X0448252Y0366836D01*
X0448252Y0367235D02*
X0451352Y0367235D01*
X0451352Y0367633D02*
X0448252Y0367633D01*
D17*
X0450739Y0358110D02*
X0457137Y0358110D01*
X0457137Y0357126D01*
X0450739Y0357126D01*
X0450739Y0358110D01*
X0450739Y0358075D02*
X0457137Y0358075D01*
X0457137Y0357880D02*
X0450739Y0357880D01*
X0450739Y0357684D02*
X0457137Y0357684D01*
X0457137Y0357489D02*
X0450739Y0357489D01*
X0450739Y0357294D02*
X0457137Y0357294D01*
X0457137Y0355551D02*
X0450739Y0355551D01*
X0450739Y0354567D01*
X0457137Y0354567D01*
X0457137Y0355551D01*
X0457137Y0355536D02*
X0450739Y0355536D01*
X0450739Y0355340D02*
X0457137Y0355340D01*
X0457137Y0355145D02*
X0450739Y0355145D01*
X0450739Y0354949D02*
X0457137Y0354949D01*
X0457137Y0354754D02*
X0450739Y0354754D01*
X0450739Y0352992D02*
X0457137Y0352992D01*
X0457137Y0352008D01*
X0450739Y0352008D01*
X0450739Y0352992D01*
X0450739Y0352800D02*
X0457137Y0352800D01*
X0457137Y0352605D02*
X0450739Y0352605D01*
X0450739Y0352410D02*
X0457137Y0352410D01*
X0457137Y0352214D02*
X0450739Y0352214D01*
X0450739Y0352019D02*
X0457137Y0352019D01*
X0457137Y0350433D02*
X0450739Y0350433D01*
X0450739Y0349449D01*
X0457137Y0349449D01*
X0457137Y0350433D01*
X0457137Y0350261D02*
X0450739Y0350261D01*
X0450739Y0350065D02*
X0457137Y0350065D01*
X0457137Y0349870D02*
X0450739Y0349870D01*
X0450739Y0349675D02*
X0457137Y0349675D01*
X0457137Y0349479D02*
X0450739Y0349479D01*
X0450739Y0347874D02*
X0457137Y0347874D01*
X0457137Y0346890D01*
X0450739Y0346890D01*
X0450739Y0347874D01*
X0450739Y0347721D02*
X0457137Y0347721D01*
X0457137Y0347526D02*
X0450739Y0347526D01*
X0450739Y0347330D02*
X0457137Y0347330D01*
X0457137Y0347135D02*
X0450739Y0347135D01*
X0450739Y0346940D02*
X0457137Y0346940D01*
X0457137Y0236110D02*
X0450739Y0236110D01*
X0450739Y0235126D01*
X0457137Y0235126D01*
X0457137Y0236110D01*
X0457137Y0235974D02*
X0450739Y0235974D01*
X0450739Y0235779D02*
X0457137Y0235779D01*
X0457137Y0235583D02*
X0450739Y0235583D01*
X0450739Y0235388D02*
X0457137Y0235388D01*
X0457137Y0235193D02*
X0450739Y0235193D01*
X0450739Y0233551D02*
X0457137Y0233551D01*
X0457137Y0232567D01*
X0450739Y0232567D01*
X0450739Y0233551D01*
X0450739Y0233434D02*
X0457137Y0233434D01*
X0457137Y0233239D02*
X0450739Y0233239D01*
X0450739Y0233044D02*
X0457137Y0233044D01*
X0457137Y0232848D02*
X0450739Y0232848D01*
X0450739Y0232653D02*
X0457137Y0232653D01*
X0457137Y0230992D02*
X0450739Y0230992D01*
X0450739Y0230008D01*
X0457137Y0230008D01*
X0457137Y0230992D01*
X0457137Y0230895D02*
X0450739Y0230895D01*
X0450739Y0230699D02*
X0457137Y0230699D01*
X0457137Y0230504D02*
X0450739Y0230504D01*
X0450739Y0230309D02*
X0457137Y0230309D01*
X0457137Y0230113D02*
X0450739Y0230113D01*
X0450739Y0228433D02*
X0457137Y0228433D01*
X0457137Y0227449D01*
X0450739Y0227449D01*
X0450739Y0228433D01*
X0450739Y0228355D02*
X0457137Y0228355D01*
X0457137Y0228160D02*
X0450739Y0228160D01*
X0450739Y0227964D02*
X0457137Y0227964D01*
X0457137Y0227769D02*
X0450739Y0227769D01*
X0450739Y0227574D02*
X0457137Y0227574D01*
X0457137Y0225874D02*
X0450739Y0225874D01*
X0450739Y0224890D01*
X0457137Y0224890D01*
X0457137Y0225874D01*
X0457137Y0225815D02*
X0450739Y0225815D01*
X0450739Y0225620D02*
X0457137Y0225620D01*
X0457137Y0225425D02*
X0450739Y0225425D01*
X0450739Y0225229D02*
X0457137Y0225229D01*
X0457137Y0225034D02*
X0450739Y0225034D01*
X0270137Y0225034D02*
X0263739Y0225034D01*
X0263739Y0224890D02*
X0263739Y0225874D01*
X0270137Y0225874D01*
X0270137Y0224890D01*
X0263739Y0224890D01*
X0263739Y0225229D02*
X0270137Y0225229D01*
X0270137Y0225425D02*
X0263739Y0225425D01*
X0263739Y0225620D02*
X0270137Y0225620D01*
X0270137Y0225815D02*
X0263739Y0225815D01*
X0263739Y0227449D02*
X0263739Y0228433D01*
X0270137Y0228433D01*
X0270137Y0227449D01*
X0263739Y0227449D01*
X0263739Y0227574D02*
X0270137Y0227574D01*
X0270137Y0227769D02*
X0263739Y0227769D01*
X0263739Y0227964D02*
X0270137Y0227964D01*
X0270137Y0228160D02*
X0263739Y0228160D01*
X0263739Y0228355D02*
X0270137Y0228355D01*
X0270137Y0230008D02*
X0263739Y0230008D01*
X0263739Y0230992D01*
X0270137Y0230992D01*
X0270137Y0230008D01*
X0270137Y0230113D02*
X0263739Y0230113D01*
X0263739Y0230309D02*
X0270137Y0230309D01*
X0270137Y0230504D02*
X0263739Y0230504D01*
X0263739Y0230699D02*
X0270137Y0230699D01*
X0270137Y0230895D02*
X0263739Y0230895D01*
X0263739Y0232567D02*
X0263739Y0233551D01*
X0270137Y0233551D01*
X0270137Y0232567D01*
X0263739Y0232567D01*
X0263739Y0232653D02*
X0270137Y0232653D01*
X0270137Y0232848D02*
X0263739Y0232848D01*
X0263739Y0233044D02*
X0270137Y0233044D01*
X0270137Y0233239D02*
X0263739Y0233239D01*
X0263739Y0233434D02*
X0270137Y0233434D01*
X0270137Y0235126D02*
X0263739Y0235126D01*
X0263739Y0236110D01*
X0270137Y0236110D01*
X0270137Y0235126D01*
X0270137Y0235193D02*
X0263739Y0235193D01*
X0263739Y0235388D02*
X0270137Y0235388D01*
X0270137Y0235583D02*
X0263739Y0235583D01*
X0263739Y0235779D02*
X0270137Y0235779D01*
X0270137Y0235974D02*
X0263739Y0235974D01*
X0263739Y0346890D02*
X0263739Y0347874D01*
X0270137Y0347874D01*
X0270137Y0346890D01*
X0263739Y0346890D01*
X0263739Y0346940D02*
X0270137Y0346940D01*
X0270137Y0347135D02*
X0263739Y0347135D01*
X0263739Y0347330D02*
X0270137Y0347330D01*
X0270137Y0347526D02*
X0263739Y0347526D01*
X0263739Y0347721D02*
X0270137Y0347721D01*
X0270137Y0349449D02*
X0263739Y0349449D01*
X0263739Y0350433D01*
X0270137Y0350433D01*
X0270137Y0349449D01*
X0270137Y0349479D02*
X0263739Y0349479D01*
X0263739Y0349675D02*
X0270137Y0349675D01*
X0270137Y0349870D02*
X0263739Y0349870D01*
X0263739Y0350065D02*
X0270137Y0350065D01*
X0270137Y0350261D02*
X0263739Y0350261D01*
X0263739Y0352008D02*
X0263739Y0352992D01*
X0270137Y0352992D01*
X0270137Y0352008D01*
X0263739Y0352008D01*
X0263739Y0352019D02*
X0270137Y0352019D01*
X0270137Y0352214D02*
X0263739Y0352214D01*
X0263739Y0352410D02*
X0270137Y0352410D01*
X0270137Y0352605D02*
X0263739Y0352605D01*
X0263739Y0352800D02*
X0270137Y0352800D01*
X0270137Y0354567D02*
X0263739Y0354567D01*
X0263739Y0355551D01*
X0270137Y0355551D01*
X0270137Y0354567D01*
X0270137Y0354754D02*
X0263739Y0354754D01*
X0263739Y0354949D02*
X0270137Y0354949D01*
X0270137Y0355145D02*
X0263739Y0355145D01*
X0263739Y0355340D02*
X0270137Y0355340D01*
X0270137Y0355536D02*
X0263739Y0355536D01*
X0263739Y0357126D02*
X0263739Y0358110D01*
X0270137Y0358110D01*
X0270137Y0357126D01*
X0263739Y0357126D01*
X0263739Y0357294D02*
X0270137Y0357294D01*
X0270137Y0357489D02*
X0263739Y0357489D01*
X0263739Y0357684D02*
X0270137Y0357684D01*
X0270137Y0357880D02*
X0263739Y0357880D01*
X0263739Y0358075D02*
X0270137Y0358075D01*
X0083137Y0358110D02*
X0083137Y0357126D01*
X0076739Y0357126D01*
X0076739Y0358110D01*
X0083137Y0358110D01*
X0083137Y0358075D02*
X0076739Y0358075D01*
X0076739Y0357880D02*
X0083137Y0357880D01*
X0083137Y0357684D02*
X0076739Y0357684D01*
X0076739Y0357489D02*
X0083137Y0357489D01*
X0083137Y0357294D02*
X0076739Y0357294D01*
X0076739Y0355551D02*
X0083137Y0355551D01*
X0083137Y0354567D01*
X0076739Y0354567D01*
X0076739Y0355551D01*
X0076739Y0355536D02*
X0083137Y0355536D01*
X0083137Y0355340D02*
X0076739Y0355340D01*
X0076739Y0355145D02*
X0083137Y0355145D01*
X0083137Y0354949D02*
X0076739Y0354949D01*
X0076739Y0354754D02*
X0083137Y0354754D01*
X0083137Y0352992D02*
X0076739Y0352992D01*
X0076739Y0352008D01*
X0083137Y0352008D01*
X0083137Y0352992D01*
X0083137Y0352800D02*
X0076739Y0352800D01*
X0076739Y0352605D02*
X0083137Y0352605D01*
X0083137Y0352410D02*
X0076739Y0352410D01*
X0076739Y0352214D02*
X0083137Y0352214D01*
X0083137Y0352019D02*
X0076739Y0352019D01*
X0076739Y0350433D02*
X0083137Y0350433D01*
X0083137Y0349449D01*
X0076739Y0349449D01*
X0076739Y0350433D01*
X0076739Y0350261D02*
X0083137Y0350261D01*
X0083137Y0350065D02*
X0076739Y0350065D01*
X0076739Y0349870D02*
X0083137Y0349870D01*
X0083137Y0349675D02*
X0076739Y0349675D01*
X0076739Y0349479D02*
X0083137Y0349479D01*
X0083137Y0347874D02*
X0076739Y0347874D01*
X0076739Y0346890D01*
X0083137Y0346890D01*
X0083137Y0347874D01*
X0083137Y0347721D02*
X0076739Y0347721D01*
X0076739Y0347526D02*
X0083137Y0347526D01*
X0083137Y0347330D02*
X0076739Y0347330D01*
X0076739Y0347135D02*
X0083137Y0347135D01*
X0083137Y0346940D02*
X0076739Y0346940D01*
X0076739Y0236110D02*
X0083137Y0236110D01*
X0083137Y0235126D01*
X0076739Y0235126D01*
X0076739Y0236110D01*
X0076739Y0235974D02*
X0083137Y0235974D01*
X0083137Y0235779D02*
X0076739Y0235779D01*
X0076739Y0235583D02*
X0083137Y0235583D01*
X0083137Y0235388D02*
X0076739Y0235388D01*
X0076739Y0235193D02*
X0083137Y0235193D01*
X0083137Y0233551D02*
X0076739Y0233551D01*
X0076739Y0232567D01*
X0083137Y0232567D01*
X0083137Y0233551D01*
X0083137Y0233434D02*
X0076739Y0233434D01*
X0076739Y0233239D02*
X0083137Y0233239D01*
X0083137Y0233044D02*
X0076739Y0233044D01*
X0076739Y0232848D02*
X0083137Y0232848D01*
X0083137Y0232653D02*
X0076739Y0232653D01*
X0076739Y0230992D02*
X0083137Y0230992D01*
X0083137Y0230008D01*
X0076739Y0230008D01*
X0076739Y0230992D01*
X0076739Y0230895D02*
X0083137Y0230895D01*
X0083137Y0230699D02*
X0076739Y0230699D01*
X0076739Y0230504D02*
X0083137Y0230504D01*
X0083137Y0230309D02*
X0076739Y0230309D01*
X0076739Y0230113D02*
X0083137Y0230113D01*
X0083137Y0228433D02*
X0076739Y0228433D01*
X0076739Y0227449D01*
X0083137Y0227449D01*
X0083137Y0228433D01*
X0083137Y0228355D02*
X0076739Y0228355D01*
X0076739Y0228160D02*
X0083137Y0228160D01*
X0083137Y0227964D02*
X0076739Y0227964D01*
X0076739Y0227769D02*
X0083137Y0227769D01*
X0083137Y0227574D02*
X0076739Y0227574D01*
X0076739Y0225874D02*
X0083137Y0225874D01*
X0083137Y0224890D01*
X0076739Y0224890D01*
X0076739Y0225874D01*
X0076739Y0225815D02*
X0083137Y0225815D01*
X0083137Y0225620D02*
X0076739Y0225620D01*
X0076739Y0225425D02*
X0083137Y0225425D01*
X0083137Y0225229D02*
X0076739Y0225229D01*
X0076739Y0225034D02*
X0083137Y0225034D01*
X0083137Y0114110D02*
X0076739Y0114110D01*
X0076739Y0113126D01*
X0083137Y0113126D01*
X0083137Y0114110D01*
X0083137Y0114068D02*
X0076739Y0114068D01*
X0076739Y0113873D02*
X0083137Y0113873D01*
X0083137Y0113678D02*
X0076739Y0113678D01*
X0076739Y0113482D02*
X0083137Y0113482D01*
X0083137Y0113287D02*
X0076739Y0113287D01*
X0076739Y0111551D02*
X0083137Y0111551D01*
X0083137Y0110567D01*
X0076739Y0110567D01*
X0076739Y0111551D01*
X0076739Y0111529D02*
X0083137Y0111529D01*
X0083137Y0111333D02*
X0076739Y0111333D01*
X0076739Y0111138D02*
X0083137Y0111138D01*
X0083137Y0110943D02*
X0076739Y0110943D01*
X0076739Y0110747D02*
X0083137Y0110747D01*
X0083137Y0108992D02*
X0076739Y0108992D01*
X0076739Y0108008D01*
X0083137Y0108008D01*
X0083137Y0108992D01*
X0083137Y0108989D02*
X0076739Y0108989D01*
X0076739Y0108794D02*
X0083137Y0108794D01*
X0083137Y0108598D02*
X0076739Y0108598D01*
X0076739Y0108403D02*
X0083137Y0108403D01*
X0083137Y0108208D02*
X0076739Y0108208D01*
X0076739Y0108012D02*
X0083137Y0108012D01*
X0083137Y0106433D02*
X0076739Y0106433D01*
X0076739Y0105449D01*
X0083137Y0105449D01*
X0083137Y0106433D01*
X0083137Y0106254D02*
X0076739Y0106254D01*
X0076739Y0106059D02*
X0083137Y0106059D01*
X0083137Y0105863D02*
X0076739Y0105863D01*
X0076739Y0105668D02*
X0083137Y0105668D01*
X0083137Y0105473D02*
X0076739Y0105473D01*
X0076739Y0103874D02*
X0083137Y0103874D01*
X0083137Y0102890D01*
X0076739Y0102890D01*
X0076739Y0103874D01*
X0076739Y0103714D02*
X0083137Y0103714D01*
X0083137Y0103519D02*
X0076739Y0103519D01*
X0076739Y0103324D02*
X0083137Y0103324D01*
X0083137Y0103128D02*
X0076739Y0103128D01*
X0076739Y0102933D02*
X0083137Y0102933D01*
X0263739Y0102933D02*
X0270137Y0102933D01*
X0270137Y0102890D02*
X0263739Y0102890D01*
X0263739Y0103874D01*
X0270137Y0103874D01*
X0270137Y0102890D01*
X0270137Y0103128D02*
X0263739Y0103128D01*
X0263739Y0103324D02*
X0270137Y0103324D01*
X0270137Y0103519D02*
X0263739Y0103519D01*
X0263739Y0103714D02*
X0270137Y0103714D01*
X0270137Y0105449D02*
X0263739Y0105449D01*
X0263739Y0106433D01*
X0270137Y0106433D01*
X0270137Y0105449D01*
X0270137Y0105473D02*
X0263739Y0105473D01*
X0263739Y0105668D02*
X0270137Y0105668D01*
X0270137Y0105863D02*
X0263739Y0105863D01*
X0263739Y0106059D02*
X0270137Y0106059D01*
X0270137Y0106254D02*
X0263739Y0106254D01*
X0263739Y0108008D02*
X0263739Y0108992D01*
X0270137Y0108992D01*
X0270137Y0108008D01*
X0263739Y0108008D01*
X0263739Y0108012D02*
X0270137Y0108012D01*
X0270137Y0108208D02*
X0263739Y0108208D01*
X0263739Y0108403D02*
X0270137Y0108403D01*
X0270137Y0108598D02*
X0263739Y0108598D01*
X0263739Y0108794D02*
X0270137Y0108794D01*
X0270137Y0108989D02*
X0263739Y0108989D01*
X0263739Y0110567D02*
X0263739Y0111551D01*
X0270137Y0111551D01*
X0270137Y0110567D01*
X0263739Y0110567D01*
X0263739Y0110747D02*
X0270137Y0110747D01*
X0270137Y0110943D02*
X0263739Y0110943D01*
X0263739Y0111138D02*
X0270137Y0111138D01*
X0270137Y0111333D02*
X0263739Y0111333D01*
X0263739Y0111529D02*
X0270137Y0111529D01*
X0270137Y0113126D02*
X0263739Y0113126D01*
X0263739Y0114110D01*
X0270137Y0114110D01*
X0270137Y0113126D01*
X0270137Y0113287D02*
X0263739Y0113287D01*
X0263739Y0113482D02*
X0270137Y0113482D01*
X0270137Y0113678D02*
X0263739Y0113678D01*
X0263739Y0113873D02*
X0270137Y0113873D01*
X0270137Y0114068D02*
X0263739Y0114068D01*
X0450739Y0114068D02*
X0457137Y0114068D01*
X0457137Y0114110D02*
X0450739Y0114110D01*
X0450739Y0113126D01*
X0457137Y0113126D01*
X0457137Y0114110D01*
X0457137Y0113873D02*
X0450739Y0113873D01*
X0450739Y0113678D02*
X0457137Y0113678D01*
X0457137Y0113482D02*
X0450739Y0113482D01*
X0450739Y0113287D02*
X0457137Y0113287D01*
X0457137Y0111551D02*
X0450739Y0111551D01*
X0450739Y0110567D01*
X0457137Y0110567D01*
X0457137Y0111551D01*
X0457137Y0111529D02*
X0450739Y0111529D01*
X0450739Y0111333D02*
X0457137Y0111333D01*
X0457137Y0111138D02*
X0450739Y0111138D01*
X0450739Y0110943D02*
X0457137Y0110943D01*
X0457137Y0110747D02*
X0450739Y0110747D01*
X0450739Y0108992D02*
X0457137Y0108992D01*
X0457137Y0108008D01*
X0450739Y0108008D01*
X0450739Y0108992D01*
X0450739Y0108989D02*
X0457137Y0108989D01*
X0457137Y0108794D02*
X0450739Y0108794D01*
X0450739Y0108598D02*
X0457137Y0108598D01*
X0457137Y0108403D02*
X0450739Y0108403D01*
X0450739Y0108208D02*
X0457137Y0108208D01*
X0457137Y0108012D02*
X0450739Y0108012D01*
X0450739Y0106433D02*
X0457137Y0106433D01*
X0457137Y0105449D01*
X0450739Y0105449D01*
X0450739Y0106433D01*
X0450739Y0106254D02*
X0457137Y0106254D01*
X0457137Y0106059D02*
X0450739Y0106059D01*
X0450739Y0105863D02*
X0457137Y0105863D01*
X0457137Y0105668D02*
X0450739Y0105668D01*
X0450739Y0105473D02*
X0457137Y0105473D01*
X0457137Y0103874D02*
X0450739Y0103874D01*
X0450739Y0102890D01*
X0457137Y0102890D01*
X0457137Y0103874D01*
X0457137Y0103714D02*
X0450739Y0103714D01*
X0450739Y0103519D02*
X0457137Y0103519D01*
X0457137Y0103324D02*
X0450739Y0103324D01*
X0450739Y0103128D02*
X0457137Y0103128D01*
X0457137Y0102933D02*
X0450739Y0102933D01*
D18*
X0472912Y0099346D03*
X0472912Y0092654D03*
X0496412Y0092154D03*
X0496412Y0098846D03*
X0535912Y0110154D03*
X0542412Y0110154D03*
X0542412Y0116846D03*
X0535912Y0116846D03*
X0553412Y0117346D03*
X0553412Y0110654D03*
X0574412Y0110654D03*
X0574412Y0117346D03*
X0574412Y0101846D03*
X0574412Y0095154D03*
X0576412Y0088246D03*
X0576412Y0081554D03*
X0389412Y0081554D03*
X0389412Y0088246D03*
X0387412Y0095154D03*
X0387412Y0101846D03*
X0387412Y0110654D03*
X0387412Y0117346D03*
X0366412Y0117346D03*
X0366412Y0110654D03*
X0355412Y0110154D03*
X0348912Y0110154D03*
X0348912Y0116846D03*
X0355412Y0116846D03*
X0309412Y0098846D03*
X0309412Y0092154D03*
X0285912Y0092654D03*
X0285912Y0099346D03*
X0202412Y0088246D03*
X0200412Y0095154D03*
X0200412Y0101846D03*
X0200412Y0110654D03*
X0200412Y0117346D03*
X0179412Y0117346D03*
X0179412Y0110654D03*
X0168412Y0110154D03*
X0161912Y0110154D03*
X0161912Y0116846D03*
X0168412Y0116846D03*
X0122412Y0098846D03*
X0122412Y0092154D03*
X0098912Y0092654D03*
X0098912Y0099346D03*
X0202412Y0081554D03*
X0202412Y0203554D03*
X0202412Y0210246D03*
X0200412Y0217154D03*
X0200412Y0223846D03*
X0200412Y0232654D03*
X0200412Y0239346D03*
X0179412Y0239346D03*
X0168412Y0238846D03*
X0161912Y0238846D03*
X0161912Y0232154D03*
X0168412Y0232154D03*
X0179412Y0232654D03*
X0122412Y0220846D03*
X0122412Y0214154D03*
X0098912Y0214654D03*
X0098912Y0221346D03*
X0202412Y0325554D03*
X0202412Y0332246D03*
X0200412Y0339154D03*
X0200412Y0345846D03*
X0200412Y0354654D03*
X0200412Y0361346D03*
X0179412Y0361346D03*
X0179412Y0354654D03*
X0168412Y0354154D03*
X0161912Y0354154D03*
X0161912Y0360846D03*
X0168412Y0360846D03*
X0122412Y0342846D03*
X0122412Y0336154D03*
X0098912Y0336654D03*
X0098912Y0343346D03*
X0285912Y0343346D03*
X0285912Y0336654D03*
X0309412Y0336154D03*
X0309412Y0342846D03*
X0348912Y0354154D03*
X0355412Y0354154D03*
X0355412Y0360846D03*
X0348912Y0360846D03*
X0366412Y0361346D03*
X0366412Y0354654D03*
X0387412Y0354654D03*
X0387412Y0361346D03*
X0387412Y0345846D03*
X0387412Y0339154D03*
X0389412Y0332246D03*
X0389412Y0325554D03*
X0472912Y0336654D03*
X0472912Y0343346D03*
X0496412Y0342846D03*
X0496412Y0336154D03*
X0535912Y0354154D03*
X0542412Y0354154D03*
X0542412Y0360846D03*
X0535912Y0360846D03*
X0553412Y0361346D03*
X0553412Y0354654D03*
X0574412Y0354654D03*
X0574412Y0361346D03*
X0574412Y0345846D03*
X0574412Y0339154D03*
X0576412Y0332246D03*
X0576412Y0325554D03*
X0574412Y0239346D03*
X0574412Y0232654D03*
X0574412Y0223846D03*
X0574412Y0217154D03*
X0576412Y0210246D03*
X0576412Y0203554D03*
X0553412Y0232654D03*
X0553412Y0239346D03*
X0542412Y0238846D03*
X0535912Y0238846D03*
X0535912Y0232154D03*
X0542412Y0232154D03*
X0496412Y0220846D03*
X0496412Y0214154D03*
X0472912Y0214654D03*
X0472912Y0221346D03*
X0389412Y0210246D03*
X0389412Y0203554D03*
X0387412Y0217154D03*
X0387412Y0223846D03*
X0387412Y0232654D03*
X0387412Y0239346D03*
X0366412Y0239346D03*
X0366412Y0232654D03*
X0355412Y0232154D03*
X0348912Y0232154D03*
X0348912Y0238846D03*
X0355412Y0238846D03*
X0309412Y0220846D03*
X0309412Y0214154D03*
X0285912Y0214654D03*
X0285912Y0221346D03*
D19*
X0285270Y0173390D03*
X0279365Y0173390D03*
X0267554Y0173390D03*
X0098270Y0173390D03*
X0092365Y0173390D03*
X0080554Y0173390D03*
X0080554Y0295390D03*
X0092365Y0295390D03*
X0098270Y0295390D03*
X0267554Y0295390D03*
X0279365Y0295390D03*
X0285270Y0295390D03*
X0454554Y0295390D03*
X0466365Y0295390D03*
X0472270Y0295390D03*
X0472270Y0173390D03*
X0466365Y0173390D03*
X0454554Y0173390D03*
X0454554Y0051390D03*
X0466365Y0051390D03*
X0472270Y0051390D03*
X0285270Y0051390D03*
X0279365Y0051390D03*
X0267554Y0051390D03*
X0098270Y0051390D03*
X0092365Y0051390D03*
X0080554Y0051390D03*
D20*
X0075042Y0040563D03*
X0103782Y0040563D03*
X0262042Y0040563D03*
X0290782Y0040563D03*
X0449042Y0040563D03*
X0477782Y0040563D03*
X0477782Y0162563D03*
X0449042Y0162563D03*
X0290782Y0162563D03*
X0262042Y0162563D03*
X0103782Y0162563D03*
X0075042Y0162563D03*
X0075042Y0284563D03*
X0103782Y0284563D03*
X0262042Y0284563D03*
X0290782Y0284563D03*
X0449042Y0284563D03*
X0477782Y0284563D03*
D21*
X0477782Y0292831D03*
X0449042Y0292831D03*
X0290782Y0292831D03*
X0262042Y0292831D03*
X0103782Y0292831D03*
X0075042Y0292831D03*
X0075042Y0170831D03*
X0103782Y0170831D03*
X0262042Y0170831D03*
X0290782Y0170831D03*
X0449042Y0170831D03*
X0477782Y0170831D03*
X0477782Y0048831D03*
X0449042Y0048831D03*
X0290782Y0048831D03*
X0262042Y0048831D03*
X0103782Y0048831D03*
X0075042Y0048831D03*
D22*
X0106293Y0091760D03*
X0106293Y0095500D03*
X0106293Y0099240D03*
X0116530Y0099240D03*
X0127793Y0099740D03*
X0138030Y0099740D03*
X0138030Y0096000D03*
X0138030Y0092260D03*
X0127793Y0092260D03*
X0116530Y0091760D03*
X0293293Y0091760D03*
X0293293Y0095500D03*
X0293293Y0099240D03*
X0303530Y0099240D03*
X0303530Y0091760D03*
X0314793Y0092260D03*
X0325030Y0092260D03*
X0325030Y0096000D03*
X0325030Y0099740D03*
X0314793Y0099740D03*
X0480293Y0099240D03*
X0480293Y0095500D03*
X0480293Y0091760D03*
X0490530Y0091760D03*
X0490530Y0099240D03*
X0501793Y0099740D03*
X0512030Y0099740D03*
X0512030Y0096000D03*
X0512030Y0092260D03*
X0501793Y0092260D03*
X0501793Y0214260D03*
X0512030Y0214260D03*
X0512030Y0218000D03*
X0512030Y0221740D03*
X0501793Y0221740D03*
X0490530Y0221240D03*
X0480293Y0221240D03*
X0480293Y0217500D03*
X0480293Y0213760D03*
X0490530Y0213760D03*
X0325030Y0214260D03*
X0325030Y0218000D03*
X0325030Y0221740D03*
X0314793Y0221740D03*
X0314793Y0214260D03*
X0303530Y0213760D03*
X0293293Y0213760D03*
X0293293Y0217500D03*
X0293293Y0221240D03*
X0303530Y0221240D03*
X0138030Y0221740D03*
X0138030Y0218000D03*
X0138030Y0214260D03*
X0127793Y0214260D03*
X0116530Y0213760D03*
X0116530Y0221240D03*
X0127793Y0221740D03*
X0106293Y0221240D03*
X0106293Y0217500D03*
X0106293Y0213760D03*
X0106293Y0335760D03*
X0106293Y0339500D03*
X0106293Y0343240D03*
X0116530Y0343240D03*
X0116530Y0335760D03*
X0127793Y0336260D03*
X0127793Y0343740D03*
X0138030Y0343740D03*
X0138030Y0340000D03*
X0138030Y0336260D03*
X0293293Y0335760D03*
X0293293Y0339500D03*
X0293293Y0343240D03*
X0303530Y0343240D03*
X0303530Y0335760D03*
X0314793Y0336260D03*
X0314793Y0343740D03*
X0325030Y0343740D03*
X0325030Y0340000D03*
X0325030Y0336260D03*
X0480293Y0335760D03*
X0480293Y0339500D03*
X0480293Y0343240D03*
X0490530Y0343240D03*
X0490530Y0335760D03*
X0501793Y0336260D03*
X0501793Y0343740D03*
X0512030Y0343740D03*
X0512030Y0340000D03*
X0512030Y0336260D03*
D23*
X0471089Y0376500D03*
X0455735Y0376500D03*
X0284089Y0376500D03*
X0268735Y0376500D03*
X0097089Y0376500D03*
X0081735Y0376500D03*
X0081735Y0254500D03*
X0097089Y0254500D03*
X0268735Y0254500D03*
X0284089Y0254500D03*
X0455735Y0254500D03*
X0471089Y0254500D03*
X0471089Y0132500D03*
X0455735Y0132500D03*
X0284089Y0132500D03*
X0268735Y0132500D03*
X0097089Y0132500D03*
X0081735Y0132500D03*
D24*
X0093979Y0077437D03*
X0093979Y0069563D03*
X0280979Y0069563D03*
X0280979Y0077437D03*
X0280979Y0191563D03*
X0280979Y0199437D03*
X0280979Y0313563D03*
X0280979Y0321437D03*
X0467979Y0321437D03*
X0467979Y0313563D03*
X0467979Y0199437D03*
X0467979Y0191563D03*
X0467979Y0077437D03*
X0467979Y0069563D03*
X0093979Y0191563D03*
X0093979Y0199437D03*
X0093979Y0313563D03*
X0093979Y0321437D03*
D25*
X0073506Y0330886D03*
X0073506Y0304114D03*
X0073506Y0208886D03*
X0073506Y0182114D03*
X0073506Y0086886D03*
X0073506Y0060114D03*
X0260506Y0060114D03*
X0260506Y0086886D03*
X0260506Y0182114D03*
X0260506Y0208886D03*
X0260506Y0304114D03*
X0260506Y0330886D03*
X0447506Y0330886D03*
X0447506Y0304114D03*
X0447506Y0208886D03*
X0447506Y0182114D03*
X0447506Y0086886D03*
X0447506Y0060114D03*
D26*
X0421380Y0076976D03*
X0421380Y0099024D03*
X0421380Y0198976D03*
X0421380Y0221024D03*
X0421380Y0320976D03*
X0421380Y0343024D03*
X0608380Y0343024D03*
X0608380Y0320976D03*
X0608380Y0221024D03*
X0608380Y0198976D03*
X0608380Y0099024D03*
X0608380Y0076976D03*
X0234380Y0076976D03*
X0234380Y0099024D03*
X0234380Y0198976D03*
X0234380Y0221024D03*
X0234380Y0320976D03*
X0234380Y0343024D03*
D27*
X0219912Y0337906D03*
X0219912Y0333969D03*
X0219912Y0330031D03*
X0219912Y0326094D03*
X0219912Y0215906D03*
X0219912Y0211969D03*
X0219912Y0208031D03*
X0219912Y0204094D03*
X0219912Y0093906D03*
X0219912Y0089969D03*
X0219912Y0086031D03*
X0219912Y0082094D03*
X0406912Y0082094D03*
X0406912Y0086031D03*
X0406912Y0089969D03*
X0406912Y0093906D03*
X0406912Y0204094D03*
X0406912Y0208031D03*
X0406912Y0211969D03*
X0406912Y0215906D03*
X0406912Y0326094D03*
X0406912Y0330031D03*
X0406912Y0333969D03*
X0406912Y0337906D03*
X0593912Y0337906D03*
X0593912Y0333969D03*
X0593912Y0330031D03*
X0593912Y0326094D03*
X0593912Y0215906D03*
X0593912Y0211969D03*
X0593912Y0208031D03*
X0593912Y0204094D03*
X0593912Y0093906D03*
X0593912Y0089969D03*
X0593912Y0086031D03*
X0593912Y0082094D03*
D28*
X0568833Y0112500D03*
X0558991Y0112500D03*
X0381833Y0112500D03*
X0371991Y0112500D03*
X0194833Y0112500D03*
X0184991Y0112500D03*
X0184991Y0234500D03*
X0194833Y0234500D03*
X0371991Y0234500D03*
X0381833Y0234500D03*
X0558991Y0234500D03*
X0568833Y0234500D03*
X0568833Y0356500D03*
X0558991Y0356500D03*
X0381833Y0356500D03*
X0371991Y0356500D03*
X0194833Y0356500D03*
X0184991Y0356500D03*
D29*
X0208998Y0359500D03*
X0219825Y0359500D03*
X0395998Y0359500D03*
X0406825Y0359500D03*
X0582998Y0359500D03*
X0593825Y0359500D03*
X0593825Y0237500D03*
X0582998Y0237500D03*
X0406825Y0237500D03*
X0395998Y0237500D03*
X0219825Y0237500D03*
X0208998Y0237500D03*
X0208998Y0115500D03*
X0219825Y0115500D03*
X0395998Y0115500D03*
X0406825Y0115500D03*
X0582998Y0115500D03*
X0593825Y0115500D03*
D30*
X0588412Y0121504D03*
X0588412Y0109496D03*
X0401412Y0109496D03*
X0401412Y0121504D03*
X0401412Y0231496D03*
X0401412Y0243504D03*
X0401412Y0353496D03*
X0401412Y0365504D03*
X0588412Y0365504D03*
X0588412Y0353496D03*
X0588412Y0243504D03*
X0588412Y0231496D03*
X0214412Y0231496D03*
X0214412Y0243504D03*
X0214412Y0353496D03*
X0214412Y0365504D03*
X0214412Y0121504D03*
X0214412Y0109496D03*
D31*
X0191239Y0102386D03*
X0189270Y0102386D03*
X0187302Y0102386D03*
X0185333Y0102386D03*
X0183365Y0102386D03*
X0181396Y0102386D03*
X0179428Y0102386D03*
X0177459Y0102386D03*
X0175491Y0102386D03*
X0173522Y0102386D03*
X0171554Y0102386D03*
X0169585Y0102386D03*
X0169585Y0075614D03*
X0171554Y0075614D03*
X0173522Y0075614D03*
X0175491Y0075614D03*
X0177459Y0075614D03*
X0179428Y0075614D03*
X0181396Y0075614D03*
X0183365Y0075614D03*
X0185333Y0075614D03*
X0187302Y0075614D03*
X0189270Y0075614D03*
X0191239Y0075614D03*
X0356585Y0075614D03*
X0358554Y0075614D03*
X0360522Y0075614D03*
X0362491Y0075614D03*
X0364459Y0075614D03*
X0366428Y0075614D03*
X0368396Y0075614D03*
X0370365Y0075614D03*
X0372333Y0075614D03*
X0374302Y0075614D03*
X0376270Y0075614D03*
X0378239Y0075614D03*
X0378239Y0102386D03*
X0376270Y0102386D03*
X0374302Y0102386D03*
X0372333Y0102386D03*
X0370365Y0102386D03*
X0368396Y0102386D03*
X0366428Y0102386D03*
X0364459Y0102386D03*
X0362491Y0102386D03*
X0360522Y0102386D03*
X0358554Y0102386D03*
X0356585Y0102386D03*
X0356585Y0197614D03*
X0358554Y0197614D03*
X0360522Y0197614D03*
X0362491Y0197614D03*
X0364459Y0197614D03*
X0366428Y0197614D03*
X0368396Y0197614D03*
X0370365Y0197614D03*
X0372333Y0197614D03*
X0374302Y0197614D03*
X0376270Y0197614D03*
X0378239Y0197614D03*
X0378239Y0224386D03*
X0376270Y0224386D03*
X0374302Y0224386D03*
X0372333Y0224386D03*
X0370365Y0224386D03*
X0368396Y0224386D03*
X0366428Y0224386D03*
X0364459Y0224386D03*
X0362491Y0224386D03*
X0360522Y0224386D03*
X0358554Y0224386D03*
X0356585Y0224386D03*
X0356585Y0319614D03*
X0358554Y0319614D03*
X0360522Y0319614D03*
X0362491Y0319614D03*
X0364459Y0319614D03*
X0366428Y0319614D03*
X0368396Y0319614D03*
X0370365Y0319614D03*
X0372333Y0319614D03*
X0374302Y0319614D03*
X0376270Y0319614D03*
X0378239Y0319614D03*
X0378239Y0346386D03*
X0376270Y0346386D03*
X0374302Y0346386D03*
X0372333Y0346386D03*
X0370365Y0346386D03*
X0368396Y0346386D03*
X0366428Y0346386D03*
X0364459Y0346386D03*
X0362491Y0346386D03*
X0360522Y0346386D03*
X0358554Y0346386D03*
X0356585Y0346386D03*
X0191239Y0346386D03*
X0189270Y0346386D03*
X0187302Y0346386D03*
X0185333Y0346386D03*
X0183365Y0346386D03*
X0181396Y0346386D03*
X0179428Y0346386D03*
X0177459Y0346386D03*
X0175491Y0346386D03*
X0173522Y0346386D03*
X0171554Y0346386D03*
X0169585Y0346386D03*
X0169585Y0319614D03*
X0171554Y0319614D03*
X0173522Y0319614D03*
X0175491Y0319614D03*
X0177459Y0319614D03*
X0179428Y0319614D03*
X0181396Y0319614D03*
X0183365Y0319614D03*
X0185333Y0319614D03*
X0187302Y0319614D03*
X0189270Y0319614D03*
X0191239Y0319614D03*
X0191239Y0224386D03*
X0189270Y0224386D03*
X0187302Y0224386D03*
X0185333Y0224386D03*
X0183365Y0224386D03*
X0181396Y0224386D03*
X0179428Y0224386D03*
X0177459Y0224386D03*
X0175491Y0224386D03*
X0173522Y0224386D03*
X0171554Y0224386D03*
X0169585Y0224386D03*
X0169585Y0197614D03*
X0171554Y0197614D03*
X0173522Y0197614D03*
X0175491Y0197614D03*
X0177459Y0197614D03*
X0179428Y0197614D03*
X0181396Y0197614D03*
X0183365Y0197614D03*
X0185333Y0197614D03*
X0187302Y0197614D03*
X0189270Y0197614D03*
X0191239Y0197614D03*
X0543585Y0197614D03*
X0545554Y0197614D03*
X0547522Y0197614D03*
X0549491Y0197614D03*
X0551459Y0197614D03*
X0553428Y0197614D03*
X0555396Y0197614D03*
X0557365Y0197614D03*
X0559333Y0197614D03*
X0561302Y0197614D03*
X0563270Y0197614D03*
X0565239Y0197614D03*
X0565239Y0224386D03*
X0563270Y0224386D03*
X0561302Y0224386D03*
X0559333Y0224386D03*
X0557365Y0224386D03*
X0555396Y0224386D03*
X0553428Y0224386D03*
X0551459Y0224386D03*
X0549491Y0224386D03*
X0547522Y0224386D03*
X0545554Y0224386D03*
X0543585Y0224386D03*
X0543585Y0319614D03*
X0545554Y0319614D03*
X0547522Y0319614D03*
X0549491Y0319614D03*
X0551459Y0319614D03*
X0553428Y0319614D03*
X0555396Y0319614D03*
X0557365Y0319614D03*
X0559333Y0319614D03*
X0561302Y0319614D03*
X0563270Y0319614D03*
X0565239Y0319614D03*
X0565239Y0346386D03*
X0563270Y0346386D03*
X0561302Y0346386D03*
X0559333Y0346386D03*
X0557365Y0346386D03*
X0555396Y0346386D03*
X0553428Y0346386D03*
X0551459Y0346386D03*
X0549491Y0346386D03*
X0547522Y0346386D03*
X0545554Y0346386D03*
X0543585Y0346386D03*
X0543585Y0102386D03*
X0545554Y0102386D03*
X0547522Y0102386D03*
X0549491Y0102386D03*
X0551459Y0102386D03*
X0553428Y0102386D03*
X0555396Y0102386D03*
X0557365Y0102386D03*
X0559333Y0102386D03*
X0561302Y0102386D03*
X0563270Y0102386D03*
X0565239Y0102386D03*
X0565239Y0075614D03*
X0563270Y0075614D03*
X0561302Y0075614D03*
X0559333Y0075614D03*
X0557365Y0075614D03*
X0555396Y0075614D03*
X0553428Y0075614D03*
X0551459Y0075614D03*
X0549491Y0075614D03*
X0547522Y0075614D03*
X0545554Y0075614D03*
X0543585Y0075614D03*
D32*
X0541026Y0078173D03*
X0541026Y0080142D03*
X0541026Y0082110D03*
X0541026Y0084079D03*
X0541026Y0086047D03*
X0541026Y0088016D03*
X0541026Y0089984D03*
X0541026Y0091953D03*
X0541026Y0093921D03*
X0541026Y0095890D03*
X0541026Y0097858D03*
X0541026Y0099827D03*
X0567798Y0099827D03*
X0567798Y0097858D03*
X0567798Y0095890D03*
X0567798Y0093921D03*
X0567798Y0091953D03*
X0567798Y0089984D03*
X0567798Y0088016D03*
X0567798Y0086047D03*
X0567798Y0084079D03*
X0567798Y0082110D03*
X0567798Y0080142D03*
X0567798Y0078173D03*
X0380798Y0078173D03*
X0380798Y0080142D03*
X0380798Y0082110D03*
X0380798Y0084079D03*
X0380798Y0086047D03*
X0380798Y0088016D03*
X0380798Y0089984D03*
X0380798Y0091953D03*
X0380798Y0093921D03*
X0380798Y0095890D03*
X0380798Y0097858D03*
X0380798Y0099827D03*
X0354026Y0099827D03*
X0354026Y0097858D03*
X0354026Y0095890D03*
X0354026Y0093921D03*
X0354026Y0091953D03*
X0354026Y0089984D03*
X0354026Y0088016D03*
X0354026Y0086047D03*
X0354026Y0084079D03*
X0354026Y0082110D03*
X0354026Y0080142D03*
X0354026Y0078173D03*
X0193798Y0078173D03*
X0193798Y0080142D03*
X0193798Y0082110D03*
X0193798Y0084079D03*
X0193798Y0086047D03*
X0193798Y0088016D03*
X0193798Y0089984D03*
X0193798Y0091953D03*
X0193798Y0093921D03*
X0193798Y0095890D03*
X0193798Y0097858D03*
X0193798Y0099827D03*
X0167026Y0099827D03*
X0167026Y0097858D03*
X0167026Y0095890D03*
X0167026Y0093921D03*
X0167026Y0091953D03*
X0167026Y0089984D03*
X0167026Y0088016D03*
X0167026Y0086047D03*
X0167026Y0084079D03*
X0167026Y0082110D03*
X0167026Y0080142D03*
X0167026Y0078173D03*
X0167026Y0200173D03*
X0167026Y0202142D03*
X0167026Y0204110D03*
X0167026Y0206079D03*
X0167026Y0208047D03*
X0167026Y0210016D03*
X0167026Y0211984D03*
X0167026Y0213953D03*
X0167026Y0215921D03*
X0167026Y0217890D03*
X0167026Y0219858D03*
X0167026Y0221827D03*
X0193798Y0221827D03*
X0193798Y0219858D03*
X0193798Y0217890D03*
X0193798Y0215921D03*
X0193798Y0213953D03*
X0193798Y0211984D03*
X0193798Y0210016D03*
X0193798Y0208047D03*
X0193798Y0206079D03*
X0193798Y0204110D03*
X0193798Y0202142D03*
X0193798Y0200173D03*
X0354026Y0200173D03*
X0354026Y0202142D03*
X0354026Y0204110D03*
X0354026Y0206079D03*
X0354026Y0208047D03*
X0354026Y0210016D03*
X0354026Y0211984D03*
X0354026Y0213953D03*
X0354026Y0215921D03*
X0354026Y0217890D03*
X0354026Y0219858D03*
X0354026Y0221827D03*
X0380798Y0221827D03*
X0380798Y0219858D03*
X0380798Y0217890D03*
X0380798Y0215921D03*
X0380798Y0213953D03*
X0380798Y0211984D03*
X0380798Y0210016D03*
X0380798Y0208047D03*
X0380798Y0206079D03*
X0380798Y0204110D03*
X0380798Y0202142D03*
X0380798Y0200173D03*
X0541026Y0200173D03*
X0541026Y0202142D03*
X0541026Y0204110D03*
X0541026Y0206079D03*
X0541026Y0208047D03*
X0541026Y0210016D03*
X0541026Y0211984D03*
X0541026Y0213953D03*
X0541026Y0215921D03*
X0541026Y0217890D03*
X0541026Y0219858D03*
X0541026Y0221827D03*
X0567798Y0221827D03*
X0567798Y0219858D03*
X0567798Y0217890D03*
X0567798Y0215921D03*
X0567798Y0213953D03*
X0567798Y0211984D03*
X0567798Y0210016D03*
X0567798Y0208047D03*
X0567798Y0206079D03*
X0567798Y0204110D03*
X0567798Y0202142D03*
X0567798Y0200173D03*
X0567798Y0322173D03*
X0567798Y0324142D03*
X0567798Y0326110D03*
X0567798Y0328079D03*
X0567798Y0330047D03*
X0567798Y0332016D03*
X0567798Y0333984D03*
X0567798Y0335953D03*
X0567798Y0337921D03*
X0567798Y0339890D03*
X0567798Y0341858D03*
X0567798Y0343827D03*
X0541026Y0343827D03*
X0541026Y0341858D03*
X0541026Y0339890D03*
X0541026Y0337921D03*
X0541026Y0335953D03*
X0541026Y0333984D03*
X0541026Y0332016D03*
X0541026Y0330047D03*
X0541026Y0328079D03*
X0541026Y0326110D03*
X0541026Y0324142D03*
X0541026Y0322173D03*
X0380798Y0322173D03*
X0380798Y0324142D03*
X0380798Y0326110D03*
X0380798Y0328079D03*
X0380798Y0330047D03*
X0380798Y0332016D03*
X0380798Y0333984D03*
X0380798Y0335953D03*
X0380798Y0337921D03*
X0380798Y0339890D03*
X0380798Y0341858D03*
X0380798Y0343827D03*
X0354026Y0343827D03*
X0354026Y0341858D03*
X0354026Y0339890D03*
X0354026Y0337921D03*
X0354026Y0335953D03*
X0354026Y0333984D03*
X0354026Y0332016D03*
X0354026Y0330047D03*
X0354026Y0328079D03*
X0354026Y0326110D03*
X0354026Y0324142D03*
X0354026Y0322173D03*
X0193798Y0322173D03*
X0193798Y0324142D03*
X0193798Y0326110D03*
X0193798Y0328079D03*
X0193798Y0330047D03*
X0193798Y0332016D03*
X0193798Y0333984D03*
X0193798Y0335953D03*
X0193798Y0337921D03*
X0193798Y0339890D03*
X0193798Y0341858D03*
X0193798Y0343827D03*
X0167026Y0343827D03*
X0167026Y0341858D03*
X0167026Y0339890D03*
X0167026Y0337921D03*
X0167026Y0335953D03*
X0167026Y0333984D03*
X0167026Y0332016D03*
X0167026Y0330047D03*
X0167026Y0328079D03*
X0167026Y0326110D03*
X0167026Y0324142D03*
X0167026Y0322173D03*
M02*
