G75*
%MOIN*%
%OFA0B0*%
%FSLAX25Y25*%
%IPPOS*%
%LPD*%
%AMOC8*
5,1,8,0,0,1.08239X$1,22.5*
%
%ADD10R,0.05512X0.06299*%
%ADD11R,0.04331X0.03937*%
%ADD12C,0.01181*%
%ADD13R,0.06299X0.07087*%
%ADD14R,0.05748X0.07874*%
%ADD15R,0.09843X0.05610*%
%ADD16C,0.00400*%
%ADD17C,0.00197*%
%ADD18R,0.03937X0.04331*%
%ADD19R,0.02756X0.05906*%
%ADD20R,0.03937X0.02362*%
%ADD21R,0.03937X0.03150*%
%ADD22R,0.04724X0.02165*%
%ADD23R,0.04331X0.07874*%
%ADD24R,0.18110X0.03937*%
%ADD25R,0.13386X0.06299*%
%ADD26R,0.07874X0.04724*%
%ADD27R,0.05315X0.02362*%
%ADD28R,0.03937X0.07087*%
%ADD29R,0.08661X0.03346*%
%ADD30R,0.04134X0.03937*%
%ADD31R,0.00984X0.02756*%
%ADD32R,0.02756X0.00984*%
D10*
X0070238Y0099500D03*
X0081262Y0099500D03*
X0096238Y0105000D03*
X0107262Y0105000D03*
X0242238Y0099500D03*
X0253262Y0099500D03*
X0268238Y0105000D03*
X0279262Y0105000D03*
X0414238Y0099500D03*
X0425262Y0099500D03*
X0440238Y0105000D03*
X0451262Y0105000D03*
X0425262Y0211500D03*
X0414238Y0211500D03*
X0440238Y0217000D03*
X0451262Y0217000D03*
X0279262Y0217000D03*
X0268238Y0217000D03*
X0253262Y0211500D03*
X0242238Y0211500D03*
X0107262Y0217000D03*
X0096238Y0217000D03*
X0081262Y0211500D03*
X0070238Y0211500D03*
X0070238Y0323500D03*
X0081262Y0323500D03*
X0096238Y0329000D03*
X0107262Y0329000D03*
X0242238Y0323500D03*
X0253262Y0323500D03*
X0268238Y0329000D03*
X0279262Y0329000D03*
X0414238Y0323500D03*
X0425262Y0323500D03*
X0440238Y0329000D03*
X0451262Y0329000D03*
D11*
X0443596Y0321000D03*
X0436904Y0321000D03*
X0432096Y0330500D03*
X0425404Y0330500D03*
X0419096Y0330500D03*
X0412404Y0330500D03*
X0412404Y0337000D03*
X0419096Y0337000D03*
X0425404Y0337000D03*
X0432096Y0337000D03*
X0464904Y0330000D03*
X0471596Y0330000D03*
X0471596Y0323500D03*
X0471596Y0317500D03*
X0464904Y0317500D03*
X0464904Y0323500D03*
X0464904Y0310500D03*
X0471596Y0310500D03*
X0449596Y0296500D03*
X0449596Y0290000D03*
X0442904Y0290000D03*
X0442904Y0296500D03*
X0442904Y0283500D03*
X0449596Y0283500D03*
X0449596Y0277500D03*
X0442904Y0277500D03*
X0515904Y0292500D03*
X0522596Y0292500D03*
X0432096Y0225000D03*
X0425404Y0225000D03*
X0419096Y0225000D03*
X0412404Y0225000D03*
X0412404Y0218500D03*
X0419096Y0218500D03*
X0425404Y0218500D03*
X0432096Y0218500D03*
X0436904Y0209000D03*
X0443596Y0209000D03*
X0464904Y0211500D03*
X0464904Y0218000D03*
X0471596Y0218000D03*
X0471596Y0211500D03*
X0471596Y0205500D03*
X0464904Y0205500D03*
X0464904Y0198500D03*
X0471596Y0198500D03*
X0449596Y0184500D03*
X0442904Y0184500D03*
X0442904Y0178000D03*
X0449596Y0178000D03*
X0449596Y0171500D03*
X0449596Y0165500D03*
X0442904Y0165500D03*
X0442904Y0171500D03*
X0515904Y0180500D03*
X0522596Y0180500D03*
X0432096Y0113000D03*
X0432096Y0106500D03*
X0425404Y0106500D03*
X0419096Y0106500D03*
X0419096Y0113000D03*
X0425404Y0113000D03*
X0412404Y0113000D03*
X0412404Y0106500D03*
X0436904Y0097000D03*
X0443596Y0097000D03*
X0464904Y0099500D03*
X0471596Y0099500D03*
X0471596Y0093500D03*
X0464904Y0093500D03*
X0464904Y0086500D03*
X0471596Y0086500D03*
X0449596Y0072500D03*
X0442904Y0072500D03*
X0442904Y0066000D03*
X0442904Y0059500D03*
X0449596Y0059500D03*
X0449596Y0066000D03*
X0449596Y0053500D03*
X0442904Y0053500D03*
X0515904Y0068500D03*
X0522596Y0068500D03*
X0471596Y0106000D03*
X0464904Y0106000D03*
X0350596Y0068500D03*
X0343904Y0068500D03*
X0299596Y0086500D03*
X0292904Y0086500D03*
X0292904Y0093500D03*
X0299596Y0093500D03*
X0299596Y0099500D03*
X0292904Y0099500D03*
X0292904Y0106000D03*
X0299596Y0106000D03*
X0271596Y0097000D03*
X0264904Y0097000D03*
X0260096Y0106500D03*
X0260096Y0113000D03*
X0253404Y0113000D03*
X0247096Y0113000D03*
X0247096Y0106500D03*
X0253404Y0106500D03*
X0240404Y0106500D03*
X0240404Y0113000D03*
X0270904Y0072500D03*
X0277596Y0072500D03*
X0277596Y0066000D03*
X0277596Y0059500D03*
X0270904Y0059500D03*
X0270904Y0066000D03*
X0270904Y0053500D03*
X0277596Y0053500D03*
X0178596Y0068500D03*
X0171904Y0068500D03*
X0127596Y0086500D03*
X0120904Y0086500D03*
X0120904Y0093500D03*
X0127596Y0093500D03*
X0127596Y0099500D03*
X0120904Y0099500D03*
X0120904Y0106000D03*
X0127596Y0106000D03*
X0099596Y0097000D03*
X0092904Y0097000D03*
X0088096Y0106500D03*
X0088096Y0113000D03*
X0081404Y0113000D03*
X0075096Y0113000D03*
X0075096Y0106500D03*
X0081404Y0106500D03*
X0068404Y0106500D03*
X0068404Y0113000D03*
X0098904Y0072500D03*
X0105596Y0072500D03*
X0105596Y0066000D03*
X0105596Y0059500D03*
X0098904Y0059500D03*
X0098904Y0066000D03*
X0098904Y0053500D03*
X0105596Y0053500D03*
X0105596Y0165500D03*
X0105596Y0171500D03*
X0098904Y0171500D03*
X0098904Y0165500D03*
X0098904Y0178000D03*
X0105596Y0178000D03*
X0105596Y0184500D03*
X0098904Y0184500D03*
X0120904Y0198500D03*
X0127596Y0198500D03*
X0127596Y0205500D03*
X0120904Y0205500D03*
X0120904Y0211500D03*
X0120904Y0218000D03*
X0127596Y0218000D03*
X0127596Y0211500D03*
X0099596Y0209000D03*
X0092904Y0209000D03*
X0088096Y0218500D03*
X0081404Y0218500D03*
X0075096Y0218500D03*
X0068404Y0218500D03*
X0068404Y0225000D03*
X0075096Y0225000D03*
X0081404Y0225000D03*
X0088096Y0225000D03*
X0098904Y0277500D03*
X0105596Y0277500D03*
X0105596Y0283500D03*
X0098904Y0283500D03*
X0098904Y0290000D03*
X0098904Y0296500D03*
X0105596Y0296500D03*
X0105596Y0290000D03*
X0120904Y0310500D03*
X0127596Y0310500D03*
X0127596Y0317500D03*
X0127596Y0323500D03*
X0120904Y0323500D03*
X0120904Y0317500D03*
X0120904Y0330000D03*
X0127596Y0330000D03*
X0099596Y0321000D03*
X0092904Y0321000D03*
X0088096Y0330500D03*
X0081404Y0330500D03*
X0075096Y0330500D03*
X0068404Y0330500D03*
X0068404Y0337000D03*
X0075096Y0337000D03*
X0081404Y0337000D03*
X0088096Y0337000D03*
X0171904Y0292500D03*
X0178596Y0292500D03*
X0240404Y0330500D03*
X0247096Y0330500D03*
X0253404Y0330500D03*
X0260096Y0330500D03*
X0260096Y0337000D03*
X0253404Y0337000D03*
X0247096Y0337000D03*
X0240404Y0337000D03*
X0264904Y0321000D03*
X0271596Y0321000D03*
X0292904Y0323500D03*
X0292904Y0317500D03*
X0299596Y0317500D03*
X0299596Y0323500D03*
X0299596Y0330000D03*
X0292904Y0330000D03*
X0292904Y0310500D03*
X0299596Y0310500D03*
X0277596Y0296500D03*
X0277596Y0290000D03*
X0270904Y0290000D03*
X0270904Y0296500D03*
X0270904Y0283500D03*
X0277596Y0283500D03*
X0277596Y0277500D03*
X0270904Y0277500D03*
X0343904Y0292500D03*
X0350596Y0292500D03*
X0260096Y0225000D03*
X0253404Y0225000D03*
X0247096Y0225000D03*
X0240404Y0225000D03*
X0240404Y0218500D03*
X0247096Y0218500D03*
X0253404Y0218500D03*
X0260096Y0218500D03*
X0264904Y0209000D03*
X0271596Y0209000D03*
X0292904Y0211500D03*
X0292904Y0218000D03*
X0299596Y0218000D03*
X0299596Y0211500D03*
X0299596Y0205500D03*
X0292904Y0205500D03*
X0292904Y0198500D03*
X0299596Y0198500D03*
X0277596Y0184500D03*
X0270904Y0184500D03*
X0270904Y0178000D03*
X0277596Y0178000D03*
X0277596Y0171500D03*
X0277596Y0165500D03*
X0270904Y0165500D03*
X0270904Y0171500D03*
X0343904Y0180500D03*
X0350596Y0180500D03*
X0178596Y0180500D03*
X0171904Y0180500D03*
D12*
X0120081Y0183122D02*
X0120081Y0185878D01*
X0120081Y0183122D02*
X0117325Y0183122D01*
X0117325Y0185878D01*
X0120081Y0185878D01*
X0120081Y0184244D02*
X0117325Y0184244D01*
X0117325Y0185366D02*
X0120081Y0185366D01*
X0113175Y0185878D02*
X0113175Y0183122D01*
X0110419Y0183122D01*
X0110419Y0185878D01*
X0113175Y0185878D01*
X0113175Y0184244D02*
X0110419Y0184244D01*
X0110419Y0185366D02*
X0113175Y0185366D01*
X0109919Y0179378D02*
X0109919Y0176622D01*
X0109919Y0179378D02*
X0112675Y0179378D01*
X0112675Y0176622D01*
X0109919Y0176622D01*
X0109919Y0177744D02*
X0112675Y0177744D01*
X0112675Y0178866D02*
X0109919Y0178866D01*
X0113175Y0172878D02*
X0113175Y0170122D01*
X0110419Y0170122D01*
X0110419Y0172878D01*
X0113175Y0172878D01*
X0113175Y0171244D02*
X0110419Y0171244D01*
X0110419Y0172366D02*
X0113175Y0172366D01*
X0120081Y0172878D02*
X0120081Y0170122D01*
X0117325Y0170122D01*
X0117325Y0172878D01*
X0120081Y0172878D01*
X0120081Y0171244D02*
X0117325Y0171244D01*
X0117325Y0172366D02*
X0120081Y0172366D01*
X0116825Y0176622D02*
X0116825Y0179378D01*
X0119581Y0179378D01*
X0119581Y0176622D01*
X0116825Y0176622D01*
X0116825Y0177744D02*
X0119581Y0177744D01*
X0119581Y0178866D02*
X0116825Y0178866D01*
X0120081Y0166878D02*
X0120081Y0164122D01*
X0117325Y0164122D01*
X0117325Y0166878D01*
X0120081Y0166878D01*
X0120081Y0165244D02*
X0117325Y0165244D01*
X0117325Y0166366D02*
X0120081Y0166366D01*
X0113175Y0166878D02*
X0113175Y0164122D01*
X0110419Y0164122D01*
X0110419Y0166878D01*
X0113175Y0166878D01*
X0113175Y0165244D02*
X0110419Y0165244D01*
X0110419Y0166366D02*
X0113175Y0166366D01*
X0113175Y0073878D02*
X0113175Y0071122D01*
X0110419Y0071122D01*
X0110419Y0073878D01*
X0113175Y0073878D01*
X0113175Y0072244D02*
X0110419Y0072244D01*
X0110419Y0073366D02*
X0113175Y0073366D01*
X0120081Y0073878D02*
X0120081Y0071122D01*
X0117325Y0071122D01*
X0117325Y0073878D01*
X0120081Y0073878D01*
X0120081Y0072244D02*
X0117325Y0072244D01*
X0117325Y0073366D02*
X0120081Y0073366D01*
X0116825Y0067378D02*
X0116825Y0064622D01*
X0116825Y0067378D02*
X0119581Y0067378D01*
X0119581Y0064622D01*
X0116825Y0064622D01*
X0116825Y0065744D02*
X0119581Y0065744D01*
X0119581Y0066866D02*
X0116825Y0066866D01*
X0109919Y0067378D02*
X0109919Y0064622D01*
X0109919Y0067378D02*
X0112675Y0067378D01*
X0112675Y0064622D01*
X0109919Y0064622D01*
X0109919Y0065744D02*
X0112675Y0065744D01*
X0112675Y0066866D02*
X0109919Y0066866D01*
X0113175Y0060878D02*
X0113175Y0058122D01*
X0110419Y0058122D01*
X0110419Y0060878D01*
X0113175Y0060878D01*
X0113175Y0059244D02*
X0110419Y0059244D01*
X0110419Y0060366D02*
X0113175Y0060366D01*
X0120081Y0060878D02*
X0120081Y0058122D01*
X0117325Y0058122D01*
X0117325Y0060878D01*
X0120081Y0060878D01*
X0120081Y0059244D02*
X0117325Y0059244D01*
X0117325Y0060366D02*
X0120081Y0060366D01*
X0120081Y0054878D02*
X0120081Y0052122D01*
X0117325Y0052122D01*
X0117325Y0054878D01*
X0120081Y0054878D01*
X0120081Y0053244D02*
X0117325Y0053244D01*
X0117325Y0054366D02*
X0120081Y0054366D01*
X0113175Y0054878D02*
X0113175Y0052122D01*
X0110419Y0052122D01*
X0110419Y0054878D01*
X0113175Y0054878D01*
X0113175Y0053244D02*
X0110419Y0053244D01*
X0110419Y0054366D02*
X0113175Y0054366D01*
X0281919Y0064622D02*
X0281919Y0067378D01*
X0284675Y0067378D01*
X0284675Y0064622D01*
X0281919Y0064622D01*
X0281919Y0065744D02*
X0284675Y0065744D01*
X0284675Y0066866D02*
X0281919Y0066866D01*
X0285175Y0071122D02*
X0285175Y0073878D01*
X0285175Y0071122D02*
X0282419Y0071122D01*
X0282419Y0073878D01*
X0285175Y0073878D01*
X0285175Y0072244D02*
X0282419Y0072244D01*
X0282419Y0073366D02*
X0285175Y0073366D01*
X0292081Y0073878D02*
X0292081Y0071122D01*
X0289325Y0071122D01*
X0289325Y0073878D01*
X0292081Y0073878D01*
X0292081Y0072244D02*
X0289325Y0072244D01*
X0289325Y0073366D02*
X0292081Y0073366D01*
X0288825Y0067378D02*
X0288825Y0064622D01*
X0288825Y0067378D02*
X0291581Y0067378D01*
X0291581Y0064622D01*
X0288825Y0064622D01*
X0288825Y0065744D02*
X0291581Y0065744D01*
X0291581Y0066866D02*
X0288825Y0066866D01*
X0292081Y0060878D02*
X0292081Y0058122D01*
X0289325Y0058122D01*
X0289325Y0060878D01*
X0292081Y0060878D01*
X0292081Y0059244D02*
X0289325Y0059244D01*
X0289325Y0060366D02*
X0292081Y0060366D01*
X0285175Y0060878D02*
X0285175Y0058122D01*
X0282419Y0058122D01*
X0282419Y0060878D01*
X0285175Y0060878D01*
X0285175Y0059244D02*
X0282419Y0059244D01*
X0282419Y0060366D02*
X0285175Y0060366D01*
X0285175Y0054878D02*
X0285175Y0052122D01*
X0282419Y0052122D01*
X0282419Y0054878D01*
X0285175Y0054878D01*
X0285175Y0053244D02*
X0282419Y0053244D01*
X0282419Y0054366D02*
X0285175Y0054366D01*
X0292081Y0054878D02*
X0292081Y0052122D01*
X0289325Y0052122D01*
X0289325Y0054878D01*
X0292081Y0054878D01*
X0292081Y0053244D02*
X0289325Y0053244D01*
X0289325Y0054366D02*
X0292081Y0054366D01*
X0453919Y0064622D02*
X0453919Y0067378D01*
X0456675Y0067378D01*
X0456675Y0064622D01*
X0453919Y0064622D01*
X0453919Y0065744D02*
X0456675Y0065744D01*
X0456675Y0066866D02*
X0453919Y0066866D01*
X0457175Y0071122D02*
X0457175Y0073878D01*
X0457175Y0071122D02*
X0454419Y0071122D01*
X0454419Y0073878D01*
X0457175Y0073878D01*
X0457175Y0072244D02*
X0454419Y0072244D01*
X0454419Y0073366D02*
X0457175Y0073366D01*
X0464081Y0073878D02*
X0464081Y0071122D01*
X0461325Y0071122D01*
X0461325Y0073878D01*
X0464081Y0073878D01*
X0464081Y0072244D02*
X0461325Y0072244D01*
X0461325Y0073366D02*
X0464081Y0073366D01*
X0460825Y0067378D02*
X0460825Y0064622D01*
X0460825Y0067378D02*
X0463581Y0067378D01*
X0463581Y0064622D01*
X0460825Y0064622D01*
X0460825Y0065744D02*
X0463581Y0065744D01*
X0463581Y0066866D02*
X0460825Y0066866D01*
X0464081Y0060878D02*
X0464081Y0058122D01*
X0461325Y0058122D01*
X0461325Y0060878D01*
X0464081Y0060878D01*
X0464081Y0059244D02*
X0461325Y0059244D01*
X0461325Y0060366D02*
X0464081Y0060366D01*
X0457175Y0060878D02*
X0457175Y0058122D01*
X0454419Y0058122D01*
X0454419Y0060878D01*
X0457175Y0060878D01*
X0457175Y0059244D02*
X0454419Y0059244D01*
X0454419Y0060366D02*
X0457175Y0060366D01*
X0457175Y0054878D02*
X0457175Y0052122D01*
X0454419Y0052122D01*
X0454419Y0054878D01*
X0457175Y0054878D01*
X0457175Y0053244D02*
X0454419Y0053244D01*
X0454419Y0054366D02*
X0457175Y0054366D01*
X0464081Y0054878D02*
X0464081Y0052122D01*
X0461325Y0052122D01*
X0461325Y0054878D01*
X0464081Y0054878D01*
X0464081Y0053244D02*
X0461325Y0053244D01*
X0461325Y0054366D02*
X0464081Y0054366D01*
X0464081Y0164122D02*
X0464081Y0166878D01*
X0464081Y0164122D02*
X0461325Y0164122D01*
X0461325Y0166878D01*
X0464081Y0166878D01*
X0464081Y0165244D02*
X0461325Y0165244D01*
X0461325Y0166366D02*
X0464081Y0166366D01*
X0464081Y0170122D02*
X0464081Y0172878D01*
X0464081Y0170122D02*
X0461325Y0170122D01*
X0461325Y0172878D01*
X0464081Y0172878D01*
X0464081Y0171244D02*
X0461325Y0171244D01*
X0461325Y0172366D02*
X0464081Y0172366D01*
X0460825Y0176622D02*
X0460825Y0179378D01*
X0463581Y0179378D01*
X0463581Y0176622D01*
X0460825Y0176622D01*
X0460825Y0177744D02*
X0463581Y0177744D01*
X0463581Y0178866D02*
X0460825Y0178866D01*
X0453919Y0179378D02*
X0453919Y0176622D01*
X0453919Y0179378D02*
X0456675Y0179378D01*
X0456675Y0176622D01*
X0453919Y0176622D01*
X0453919Y0177744D02*
X0456675Y0177744D01*
X0456675Y0178866D02*
X0453919Y0178866D01*
X0457175Y0183122D02*
X0457175Y0185878D01*
X0457175Y0183122D02*
X0454419Y0183122D01*
X0454419Y0185878D01*
X0457175Y0185878D01*
X0457175Y0184244D02*
X0454419Y0184244D01*
X0454419Y0185366D02*
X0457175Y0185366D01*
X0464081Y0185878D02*
X0464081Y0183122D01*
X0461325Y0183122D01*
X0461325Y0185878D01*
X0464081Y0185878D01*
X0464081Y0184244D02*
X0461325Y0184244D01*
X0461325Y0185366D02*
X0464081Y0185366D01*
X0457175Y0172878D02*
X0457175Y0170122D01*
X0454419Y0170122D01*
X0454419Y0172878D01*
X0457175Y0172878D01*
X0457175Y0171244D02*
X0454419Y0171244D01*
X0454419Y0172366D02*
X0457175Y0172366D01*
X0457175Y0166878D02*
X0457175Y0164122D01*
X0454419Y0164122D01*
X0454419Y0166878D01*
X0457175Y0166878D01*
X0457175Y0165244D02*
X0454419Y0165244D01*
X0454419Y0166366D02*
X0457175Y0166366D01*
X0292081Y0166878D02*
X0292081Y0164122D01*
X0289325Y0164122D01*
X0289325Y0166878D01*
X0292081Y0166878D01*
X0292081Y0165244D02*
X0289325Y0165244D01*
X0289325Y0166366D02*
X0292081Y0166366D01*
X0292081Y0170122D02*
X0292081Y0172878D01*
X0292081Y0170122D02*
X0289325Y0170122D01*
X0289325Y0172878D01*
X0292081Y0172878D01*
X0292081Y0171244D02*
X0289325Y0171244D01*
X0289325Y0172366D02*
X0292081Y0172366D01*
X0288825Y0176622D02*
X0288825Y0179378D01*
X0291581Y0179378D01*
X0291581Y0176622D01*
X0288825Y0176622D01*
X0288825Y0177744D02*
X0291581Y0177744D01*
X0291581Y0178866D02*
X0288825Y0178866D01*
X0281919Y0179378D02*
X0281919Y0176622D01*
X0281919Y0179378D02*
X0284675Y0179378D01*
X0284675Y0176622D01*
X0281919Y0176622D01*
X0281919Y0177744D02*
X0284675Y0177744D01*
X0284675Y0178866D02*
X0281919Y0178866D01*
X0285175Y0183122D02*
X0285175Y0185878D01*
X0285175Y0183122D02*
X0282419Y0183122D01*
X0282419Y0185878D01*
X0285175Y0185878D01*
X0285175Y0184244D02*
X0282419Y0184244D01*
X0282419Y0185366D02*
X0285175Y0185366D01*
X0292081Y0185878D02*
X0292081Y0183122D01*
X0289325Y0183122D01*
X0289325Y0185878D01*
X0292081Y0185878D01*
X0292081Y0184244D02*
X0289325Y0184244D01*
X0289325Y0185366D02*
X0292081Y0185366D01*
X0285175Y0172878D02*
X0285175Y0170122D01*
X0282419Y0170122D01*
X0282419Y0172878D01*
X0285175Y0172878D01*
X0285175Y0171244D02*
X0282419Y0171244D01*
X0282419Y0172366D02*
X0285175Y0172366D01*
X0285175Y0166878D02*
X0285175Y0164122D01*
X0282419Y0164122D01*
X0282419Y0166878D01*
X0285175Y0166878D01*
X0285175Y0165244D02*
X0282419Y0165244D01*
X0282419Y0166366D02*
X0285175Y0166366D01*
X0285175Y0276122D02*
X0285175Y0278878D01*
X0285175Y0276122D02*
X0282419Y0276122D01*
X0282419Y0278878D01*
X0285175Y0278878D01*
X0285175Y0277244D02*
X0282419Y0277244D01*
X0282419Y0278366D02*
X0285175Y0278366D01*
X0285175Y0282122D02*
X0285175Y0284878D01*
X0285175Y0282122D02*
X0282419Y0282122D01*
X0282419Y0284878D01*
X0285175Y0284878D01*
X0285175Y0283244D02*
X0282419Y0283244D01*
X0282419Y0284366D02*
X0285175Y0284366D01*
X0292081Y0284878D02*
X0292081Y0282122D01*
X0289325Y0282122D01*
X0289325Y0284878D01*
X0292081Y0284878D01*
X0292081Y0283244D02*
X0289325Y0283244D01*
X0289325Y0284366D02*
X0292081Y0284366D01*
X0288825Y0288622D02*
X0288825Y0291378D01*
X0291581Y0291378D01*
X0291581Y0288622D01*
X0288825Y0288622D01*
X0288825Y0289744D02*
X0291581Y0289744D01*
X0291581Y0290866D02*
X0288825Y0290866D01*
X0281919Y0291378D02*
X0281919Y0288622D01*
X0281919Y0291378D02*
X0284675Y0291378D01*
X0284675Y0288622D01*
X0281919Y0288622D01*
X0281919Y0289744D02*
X0284675Y0289744D01*
X0284675Y0290866D02*
X0281919Y0290866D01*
X0285175Y0295122D02*
X0285175Y0297878D01*
X0285175Y0295122D02*
X0282419Y0295122D01*
X0282419Y0297878D01*
X0285175Y0297878D01*
X0285175Y0296244D02*
X0282419Y0296244D01*
X0282419Y0297366D02*
X0285175Y0297366D01*
X0292081Y0297878D02*
X0292081Y0295122D01*
X0289325Y0295122D01*
X0289325Y0297878D01*
X0292081Y0297878D01*
X0292081Y0296244D02*
X0289325Y0296244D01*
X0289325Y0297366D02*
X0292081Y0297366D01*
X0292081Y0278878D02*
X0292081Y0276122D01*
X0289325Y0276122D01*
X0289325Y0278878D01*
X0292081Y0278878D01*
X0292081Y0277244D02*
X0289325Y0277244D01*
X0289325Y0278366D02*
X0292081Y0278366D01*
X0453919Y0288622D02*
X0453919Y0291378D01*
X0456675Y0291378D01*
X0456675Y0288622D01*
X0453919Y0288622D01*
X0453919Y0289744D02*
X0456675Y0289744D01*
X0456675Y0290866D02*
X0453919Y0290866D01*
X0457175Y0295122D02*
X0457175Y0297878D01*
X0457175Y0295122D02*
X0454419Y0295122D01*
X0454419Y0297878D01*
X0457175Y0297878D01*
X0457175Y0296244D02*
X0454419Y0296244D01*
X0454419Y0297366D02*
X0457175Y0297366D01*
X0464081Y0297878D02*
X0464081Y0295122D01*
X0461325Y0295122D01*
X0461325Y0297878D01*
X0464081Y0297878D01*
X0464081Y0296244D02*
X0461325Y0296244D01*
X0461325Y0297366D02*
X0464081Y0297366D01*
X0460825Y0291378D02*
X0460825Y0288622D01*
X0460825Y0291378D02*
X0463581Y0291378D01*
X0463581Y0288622D01*
X0460825Y0288622D01*
X0460825Y0289744D02*
X0463581Y0289744D01*
X0463581Y0290866D02*
X0460825Y0290866D01*
X0464081Y0284878D02*
X0464081Y0282122D01*
X0461325Y0282122D01*
X0461325Y0284878D01*
X0464081Y0284878D01*
X0464081Y0283244D02*
X0461325Y0283244D01*
X0461325Y0284366D02*
X0464081Y0284366D01*
X0457175Y0284878D02*
X0457175Y0282122D01*
X0454419Y0282122D01*
X0454419Y0284878D01*
X0457175Y0284878D01*
X0457175Y0283244D02*
X0454419Y0283244D01*
X0454419Y0284366D02*
X0457175Y0284366D01*
X0457175Y0278878D02*
X0457175Y0276122D01*
X0454419Y0276122D01*
X0454419Y0278878D01*
X0457175Y0278878D01*
X0457175Y0277244D02*
X0454419Y0277244D01*
X0454419Y0278366D02*
X0457175Y0278366D01*
X0464081Y0278878D02*
X0464081Y0276122D01*
X0461325Y0276122D01*
X0461325Y0278878D01*
X0464081Y0278878D01*
X0464081Y0277244D02*
X0461325Y0277244D01*
X0461325Y0278366D02*
X0464081Y0278366D01*
X0120081Y0278878D02*
X0120081Y0276122D01*
X0117325Y0276122D01*
X0117325Y0278878D01*
X0120081Y0278878D01*
X0120081Y0277244D02*
X0117325Y0277244D01*
X0117325Y0278366D02*
X0120081Y0278366D01*
X0120081Y0282122D02*
X0120081Y0284878D01*
X0120081Y0282122D02*
X0117325Y0282122D01*
X0117325Y0284878D01*
X0120081Y0284878D01*
X0120081Y0283244D02*
X0117325Y0283244D01*
X0117325Y0284366D02*
X0120081Y0284366D01*
X0113175Y0284878D02*
X0113175Y0282122D01*
X0110419Y0282122D01*
X0110419Y0284878D01*
X0113175Y0284878D01*
X0113175Y0283244D02*
X0110419Y0283244D01*
X0110419Y0284366D02*
X0113175Y0284366D01*
X0109919Y0288622D02*
X0109919Y0291378D01*
X0112675Y0291378D01*
X0112675Y0288622D01*
X0109919Y0288622D01*
X0109919Y0289744D02*
X0112675Y0289744D01*
X0112675Y0290866D02*
X0109919Y0290866D01*
X0113175Y0295122D02*
X0113175Y0297878D01*
X0113175Y0295122D02*
X0110419Y0295122D01*
X0110419Y0297878D01*
X0113175Y0297878D01*
X0113175Y0296244D02*
X0110419Y0296244D01*
X0110419Y0297366D02*
X0113175Y0297366D01*
X0120081Y0297878D02*
X0120081Y0295122D01*
X0117325Y0295122D01*
X0117325Y0297878D01*
X0120081Y0297878D01*
X0120081Y0296244D02*
X0117325Y0296244D01*
X0117325Y0297366D02*
X0120081Y0297366D01*
X0116825Y0291378D02*
X0116825Y0288622D01*
X0116825Y0291378D02*
X0119581Y0291378D01*
X0119581Y0288622D01*
X0116825Y0288622D01*
X0116825Y0289744D02*
X0119581Y0289744D01*
X0119581Y0290866D02*
X0116825Y0290866D01*
X0113175Y0278878D02*
X0113175Y0276122D01*
X0110419Y0276122D01*
X0110419Y0278878D01*
X0113175Y0278878D01*
X0113175Y0277244D02*
X0110419Y0277244D01*
X0110419Y0278366D02*
X0113175Y0278366D01*
D13*
X0089262Y0277500D03*
X0078238Y0277500D03*
X0250238Y0277500D03*
X0261262Y0277500D03*
X0422238Y0277500D03*
X0433262Y0277500D03*
X0433262Y0165500D03*
X0422238Y0165500D03*
X0261262Y0165500D03*
X0250238Y0165500D03*
X0089262Y0165500D03*
X0078238Y0165500D03*
X0078238Y0053500D03*
X0089262Y0053500D03*
X0250238Y0053500D03*
X0261262Y0053500D03*
X0422238Y0053500D03*
X0433262Y0053500D03*
D14*
X0399333Y0092083D03*
X0399333Y0114917D03*
X0399333Y0204083D03*
X0399333Y0226917D03*
X0399333Y0316083D03*
X0399333Y0338917D03*
X0227333Y0338917D03*
X0227333Y0316083D03*
X0227333Y0226917D03*
X0227333Y0204083D03*
X0227333Y0114917D03*
X0227333Y0092083D03*
X0055333Y0092083D03*
X0055333Y0114917D03*
X0055333Y0204083D03*
X0055333Y0226917D03*
X0055333Y0316083D03*
X0055333Y0338917D03*
D15*
X0043719Y0331289D03*
X0043719Y0323711D03*
X0043719Y0219289D03*
X0043719Y0211711D03*
X0215719Y0211711D03*
X0215719Y0219289D03*
X0215719Y0323711D03*
X0215719Y0331289D03*
X0387719Y0331289D03*
X0387719Y0323711D03*
X0387719Y0219289D03*
X0387719Y0211711D03*
X0387719Y0107289D03*
X0387719Y0099711D03*
X0215719Y0099711D03*
X0215719Y0107289D03*
X0043719Y0107289D03*
X0043719Y0099711D03*
D16*
X0041690Y0095694D02*
X0041401Y0095661D01*
X0041126Y0095565D01*
X0040880Y0095410D01*
X0040674Y0095204D01*
X0040519Y0094958D01*
X0040423Y0094683D01*
X0040390Y0094394D01*
X0040390Y0091494D01*
X0040420Y0091227D01*
X0040509Y0090973D01*
X0040652Y0090746D01*
X0040842Y0090555D01*
X0041070Y0090413D01*
X0041323Y0090324D01*
X0041590Y0090294D01*
X0048490Y0090294D01*
X0048528Y0090286D01*
X0048561Y0090264D01*
X0048583Y0090232D01*
X0048590Y0090194D01*
X0048590Y0088294D01*
X0051690Y0088294D01*
X0051690Y0095694D01*
X0041690Y0095694D01*
X0040943Y0095450D02*
X0051690Y0095450D01*
X0051690Y0095051D02*
X0040578Y0095051D01*
X0040419Y0094653D02*
X0051690Y0094653D01*
X0051690Y0094254D02*
X0040390Y0094254D01*
X0040390Y0093856D02*
X0051690Y0093856D01*
X0051690Y0093457D02*
X0040390Y0093457D01*
X0040390Y0093059D02*
X0051690Y0093059D01*
X0051690Y0092660D02*
X0040390Y0092660D01*
X0040390Y0092262D02*
X0051690Y0092262D01*
X0051690Y0091863D02*
X0040390Y0091863D01*
X0040393Y0091465D02*
X0051690Y0091465D01*
X0051690Y0091066D02*
X0040476Y0091066D01*
X0040730Y0090668D02*
X0051690Y0090668D01*
X0051690Y0090269D02*
X0048554Y0090269D01*
X0048590Y0089871D02*
X0051690Y0089871D01*
X0051690Y0089472D02*
X0048590Y0089472D01*
X0048590Y0089074D02*
X0051690Y0089074D01*
X0051690Y0088675D02*
X0048590Y0088675D01*
X0051690Y0111357D02*
X0041690Y0111357D01*
X0041401Y0111389D01*
X0041126Y0111486D01*
X0040880Y0111640D01*
X0040674Y0111846D01*
X0040519Y0112093D01*
X0040423Y0112368D01*
X0040390Y0112657D01*
X0040390Y0115557D01*
X0040420Y0115824D01*
X0040509Y0116077D01*
X0040652Y0116305D01*
X0040842Y0116495D01*
X0041070Y0116638D01*
X0041323Y0116727D01*
X0041590Y0116757D01*
X0048490Y0116757D01*
X0048528Y0116764D01*
X0048561Y0116786D01*
X0048583Y0116819D01*
X0048590Y0116857D01*
X0048590Y0118757D01*
X0051690Y0118757D01*
X0051690Y0111357D01*
X0051690Y0111390D02*
X0041398Y0111390D01*
X0040731Y0111789D02*
X0051690Y0111789D01*
X0051690Y0112187D02*
X0040486Y0112187D01*
X0040398Y0112586D02*
X0051690Y0112586D01*
X0051690Y0112984D02*
X0040390Y0112984D01*
X0040390Y0113383D02*
X0051690Y0113383D01*
X0051690Y0113781D02*
X0040390Y0113781D01*
X0040390Y0114180D02*
X0051690Y0114180D01*
X0051690Y0114578D02*
X0040390Y0114578D01*
X0040390Y0114977D02*
X0051690Y0114977D01*
X0051690Y0115375D02*
X0040390Y0115375D01*
X0040415Y0115774D02*
X0051690Y0115774D01*
X0051690Y0116172D02*
X0040569Y0116172D01*
X0040963Y0116571D02*
X0051690Y0116571D01*
X0051690Y0116970D02*
X0048590Y0116970D01*
X0048590Y0117368D02*
X0051690Y0117368D01*
X0051690Y0117767D02*
X0048590Y0117767D01*
X0048590Y0118165D02*
X0051690Y0118165D01*
X0051690Y0118564D02*
X0048590Y0118564D01*
X0048590Y0200294D02*
X0051690Y0200294D01*
X0051690Y0207694D01*
X0041690Y0207694D01*
X0041401Y0207661D01*
X0041126Y0207565D01*
X0040880Y0207410D01*
X0040674Y0207204D01*
X0040519Y0206958D01*
X0040423Y0206683D01*
X0040390Y0206394D01*
X0040390Y0203494D01*
X0040420Y0203227D01*
X0040509Y0202973D01*
X0040652Y0202746D01*
X0040842Y0202555D01*
X0041070Y0202413D01*
X0041323Y0202324D01*
X0041590Y0202294D01*
X0048490Y0202294D01*
X0048528Y0202286D01*
X0048561Y0202264D01*
X0048583Y0202232D01*
X0048590Y0202194D01*
X0048590Y0200294D01*
X0048590Y0200657D02*
X0051690Y0200657D01*
X0051690Y0201055D02*
X0048590Y0201055D01*
X0048590Y0201454D02*
X0051690Y0201454D01*
X0051690Y0201852D02*
X0048590Y0201852D01*
X0048570Y0202251D02*
X0051690Y0202251D01*
X0051690Y0202649D02*
X0040748Y0202649D01*
X0040483Y0203048D02*
X0051690Y0203048D01*
X0051690Y0203446D02*
X0040395Y0203446D01*
X0040390Y0203845D02*
X0051690Y0203845D01*
X0051690Y0204243D02*
X0040390Y0204243D01*
X0040390Y0204642D02*
X0051690Y0204642D01*
X0051690Y0205041D02*
X0040390Y0205041D01*
X0040390Y0205439D02*
X0051690Y0205439D01*
X0051690Y0205838D02*
X0040390Y0205838D01*
X0040390Y0206236D02*
X0051690Y0206236D01*
X0051690Y0206635D02*
X0040417Y0206635D01*
X0040566Y0207033D02*
X0051690Y0207033D01*
X0051690Y0207432D02*
X0040914Y0207432D01*
X0041690Y0223357D02*
X0041401Y0223389D01*
X0041126Y0223486D01*
X0040880Y0223640D01*
X0040674Y0223846D01*
X0040519Y0224093D01*
X0040423Y0224368D01*
X0040390Y0224657D01*
X0040390Y0227557D01*
X0040420Y0227824D01*
X0040509Y0228077D01*
X0040652Y0228305D01*
X0040842Y0228495D01*
X0041070Y0228638D01*
X0041323Y0228727D01*
X0041590Y0228757D01*
X0048490Y0228757D01*
X0048528Y0228764D01*
X0048561Y0228786D01*
X0048583Y0228819D01*
X0048590Y0228857D01*
X0048590Y0230757D01*
X0051690Y0230757D01*
X0051690Y0223357D01*
X0041690Y0223357D01*
X0041555Y0223372D02*
X0051690Y0223372D01*
X0051690Y0223771D02*
X0040750Y0223771D01*
X0040492Y0224169D02*
X0051690Y0224169D01*
X0051690Y0224568D02*
X0040400Y0224568D01*
X0040390Y0224966D02*
X0051690Y0224966D01*
X0051690Y0225365D02*
X0040390Y0225365D01*
X0040390Y0225763D02*
X0051690Y0225763D01*
X0051690Y0226162D02*
X0040390Y0226162D01*
X0040390Y0226560D02*
X0051690Y0226560D01*
X0051690Y0226959D02*
X0040390Y0226959D01*
X0040390Y0227357D02*
X0051690Y0227357D01*
X0051690Y0227756D02*
X0040413Y0227756D01*
X0040557Y0228154D02*
X0051690Y0228154D01*
X0051690Y0228553D02*
X0040934Y0228553D01*
X0048590Y0228951D02*
X0051690Y0228951D01*
X0051690Y0229350D02*
X0048590Y0229350D01*
X0048590Y0229748D02*
X0051690Y0229748D01*
X0051690Y0230147D02*
X0048590Y0230147D01*
X0048590Y0230545D02*
X0051690Y0230545D01*
X0051690Y0312294D02*
X0051690Y0319694D01*
X0041690Y0319694D01*
X0041401Y0319661D01*
X0041126Y0319565D01*
X0040880Y0319410D01*
X0040674Y0319204D01*
X0040519Y0318958D01*
X0040423Y0318683D01*
X0040390Y0318394D01*
X0040390Y0315494D01*
X0040420Y0315227D01*
X0040509Y0314973D01*
X0040652Y0314746D01*
X0040842Y0314555D01*
X0041070Y0314413D01*
X0041323Y0314324D01*
X0041590Y0314294D01*
X0048490Y0314294D01*
X0048528Y0314286D01*
X0048561Y0314264D01*
X0048583Y0314232D01*
X0048590Y0314194D01*
X0048590Y0312294D01*
X0051690Y0312294D01*
X0051690Y0312639D02*
X0048590Y0312639D01*
X0048590Y0313037D02*
X0051690Y0313037D01*
X0051690Y0313436D02*
X0048590Y0313436D01*
X0048590Y0313834D02*
X0051690Y0313834D01*
X0051690Y0314233D02*
X0048582Y0314233D01*
X0051690Y0314631D02*
X0040766Y0314631D01*
X0040489Y0315030D02*
X0051690Y0315030D01*
X0051690Y0315428D02*
X0040398Y0315428D01*
X0040390Y0315827D02*
X0051690Y0315827D01*
X0051690Y0316225D02*
X0040390Y0316225D01*
X0040390Y0316624D02*
X0051690Y0316624D01*
X0051690Y0317022D02*
X0040390Y0317022D01*
X0040390Y0317421D02*
X0051690Y0317421D01*
X0051690Y0317819D02*
X0040390Y0317819D01*
X0040390Y0318218D02*
X0051690Y0318218D01*
X0051690Y0318616D02*
X0040415Y0318616D01*
X0040555Y0319015D02*
X0051690Y0319015D01*
X0051690Y0319413D02*
X0040885Y0319413D01*
X0041690Y0335357D02*
X0041401Y0335389D01*
X0041126Y0335486D01*
X0040880Y0335640D01*
X0040674Y0335846D01*
X0040519Y0336093D01*
X0040423Y0336368D01*
X0040390Y0336657D01*
X0040390Y0339557D01*
X0040420Y0339824D01*
X0040509Y0340077D01*
X0040652Y0340305D01*
X0040842Y0340495D01*
X0041070Y0340638D01*
X0041323Y0340727D01*
X0041590Y0340757D01*
X0048490Y0340757D01*
X0048528Y0340764D01*
X0048561Y0340786D01*
X0048583Y0340819D01*
X0048590Y0340857D01*
X0048590Y0342757D01*
X0051690Y0342757D01*
X0051690Y0335357D01*
X0041690Y0335357D01*
X0040768Y0335752D02*
X0051690Y0335752D01*
X0051690Y0336151D02*
X0040499Y0336151D01*
X0040402Y0336549D02*
X0051690Y0336549D01*
X0051690Y0336948D02*
X0040390Y0336948D01*
X0040390Y0337346D02*
X0051690Y0337346D01*
X0051690Y0337745D02*
X0040390Y0337745D01*
X0040390Y0338143D02*
X0051690Y0338143D01*
X0051690Y0338542D02*
X0040390Y0338542D01*
X0040390Y0338940D02*
X0051690Y0338940D01*
X0051690Y0339339D02*
X0040390Y0339339D01*
X0040410Y0339737D02*
X0051690Y0339737D01*
X0051690Y0340136D02*
X0040546Y0340136D01*
X0040905Y0340534D02*
X0051690Y0340534D01*
X0051690Y0340933D02*
X0048590Y0340933D01*
X0048590Y0341331D02*
X0051690Y0341331D01*
X0051690Y0341730D02*
X0048590Y0341730D01*
X0048590Y0342128D02*
X0051690Y0342128D01*
X0051690Y0342527D02*
X0048590Y0342527D01*
X0212390Y0339557D02*
X0212420Y0339824D01*
X0212509Y0340077D01*
X0212652Y0340305D01*
X0212842Y0340495D01*
X0213070Y0340638D01*
X0213323Y0340727D01*
X0213590Y0340757D01*
X0220490Y0340757D01*
X0220528Y0340764D01*
X0220561Y0340786D01*
X0220583Y0340819D01*
X0220590Y0340857D01*
X0220590Y0342757D01*
X0223690Y0342757D01*
X0223690Y0335357D01*
X0213690Y0335357D01*
X0213401Y0335389D01*
X0213126Y0335486D01*
X0212880Y0335640D01*
X0212674Y0335846D01*
X0212519Y0336093D01*
X0212423Y0336368D01*
X0212390Y0336657D01*
X0212390Y0339557D01*
X0212410Y0339737D02*
X0223690Y0339737D01*
X0223690Y0339339D02*
X0212390Y0339339D01*
X0212390Y0338940D02*
X0223690Y0338940D01*
X0223690Y0338542D02*
X0212390Y0338542D01*
X0212390Y0338143D02*
X0223690Y0338143D01*
X0223690Y0337745D02*
X0212390Y0337745D01*
X0212390Y0337346D02*
X0223690Y0337346D01*
X0223690Y0336948D02*
X0212390Y0336948D01*
X0212402Y0336549D02*
X0223690Y0336549D01*
X0223690Y0336151D02*
X0212499Y0336151D01*
X0212768Y0335752D02*
X0223690Y0335752D01*
X0223690Y0340136D02*
X0212546Y0340136D01*
X0212905Y0340534D02*
X0223690Y0340534D01*
X0223690Y0340933D02*
X0220590Y0340933D01*
X0220590Y0341331D02*
X0223690Y0341331D01*
X0223690Y0341730D02*
X0220590Y0341730D01*
X0220590Y0342128D02*
X0223690Y0342128D01*
X0223690Y0342527D02*
X0220590Y0342527D01*
X0223690Y0319694D02*
X0213690Y0319694D01*
X0213401Y0319661D01*
X0213126Y0319565D01*
X0212880Y0319410D01*
X0212674Y0319204D01*
X0212519Y0318958D01*
X0212423Y0318683D01*
X0212390Y0318394D01*
X0212390Y0315494D01*
X0212420Y0315227D01*
X0212509Y0314973D01*
X0212652Y0314746D01*
X0212842Y0314555D01*
X0213070Y0314413D01*
X0213323Y0314324D01*
X0213590Y0314294D01*
X0220490Y0314294D01*
X0220528Y0314286D01*
X0220561Y0314264D01*
X0220583Y0314232D01*
X0220590Y0314194D01*
X0220590Y0312294D01*
X0223690Y0312294D01*
X0223690Y0319694D01*
X0223690Y0319413D02*
X0212885Y0319413D01*
X0212555Y0319015D02*
X0223690Y0319015D01*
X0223690Y0318616D02*
X0212415Y0318616D01*
X0212390Y0318218D02*
X0223690Y0318218D01*
X0223690Y0317819D02*
X0212390Y0317819D01*
X0212390Y0317421D02*
X0223690Y0317421D01*
X0223690Y0317022D02*
X0212390Y0317022D01*
X0212390Y0316624D02*
X0223690Y0316624D01*
X0223690Y0316225D02*
X0212390Y0316225D01*
X0212390Y0315827D02*
X0223690Y0315827D01*
X0223690Y0315428D02*
X0212398Y0315428D01*
X0212489Y0315030D02*
X0223690Y0315030D01*
X0223690Y0314631D02*
X0212766Y0314631D01*
X0220582Y0314233D02*
X0223690Y0314233D01*
X0223690Y0313834D02*
X0220590Y0313834D01*
X0220590Y0313436D02*
X0223690Y0313436D01*
X0223690Y0313037D02*
X0220590Y0313037D01*
X0220590Y0312639D02*
X0223690Y0312639D01*
X0223690Y0230757D02*
X0220590Y0230757D01*
X0220590Y0228857D01*
X0220583Y0228819D01*
X0220561Y0228786D01*
X0220528Y0228764D01*
X0220490Y0228757D01*
X0213590Y0228757D01*
X0213323Y0228727D01*
X0213070Y0228638D01*
X0212842Y0228495D01*
X0212652Y0228305D01*
X0212509Y0228077D01*
X0212420Y0227824D01*
X0212390Y0227557D01*
X0212390Y0224657D01*
X0212423Y0224368D01*
X0212519Y0224093D01*
X0212674Y0223846D01*
X0212880Y0223640D01*
X0213126Y0223486D01*
X0213401Y0223389D01*
X0213690Y0223357D01*
X0223690Y0223357D01*
X0223690Y0230757D01*
X0223690Y0230545D02*
X0220590Y0230545D01*
X0220590Y0230147D02*
X0223690Y0230147D01*
X0223690Y0229748D02*
X0220590Y0229748D01*
X0220590Y0229350D02*
X0223690Y0229350D01*
X0223690Y0228951D02*
X0220590Y0228951D01*
X0223690Y0228553D02*
X0212934Y0228553D01*
X0212557Y0228154D02*
X0223690Y0228154D01*
X0223690Y0227756D02*
X0212413Y0227756D01*
X0212390Y0227357D02*
X0223690Y0227357D01*
X0223690Y0226959D02*
X0212390Y0226959D01*
X0212390Y0226560D02*
X0223690Y0226560D01*
X0223690Y0226162D02*
X0212390Y0226162D01*
X0212390Y0225763D02*
X0223690Y0225763D01*
X0223690Y0225365D02*
X0212390Y0225365D01*
X0212390Y0224966D02*
X0223690Y0224966D01*
X0223690Y0224568D02*
X0212400Y0224568D01*
X0212492Y0224169D02*
X0223690Y0224169D01*
X0223690Y0223771D02*
X0212750Y0223771D01*
X0213555Y0223372D02*
X0223690Y0223372D01*
X0223690Y0207694D02*
X0213690Y0207694D01*
X0213401Y0207661D01*
X0213126Y0207565D01*
X0212880Y0207410D01*
X0212674Y0207204D01*
X0212519Y0206958D01*
X0212423Y0206683D01*
X0212390Y0206394D01*
X0212390Y0203494D01*
X0212420Y0203227D01*
X0212509Y0202973D01*
X0212652Y0202746D01*
X0212842Y0202555D01*
X0213070Y0202413D01*
X0213323Y0202324D01*
X0213590Y0202294D01*
X0220490Y0202294D01*
X0220528Y0202286D01*
X0220561Y0202264D01*
X0220583Y0202232D01*
X0220590Y0202194D01*
X0220590Y0200294D01*
X0223690Y0200294D01*
X0223690Y0207694D01*
X0223690Y0207432D02*
X0212914Y0207432D01*
X0212566Y0207033D02*
X0223690Y0207033D01*
X0223690Y0206635D02*
X0212417Y0206635D01*
X0212390Y0206236D02*
X0223690Y0206236D01*
X0223690Y0205838D02*
X0212390Y0205838D01*
X0212390Y0205439D02*
X0223690Y0205439D01*
X0223690Y0205041D02*
X0212390Y0205041D01*
X0212390Y0204642D02*
X0223690Y0204642D01*
X0223690Y0204243D02*
X0212390Y0204243D01*
X0212390Y0203845D02*
X0223690Y0203845D01*
X0223690Y0203446D02*
X0212395Y0203446D01*
X0212483Y0203048D02*
X0223690Y0203048D01*
X0223690Y0202649D02*
X0212748Y0202649D01*
X0220570Y0202251D02*
X0223690Y0202251D01*
X0223690Y0201852D02*
X0220590Y0201852D01*
X0220590Y0201454D02*
X0223690Y0201454D01*
X0223690Y0201055D02*
X0220590Y0201055D01*
X0220590Y0200657D02*
X0223690Y0200657D01*
X0223690Y0118757D02*
X0220590Y0118757D01*
X0220590Y0116857D01*
X0220583Y0116819D01*
X0220561Y0116786D01*
X0220528Y0116764D01*
X0220490Y0116757D01*
X0213590Y0116757D01*
X0213323Y0116727D01*
X0213070Y0116638D01*
X0212842Y0116495D01*
X0212652Y0116305D01*
X0212509Y0116077D01*
X0212420Y0115824D01*
X0212390Y0115557D01*
X0212390Y0112657D01*
X0212423Y0112368D01*
X0212519Y0112093D01*
X0212674Y0111846D01*
X0212880Y0111640D01*
X0213126Y0111486D01*
X0213401Y0111389D01*
X0213690Y0111357D01*
X0223690Y0111357D01*
X0223690Y0118757D01*
X0223690Y0118564D02*
X0220590Y0118564D01*
X0220590Y0118165D02*
X0223690Y0118165D01*
X0223690Y0117767D02*
X0220590Y0117767D01*
X0220590Y0117368D02*
X0223690Y0117368D01*
X0223690Y0116970D02*
X0220590Y0116970D01*
X0223690Y0116571D02*
X0212963Y0116571D01*
X0212569Y0116172D02*
X0223690Y0116172D01*
X0223690Y0115774D02*
X0212415Y0115774D01*
X0212390Y0115375D02*
X0223690Y0115375D01*
X0223690Y0114977D02*
X0212390Y0114977D01*
X0212390Y0114578D02*
X0223690Y0114578D01*
X0223690Y0114180D02*
X0212390Y0114180D01*
X0212390Y0113781D02*
X0223690Y0113781D01*
X0223690Y0113383D02*
X0212390Y0113383D01*
X0212390Y0112984D02*
X0223690Y0112984D01*
X0223690Y0112586D02*
X0212398Y0112586D01*
X0212486Y0112187D02*
X0223690Y0112187D01*
X0223690Y0111789D02*
X0212731Y0111789D01*
X0213398Y0111390D02*
X0223690Y0111390D01*
X0223690Y0095694D02*
X0213690Y0095694D01*
X0213401Y0095661D01*
X0213126Y0095565D01*
X0212880Y0095410D01*
X0212674Y0095204D01*
X0212519Y0094958D01*
X0212423Y0094683D01*
X0212390Y0094394D01*
X0212390Y0091494D01*
X0212420Y0091227D01*
X0212509Y0090973D01*
X0212652Y0090746D01*
X0212842Y0090555D01*
X0213070Y0090413D01*
X0213323Y0090324D01*
X0213590Y0090294D01*
X0220490Y0090294D01*
X0220528Y0090286D01*
X0220561Y0090264D01*
X0220583Y0090232D01*
X0220590Y0090194D01*
X0220590Y0088294D01*
X0223690Y0088294D01*
X0223690Y0095694D01*
X0223690Y0095450D02*
X0212943Y0095450D01*
X0212578Y0095051D02*
X0223690Y0095051D01*
X0223690Y0094653D02*
X0212419Y0094653D01*
X0212390Y0094254D02*
X0223690Y0094254D01*
X0223690Y0093856D02*
X0212390Y0093856D01*
X0212390Y0093457D02*
X0223690Y0093457D01*
X0223690Y0093059D02*
X0212390Y0093059D01*
X0212390Y0092660D02*
X0223690Y0092660D01*
X0223690Y0092262D02*
X0212390Y0092262D01*
X0212390Y0091863D02*
X0223690Y0091863D01*
X0223690Y0091465D02*
X0212393Y0091465D01*
X0212476Y0091066D02*
X0223690Y0091066D01*
X0223690Y0090668D02*
X0212730Y0090668D01*
X0220554Y0090269D02*
X0223690Y0090269D01*
X0223690Y0089871D02*
X0220590Y0089871D01*
X0220590Y0089472D02*
X0223690Y0089472D01*
X0223690Y0089074D02*
X0220590Y0089074D01*
X0220590Y0088675D02*
X0223690Y0088675D01*
X0384390Y0091494D02*
X0384420Y0091227D01*
X0384509Y0090973D01*
X0384652Y0090746D01*
X0384842Y0090555D01*
X0385070Y0090413D01*
X0385323Y0090324D01*
X0385590Y0090294D01*
X0392490Y0090294D01*
X0392528Y0090286D01*
X0392561Y0090264D01*
X0392583Y0090232D01*
X0392590Y0090194D01*
X0392590Y0088294D01*
X0395690Y0088294D01*
X0395690Y0095694D01*
X0385690Y0095694D01*
X0385401Y0095661D01*
X0385126Y0095565D01*
X0384880Y0095410D01*
X0384674Y0095204D01*
X0384519Y0094958D01*
X0384423Y0094683D01*
X0384390Y0094394D01*
X0384390Y0091494D01*
X0384393Y0091465D02*
X0395690Y0091465D01*
X0395690Y0091863D02*
X0384390Y0091863D01*
X0384390Y0092262D02*
X0395690Y0092262D01*
X0395690Y0092660D02*
X0384390Y0092660D01*
X0384390Y0093059D02*
X0395690Y0093059D01*
X0395690Y0093457D02*
X0384390Y0093457D01*
X0384390Y0093856D02*
X0395690Y0093856D01*
X0395690Y0094254D02*
X0384390Y0094254D01*
X0384419Y0094653D02*
X0395690Y0094653D01*
X0395690Y0095051D02*
X0384578Y0095051D01*
X0384943Y0095450D02*
X0395690Y0095450D01*
X0395690Y0091066D02*
X0384476Y0091066D01*
X0384730Y0090668D02*
X0395690Y0090668D01*
X0395690Y0090269D02*
X0392554Y0090269D01*
X0392590Y0089871D02*
X0395690Y0089871D01*
X0395690Y0089472D02*
X0392590Y0089472D01*
X0392590Y0089074D02*
X0395690Y0089074D01*
X0395690Y0088675D02*
X0392590Y0088675D01*
X0395690Y0111357D02*
X0385690Y0111357D01*
X0385401Y0111389D01*
X0385126Y0111486D01*
X0384880Y0111640D01*
X0384674Y0111846D01*
X0384519Y0112093D01*
X0384423Y0112368D01*
X0384390Y0112657D01*
X0384390Y0115557D01*
X0384420Y0115824D01*
X0384509Y0116077D01*
X0384652Y0116305D01*
X0384842Y0116495D01*
X0385070Y0116638D01*
X0385323Y0116727D01*
X0385590Y0116757D01*
X0392490Y0116757D01*
X0392528Y0116764D01*
X0392561Y0116786D01*
X0392583Y0116819D01*
X0392590Y0116857D01*
X0392590Y0118757D01*
X0395690Y0118757D01*
X0395690Y0111357D01*
X0395690Y0111390D02*
X0385398Y0111390D01*
X0384731Y0111789D02*
X0395690Y0111789D01*
X0395690Y0112187D02*
X0384486Y0112187D01*
X0384398Y0112586D02*
X0395690Y0112586D01*
X0395690Y0112984D02*
X0384390Y0112984D01*
X0384390Y0113383D02*
X0395690Y0113383D01*
X0395690Y0113781D02*
X0384390Y0113781D01*
X0384390Y0114180D02*
X0395690Y0114180D01*
X0395690Y0114578D02*
X0384390Y0114578D01*
X0384390Y0114977D02*
X0395690Y0114977D01*
X0395690Y0115375D02*
X0384390Y0115375D01*
X0384415Y0115774D02*
X0395690Y0115774D01*
X0395690Y0116172D02*
X0384569Y0116172D01*
X0384963Y0116571D02*
X0395690Y0116571D01*
X0395690Y0116970D02*
X0392590Y0116970D01*
X0392590Y0117368D02*
X0395690Y0117368D01*
X0395690Y0117767D02*
X0392590Y0117767D01*
X0392590Y0118165D02*
X0395690Y0118165D01*
X0395690Y0118564D02*
X0392590Y0118564D01*
X0392590Y0200294D02*
X0395690Y0200294D01*
X0395690Y0207694D01*
X0385690Y0207694D01*
X0385401Y0207661D01*
X0385126Y0207565D01*
X0384880Y0207410D01*
X0384674Y0207204D01*
X0384519Y0206958D01*
X0384423Y0206683D01*
X0384390Y0206394D01*
X0384390Y0203494D01*
X0384420Y0203227D01*
X0384509Y0202973D01*
X0384652Y0202746D01*
X0384842Y0202555D01*
X0385070Y0202413D01*
X0385323Y0202324D01*
X0385590Y0202294D01*
X0392490Y0202294D01*
X0392528Y0202286D01*
X0392561Y0202264D01*
X0392583Y0202232D01*
X0392590Y0202194D01*
X0392590Y0200294D01*
X0392590Y0200657D02*
X0395690Y0200657D01*
X0395690Y0201055D02*
X0392590Y0201055D01*
X0392590Y0201454D02*
X0395690Y0201454D01*
X0395690Y0201852D02*
X0392590Y0201852D01*
X0392570Y0202251D02*
X0395690Y0202251D01*
X0395690Y0202649D02*
X0384748Y0202649D01*
X0384483Y0203048D02*
X0395690Y0203048D01*
X0395690Y0203446D02*
X0384395Y0203446D01*
X0384390Y0203845D02*
X0395690Y0203845D01*
X0395690Y0204243D02*
X0384390Y0204243D01*
X0384390Y0204642D02*
X0395690Y0204642D01*
X0395690Y0205041D02*
X0384390Y0205041D01*
X0384390Y0205439D02*
X0395690Y0205439D01*
X0395690Y0205838D02*
X0384390Y0205838D01*
X0384390Y0206236D02*
X0395690Y0206236D01*
X0395690Y0206635D02*
X0384417Y0206635D01*
X0384566Y0207033D02*
X0395690Y0207033D01*
X0395690Y0207432D02*
X0384914Y0207432D01*
X0385690Y0223357D02*
X0385401Y0223389D01*
X0385126Y0223486D01*
X0384880Y0223640D01*
X0384674Y0223846D01*
X0384519Y0224093D01*
X0384423Y0224368D01*
X0384390Y0224657D01*
X0384390Y0227557D01*
X0384420Y0227824D01*
X0384509Y0228077D01*
X0384652Y0228305D01*
X0384842Y0228495D01*
X0385070Y0228638D01*
X0385323Y0228727D01*
X0385590Y0228757D01*
X0392490Y0228757D01*
X0392528Y0228764D01*
X0392561Y0228786D01*
X0392583Y0228819D01*
X0392590Y0228857D01*
X0392590Y0230757D01*
X0395690Y0230757D01*
X0395690Y0223357D01*
X0385690Y0223357D01*
X0385555Y0223372D02*
X0395690Y0223372D01*
X0395690Y0223771D02*
X0384750Y0223771D01*
X0384492Y0224169D02*
X0395690Y0224169D01*
X0395690Y0224568D02*
X0384400Y0224568D01*
X0384390Y0224966D02*
X0395690Y0224966D01*
X0395690Y0225365D02*
X0384390Y0225365D01*
X0384390Y0225763D02*
X0395690Y0225763D01*
X0395690Y0226162D02*
X0384390Y0226162D01*
X0384390Y0226560D02*
X0395690Y0226560D01*
X0395690Y0226959D02*
X0384390Y0226959D01*
X0384390Y0227357D02*
X0395690Y0227357D01*
X0395690Y0227756D02*
X0384413Y0227756D01*
X0384557Y0228154D02*
X0395690Y0228154D01*
X0395690Y0228553D02*
X0384934Y0228553D01*
X0392590Y0228951D02*
X0395690Y0228951D01*
X0395690Y0229350D02*
X0392590Y0229350D01*
X0392590Y0229748D02*
X0395690Y0229748D01*
X0395690Y0230147D02*
X0392590Y0230147D01*
X0392590Y0230545D02*
X0395690Y0230545D01*
X0395690Y0312294D02*
X0392590Y0312294D01*
X0392590Y0314194D01*
X0392583Y0314232D01*
X0392561Y0314264D01*
X0392528Y0314286D01*
X0392490Y0314294D01*
X0385590Y0314294D01*
X0385323Y0314324D01*
X0385070Y0314413D01*
X0384842Y0314555D01*
X0384652Y0314746D01*
X0384509Y0314973D01*
X0384420Y0315227D01*
X0384390Y0315494D01*
X0384390Y0318394D01*
X0384423Y0318683D01*
X0384519Y0318958D01*
X0384674Y0319204D01*
X0384880Y0319410D01*
X0385126Y0319565D01*
X0385401Y0319661D01*
X0385690Y0319694D01*
X0395690Y0319694D01*
X0395690Y0312294D01*
X0395690Y0312639D02*
X0392590Y0312639D01*
X0392590Y0313037D02*
X0395690Y0313037D01*
X0395690Y0313436D02*
X0392590Y0313436D01*
X0392590Y0313834D02*
X0395690Y0313834D01*
X0395690Y0314233D02*
X0392582Y0314233D01*
X0395690Y0314631D02*
X0384766Y0314631D01*
X0384489Y0315030D02*
X0395690Y0315030D01*
X0395690Y0315428D02*
X0384398Y0315428D01*
X0384390Y0315827D02*
X0395690Y0315827D01*
X0395690Y0316225D02*
X0384390Y0316225D01*
X0384390Y0316624D02*
X0395690Y0316624D01*
X0395690Y0317022D02*
X0384390Y0317022D01*
X0384390Y0317421D02*
X0395690Y0317421D01*
X0395690Y0317819D02*
X0384390Y0317819D01*
X0384390Y0318218D02*
X0395690Y0318218D01*
X0395690Y0318616D02*
X0384415Y0318616D01*
X0384555Y0319015D02*
X0395690Y0319015D01*
X0395690Y0319413D02*
X0384885Y0319413D01*
X0385690Y0335357D02*
X0385401Y0335389D01*
X0385126Y0335486D01*
X0384880Y0335640D01*
X0384674Y0335846D01*
X0384519Y0336093D01*
X0384423Y0336368D01*
X0384390Y0336657D01*
X0384390Y0339557D01*
X0384420Y0339824D01*
X0384509Y0340077D01*
X0384652Y0340305D01*
X0384842Y0340495D01*
X0385070Y0340638D01*
X0385323Y0340727D01*
X0385590Y0340757D01*
X0392490Y0340757D01*
X0392528Y0340764D01*
X0392561Y0340786D01*
X0392583Y0340819D01*
X0392590Y0340857D01*
X0392590Y0342757D01*
X0395690Y0342757D01*
X0395690Y0335357D01*
X0385690Y0335357D01*
X0384768Y0335752D02*
X0395690Y0335752D01*
X0395690Y0336151D02*
X0384499Y0336151D01*
X0384402Y0336549D02*
X0395690Y0336549D01*
X0395690Y0336948D02*
X0384390Y0336948D01*
X0384390Y0337346D02*
X0395690Y0337346D01*
X0395690Y0337745D02*
X0384390Y0337745D01*
X0384390Y0338143D02*
X0395690Y0338143D01*
X0395690Y0338542D02*
X0384390Y0338542D01*
X0384390Y0338940D02*
X0395690Y0338940D01*
X0395690Y0339339D02*
X0384390Y0339339D01*
X0384410Y0339737D02*
X0395690Y0339737D01*
X0395690Y0340136D02*
X0384546Y0340136D01*
X0384905Y0340534D02*
X0395690Y0340534D01*
X0395690Y0340933D02*
X0392590Y0340933D01*
X0392590Y0341331D02*
X0395690Y0341331D01*
X0395690Y0341730D02*
X0392590Y0341730D01*
X0392590Y0342128D02*
X0395690Y0342128D01*
X0395690Y0342527D02*
X0392590Y0342527D01*
D17*
X0395077Y0333110D02*
X0401475Y0333110D01*
X0401475Y0332126D01*
X0395077Y0332126D01*
X0395077Y0333110D01*
X0395077Y0333069D02*
X0401475Y0333069D01*
X0401475Y0332874D02*
X0395077Y0332874D01*
X0395077Y0332678D02*
X0401475Y0332678D01*
X0401475Y0332483D02*
X0395077Y0332483D01*
X0395077Y0332287D02*
X0401475Y0332287D01*
X0401475Y0330551D02*
X0395077Y0330551D01*
X0395077Y0329567D01*
X0401475Y0329567D01*
X0401475Y0330551D01*
X0401475Y0330529D02*
X0395077Y0330529D01*
X0395077Y0330334D02*
X0401475Y0330334D01*
X0401475Y0330138D02*
X0395077Y0330138D01*
X0395077Y0329943D02*
X0401475Y0329943D01*
X0401475Y0329748D02*
X0395077Y0329748D01*
X0395077Y0327992D02*
X0401475Y0327992D01*
X0401475Y0327008D01*
X0395077Y0327008D01*
X0395077Y0327992D01*
X0395077Y0327990D02*
X0401475Y0327990D01*
X0401475Y0327794D02*
X0395077Y0327794D01*
X0395077Y0327599D02*
X0401475Y0327599D01*
X0401475Y0327403D02*
X0395077Y0327403D01*
X0395077Y0327208D02*
X0401475Y0327208D01*
X0401475Y0327013D02*
X0395077Y0327013D01*
X0395077Y0325433D02*
X0401475Y0325433D01*
X0401475Y0324449D01*
X0395077Y0324449D01*
X0395077Y0325433D01*
X0395077Y0325254D02*
X0401475Y0325254D01*
X0401475Y0325059D02*
X0395077Y0325059D01*
X0395077Y0324864D02*
X0401475Y0324864D01*
X0401475Y0324668D02*
X0395077Y0324668D01*
X0395077Y0324473D02*
X0401475Y0324473D01*
X0401475Y0322874D02*
X0395077Y0322874D01*
X0395077Y0321890D01*
X0401475Y0321890D01*
X0401475Y0322874D01*
X0401475Y0322715D02*
X0395077Y0322715D01*
X0395077Y0322519D02*
X0401475Y0322519D01*
X0401475Y0322324D02*
X0395077Y0322324D01*
X0395077Y0322129D02*
X0401475Y0322129D01*
X0401475Y0321933D02*
X0395077Y0321933D01*
X0395077Y0221110D02*
X0401475Y0221110D01*
X0401475Y0220126D01*
X0395077Y0220126D01*
X0395077Y0221110D01*
X0395077Y0220931D02*
X0401475Y0220931D01*
X0401475Y0220736D02*
X0395077Y0220736D01*
X0395077Y0220541D02*
X0401475Y0220541D01*
X0401475Y0220345D02*
X0395077Y0220345D01*
X0395077Y0220150D02*
X0401475Y0220150D01*
X0401475Y0218551D02*
X0395077Y0218551D01*
X0395077Y0217567D01*
X0401475Y0217567D01*
X0401475Y0218551D01*
X0401475Y0218392D02*
X0395077Y0218392D01*
X0395077Y0218196D02*
X0401475Y0218196D01*
X0401475Y0218001D02*
X0395077Y0218001D01*
X0395077Y0217805D02*
X0401475Y0217805D01*
X0401475Y0217610D02*
X0395077Y0217610D01*
X0395077Y0215992D02*
X0401475Y0215992D01*
X0401475Y0215008D01*
X0395077Y0215008D01*
X0395077Y0215992D01*
X0395077Y0215852D02*
X0401475Y0215852D01*
X0401475Y0215657D02*
X0395077Y0215657D01*
X0395077Y0215461D02*
X0401475Y0215461D01*
X0401475Y0215266D02*
X0395077Y0215266D01*
X0395077Y0215070D02*
X0401475Y0215070D01*
X0401475Y0213433D02*
X0395077Y0213433D01*
X0395077Y0212449D01*
X0401475Y0212449D01*
X0401475Y0213433D01*
X0401475Y0213312D02*
X0395077Y0213312D01*
X0395077Y0213117D02*
X0401475Y0213117D01*
X0401475Y0212921D02*
X0395077Y0212921D01*
X0395077Y0212726D02*
X0401475Y0212726D01*
X0401475Y0212531D02*
X0395077Y0212531D01*
X0395077Y0210874D02*
X0401475Y0210874D01*
X0401475Y0209890D01*
X0395077Y0209890D01*
X0395077Y0210874D01*
X0395077Y0210772D02*
X0401475Y0210772D01*
X0401475Y0210577D02*
X0395077Y0210577D01*
X0395077Y0210382D02*
X0401475Y0210382D01*
X0401475Y0210186D02*
X0395077Y0210186D01*
X0395077Y0209991D02*
X0401475Y0209991D01*
X0401475Y0109110D02*
X0395077Y0109110D01*
X0395077Y0108126D01*
X0401475Y0108126D01*
X0401475Y0109110D01*
X0401475Y0108989D02*
X0395077Y0108989D01*
X0395077Y0108794D02*
X0401475Y0108794D01*
X0401475Y0108598D02*
X0395077Y0108598D01*
X0395077Y0108403D02*
X0401475Y0108403D01*
X0401475Y0108208D02*
X0395077Y0108208D01*
X0395077Y0106551D02*
X0401475Y0106551D01*
X0401475Y0105567D01*
X0395077Y0105567D01*
X0395077Y0106551D01*
X0395077Y0106449D02*
X0401475Y0106449D01*
X0401475Y0106254D02*
X0395077Y0106254D01*
X0395077Y0106059D02*
X0401475Y0106059D01*
X0401475Y0105863D02*
X0395077Y0105863D01*
X0395077Y0105668D02*
X0401475Y0105668D01*
X0401475Y0103992D02*
X0395077Y0103992D01*
X0395077Y0103008D01*
X0401475Y0103008D01*
X0401475Y0103992D01*
X0401475Y0103910D02*
X0395077Y0103910D01*
X0395077Y0103714D02*
X0401475Y0103714D01*
X0401475Y0103519D02*
X0395077Y0103519D01*
X0395077Y0103324D02*
X0401475Y0103324D01*
X0401475Y0103128D02*
X0395077Y0103128D01*
X0395077Y0101433D02*
X0401475Y0101433D01*
X0401475Y0100449D01*
X0395077Y0100449D01*
X0395077Y0101433D01*
X0395077Y0101370D02*
X0401475Y0101370D01*
X0401475Y0101175D02*
X0395077Y0101175D01*
X0395077Y0100979D02*
X0401475Y0100979D01*
X0401475Y0100784D02*
X0395077Y0100784D01*
X0395077Y0100588D02*
X0401475Y0100588D01*
X0401475Y0098874D02*
X0395077Y0098874D01*
X0395077Y0097890D01*
X0401475Y0097890D01*
X0401475Y0098874D01*
X0401475Y0098830D02*
X0395077Y0098830D01*
X0395077Y0098635D02*
X0401475Y0098635D01*
X0401475Y0098439D02*
X0395077Y0098439D01*
X0395077Y0098244D02*
X0401475Y0098244D01*
X0401475Y0098049D02*
X0395077Y0098049D01*
X0229475Y0098049D02*
X0223077Y0098049D01*
X0223077Y0097890D02*
X0223077Y0098874D01*
X0229475Y0098874D01*
X0229475Y0097890D01*
X0223077Y0097890D01*
X0223077Y0098244D02*
X0229475Y0098244D01*
X0229475Y0098439D02*
X0223077Y0098439D01*
X0223077Y0098635D02*
X0229475Y0098635D01*
X0229475Y0098830D02*
X0223077Y0098830D01*
X0223077Y0100449D02*
X0223077Y0101433D01*
X0229475Y0101433D01*
X0229475Y0100449D01*
X0223077Y0100449D01*
X0223077Y0100588D02*
X0229475Y0100588D01*
X0229475Y0100784D02*
X0223077Y0100784D01*
X0223077Y0100979D02*
X0229475Y0100979D01*
X0229475Y0101175D02*
X0223077Y0101175D01*
X0223077Y0101370D02*
X0229475Y0101370D01*
X0229475Y0103008D02*
X0223077Y0103008D01*
X0223077Y0103992D01*
X0229475Y0103992D01*
X0229475Y0103008D01*
X0229475Y0103128D02*
X0223077Y0103128D01*
X0223077Y0103324D02*
X0229475Y0103324D01*
X0229475Y0103519D02*
X0223077Y0103519D01*
X0223077Y0103714D02*
X0229475Y0103714D01*
X0229475Y0103910D02*
X0223077Y0103910D01*
X0223077Y0105567D02*
X0223077Y0106551D01*
X0229475Y0106551D01*
X0229475Y0105567D01*
X0223077Y0105567D01*
X0223077Y0105668D02*
X0229475Y0105668D01*
X0229475Y0105863D02*
X0223077Y0105863D01*
X0223077Y0106059D02*
X0229475Y0106059D01*
X0229475Y0106254D02*
X0223077Y0106254D01*
X0223077Y0106449D02*
X0229475Y0106449D01*
X0229475Y0108126D02*
X0223077Y0108126D01*
X0223077Y0109110D01*
X0229475Y0109110D01*
X0229475Y0108126D01*
X0229475Y0108208D02*
X0223077Y0108208D01*
X0223077Y0108403D02*
X0229475Y0108403D01*
X0229475Y0108598D02*
X0223077Y0108598D01*
X0223077Y0108794D02*
X0229475Y0108794D01*
X0229475Y0108989D02*
X0223077Y0108989D01*
X0223077Y0209890D02*
X0223077Y0210874D01*
X0229475Y0210874D01*
X0229475Y0209890D01*
X0223077Y0209890D01*
X0223077Y0209991D02*
X0229475Y0209991D01*
X0229475Y0210186D02*
X0223077Y0210186D01*
X0223077Y0210382D02*
X0229475Y0210382D01*
X0229475Y0210577D02*
X0223077Y0210577D01*
X0223077Y0210772D02*
X0229475Y0210772D01*
X0229475Y0212449D02*
X0223077Y0212449D01*
X0223077Y0213433D01*
X0229475Y0213433D01*
X0229475Y0212449D01*
X0229475Y0212531D02*
X0223077Y0212531D01*
X0223077Y0212726D02*
X0229475Y0212726D01*
X0229475Y0212921D02*
X0223077Y0212921D01*
X0223077Y0213117D02*
X0229475Y0213117D01*
X0229475Y0213312D02*
X0223077Y0213312D01*
X0223077Y0215008D02*
X0223077Y0215992D01*
X0229475Y0215992D01*
X0229475Y0215008D01*
X0223077Y0215008D01*
X0223077Y0215070D02*
X0229475Y0215070D01*
X0229475Y0215266D02*
X0223077Y0215266D01*
X0223077Y0215461D02*
X0229475Y0215461D01*
X0229475Y0215657D02*
X0223077Y0215657D01*
X0223077Y0215852D02*
X0229475Y0215852D01*
X0229475Y0217567D02*
X0223077Y0217567D01*
X0223077Y0218551D01*
X0229475Y0218551D01*
X0229475Y0217567D01*
X0229475Y0217610D02*
X0223077Y0217610D01*
X0223077Y0217805D02*
X0229475Y0217805D01*
X0229475Y0218001D02*
X0223077Y0218001D01*
X0223077Y0218196D02*
X0229475Y0218196D01*
X0229475Y0218392D02*
X0223077Y0218392D01*
X0223077Y0220126D02*
X0223077Y0221110D01*
X0229475Y0221110D01*
X0229475Y0220126D01*
X0223077Y0220126D01*
X0223077Y0220150D02*
X0229475Y0220150D01*
X0229475Y0220345D02*
X0223077Y0220345D01*
X0223077Y0220541D02*
X0229475Y0220541D01*
X0229475Y0220736D02*
X0223077Y0220736D01*
X0223077Y0220931D02*
X0229475Y0220931D01*
X0229475Y0321890D02*
X0223077Y0321890D01*
X0223077Y0322874D01*
X0229475Y0322874D01*
X0229475Y0321890D01*
X0229475Y0321933D02*
X0223077Y0321933D01*
X0223077Y0322129D02*
X0229475Y0322129D01*
X0229475Y0322324D02*
X0223077Y0322324D01*
X0223077Y0322519D02*
X0229475Y0322519D01*
X0229475Y0322715D02*
X0223077Y0322715D01*
X0223077Y0324449D02*
X0223077Y0325433D01*
X0229475Y0325433D01*
X0229475Y0324449D01*
X0223077Y0324449D01*
X0223077Y0324473D02*
X0229475Y0324473D01*
X0229475Y0324668D02*
X0223077Y0324668D01*
X0223077Y0324864D02*
X0229475Y0324864D01*
X0229475Y0325059D02*
X0223077Y0325059D01*
X0223077Y0325254D02*
X0229475Y0325254D01*
X0229475Y0327008D02*
X0223077Y0327008D01*
X0223077Y0327992D01*
X0229475Y0327992D01*
X0229475Y0327008D01*
X0229475Y0327013D02*
X0223077Y0327013D01*
X0223077Y0327208D02*
X0229475Y0327208D01*
X0229475Y0327403D02*
X0223077Y0327403D01*
X0223077Y0327599D02*
X0229475Y0327599D01*
X0229475Y0327794D02*
X0223077Y0327794D01*
X0223077Y0327990D02*
X0229475Y0327990D01*
X0229475Y0329567D02*
X0223077Y0329567D01*
X0223077Y0330551D01*
X0229475Y0330551D01*
X0229475Y0329567D01*
X0229475Y0329748D02*
X0223077Y0329748D01*
X0223077Y0329943D02*
X0229475Y0329943D01*
X0229475Y0330138D02*
X0223077Y0330138D01*
X0223077Y0330334D02*
X0229475Y0330334D01*
X0229475Y0330529D02*
X0223077Y0330529D01*
X0223077Y0332126D02*
X0223077Y0333110D01*
X0229475Y0333110D01*
X0229475Y0332126D01*
X0223077Y0332126D01*
X0223077Y0332287D02*
X0229475Y0332287D01*
X0229475Y0332483D02*
X0223077Y0332483D01*
X0223077Y0332678D02*
X0229475Y0332678D01*
X0229475Y0332874D02*
X0223077Y0332874D01*
X0223077Y0333069D02*
X0229475Y0333069D01*
X0057475Y0333110D02*
X0057475Y0332126D01*
X0051077Y0332126D01*
X0051077Y0333110D01*
X0057475Y0333110D01*
X0057475Y0333069D02*
X0051077Y0333069D01*
X0051077Y0332874D02*
X0057475Y0332874D01*
X0057475Y0332678D02*
X0051077Y0332678D01*
X0051077Y0332483D02*
X0057475Y0332483D01*
X0057475Y0332287D02*
X0051077Y0332287D01*
X0051077Y0330551D02*
X0057475Y0330551D01*
X0057475Y0329567D01*
X0051077Y0329567D01*
X0051077Y0330551D01*
X0051077Y0330529D02*
X0057475Y0330529D01*
X0057475Y0330334D02*
X0051077Y0330334D01*
X0051077Y0330138D02*
X0057475Y0330138D01*
X0057475Y0329943D02*
X0051077Y0329943D01*
X0051077Y0329748D02*
X0057475Y0329748D01*
X0057475Y0327992D02*
X0051077Y0327992D01*
X0051077Y0327008D01*
X0057475Y0327008D01*
X0057475Y0327992D01*
X0057475Y0327990D02*
X0051077Y0327990D01*
X0051077Y0327794D02*
X0057475Y0327794D01*
X0057475Y0327599D02*
X0051077Y0327599D01*
X0051077Y0327403D02*
X0057475Y0327403D01*
X0057475Y0327208D02*
X0051077Y0327208D01*
X0051077Y0327013D02*
X0057475Y0327013D01*
X0057475Y0325433D02*
X0051077Y0325433D01*
X0051077Y0324449D01*
X0057475Y0324449D01*
X0057475Y0325433D01*
X0057475Y0325254D02*
X0051077Y0325254D01*
X0051077Y0325059D02*
X0057475Y0325059D01*
X0057475Y0324864D02*
X0051077Y0324864D01*
X0051077Y0324668D02*
X0057475Y0324668D01*
X0057475Y0324473D02*
X0051077Y0324473D01*
X0051077Y0322874D02*
X0057475Y0322874D01*
X0057475Y0321890D01*
X0051077Y0321890D01*
X0051077Y0322874D01*
X0051077Y0322715D02*
X0057475Y0322715D01*
X0057475Y0322519D02*
X0051077Y0322519D01*
X0051077Y0322324D02*
X0057475Y0322324D01*
X0057475Y0322129D02*
X0051077Y0322129D01*
X0051077Y0321933D02*
X0057475Y0321933D01*
X0057475Y0221110D02*
X0051077Y0221110D01*
X0051077Y0220126D01*
X0057475Y0220126D01*
X0057475Y0221110D01*
X0057475Y0220931D02*
X0051077Y0220931D01*
X0051077Y0220736D02*
X0057475Y0220736D01*
X0057475Y0220541D02*
X0051077Y0220541D01*
X0051077Y0220345D02*
X0057475Y0220345D01*
X0057475Y0220150D02*
X0051077Y0220150D01*
X0051077Y0218551D02*
X0057475Y0218551D01*
X0057475Y0217567D01*
X0051077Y0217567D01*
X0051077Y0218551D01*
X0051077Y0218392D02*
X0057475Y0218392D01*
X0057475Y0218196D02*
X0051077Y0218196D01*
X0051077Y0218001D02*
X0057475Y0218001D01*
X0057475Y0217805D02*
X0051077Y0217805D01*
X0051077Y0217610D02*
X0057475Y0217610D01*
X0057475Y0215992D02*
X0051077Y0215992D01*
X0051077Y0215008D01*
X0057475Y0215008D01*
X0057475Y0215992D01*
X0057475Y0215852D02*
X0051077Y0215852D01*
X0051077Y0215657D02*
X0057475Y0215657D01*
X0057475Y0215461D02*
X0051077Y0215461D01*
X0051077Y0215266D02*
X0057475Y0215266D01*
X0057475Y0215070D02*
X0051077Y0215070D01*
X0051077Y0213433D02*
X0057475Y0213433D01*
X0057475Y0212449D01*
X0051077Y0212449D01*
X0051077Y0213433D01*
X0051077Y0213312D02*
X0057475Y0213312D01*
X0057475Y0213117D02*
X0051077Y0213117D01*
X0051077Y0212921D02*
X0057475Y0212921D01*
X0057475Y0212726D02*
X0051077Y0212726D01*
X0051077Y0212531D02*
X0057475Y0212531D01*
X0057475Y0210874D02*
X0051077Y0210874D01*
X0051077Y0209890D01*
X0057475Y0209890D01*
X0057475Y0210874D01*
X0057475Y0210772D02*
X0051077Y0210772D01*
X0051077Y0210577D02*
X0057475Y0210577D01*
X0057475Y0210382D02*
X0051077Y0210382D01*
X0051077Y0210186D02*
X0057475Y0210186D01*
X0057475Y0209991D02*
X0051077Y0209991D01*
X0051077Y0109110D02*
X0057475Y0109110D01*
X0057475Y0108126D01*
X0051077Y0108126D01*
X0051077Y0109110D01*
X0051077Y0108989D02*
X0057475Y0108989D01*
X0057475Y0108794D02*
X0051077Y0108794D01*
X0051077Y0108598D02*
X0057475Y0108598D01*
X0057475Y0108403D02*
X0051077Y0108403D01*
X0051077Y0108208D02*
X0057475Y0108208D01*
X0057475Y0106551D02*
X0051077Y0106551D01*
X0051077Y0105567D01*
X0057475Y0105567D01*
X0057475Y0106551D01*
X0057475Y0106449D02*
X0051077Y0106449D01*
X0051077Y0106254D02*
X0057475Y0106254D01*
X0057475Y0106059D02*
X0051077Y0106059D01*
X0051077Y0105863D02*
X0057475Y0105863D01*
X0057475Y0105668D02*
X0051077Y0105668D01*
X0051077Y0103992D02*
X0057475Y0103992D01*
X0057475Y0103008D01*
X0051077Y0103008D01*
X0051077Y0103992D01*
X0051077Y0103910D02*
X0057475Y0103910D01*
X0057475Y0103714D02*
X0051077Y0103714D01*
X0051077Y0103519D02*
X0057475Y0103519D01*
X0057475Y0103324D02*
X0051077Y0103324D01*
X0051077Y0103128D02*
X0057475Y0103128D01*
X0057475Y0101433D02*
X0051077Y0101433D01*
X0051077Y0100449D01*
X0057475Y0100449D01*
X0057475Y0101433D01*
X0057475Y0101370D02*
X0051077Y0101370D01*
X0051077Y0101175D02*
X0057475Y0101175D01*
X0057475Y0100979D02*
X0051077Y0100979D01*
X0051077Y0100784D02*
X0057475Y0100784D01*
X0057475Y0100588D02*
X0051077Y0100588D01*
X0051077Y0098874D02*
X0057475Y0098874D01*
X0057475Y0097890D01*
X0051077Y0097890D01*
X0051077Y0098874D01*
X0051077Y0098830D02*
X0057475Y0098830D01*
X0057475Y0098635D02*
X0051077Y0098635D01*
X0051077Y0098439D02*
X0057475Y0098439D01*
X0057475Y0098244D02*
X0051077Y0098244D01*
X0051077Y0098049D02*
X0057475Y0098049D01*
D18*
X0091750Y0088846D03*
X0091750Y0082154D03*
X0136250Y0105154D03*
X0142750Y0105154D03*
X0142750Y0111846D03*
X0136250Y0111846D03*
X0153750Y0112346D03*
X0153750Y0105654D03*
X0172750Y0097346D03*
X0172750Y0090654D03*
X0174750Y0105654D03*
X0174750Y0112346D03*
X0263750Y0088846D03*
X0263750Y0082154D03*
X0308250Y0105154D03*
X0314750Y0105154D03*
X0314750Y0111846D03*
X0308250Y0111846D03*
X0325750Y0112346D03*
X0325750Y0105654D03*
X0344750Y0097346D03*
X0344750Y0090654D03*
X0346750Y0105654D03*
X0346750Y0112346D03*
X0435750Y0088846D03*
X0435750Y0082154D03*
X0480250Y0105154D03*
X0486750Y0105154D03*
X0497750Y0105654D03*
X0497750Y0112346D03*
X0486750Y0111846D03*
X0480250Y0111846D03*
X0516750Y0097346D03*
X0516750Y0090654D03*
X0518750Y0105654D03*
X0518750Y0112346D03*
X0435750Y0194154D03*
X0435750Y0200846D03*
X0480250Y0217154D03*
X0486750Y0217154D03*
X0497750Y0217654D03*
X0497750Y0224346D03*
X0486750Y0223846D03*
X0480250Y0223846D03*
X0516750Y0209346D03*
X0516750Y0202654D03*
X0518750Y0217654D03*
X0518750Y0224346D03*
X0435750Y0306154D03*
X0435750Y0312846D03*
X0480250Y0329154D03*
X0486750Y0329154D03*
X0486750Y0335846D03*
X0480250Y0335846D03*
X0497750Y0336346D03*
X0497750Y0329654D03*
X0516750Y0321346D03*
X0516750Y0314654D03*
X0518750Y0329654D03*
X0518750Y0336346D03*
X0346750Y0336346D03*
X0346750Y0329654D03*
X0344750Y0321346D03*
X0344750Y0314654D03*
X0325750Y0329654D03*
X0325750Y0336346D03*
X0314750Y0335846D03*
X0308250Y0335846D03*
X0308250Y0329154D03*
X0314750Y0329154D03*
X0263750Y0312846D03*
X0263750Y0306154D03*
X0172750Y0314654D03*
X0172750Y0321346D03*
X0174750Y0329654D03*
X0174750Y0336346D03*
X0153750Y0336346D03*
X0153750Y0329654D03*
X0142750Y0329154D03*
X0136250Y0329154D03*
X0136250Y0335846D03*
X0142750Y0335846D03*
X0091750Y0312846D03*
X0091750Y0306154D03*
X0136250Y0223846D03*
X0142750Y0223846D03*
X0142750Y0217154D03*
X0136250Y0217154D03*
X0153750Y0217654D03*
X0153750Y0224346D03*
X0174750Y0224346D03*
X0174750Y0217654D03*
X0172750Y0209346D03*
X0172750Y0202654D03*
X0091750Y0200846D03*
X0091750Y0194154D03*
X0263750Y0194154D03*
X0263750Y0200846D03*
X0308250Y0217154D03*
X0314750Y0217154D03*
X0314750Y0223846D03*
X0308250Y0223846D03*
X0325750Y0224346D03*
X0325750Y0217654D03*
X0344750Y0209346D03*
X0344750Y0202654D03*
X0346750Y0217654D03*
X0346750Y0224346D03*
D19*
X0398892Y0270390D03*
X0410703Y0270390D03*
X0416608Y0270390D03*
X0244608Y0270390D03*
X0238703Y0270390D03*
X0226892Y0270390D03*
X0072608Y0270390D03*
X0066703Y0270390D03*
X0054892Y0270390D03*
X0054892Y0158390D03*
X0066703Y0158390D03*
X0072608Y0158390D03*
X0226892Y0158390D03*
X0238703Y0158390D03*
X0244608Y0158390D03*
X0398892Y0158390D03*
X0410703Y0158390D03*
X0416608Y0158390D03*
X0416608Y0046390D03*
X0410703Y0046390D03*
X0398892Y0046390D03*
X0244608Y0046390D03*
X0238703Y0046390D03*
X0226892Y0046390D03*
X0072608Y0046390D03*
X0066703Y0046390D03*
X0054892Y0046390D03*
D20*
X0049380Y0035563D03*
X0078120Y0035563D03*
X0221380Y0035563D03*
X0250120Y0035563D03*
X0393380Y0035563D03*
X0422120Y0035563D03*
X0422120Y0147563D03*
X0393380Y0147563D03*
X0250120Y0147563D03*
X0221380Y0147563D03*
X0078120Y0147563D03*
X0049380Y0147563D03*
X0049380Y0259563D03*
X0078120Y0259563D03*
X0221380Y0259563D03*
X0250120Y0259563D03*
X0393380Y0259563D03*
X0422120Y0259563D03*
D21*
X0422120Y0267831D03*
X0393380Y0267831D03*
X0250120Y0267831D03*
X0221380Y0267831D03*
X0078120Y0267831D03*
X0049380Y0267831D03*
X0049380Y0155831D03*
X0078120Y0155831D03*
X0221380Y0155831D03*
X0250120Y0155831D03*
X0393380Y0155831D03*
X0422120Y0155831D03*
X0422120Y0043831D03*
X0393380Y0043831D03*
X0250120Y0043831D03*
X0221380Y0043831D03*
X0078120Y0043831D03*
X0049380Y0043831D03*
D22*
X0099631Y0081760D03*
X0109869Y0081760D03*
X0109869Y0085500D03*
X0109869Y0089240D03*
X0099631Y0089240D03*
X0085869Y0091740D03*
X0085869Y0084260D03*
X0075631Y0084260D03*
X0075631Y0088000D03*
X0075631Y0091740D03*
X0099631Y0193760D03*
X0109869Y0193760D03*
X0109869Y0197500D03*
X0109869Y0201240D03*
X0099631Y0201240D03*
X0085869Y0203740D03*
X0085869Y0196260D03*
X0075631Y0196260D03*
X0075631Y0200000D03*
X0075631Y0203740D03*
X0075631Y0308260D03*
X0075631Y0312000D03*
X0075631Y0315740D03*
X0085869Y0315740D03*
X0085869Y0308260D03*
X0099631Y0305760D03*
X0109869Y0305760D03*
X0109869Y0309500D03*
X0109869Y0313240D03*
X0099631Y0313240D03*
X0247631Y0312000D03*
X0247631Y0308260D03*
X0247631Y0315740D03*
X0257869Y0315740D03*
X0257869Y0308260D03*
X0271631Y0305760D03*
X0281869Y0305760D03*
X0281869Y0309500D03*
X0281869Y0313240D03*
X0271631Y0313240D03*
X0419631Y0312000D03*
X0419631Y0308260D03*
X0419631Y0315740D03*
X0429869Y0315740D03*
X0429869Y0308260D03*
X0443631Y0305760D03*
X0443631Y0313240D03*
X0453869Y0313240D03*
X0453869Y0309500D03*
X0453869Y0305760D03*
X0429869Y0203740D03*
X0429869Y0196260D03*
X0419631Y0196260D03*
X0419631Y0200000D03*
X0419631Y0203740D03*
X0443631Y0201240D03*
X0443631Y0193760D03*
X0453869Y0193760D03*
X0453869Y0197500D03*
X0453869Y0201240D03*
X0281869Y0201240D03*
X0281869Y0197500D03*
X0281869Y0193760D03*
X0271631Y0193760D03*
X0271631Y0201240D03*
X0257869Y0203740D03*
X0257869Y0196260D03*
X0247631Y0196260D03*
X0247631Y0200000D03*
X0247631Y0203740D03*
X0247631Y0091740D03*
X0247631Y0088000D03*
X0247631Y0084260D03*
X0257869Y0084260D03*
X0257869Y0091740D03*
X0271631Y0089240D03*
X0281869Y0089240D03*
X0281869Y0085500D03*
X0281869Y0081760D03*
X0271631Y0081760D03*
X0419631Y0084260D03*
X0419631Y0088000D03*
X0419631Y0091740D03*
X0429869Y0091740D03*
X0429869Y0084260D03*
X0443631Y0081760D03*
X0443631Y0089240D03*
X0453869Y0089240D03*
X0453869Y0085500D03*
X0453869Y0081760D03*
D23*
X0415427Y0127500D03*
X0400073Y0127500D03*
X0243427Y0127500D03*
X0228073Y0127500D03*
X0071427Y0127500D03*
X0056073Y0127500D03*
X0056073Y0239500D03*
X0071427Y0239500D03*
X0228073Y0239500D03*
X0243427Y0239500D03*
X0400073Y0239500D03*
X0415427Y0239500D03*
X0415427Y0351500D03*
X0400073Y0351500D03*
X0243427Y0351500D03*
X0228073Y0351500D03*
X0071427Y0351500D03*
X0056073Y0351500D03*
D24*
X0068317Y0296437D03*
X0068317Y0288563D03*
X0068317Y0184437D03*
X0068317Y0176563D03*
X0240317Y0176563D03*
X0240317Y0184437D03*
X0240317Y0288563D03*
X0240317Y0296437D03*
X0412317Y0296437D03*
X0412317Y0288563D03*
X0412317Y0184437D03*
X0412317Y0176563D03*
X0412317Y0072437D03*
X0412317Y0064563D03*
X0240317Y0064563D03*
X0240317Y0072437D03*
X0068317Y0072437D03*
X0068317Y0064563D03*
D25*
X0047844Y0055114D03*
X0047844Y0081886D03*
X0047844Y0167114D03*
X0047844Y0193886D03*
X0047844Y0279114D03*
X0047844Y0305886D03*
X0219844Y0305886D03*
X0219844Y0279114D03*
X0219844Y0193886D03*
X0219844Y0167114D03*
X0219844Y0081886D03*
X0219844Y0055114D03*
X0391844Y0055114D03*
X0391844Y0081886D03*
X0391844Y0167114D03*
X0391844Y0193886D03*
X0391844Y0279114D03*
X0391844Y0305886D03*
D26*
X0365219Y0296476D03*
X0365219Y0318524D03*
X0537219Y0318524D03*
X0537219Y0296476D03*
X0537219Y0206524D03*
X0537219Y0184476D03*
X0537219Y0094524D03*
X0537219Y0072476D03*
X0365219Y0072476D03*
X0365219Y0094524D03*
X0365219Y0184476D03*
X0365219Y0206524D03*
X0193219Y0206524D03*
X0193219Y0184476D03*
X0193219Y0094524D03*
X0193219Y0072476D03*
X0193219Y0296476D03*
X0193219Y0318524D03*
D27*
X0178750Y0313406D03*
X0178750Y0309469D03*
X0178750Y0305531D03*
X0178750Y0301594D03*
X0178750Y0201406D03*
X0178750Y0197469D03*
X0178750Y0193531D03*
X0178750Y0189594D03*
X0178750Y0089406D03*
X0178750Y0085469D03*
X0178750Y0081531D03*
X0178750Y0077594D03*
X0350750Y0077594D03*
X0350750Y0081531D03*
X0350750Y0085469D03*
X0350750Y0089406D03*
X0350750Y0189594D03*
X0350750Y0193531D03*
X0350750Y0197469D03*
X0350750Y0201406D03*
X0350750Y0301594D03*
X0350750Y0305531D03*
X0350750Y0309469D03*
X0350750Y0313406D03*
X0522750Y0313406D03*
X0522750Y0309469D03*
X0522750Y0305531D03*
X0522750Y0301594D03*
X0522750Y0201406D03*
X0522750Y0197469D03*
X0522750Y0193531D03*
X0522750Y0189594D03*
X0522750Y0089406D03*
X0522750Y0085469D03*
X0522750Y0081531D03*
X0522750Y0077594D03*
D28*
X0513171Y0107500D03*
X0503329Y0107500D03*
X0341171Y0107500D03*
X0331329Y0107500D03*
X0169171Y0107500D03*
X0159329Y0107500D03*
X0159329Y0219500D03*
X0169171Y0219500D03*
X0331329Y0219500D03*
X0341171Y0219500D03*
X0503329Y0219500D03*
X0513171Y0219500D03*
X0513171Y0331500D03*
X0503329Y0331500D03*
X0341171Y0331500D03*
X0331329Y0331500D03*
X0169171Y0331500D03*
X0159329Y0331500D03*
D29*
X0188750Y0335913D03*
X0188750Y0325087D03*
X0188750Y0223913D03*
X0188750Y0213087D03*
X0188750Y0111913D03*
X0188750Y0101087D03*
X0360750Y0101087D03*
X0360750Y0111913D03*
X0360750Y0213087D03*
X0360750Y0223913D03*
X0360750Y0325087D03*
X0360750Y0335913D03*
X0532750Y0335913D03*
X0532750Y0325087D03*
X0532750Y0223913D03*
X0532750Y0213087D03*
X0532750Y0111913D03*
X0532750Y0101087D03*
D30*
X0526746Y0106500D03*
X0538754Y0106500D03*
X0366754Y0106500D03*
X0354746Y0106500D03*
X0194754Y0106500D03*
X0182746Y0106500D03*
X0182746Y0218500D03*
X0194754Y0218500D03*
X0354746Y0218500D03*
X0366754Y0218500D03*
X0526746Y0218500D03*
X0538754Y0218500D03*
X0538754Y0330500D03*
X0526746Y0330500D03*
X0366754Y0330500D03*
X0354746Y0330500D03*
X0194754Y0330500D03*
X0182746Y0330500D03*
D31*
X0165577Y0321386D03*
X0163608Y0321386D03*
X0161640Y0321386D03*
X0159671Y0321386D03*
X0157703Y0321386D03*
X0155734Y0321386D03*
X0153766Y0321386D03*
X0151797Y0321386D03*
X0149829Y0321386D03*
X0147860Y0321386D03*
X0145892Y0321386D03*
X0143923Y0321386D03*
X0143923Y0294614D03*
X0145892Y0294614D03*
X0147860Y0294614D03*
X0149829Y0294614D03*
X0151797Y0294614D03*
X0153766Y0294614D03*
X0155734Y0294614D03*
X0157703Y0294614D03*
X0159671Y0294614D03*
X0161640Y0294614D03*
X0163608Y0294614D03*
X0165577Y0294614D03*
X0165577Y0209386D03*
X0163608Y0209386D03*
X0161640Y0209386D03*
X0159671Y0209386D03*
X0157703Y0209386D03*
X0155734Y0209386D03*
X0153766Y0209386D03*
X0151797Y0209386D03*
X0149829Y0209386D03*
X0147860Y0209386D03*
X0145892Y0209386D03*
X0143923Y0209386D03*
X0143923Y0182614D03*
X0145892Y0182614D03*
X0147860Y0182614D03*
X0149829Y0182614D03*
X0151797Y0182614D03*
X0153766Y0182614D03*
X0155734Y0182614D03*
X0157703Y0182614D03*
X0159671Y0182614D03*
X0161640Y0182614D03*
X0163608Y0182614D03*
X0165577Y0182614D03*
X0165577Y0097386D03*
X0163608Y0097386D03*
X0161640Y0097386D03*
X0159671Y0097386D03*
X0157703Y0097386D03*
X0155734Y0097386D03*
X0153766Y0097386D03*
X0151797Y0097386D03*
X0149829Y0097386D03*
X0147860Y0097386D03*
X0145892Y0097386D03*
X0143923Y0097386D03*
X0143923Y0070614D03*
X0145892Y0070614D03*
X0147860Y0070614D03*
X0149829Y0070614D03*
X0151797Y0070614D03*
X0153766Y0070614D03*
X0155734Y0070614D03*
X0157703Y0070614D03*
X0159671Y0070614D03*
X0161640Y0070614D03*
X0163608Y0070614D03*
X0165577Y0070614D03*
X0315923Y0070614D03*
X0317892Y0070614D03*
X0319860Y0070614D03*
X0321829Y0070614D03*
X0323797Y0070614D03*
X0325766Y0070614D03*
X0327734Y0070614D03*
X0329703Y0070614D03*
X0331671Y0070614D03*
X0333640Y0070614D03*
X0335608Y0070614D03*
X0337577Y0070614D03*
X0337577Y0097386D03*
X0335608Y0097386D03*
X0333640Y0097386D03*
X0331671Y0097386D03*
X0329703Y0097386D03*
X0327734Y0097386D03*
X0325766Y0097386D03*
X0323797Y0097386D03*
X0321829Y0097386D03*
X0319860Y0097386D03*
X0317892Y0097386D03*
X0315923Y0097386D03*
X0315923Y0182614D03*
X0317892Y0182614D03*
X0319860Y0182614D03*
X0321829Y0182614D03*
X0323797Y0182614D03*
X0325766Y0182614D03*
X0327734Y0182614D03*
X0329703Y0182614D03*
X0331671Y0182614D03*
X0333640Y0182614D03*
X0335608Y0182614D03*
X0337577Y0182614D03*
X0337577Y0209386D03*
X0335608Y0209386D03*
X0333640Y0209386D03*
X0331671Y0209386D03*
X0329703Y0209386D03*
X0327734Y0209386D03*
X0325766Y0209386D03*
X0323797Y0209386D03*
X0321829Y0209386D03*
X0319860Y0209386D03*
X0317892Y0209386D03*
X0315923Y0209386D03*
X0315923Y0294614D03*
X0317892Y0294614D03*
X0319860Y0294614D03*
X0321829Y0294614D03*
X0323797Y0294614D03*
X0325766Y0294614D03*
X0327734Y0294614D03*
X0329703Y0294614D03*
X0331671Y0294614D03*
X0333640Y0294614D03*
X0335608Y0294614D03*
X0337577Y0294614D03*
X0337577Y0321386D03*
X0335608Y0321386D03*
X0333640Y0321386D03*
X0331671Y0321386D03*
X0329703Y0321386D03*
X0327734Y0321386D03*
X0325766Y0321386D03*
X0323797Y0321386D03*
X0321829Y0321386D03*
X0319860Y0321386D03*
X0317892Y0321386D03*
X0315923Y0321386D03*
X0487923Y0321386D03*
X0489892Y0321386D03*
X0491860Y0321386D03*
X0493829Y0321386D03*
X0495797Y0321386D03*
X0497766Y0321386D03*
X0499734Y0321386D03*
X0501703Y0321386D03*
X0503671Y0321386D03*
X0505640Y0321386D03*
X0507608Y0321386D03*
X0509577Y0321386D03*
X0509577Y0294614D03*
X0507608Y0294614D03*
X0505640Y0294614D03*
X0503671Y0294614D03*
X0501703Y0294614D03*
X0499734Y0294614D03*
X0497766Y0294614D03*
X0495797Y0294614D03*
X0493829Y0294614D03*
X0491860Y0294614D03*
X0489892Y0294614D03*
X0487923Y0294614D03*
X0487923Y0209386D03*
X0489892Y0209386D03*
X0491860Y0209386D03*
X0493829Y0209386D03*
X0495797Y0209386D03*
X0497766Y0209386D03*
X0499734Y0209386D03*
X0501703Y0209386D03*
X0503671Y0209386D03*
X0505640Y0209386D03*
X0507608Y0209386D03*
X0509577Y0209386D03*
X0509577Y0182614D03*
X0507608Y0182614D03*
X0505640Y0182614D03*
X0503671Y0182614D03*
X0501703Y0182614D03*
X0499734Y0182614D03*
X0497766Y0182614D03*
X0495797Y0182614D03*
X0493829Y0182614D03*
X0491860Y0182614D03*
X0489892Y0182614D03*
X0487923Y0182614D03*
X0487923Y0097386D03*
X0489892Y0097386D03*
X0491860Y0097386D03*
X0493829Y0097386D03*
X0495797Y0097386D03*
X0497766Y0097386D03*
X0499734Y0097386D03*
X0501703Y0097386D03*
X0503671Y0097386D03*
X0505640Y0097386D03*
X0507608Y0097386D03*
X0509577Y0097386D03*
X0509577Y0070614D03*
X0507608Y0070614D03*
X0505640Y0070614D03*
X0503671Y0070614D03*
X0501703Y0070614D03*
X0499734Y0070614D03*
X0497766Y0070614D03*
X0495797Y0070614D03*
X0493829Y0070614D03*
X0491860Y0070614D03*
X0489892Y0070614D03*
X0487923Y0070614D03*
D32*
X0485364Y0073173D03*
X0485364Y0075142D03*
X0485364Y0077110D03*
X0485364Y0079079D03*
X0485364Y0081047D03*
X0485364Y0083016D03*
X0485364Y0084984D03*
X0485364Y0086953D03*
X0485364Y0088921D03*
X0485364Y0090890D03*
X0485364Y0092858D03*
X0485364Y0094827D03*
X0512136Y0094827D03*
X0512136Y0092858D03*
X0512136Y0090890D03*
X0512136Y0088921D03*
X0512136Y0086953D03*
X0512136Y0084984D03*
X0512136Y0083016D03*
X0512136Y0081047D03*
X0512136Y0079079D03*
X0512136Y0077110D03*
X0512136Y0075142D03*
X0512136Y0073173D03*
X0340136Y0073173D03*
X0340136Y0075142D03*
X0340136Y0077110D03*
X0340136Y0079079D03*
X0340136Y0081047D03*
X0340136Y0083016D03*
X0340136Y0084984D03*
X0340136Y0086953D03*
X0340136Y0088921D03*
X0340136Y0090890D03*
X0340136Y0092858D03*
X0340136Y0094827D03*
X0313364Y0094827D03*
X0313364Y0092858D03*
X0313364Y0090890D03*
X0313364Y0088921D03*
X0313364Y0086953D03*
X0313364Y0084984D03*
X0313364Y0083016D03*
X0313364Y0081047D03*
X0313364Y0079079D03*
X0313364Y0077110D03*
X0313364Y0075142D03*
X0313364Y0073173D03*
X0168136Y0073173D03*
X0168136Y0075142D03*
X0168136Y0077110D03*
X0168136Y0079079D03*
X0168136Y0081047D03*
X0168136Y0083016D03*
X0168136Y0084984D03*
X0168136Y0086953D03*
X0168136Y0088921D03*
X0168136Y0090890D03*
X0168136Y0092858D03*
X0168136Y0094827D03*
X0141364Y0094827D03*
X0141364Y0092858D03*
X0141364Y0090890D03*
X0141364Y0088921D03*
X0141364Y0086953D03*
X0141364Y0084984D03*
X0141364Y0083016D03*
X0141364Y0081047D03*
X0141364Y0079079D03*
X0141364Y0077110D03*
X0141364Y0075142D03*
X0141364Y0073173D03*
X0141364Y0185173D03*
X0141364Y0187142D03*
X0141364Y0189110D03*
X0141364Y0191079D03*
X0141364Y0193047D03*
X0141364Y0195016D03*
X0141364Y0196984D03*
X0141364Y0198953D03*
X0141364Y0200921D03*
X0141364Y0202890D03*
X0141364Y0204858D03*
X0141364Y0206827D03*
X0168136Y0206827D03*
X0168136Y0204858D03*
X0168136Y0202890D03*
X0168136Y0200921D03*
X0168136Y0198953D03*
X0168136Y0196984D03*
X0168136Y0195016D03*
X0168136Y0193047D03*
X0168136Y0191079D03*
X0168136Y0189110D03*
X0168136Y0187142D03*
X0168136Y0185173D03*
X0313364Y0185173D03*
X0313364Y0187142D03*
X0313364Y0189110D03*
X0313364Y0191079D03*
X0313364Y0193047D03*
X0313364Y0195016D03*
X0313364Y0196984D03*
X0313364Y0198953D03*
X0313364Y0200921D03*
X0313364Y0202890D03*
X0313364Y0204858D03*
X0313364Y0206827D03*
X0340136Y0206827D03*
X0340136Y0204858D03*
X0340136Y0202890D03*
X0340136Y0200921D03*
X0340136Y0198953D03*
X0340136Y0196984D03*
X0340136Y0195016D03*
X0340136Y0193047D03*
X0340136Y0191079D03*
X0340136Y0189110D03*
X0340136Y0187142D03*
X0340136Y0185173D03*
X0485364Y0185173D03*
X0485364Y0187142D03*
X0485364Y0189110D03*
X0485364Y0191079D03*
X0485364Y0193047D03*
X0485364Y0195016D03*
X0485364Y0196984D03*
X0485364Y0198953D03*
X0485364Y0200921D03*
X0485364Y0202890D03*
X0485364Y0204858D03*
X0485364Y0206827D03*
X0512136Y0206827D03*
X0512136Y0204858D03*
X0512136Y0202890D03*
X0512136Y0200921D03*
X0512136Y0198953D03*
X0512136Y0196984D03*
X0512136Y0195016D03*
X0512136Y0193047D03*
X0512136Y0191079D03*
X0512136Y0189110D03*
X0512136Y0187142D03*
X0512136Y0185173D03*
X0512136Y0297173D03*
X0512136Y0299142D03*
X0512136Y0301110D03*
X0512136Y0303079D03*
X0512136Y0305047D03*
X0512136Y0307016D03*
X0512136Y0308984D03*
X0512136Y0310953D03*
X0512136Y0312921D03*
X0512136Y0314890D03*
X0512136Y0316858D03*
X0512136Y0318827D03*
X0485364Y0318827D03*
X0485364Y0316858D03*
X0485364Y0314890D03*
X0485364Y0312921D03*
X0485364Y0310953D03*
X0485364Y0308984D03*
X0485364Y0307016D03*
X0485364Y0305047D03*
X0485364Y0303079D03*
X0485364Y0301110D03*
X0485364Y0299142D03*
X0485364Y0297173D03*
X0340136Y0297173D03*
X0340136Y0299142D03*
X0340136Y0301110D03*
X0340136Y0303079D03*
X0340136Y0305047D03*
X0340136Y0307016D03*
X0340136Y0308984D03*
X0340136Y0310953D03*
X0340136Y0312921D03*
X0340136Y0314890D03*
X0340136Y0316858D03*
X0340136Y0318827D03*
X0313364Y0318827D03*
X0313364Y0316858D03*
X0313364Y0314890D03*
X0313364Y0312921D03*
X0313364Y0310953D03*
X0313364Y0308984D03*
X0313364Y0307016D03*
X0313364Y0305047D03*
X0313364Y0303079D03*
X0313364Y0301110D03*
X0313364Y0299142D03*
X0313364Y0297173D03*
X0168136Y0297173D03*
X0168136Y0299142D03*
X0168136Y0301110D03*
X0168136Y0303079D03*
X0168136Y0305047D03*
X0168136Y0307016D03*
X0168136Y0308984D03*
X0168136Y0310953D03*
X0168136Y0312921D03*
X0168136Y0314890D03*
X0168136Y0316858D03*
X0168136Y0318827D03*
X0141364Y0318827D03*
X0141364Y0316858D03*
X0141364Y0314890D03*
X0141364Y0312921D03*
X0141364Y0310953D03*
X0141364Y0308984D03*
X0141364Y0307016D03*
X0141364Y0305047D03*
X0141364Y0303079D03*
X0141364Y0301110D03*
X0141364Y0299142D03*
X0141364Y0297173D03*
M02*
