G75*
%MOIN*%
%OFA0B0*%
%FSLAX25Y25*%
%IPPOS*%
%LPD*%
%AMOC8*
5,1,8,0,0,1.08239X$1,22.5*
%
%ADD10C,0.07493*%
%ADD11C,0.04343*%
%ADD12C,0.08200*%
%ADD13C,0.03556*%
%ADD14C,0.04737*%
%ADD15R,0.05131X0.04737*%
%ADD16R,0.12611X0.04737*%
%ADD17R,0.03300X0.05800*%
%ADD18C,0.03800*%
%ADD19C,0.12800*%
%ADD20R,0.04068X0.03280*%
%ADD21R,0.04737X0.05131*%
%ADD22R,0.04343X0.03950*%
%ADD23C,0.00500*%
%ADD24C,0.05000*%
%ADD25C,0.06706*%
D10*
X0214412Y0143500D03*
X0401412Y0143500D03*
X0588412Y0143500D03*
X0588412Y0265500D03*
X0401412Y0265500D03*
X0214412Y0265500D03*
X0214412Y0387500D03*
X0401412Y0387500D03*
X0588412Y0387500D03*
D11*
X0469317Y0288500D03*
X0457506Y0288500D03*
X0282317Y0288500D03*
X0270506Y0288500D03*
X0095317Y0288500D03*
X0083506Y0288500D03*
X0083506Y0166500D03*
X0095317Y0166500D03*
X0270506Y0166500D03*
X0282317Y0166500D03*
X0457506Y0166500D03*
X0469317Y0166500D03*
X0469317Y0044500D03*
X0457506Y0044500D03*
X0282317Y0044500D03*
X0270506Y0044500D03*
X0095317Y0044500D03*
X0083506Y0044500D03*
D12*
X0114412Y0043500D03*
X0124412Y0043500D03*
X0134412Y0043500D03*
X0144412Y0043500D03*
X0154412Y0043500D03*
X0164412Y0043500D03*
X0174412Y0043500D03*
X0184412Y0043500D03*
X0194412Y0043500D03*
X0204412Y0043500D03*
X0214412Y0043500D03*
X0214412Y0033500D03*
X0204412Y0033500D03*
X0194412Y0033500D03*
X0184412Y0033500D03*
X0174412Y0033500D03*
X0164412Y0033500D03*
X0154412Y0033500D03*
X0144412Y0033500D03*
X0134412Y0033500D03*
X0124412Y0033500D03*
X0114412Y0033500D03*
X0109412Y0068500D03*
X0109412Y0078500D03*
X0114412Y0133500D03*
X0124412Y0133500D03*
X0134412Y0133500D03*
X0144412Y0133500D03*
X0154412Y0133500D03*
X0164412Y0133500D03*
X0174412Y0133500D03*
X0184412Y0133500D03*
X0194412Y0133500D03*
X0204412Y0133500D03*
X0214412Y0133500D03*
X0204412Y0143500D03*
X0194412Y0143500D03*
X0184412Y0143500D03*
X0174412Y0143500D03*
X0164412Y0143500D03*
X0154412Y0143500D03*
X0144412Y0143500D03*
X0134412Y0143500D03*
X0124412Y0143500D03*
X0114412Y0143500D03*
X0114412Y0155500D03*
X0124412Y0155500D03*
X0134412Y0155500D03*
X0144412Y0155500D03*
X0154412Y0155500D03*
X0164412Y0155500D03*
X0174412Y0155500D03*
X0184412Y0155500D03*
X0194412Y0155500D03*
X0204412Y0155500D03*
X0214412Y0155500D03*
X0214412Y0165500D03*
X0204412Y0165500D03*
X0194412Y0165500D03*
X0184412Y0165500D03*
X0174412Y0165500D03*
X0164412Y0165500D03*
X0154412Y0165500D03*
X0144412Y0165500D03*
X0134412Y0165500D03*
X0124412Y0165500D03*
X0114412Y0165500D03*
X0109412Y0190500D03*
X0109412Y0200500D03*
X0114412Y0255500D03*
X0124412Y0255500D03*
X0134412Y0255500D03*
X0144412Y0255500D03*
X0154412Y0255500D03*
X0164412Y0255500D03*
X0174412Y0255500D03*
X0184412Y0255500D03*
X0194412Y0255500D03*
X0204412Y0255500D03*
X0214412Y0255500D03*
X0204412Y0265500D03*
X0194412Y0265500D03*
X0184412Y0265500D03*
X0174412Y0265500D03*
X0164412Y0265500D03*
X0154412Y0265500D03*
X0144412Y0265500D03*
X0134412Y0265500D03*
X0124412Y0265500D03*
X0114412Y0265500D03*
X0114412Y0277500D03*
X0124412Y0277500D03*
X0134412Y0277500D03*
X0144412Y0277500D03*
X0154412Y0277500D03*
X0164412Y0277500D03*
X0174412Y0277500D03*
X0184412Y0277500D03*
X0194412Y0277500D03*
X0204412Y0277500D03*
X0214412Y0277500D03*
X0214412Y0287500D03*
X0204412Y0287500D03*
X0194412Y0287500D03*
X0184412Y0287500D03*
X0174412Y0287500D03*
X0164412Y0287500D03*
X0154412Y0287500D03*
X0144412Y0287500D03*
X0134412Y0287500D03*
X0124412Y0287500D03*
X0114412Y0287500D03*
X0109412Y0312500D03*
X0109412Y0322500D03*
X0114412Y0377500D03*
X0124412Y0377500D03*
X0134412Y0377500D03*
X0144412Y0377500D03*
X0154412Y0377500D03*
X0164412Y0377500D03*
X0174412Y0377500D03*
X0184412Y0377500D03*
X0194412Y0377500D03*
X0204412Y0377500D03*
X0214412Y0377500D03*
X0204412Y0387500D03*
X0194412Y0387500D03*
X0184412Y0387500D03*
X0174412Y0387500D03*
X0164412Y0387500D03*
X0154412Y0387500D03*
X0144412Y0387500D03*
X0134412Y0387500D03*
X0124412Y0387500D03*
X0114412Y0387500D03*
X0234412Y0307500D03*
X0234412Y0297500D03*
X0296412Y0312500D03*
X0296412Y0322500D03*
X0301412Y0287500D03*
X0311412Y0287500D03*
X0321412Y0287500D03*
X0331412Y0287500D03*
X0341412Y0287500D03*
X0351412Y0287500D03*
X0361412Y0287500D03*
X0371412Y0287500D03*
X0381412Y0287500D03*
X0391412Y0287500D03*
X0401412Y0287500D03*
X0401412Y0277500D03*
X0391412Y0277500D03*
X0381412Y0277500D03*
X0371412Y0277500D03*
X0361412Y0277500D03*
X0351412Y0277500D03*
X0341412Y0277500D03*
X0331412Y0277500D03*
X0321412Y0277500D03*
X0311412Y0277500D03*
X0301412Y0277500D03*
X0301412Y0265500D03*
X0311412Y0265500D03*
X0321412Y0265500D03*
X0331412Y0265500D03*
X0341412Y0265500D03*
X0351412Y0265500D03*
X0361412Y0265500D03*
X0371412Y0265500D03*
X0381412Y0265500D03*
X0391412Y0265500D03*
X0391412Y0255500D03*
X0381412Y0255500D03*
X0371412Y0255500D03*
X0361412Y0255500D03*
X0351412Y0255500D03*
X0341412Y0255500D03*
X0331412Y0255500D03*
X0321412Y0255500D03*
X0311412Y0255500D03*
X0301412Y0255500D03*
X0296412Y0200500D03*
X0296412Y0190500D03*
X0301412Y0165500D03*
X0311412Y0165500D03*
X0321412Y0165500D03*
X0331412Y0165500D03*
X0341412Y0165500D03*
X0351412Y0165500D03*
X0361412Y0165500D03*
X0371412Y0165500D03*
X0381412Y0165500D03*
X0391412Y0165500D03*
X0401412Y0165500D03*
X0401412Y0155500D03*
X0391412Y0155500D03*
X0381412Y0155500D03*
X0371412Y0155500D03*
X0361412Y0155500D03*
X0351412Y0155500D03*
X0341412Y0155500D03*
X0331412Y0155500D03*
X0321412Y0155500D03*
X0311412Y0155500D03*
X0301412Y0155500D03*
X0301412Y0143500D03*
X0311412Y0143500D03*
X0321412Y0143500D03*
X0331412Y0143500D03*
X0341412Y0143500D03*
X0351412Y0143500D03*
X0361412Y0143500D03*
X0371412Y0143500D03*
X0381412Y0143500D03*
X0391412Y0143500D03*
X0391412Y0133500D03*
X0381412Y0133500D03*
X0371412Y0133500D03*
X0361412Y0133500D03*
X0351412Y0133500D03*
X0341412Y0133500D03*
X0331412Y0133500D03*
X0321412Y0133500D03*
X0311412Y0133500D03*
X0301412Y0133500D03*
X0234412Y0175500D03*
X0234412Y0185500D03*
X0401412Y0133500D03*
X0421412Y0175500D03*
X0421412Y0185500D03*
X0483412Y0190500D03*
X0483412Y0200500D03*
X0488412Y0165500D03*
X0498412Y0165500D03*
X0508412Y0165500D03*
X0518412Y0165500D03*
X0528412Y0165500D03*
X0538412Y0165500D03*
X0548412Y0165500D03*
X0558412Y0165500D03*
X0568412Y0165500D03*
X0578412Y0165500D03*
X0588412Y0165500D03*
X0588412Y0155500D03*
X0578412Y0155500D03*
X0568412Y0155500D03*
X0558412Y0155500D03*
X0548412Y0155500D03*
X0538412Y0155500D03*
X0528412Y0155500D03*
X0518412Y0155500D03*
X0508412Y0155500D03*
X0498412Y0155500D03*
X0488412Y0155500D03*
X0488412Y0143500D03*
X0498412Y0143500D03*
X0508412Y0143500D03*
X0518412Y0143500D03*
X0528412Y0143500D03*
X0538412Y0143500D03*
X0548412Y0143500D03*
X0558412Y0143500D03*
X0568412Y0143500D03*
X0578412Y0143500D03*
X0578412Y0133500D03*
X0588412Y0133500D03*
X0568412Y0133500D03*
X0558412Y0133500D03*
X0548412Y0133500D03*
X0538412Y0133500D03*
X0528412Y0133500D03*
X0518412Y0133500D03*
X0508412Y0133500D03*
X0498412Y0133500D03*
X0488412Y0133500D03*
X0483412Y0078500D03*
X0483412Y0068500D03*
X0488412Y0043500D03*
X0498412Y0043500D03*
X0508412Y0043500D03*
X0518412Y0043500D03*
X0528412Y0043500D03*
X0538412Y0043500D03*
X0548412Y0043500D03*
X0558412Y0043500D03*
X0568412Y0043500D03*
X0578412Y0043500D03*
X0588412Y0043500D03*
X0588412Y0033500D03*
X0578412Y0033500D03*
X0568412Y0033500D03*
X0558412Y0033500D03*
X0548412Y0033500D03*
X0538412Y0033500D03*
X0528412Y0033500D03*
X0518412Y0033500D03*
X0508412Y0033500D03*
X0498412Y0033500D03*
X0488412Y0033500D03*
X0421412Y0053500D03*
X0421412Y0063500D03*
X0401412Y0043500D03*
X0401412Y0033500D03*
X0391412Y0033500D03*
X0381412Y0033500D03*
X0371412Y0033500D03*
X0371412Y0043500D03*
X0381412Y0043500D03*
X0391412Y0043500D03*
X0361412Y0043500D03*
X0351412Y0043500D03*
X0351412Y0033500D03*
X0361412Y0033500D03*
X0341412Y0033500D03*
X0331412Y0033500D03*
X0321412Y0033500D03*
X0321412Y0043500D03*
X0331412Y0043500D03*
X0341412Y0043500D03*
X0311412Y0043500D03*
X0301412Y0043500D03*
X0301412Y0033500D03*
X0311412Y0033500D03*
X0296412Y0068500D03*
X0296412Y0078500D03*
X0234412Y0063500D03*
X0234412Y0053500D03*
X0401412Y0255500D03*
X0421412Y0297500D03*
X0421412Y0307500D03*
X0483412Y0312500D03*
X0483412Y0322500D03*
X0488412Y0287500D03*
X0498412Y0287500D03*
X0508412Y0287500D03*
X0518412Y0287500D03*
X0528412Y0287500D03*
X0538412Y0287500D03*
X0548412Y0287500D03*
X0558412Y0287500D03*
X0568412Y0287500D03*
X0578412Y0287500D03*
X0588412Y0287500D03*
X0588412Y0277500D03*
X0578412Y0277500D03*
X0568412Y0277500D03*
X0558412Y0277500D03*
X0548412Y0277500D03*
X0538412Y0277500D03*
X0528412Y0277500D03*
X0518412Y0277500D03*
X0508412Y0277500D03*
X0498412Y0277500D03*
X0488412Y0277500D03*
X0488412Y0265500D03*
X0498412Y0265500D03*
X0508412Y0265500D03*
X0518412Y0265500D03*
X0528412Y0265500D03*
X0538412Y0265500D03*
X0548412Y0265500D03*
X0558412Y0265500D03*
X0568412Y0265500D03*
X0578412Y0265500D03*
X0578412Y0255500D03*
X0588412Y0255500D03*
X0568412Y0255500D03*
X0558412Y0255500D03*
X0548412Y0255500D03*
X0538412Y0255500D03*
X0528412Y0255500D03*
X0518412Y0255500D03*
X0508412Y0255500D03*
X0498412Y0255500D03*
X0488412Y0255500D03*
X0608412Y0297500D03*
X0608412Y0307500D03*
X0588412Y0377500D03*
X0578412Y0377500D03*
X0568412Y0377500D03*
X0568412Y0387500D03*
X0578412Y0387500D03*
X0558412Y0387500D03*
X0548412Y0387500D03*
X0538412Y0387500D03*
X0538412Y0377500D03*
X0548412Y0377500D03*
X0558412Y0377500D03*
X0528412Y0377500D03*
X0518412Y0377500D03*
X0518412Y0387500D03*
X0528412Y0387500D03*
X0508412Y0387500D03*
X0498412Y0387500D03*
X0488412Y0387500D03*
X0488412Y0377500D03*
X0498412Y0377500D03*
X0508412Y0377500D03*
X0401412Y0377500D03*
X0391412Y0377500D03*
X0381412Y0377500D03*
X0371412Y0377500D03*
X0371412Y0387500D03*
X0381412Y0387500D03*
X0391412Y0387500D03*
X0361412Y0387500D03*
X0351412Y0387500D03*
X0351412Y0377500D03*
X0361412Y0377500D03*
X0341412Y0377500D03*
X0331412Y0377500D03*
X0321412Y0377500D03*
X0321412Y0387500D03*
X0331412Y0387500D03*
X0341412Y0387500D03*
X0311412Y0387500D03*
X0301412Y0387500D03*
X0301412Y0377500D03*
X0311412Y0377500D03*
X0608412Y0185500D03*
X0608412Y0175500D03*
X0608412Y0063500D03*
X0608412Y0053500D03*
D13*
X0463412Y0128957D03*
X0463412Y0136043D03*
X0276412Y0136043D03*
X0276412Y0128957D03*
X0089412Y0128957D03*
X0089412Y0136043D03*
X0089412Y0250957D03*
X0089412Y0258043D03*
X0089412Y0372957D03*
X0089412Y0380043D03*
X0276412Y0380043D03*
X0276412Y0372957D03*
X0463412Y0372957D03*
X0463412Y0380043D03*
X0463412Y0258043D03*
X0463412Y0250957D03*
X0276412Y0250957D03*
X0276412Y0258043D03*
D14*
X0069412Y0044000D03*
X0236412Y0130900D03*
X0256412Y0166000D03*
X0236412Y0252900D03*
X0256412Y0288000D03*
X0236412Y0374900D03*
X0101412Y0400750D03*
X0069412Y0288000D03*
X0069412Y0166000D03*
X0256412Y0044000D03*
X0423412Y0130900D03*
X0443412Y0166000D03*
X0423412Y0252900D03*
X0443412Y0288000D03*
X0423412Y0374900D03*
X0576412Y0400750D03*
X0610412Y0374900D03*
X0610412Y0252900D03*
X0610412Y0130900D03*
X0443412Y0044000D03*
D15*
X0506065Y0080500D03*
X0512758Y0080500D03*
X0325758Y0080500D03*
X0319065Y0080500D03*
X0138758Y0080500D03*
X0132065Y0080500D03*
X0132065Y0202500D03*
X0138758Y0202500D03*
X0319065Y0202500D03*
X0325758Y0202500D03*
X0506065Y0202500D03*
X0512758Y0202500D03*
X0512758Y0324500D03*
X0506065Y0324500D03*
X0325758Y0324500D03*
X0319065Y0324500D03*
X0138758Y0324500D03*
X0132065Y0324500D03*
D16*
X0157884Y0321189D03*
X0157884Y0313315D03*
X0157884Y0305441D03*
X0157884Y0329063D03*
X0157884Y0336937D03*
X0157884Y0344811D03*
X0157884Y0352685D03*
X0157884Y0360559D03*
X0216939Y0360559D03*
X0216939Y0352685D03*
X0216939Y0344811D03*
X0216939Y0336937D03*
X0216939Y0329063D03*
X0216939Y0321189D03*
X0216939Y0313315D03*
X0216939Y0305441D03*
X0216939Y0238559D03*
X0216939Y0230685D03*
X0216939Y0222811D03*
X0216939Y0214937D03*
X0216939Y0207063D03*
X0216939Y0199189D03*
X0216939Y0191315D03*
X0216939Y0183441D03*
X0157884Y0183441D03*
X0157884Y0191315D03*
X0157884Y0199189D03*
X0157884Y0207063D03*
X0157884Y0214937D03*
X0157884Y0222811D03*
X0157884Y0230685D03*
X0157884Y0238559D03*
X0344884Y0238559D03*
X0344884Y0230685D03*
X0344884Y0222811D03*
X0344884Y0214937D03*
X0344884Y0207063D03*
X0344884Y0199189D03*
X0344884Y0191315D03*
X0344884Y0183441D03*
X0403939Y0183441D03*
X0403939Y0191315D03*
X0403939Y0199189D03*
X0403939Y0207063D03*
X0403939Y0214937D03*
X0403939Y0222811D03*
X0403939Y0230685D03*
X0403939Y0238559D03*
X0403939Y0305441D03*
X0403939Y0313315D03*
X0403939Y0321189D03*
X0403939Y0329063D03*
X0403939Y0336937D03*
X0403939Y0344811D03*
X0403939Y0352685D03*
X0403939Y0360559D03*
X0344884Y0360559D03*
X0344884Y0352685D03*
X0344884Y0344811D03*
X0344884Y0336937D03*
X0344884Y0329063D03*
X0344884Y0321189D03*
X0344884Y0313315D03*
X0344884Y0305441D03*
X0531884Y0305441D03*
X0531884Y0313315D03*
X0531884Y0321189D03*
X0531884Y0329063D03*
X0531884Y0336937D03*
X0531884Y0344811D03*
X0531884Y0352685D03*
X0531884Y0360559D03*
X0590939Y0360559D03*
X0590939Y0352685D03*
X0590939Y0344811D03*
X0590939Y0336937D03*
X0590939Y0329063D03*
X0590939Y0321189D03*
X0590939Y0313315D03*
X0590939Y0305441D03*
X0590939Y0238559D03*
X0590939Y0230685D03*
X0590939Y0222811D03*
X0590939Y0214937D03*
X0590939Y0207063D03*
X0590939Y0199189D03*
X0590939Y0191315D03*
X0590939Y0183441D03*
X0531884Y0183441D03*
X0531884Y0191315D03*
X0531884Y0199189D03*
X0531884Y0207063D03*
X0531884Y0214937D03*
X0531884Y0222811D03*
X0531884Y0230685D03*
X0531884Y0238559D03*
X0531884Y0116559D03*
X0531884Y0108685D03*
X0531884Y0100811D03*
X0531884Y0092937D03*
X0531884Y0085063D03*
X0531884Y0077189D03*
X0531884Y0069315D03*
X0531884Y0061441D03*
X0590939Y0061441D03*
X0590939Y0069315D03*
X0590939Y0077189D03*
X0590939Y0085063D03*
X0590939Y0092937D03*
X0590939Y0100811D03*
X0590939Y0108685D03*
X0590939Y0116559D03*
X0403939Y0116559D03*
X0403939Y0108685D03*
X0403939Y0100811D03*
X0403939Y0092937D03*
X0403939Y0085063D03*
X0403939Y0077189D03*
X0403939Y0069315D03*
X0403939Y0061441D03*
X0344884Y0061441D03*
X0344884Y0069315D03*
X0344884Y0077189D03*
X0344884Y0085063D03*
X0344884Y0092937D03*
X0344884Y0100811D03*
X0344884Y0108685D03*
X0344884Y0116559D03*
X0216939Y0116559D03*
X0216939Y0108685D03*
X0216939Y0100811D03*
X0216939Y0092937D03*
X0216939Y0085063D03*
X0216939Y0077189D03*
X0216939Y0069315D03*
X0216939Y0061441D03*
X0157884Y0061441D03*
X0157884Y0069315D03*
X0157884Y0077189D03*
X0157884Y0085063D03*
X0157884Y0092937D03*
X0157884Y0100811D03*
X0157884Y0108685D03*
X0157884Y0116559D03*
D17*
X0143012Y0061500D03*
X0139812Y0061500D03*
X0129512Y0061500D03*
X0126312Y0061500D03*
X0114212Y0057600D03*
X0110212Y0057600D03*
X0297212Y0057600D03*
X0301212Y0057600D03*
X0313312Y0061500D03*
X0316512Y0061500D03*
X0326812Y0061500D03*
X0330012Y0061500D03*
X0484212Y0057600D03*
X0488212Y0057600D03*
X0500312Y0061500D03*
X0503512Y0061500D03*
X0513812Y0061500D03*
X0517012Y0061500D03*
X0488212Y0179600D03*
X0484212Y0179600D03*
X0500312Y0183500D03*
X0503512Y0183500D03*
X0513812Y0183500D03*
X0517012Y0183500D03*
X0330012Y0183500D03*
X0326812Y0183500D03*
X0316512Y0183500D03*
X0313312Y0183500D03*
X0301212Y0179600D03*
X0297212Y0179600D03*
X0143012Y0183500D03*
X0139812Y0183500D03*
X0129512Y0183500D03*
X0126312Y0183500D03*
X0114212Y0179600D03*
X0110212Y0179600D03*
X0110212Y0301600D03*
X0114212Y0301600D03*
X0126312Y0305500D03*
X0129512Y0305500D03*
X0139812Y0305500D03*
X0143012Y0305500D03*
X0297212Y0301600D03*
X0301212Y0301600D03*
X0313312Y0305500D03*
X0316512Y0305500D03*
X0326812Y0305500D03*
X0330012Y0305500D03*
X0484212Y0301600D03*
X0488212Y0301600D03*
X0500312Y0305500D03*
X0503512Y0305500D03*
X0513812Y0305500D03*
X0517012Y0305500D03*
D18*
X0563412Y0297500D03*
X0573412Y0297500D03*
X0386412Y0297500D03*
X0376412Y0297500D03*
X0199412Y0297500D03*
X0189412Y0297500D03*
X0189412Y0175500D03*
X0199412Y0175500D03*
X0376412Y0175500D03*
X0386412Y0175500D03*
X0563412Y0175500D03*
X0573412Y0175500D03*
X0573412Y0053500D03*
X0563412Y0053500D03*
X0386412Y0053500D03*
X0376412Y0053500D03*
X0199412Y0053500D03*
X0189412Y0053500D03*
D19*
X0229412Y0038500D03*
X0229412Y0138500D03*
X0229412Y0160500D03*
X0229412Y0260500D03*
X0229412Y0282500D03*
X0229412Y0382500D03*
X0416412Y0382500D03*
X0416412Y0282500D03*
X0416412Y0260500D03*
X0416412Y0160500D03*
X0416412Y0138500D03*
X0416412Y0038500D03*
X0603412Y0038500D03*
X0603412Y0138500D03*
X0603412Y0160500D03*
X0603412Y0260500D03*
X0603412Y0282500D03*
X0603412Y0382500D03*
D20*
X0470912Y0323028D03*
X0470912Y0313972D03*
X0283912Y0313972D03*
X0283912Y0323028D03*
X0096912Y0323028D03*
X0096912Y0313972D03*
X0096912Y0201028D03*
X0096912Y0191972D03*
X0096912Y0079028D03*
X0096912Y0069972D03*
X0283912Y0069972D03*
X0283912Y0079028D03*
X0470912Y0079028D03*
X0470912Y0069972D03*
X0470912Y0191972D03*
X0470912Y0201028D03*
X0283912Y0201028D03*
X0283912Y0191972D03*
D21*
X0280412Y0213154D03*
X0280412Y0219846D03*
X0467412Y0219846D03*
X0467412Y0213154D03*
X0467412Y0097846D03*
X0467412Y0091154D03*
X0280412Y0091154D03*
X0280412Y0097846D03*
X0093412Y0097846D03*
X0093412Y0091154D03*
X0093412Y0213154D03*
X0093412Y0219846D03*
X0093412Y0335154D03*
X0093412Y0341846D03*
X0280412Y0341846D03*
X0280412Y0335154D03*
X0467412Y0335154D03*
X0467412Y0341846D03*
D22*
X0462849Y0321740D03*
X0462849Y0314260D03*
X0454581Y0318000D03*
X0275849Y0314260D03*
X0275849Y0321740D03*
X0267581Y0318000D03*
X0088849Y0314260D03*
X0088849Y0321740D03*
X0080581Y0318000D03*
X0088849Y0199740D03*
X0080581Y0196000D03*
X0088849Y0192260D03*
X0267581Y0196000D03*
X0275849Y0192260D03*
X0275849Y0199740D03*
X0454581Y0196000D03*
X0462849Y0192260D03*
X0462849Y0199740D03*
X0462849Y0077740D03*
X0454581Y0074000D03*
X0462849Y0070260D03*
X0275849Y0070260D03*
X0267581Y0074000D03*
X0275849Y0077740D03*
X0088849Y0077740D03*
X0080581Y0074000D03*
X0088849Y0070260D03*
D23*
X0111462Y0058100D02*
X0111462Y0057100D01*
X0112962Y0057100D01*
X0112962Y0058100D01*
X0111462Y0058100D01*
X0111462Y0057912D02*
X0112962Y0057912D01*
X0112962Y0057414D02*
X0111462Y0057414D01*
X0298462Y0057414D02*
X0299962Y0057414D01*
X0299962Y0057100D02*
X0299962Y0058100D01*
X0298462Y0058100D01*
X0298462Y0057100D01*
X0299962Y0057100D01*
X0299962Y0057912D02*
X0298462Y0057912D01*
X0485462Y0057912D02*
X0486962Y0057912D01*
X0486962Y0058100D02*
X0486962Y0057100D01*
X0485462Y0057100D01*
X0485462Y0058100D01*
X0486962Y0058100D01*
X0486962Y0057414D02*
X0485462Y0057414D01*
X0485462Y0179100D02*
X0486962Y0179100D01*
X0486962Y0180100D01*
X0485462Y0180100D01*
X0485462Y0179100D01*
X0485462Y0179549D02*
X0486962Y0179549D01*
X0486962Y0180047D02*
X0485462Y0180047D01*
X0299962Y0180047D02*
X0298462Y0180047D01*
X0298462Y0180100D02*
X0298462Y0179100D01*
X0299962Y0179100D01*
X0299962Y0180100D01*
X0298462Y0180100D01*
X0298462Y0179549D02*
X0299962Y0179549D01*
X0112962Y0179549D02*
X0111462Y0179549D01*
X0111462Y0179100D02*
X0112962Y0179100D01*
X0112962Y0180100D01*
X0111462Y0180100D01*
X0111462Y0179100D01*
X0111462Y0180047D02*
X0112962Y0180047D01*
X0112962Y0301100D02*
X0112962Y0302100D01*
X0111462Y0302100D01*
X0111462Y0301100D01*
X0112962Y0301100D01*
X0112962Y0301186D02*
X0111462Y0301186D01*
X0111462Y0301684D02*
X0112962Y0301684D01*
X0298462Y0301684D02*
X0299962Y0301684D01*
X0299962Y0302100D02*
X0299962Y0301100D01*
X0298462Y0301100D01*
X0298462Y0302100D01*
X0299962Y0302100D01*
X0299962Y0301186D02*
X0298462Y0301186D01*
X0485462Y0301186D02*
X0486962Y0301186D01*
X0486962Y0301100D02*
X0486962Y0302100D01*
X0485462Y0302100D01*
X0485462Y0301100D01*
X0486962Y0301100D01*
X0486962Y0301684D02*
X0485462Y0301684D01*
D24*
X0097847Y0020250D02*
X0097849Y0020369D01*
X0097855Y0020488D01*
X0097865Y0020607D01*
X0097879Y0020725D01*
X0097897Y0020843D01*
X0097918Y0020960D01*
X0097944Y0021076D01*
X0097974Y0021192D01*
X0098007Y0021306D01*
X0098044Y0021419D01*
X0098085Y0021531D01*
X0098130Y0021642D01*
X0098178Y0021751D01*
X0098230Y0021858D01*
X0098286Y0021963D01*
X0098345Y0022067D01*
X0098407Y0022168D01*
X0098473Y0022268D01*
X0098542Y0022365D01*
X0098614Y0022459D01*
X0098690Y0022552D01*
X0098768Y0022641D01*
X0098849Y0022728D01*
X0098934Y0022813D01*
X0099021Y0022894D01*
X0099110Y0022972D01*
X0099203Y0023048D01*
X0099297Y0023120D01*
X0099394Y0023189D01*
X0099494Y0023255D01*
X0099595Y0023317D01*
X0099699Y0023376D01*
X0099804Y0023432D01*
X0099911Y0023484D01*
X0100020Y0023532D01*
X0100131Y0023577D01*
X0100243Y0023618D01*
X0100356Y0023655D01*
X0100470Y0023688D01*
X0100586Y0023718D01*
X0100702Y0023744D01*
X0100819Y0023765D01*
X0100937Y0023783D01*
X0101055Y0023797D01*
X0101174Y0023807D01*
X0101293Y0023813D01*
X0101412Y0023815D01*
X0101531Y0023813D01*
X0101650Y0023807D01*
X0101769Y0023797D01*
X0101887Y0023783D01*
X0102005Y0023765D01*
X0102122Y0023744D01*
X0102238Y0023718D01*
X0102354Y0023688D01*
X0102468Y0023655D01*
X0102581Y0023618D01*
X0102693Y0023577D01*
X0102804Y0023532D01*
X0102913Y0023484D01*
X0103020Y0023432D01*
X0103125Y0023376D01*
X0103229Y0023317D01*
X0103330Y0023255D01*
X0103430Y0023189D01*
X0103527Y0023120D01*
X0103621Y0023048D01*
X0103714Y0022972D01*
X0103803Y0022894D01*
X0103890Y0022813D01*
X0103975Y0022728D01*
X0104056Y0022641D01*
X0104134Y0022552D01*
X0104210Y0022459D01*
X0104282Y0022365D01*
X0104351Y0022268D01*
X0104417Y0022168D01*
X0104479Y0022067D01*
X0104538Y0021963D01*
X0104594Y0021858D01*
X0104646Y0021751D01*
X0104694Y0021642D01*
X0104739Y0021531D01*
X0104780Y0021419D01*
X0104817Y0021306D01*
X0104850Y0021192D01*
X0104880Y0021076D01*
X0104906Y0020960D01*
X0104927Y0020843D01*
X0104945Y0020725D01*
X0104959Y0020607D01*
X0104969Y0020488D01*
X0104975Y0020369D01*
X0104977Y0020250D01*
X0104975Y0020131D01*
X0104969Y0020012D01*
X0104959Y0019893D01*
X0104945Y0019775D01*
X0104927Y0019657D01*
X0104906Y0019540D01*
X0104880Y0019424D01*
X0104850Y0019308D01*
X0104817Y0019194D01*
X0104780Y0019081D01*
X0104739Y0018969D01*
X0104694Y0018858D01*
X0104646Y0018749D01*
X0104594Y0018642D01*
X0104538Y0018537D01*
X0104479Y0018433D01*
X0104417Y0018332D01*
X0104351Y0018232D01*
X0104282Y0018135D01*
X0104210Y0018041D01*
X0104134Y0017948D01*
X0104056Y0017859D01*
X0103975Y0017772D01*
X0103890Y0017687D01*
X0103803Y0017606D01*
X0103714Y0017528D01*
X0103621Y0017452D01*
X0103527Y0017380D01*
X0103430Y0017311D01*
X0103330Y0017245D01*
X0103229Y0017183D01*
X0103125Y0017124D01*
X0103020Y0017068D01*
X0102913Y0017016D01*
X0102804Y0016968D01*
X0102693Y0016923D01*
X0102581Y0016882D01*
X0102468Y0016845D01*
X0102354Y0016812D01*
X0102238Y0016782D01*
X0102122Y0016756D01*
X0102005Y0016735D01*
X0101887Y0016717D01*
X0101769Y0016703D01*
X0101650Y0016693D01*
X0101531Y0016687D01*
X0101412Y0016685D01*
X0101293Y0016687D01*
X0101174Y0016693D01*
X0101055Y0016703D01*
X0100937Y0016717D01*
X0100819Y0016735D01*
X0100702Y0016756D01*
X0100586Y0016782D01*
X0100470Y0016812D01*
X0100356Y0016845D01*
X0100243Y0016882D01*
X0100131Y0016923D01*
X0100020Y0016968D01*
X0099911Y0017016D01*
X0099804Y0017068D01*
X0099699Y0017124D01*
X0099595Y0017183D01*
X0099494Y0017245D01*
X0099394Y0017311D01*
X0099297Y0017380D01*
X0099203Y0017452D01*
X0099110Y0017528D01*
X0099021Y0017606D01*
X0098934Y0017687D01*
X0098849Y0017772D01*
X0098768Y0017859D01*
X0098690Y0017948D01*
X0098614Y0018041D01*
X0098542Y0018135D01*
X0098473Y0018232D01*
X0098407Y0018332D01*
X0098345Y0018433D01*
X0098286Y0018537D01*
X0098230Y0018642D01*
X0098178Y0018749D01*
X0098130Y0018858D01*
X0098085Y0018969D01*
X0098044Y0019081D01*
X0098007Y0019194D01*
X0097974Y0019308D01*
X0097944Y0019424D01*
X0097918Y0019540D01*
X0097897Y0019657D01*
X0097879Y0019775D01*
X0097865Y0019893D01*
X0097855Y0020012D01*
X0097849Y0020131D01*
X0097847Y0020250D01*
D25*
X0101412Y0020250D03*
M02*
